<svg viewBox="0 0 1080 1080" xmlns="http://www.w3.org/2000/svg" fill-rule="evenodd" clip-rule="evenodd" stroke-linecap="round" stroke-linejoin="round" stroke-miterlimit="1.5"><path d="M335.389 766.022H111.022s-3.292-45.861 0-60.678c2.491-11.209 11.524-20.225 19.756-28.222 8.231-7.996 17.881-18.076 29.633-19.755 23.048-3.293 82.785-3.293 108.656 0 16.726 2.128 37.782 5.363 46.566 19.755 11.054 18.109 19.756 88.9 19.756 88.9zm0-563.033H111.022s-3.292-45.861 0-60.678c2.491-11.21 11.524-20.226 19.756-28.222 8.231-7.996 17.881-18.077 29.633-19.756 23.048-3.292 82.785-3.292 108.656 0 16.726 2.129 37.782 5.364 46.566 19.756 11.054 18.109 19.756 88.9 19.756 88.9z"/><path d="M1048 53.411l-2.822 1010.36M34.822 56.233L32 1066.593m1016-673.104L37.64 390.667m1007.54 565.855L34.82 953.7m1007.54-747.889L37.65 202.989m1001.88 565.855L37.64 766.022m403.582-563.033l293.511 187.678M441.222 766.022L734.733 953.7" fill="none" stroke="#000" stroke-width="26"/><circle cx="34.822" cy="18.233" r="12.557"/><circle cx="1048" cy="18.233" r="12.557"/></svg>