<svg viewBox="0 0 1080 1080" xmlns="http://www.w3.org/2000/svg" fill-rule="evenodd" clip-rule="evenodd" stroke-linecap="round" stroke-linejoin="round" stroke-miterlimit="1.5"><ellipse cx="530.87" cy="541" rx="520.978" ry="527.976" stroke="#000" stroke-width="6.46" fill="none"/><path d="M783 645.996c-3.848.197-16.981 2.574-17 7.004m23-3.004c-3.848.197-16.981 2.574-17 7.004m21-1.506c-3.848.197-16.981 2.574-17 7.004m22-1.502c-3.848.197-18.981 2.574-19 7.004m21-1.004c-3.848.197-16.981 2.574-17 7.004m20-2.008c-3.848.197-16.015 2.761-17 7.004m19-2c-3.848.197-13.324 1.638-16 6.068m17.5-.57c-3.848.197-10.497 1.198-14.401 4.004m18.401 1.498c-3.848.197-8.223.84-14 3.036" fill="none" stroke="#000" stroke-width="3"/><path d="M270.199 823h148.088m236.426 20H955m-293.287-20H967M540 540c318.674-2.875 408.697-413.955 0-525.426M540 540c-318.674 2.875-408.697 413.955 0 525.426" fill="none" stroke="#000" stroke-width="6.5"/><path d="M659.241 301.79C647.889 357.238 598.783 399 540 399c-67.175 0-121.713-54.538-121.713-121.713 0-45.127 24.613-84.551 61.135-105.569 17.843-10.268 38.53-16.144 60.578-16.144" stroke="#000" stroke-width="11" fill="none"/><circle cx="540" cy="277.287" r="152.713" stroke="#000" stroke-width="7.29" fill="none"/><circle cx="540" cy="277.287" r="169.848" stroke="#000" stroke-width="2.88" fill="none"/><circle cx="540" cy="277.287" r="178.173" stroke="#000" stroke-width=".84" fill="none"/><path d="M526.999 95.752c100.192-7.175 187.361 68.342 194.536 168.534 7.175 100.192-68.342 187.361-168.534 194.536-100.192 7.176-187.361-68.342-194.536-168.534-7.175-100.192 68.342-187.36 168.534-194.536z" stroke="#000" stroke-width=".85" stroke-dasharray="5.12,7.68,0,0" fill="none"/><path d="M530.644 91.523c102.526-5.164 189.957 73.882 195.121 176.408 5.163 102.527-73.883 189.957-176.409 195.121-102.526 5.163-189.957-73.883-195.121-176.409-5.163-102.526 73.883-189.957 176.409-195.12z" stroke="#000" stroke-width=".87" stroke-dasharray="5.24,7.85,0,0" fill="none"/><path d="M535.706 87.248c104.886-2.37 191.964 80.86 194.333 185.746 2.37 104.885-80.86 191.963-185.745 194.333-104.886 2.369-191.964-80.861-194.333-185.746-2.37-104.886 80.86-191.963 185.745-194.333z" stroke="#000" stroke-width=".89" stroke-dasharray="5.35,8.03,0,0" fill="none"/><path d="M538.523 83.027c107.215-.815 194.922 85.568 195.737 192.783.815 107.215-85.568 194.922-192.783 195.737-107.215.816-194.922-85.568-195.737-192.783-.815-107.215 85.568-194.922 192.783-195.737z" stroke="#000" stroke-width=".91" stroke-dasharray="5.47,8.2,0,0" fill="none"/><path d="M541.706 78.759c109.571.942 197.764 90.664 196.822 200.235-.942 109.57-90.664 197.763-200.234 196.821-109.571-.942-197.764-90.664-196.822-200.234.942-109.571 90.664-197.763 200.234-196.822z" stroke="#000" stroke-width=".93" stroke-dasharray="5.59,8.38,0,0" fill="none"/><path d="M544.308 74.434c111.957 2.378 200.923 95.204 198.545 207.161-2.378 111.958-95.203 200.923-207.161 198.545-111.957-2.377-200.923-95.203-198.545-207.161 2.378-111.957 95.203-200.922 207.161-198.545z" stroke="#000" stroke-width=".95" stroke-dasharray="5.71,8.57,0,0" fill="none"/><path d="M547.059 70.049c114.378 3.897 204.075 99.92 200.179 214.297-3.896 114.378-99.92 204.075-214.297 200.179-114.378-3.896-204.075-99.919-200.179-214.297 3.896-114.378 99.92-204.075 214.297-200.179z" stroke="#000" stroke-width=".97" stroke-dasharray="5.84,8.75,0,0" fill="none"/><path d="M540 681c-16.383 0-32.267 3.217-47.357 9.571-71.952 30.299-96.635 123.295-49.859 185.35 15.058 19.975 37.576 36.907 62.029 43.332m66.944.981c10.376-2.042 27.168-10.853 35.817-16.682 40.697-27.422 61.408-77.143 51.664-125.356C647.938 722.284 596.911 681 540 681M268.199 802.713h712.422M275.199 843H424m-141.801 20H434m-143.801 20H447m-145.801 20H469m-154.801 20H499m-168.801 20H509m62 0h293m-297 20h273m-278 20h249m-253 20h220m-224 20h184m-188 20h137m-338.801-80H514m-144.401 20H519m128-120h293m-307 20h291m-315 20h296m-333 17.234s-.985.045-1 2c-.021 2.782 6 2.192 6 2.192h308M399.199 1003H523m-91.901 20H528m-53.801 20H533m7 22.43l61-2.426M499 923c6.828 0 7 .13 7-2 0 0 .592-1.584-1-1.747" stroke="#000" stroke-width="6.5" fill="none"/><path d="M540 681.092c67.124 0 121.621 54.496 121.621 121.621 0 .061-243.242.034-243.242 0 0-67.125 54.497-121.621 121.621-121.621z"/><path d="M540 681V540" fill="none" stroke="#000" stroke-width="4"/><path d="M265 992V595.287m-63 350.426V456m-58 434.856V519.144m-60 291V406.431" fill="none" stroke="#000" stroke-width="7"/><path d="M540 802.749L347.251 610" fill="none" stroke="#000" stroke-width="4"/><path d="M540 802.749L437.919 555.9M540 802.749L282.2 695.991" fill="none" stroke="#000" stroke-width="4" stroke-dasharray="12,24,0,0"/><path d="M540 802.749L1010.749 332" fill="none" stroke="#000" stroke-width="4"/><path d="M540 802.749l117.899-285.1m168.268-406.9l-35.109 84.9" fill="none" stroke="#000" stroke-width="4" stroke-dasharray="12,24,0,0"/><path d="M551.852 796.311c.441.294.976.546 1.235 1.847l-.152.766c-.431.644-.438.651-1.083 1.082l-11.087 4.591h-1.531c-2.201-1.471-1.082-2.613-1.082-2.613.431-.645.438-.652 1.083-1.082l11.087-4.592s.683-.168 1.53.001zm33.261-13.774c.868.579 1.323 1.404 1.082 2.613l-1.082 1.082-11.087 4.591h-1.531c-.867-.579-1.322-1.404-1.082-2.613l1.083-1.082 11.087-4.591s.683-.169 1.53 0zm33.261-13.774c.645.431.652.438 1.082 1.082v1.531l-1.082 1.082-11.087 4.592h-1.531c-.44-.295-.976-.547-1.234-1.848l.152-.766c.431-.644.438-.651 1.082-1.082l11.087-4.591s.684-.169 1.531 0zm33.261-13.774l1.082 1.083v1.53c-.431.645-.438.652-1.082 1.083l-11.087 4.591h-1.531l-1.082-1.083v-1.53c.43-.645.438-.652 1.082-1.083l11.087-4.591s.683-.169 1.531 0zm33.261-13.774c.644.431.651.438 1.082 1.083v1.531l-1.083 1.082-11.086 4.591h-1.531c-2.201-1.471-1.082-2.613-1.082-2.613.43-.645.438-.652 1.082-1.083l11.087-4.591s.683-.168 1.531 0zm33.261-13.773l1.082 1.082v1.531c-.431.644-.438.651-1.083 1.082l-11.087 4.591h-1.53l-1.083-1.082v-1.531c.431-.644.438-.652 1.083-1.082l11.087-4.592s.683-.168 1.531.001zm33.26-13.774c.645.43.652.438 1.083 1.082v1.531l-1.083 1.082-11.087 4.591h-1.531c-.44-.294-.975-.547-1.234-1.847l.152-.766c.431-.644.438-.652 1.083-1.082l11.087-4.591s.683-.169 1.53 0zm33.261-13.774c2.201 1.471 1.082 2.613 1.082 2.613-.43.645-.437.652-1.082 1.082l-11.087 4.592h-1.531c-.44-.295-.976-.547-1.234-1.848l.152-.766c.431-.644.438-.651 1.083-1.082l11.087-4.591s.683-.169 1.53 0zm66.522-27.548c.644.431.652.438 1.082 1.083v1.531l-1.082 1.082-11.087 4.591h-1.531l-1.082-1.083v-1.53c.43-.645.438-.652 1.082-1.083l11.087-4.591s.683-.168 1.531 0zm33.261-13.773l1.082 1.082v1.531c-.431.644-.438.651-1.083 1.082l-11.087 4.591h-1.53l-1.083-1.082.001-1.531c.43-.645.438-.652 1.082-1.082l11.087-4.592s.683-.168 1.531.001zm33.261-13.774c.644.43.651.438 1.082 1.082v1.531l-1.083 1.082-11.087 4.592-1.53-.001-1.083-1.082v-1.531c.431-.644.438-.652 1.083-1.082l11.087-4.591s.683-.169 1.531 0zm33.26-13.774c2.201 1.471 1.083 2.613 1.083 2.613-.431.645-.438.652-1.083 1.082l-11.087 4.592h-1.531l-1.082-1.083v-1.531l1.083-1.082 11.087-4.591s.683-.169 1.53 0zm33.261-13.774c.645.431.652.438 1.082 1.083v1.53l-1.082 1.083-11.087 4.591h-1.531c-.644-.431-.651-.438-1.082-1.083v-1.53l1.083-1.083 11.086-4.591s.684-.169 1.531 0zm33.261-13.774l1.082 1.083v1.531l-1.082 1.082-11.087 4.591h-1.531l-.649-.434c-.43-.644-.434-.654-.585-1.414l.585-1.414.649-.434 11.087-4.591s.683-.168 1.531 0zm33.261-13.773l1.082 1.082v1.531c-.431.644-.438.651-1.082 1.082l-11.087 4.591c-.761.151-.771.151-1.531 0l-1.082-1.082-.153-.766c.152-.76.156-.769.586-1.414l.649-.433 11.087-4.592s.683-.168 1.531.001z" fill-rule="nonzero"/><path d="M808.612 985c97.037-76.549 118.882-250.378 5.744-286M969 824c-43.232-38.825-100.034-251.89-44.245-323.784" fill="none" stroke="#000" stroke-width="7"/><path d="M814.356 699s32.377 52.423 24.644 64m-24.644-64S766.993 730.584 769 753m45.356-54S767.058 673.516 741 687m73.356 12S796.522 645.466 783 646m31.356 53S866.15 676.12 876 685m-61.644 14s17.451-39.538 27.822-37.006m82.577-161.769s43.715 35.247 41.32 52.472m-41.32-52.472s-59.141 42.145-49.481 62.472m49.481-62.472s-67.114-1.063-71.962 20.2m71.962-20.2s-27.266-40.249-39.762-35.056m39.762 35.056s52.133-14.622 63.799-9.059m-63.799 9.059s14.555-47.509 31.9-53.36" fill="none" stroke="#000" stroke-width="4"/><path d="M768.938 754c2.993 3.619 4.613 8.719 9.062 11m-7.062-18.5c2.993 3.619 4.613 8.719 9.062 11m-6.062-17.5c2.993 3.619 4.613 8.719 9.062 11m-6.062-16.5c2.993 3.619 4.613 8.719 9.062 11m-1.124-20.5c2.993 3.619 4.613 8.719 9.062 11M789 720.5c2.993 3.619 4.613 8.719 9.062 11m-4.938-15.5c2.993 3.619 4.613 8.719 9.062 11m-4.938-15.5c2.993 3.619 4.613 8.719 9.062 11m-4.124-14.5c2.993 3.619 4.613 8.719 9.062 11m-3.752-14.5c2.993 3.619 4.613 8.719 9.062 11m-36.62 13c2.993 3.619 4.613 8.719 9.062 11m50 23.5c-2.607 1.966-5.785 9.545-10 9m10-17c-2.607 1.966-5.785 9.545-10 9m8.275-15.972c-2.607 1.966-5.785 9.545-10 9M835 742c-2.607 1.966-5.785 9.545-10 9m7.275-15c-2.607 1.966-5.785 9.545-10 9m7.275-15c-2.607 1.966-5.785 9.545-10 9m7.275-15c-2.607 1.966-5.786 9.545-10 9m8.275-15c-2.608 1.966-5.786 9.545-10 9m7.274-13c-2.607 1.966-5.785 9.545-10 9M876 685c5.488 4.037 6.109 9.433 6 17m-13-19.047c5.488 4.037 6.109 9.433 6 17m-13-17c5.488 4.037 6.109 9.433 6 17M855.989 685c5.488 4.037 6.109 8.123 6 15.689m-12.011-14.642c5.488 4.038 6.12 8.123 6.011 15.69m-12.022-13.642c5.489 4.037 6.12 7.433 6.011 15m-12.021-12.953c4.595 3.536 6.119 8.026 6.01 13.953m-12.021-11.906c4.192 3.083 6.119 9.933 6.011 14.906m-12.022-12.858c5.488 4.037 6.12 6.433 6.011 14M741 687c-7.685.889-10.532 8.452-6 18m12-20c-7.819.898-10.761 8.467-6 18m13-19.936c-7.819.897-10.761 8.467-6 18m13-18c-7.819.897-10.761 8.467-6 18m13-18c-7.819.897-10.761 8.467-6 18m13-16c-7.819.897-10.761 8.467-6 18m13-16c-7.819.897-10.761 8.467-6 18m13-17c-7.819.897-10.761 8.467-6 18m13.299-15c-7.147.669-10.507 7.105-7 16m14.298-14c-6.708.895-11.717 6.456-8 14m13.149-11c-5.979.12-8.52 7.037-7 10m40.432-44.186s7.004 2.748 7.822 6.122m-12.733-3.061s7.004 2.748 7.822 6.122M833.356 669s7.004 2.748 7.822 6.122m-11.733-2.061s7.005 2.748 7.822 6.123m-10.732-1.062s7.004 2.748 7.821 6.123m-11.732-2.061s7.004 2.748 7.821 6.122m-10.732-1.391s7.004 2.748 7.822 6.122M964 543s-11.359 14.353-11 20m7-26s-11.359 14.353-11 20m7-26s-12.359 15.353-12 21m6.967-25.539s-11.359 14.353-11 20m5.967-24.539s-11.359 14.353-11 20m5.967-24.538s-11.36 14.352-11 20m5.967-24.539s-11.36 14.352-11 20m5.967-24.539s-11.36 14.353-11 20M988.554 491c2.183.634 9.162 8.597 8.446 14m-15.446-14c2.183.634 9.162 8.597 8.446 14m-15.446-14c2.183.634 9.162 8.597 8.446 14m-16.446-14c2.183.634 10.162 9.597 9.446 15m-15.446-13c2.183.634 9.162 8.597 8.446 14m-16.446-13c2.183.634 9.162 8.597 8.446 14m-15.446-12c2.183.634 9.162 8.597 8.446 14m-15.446-12c2.183.634 9.162 8.597 8.446 14m9.655-65.135c1.843-.693 17.014-1.082 17.345 7.433m-23.294-2.433c1.843-.693 17.608-.387 18.345 5.135m-24.294-.135c1.843-.693 17.609-.387 18.346 5.135m-21.294.865c1.843-.693 17.608-.387 18.345 5.135m-22.294.865c1.843-.693 17.608-.387 18.345 5.135m-21.294.865c1.843-.693 17.609-.387 18.346 5.135m-20.621.865c1.843-.693 17.608.284 18.345 5.806m-20.621.194c1.844-.693 15.954.295 16.691 5.817m-18.966.183c3.809-.676 7.206.553 9.469 3.135m-52.561-31.294c-1.643.798-9.254 7.876-7.993 15.294m13.993-14.624c-1.643.798-9.19 10.091-7.993 15.294m13.895-12.624c-1.643.797-9.19 10.09-7.993 15.293m12.895-10.624c-1.643.798-9.19 10.091-7.993 15.294m16.895-5.624c-1.643.797-9.189 10.091-7.993 15.293m12.054-10.293c-1.643.797-5.752 6.184-6.76 11.293m-1.301-21.293c-1.643.797-9.189 10.091-7.993 15.293M853 520c-1.156 3.242-3.936 15.404 0 20m6-27c-1.156 3.242-3.936 15.404 0 20m6-23c-1.156 3.242-3.936 15.404 0 20m6-23c-1.156 3.242-3.936 15.404 0 20m6-22c-1.156 3.242-3.936 15.404 0 20m6-21c-1.156 3.242-3.936 15.404 0 20m6-21c-1.156 3.242-3.936 15.404 0 20m6-20c-1.156 3.242-3.936 15.404 0 20m7-22c-1.156 3.242-4.888 13.404-.952 18M908 501c-1.156 3.242-3.507 8.794-1 14m-32 47.697c1.251 1.829 10.394 7.883 13.774 7.303M875 556.356c1.251 1.828 10.394 7.883 13.774 7.302M876 550.014c1.251 1.829 10.394 7.883 13.774 7.303M879 545.673c1.251 1.828 9.394 6.882 12.774 6.302M882 540.331c1.251 1.828 8.394 6.883 11.774 6.303m-8.387-10.808c1.251 1.828 8.394 6.882 11.774 6.302m-8.387-10.808c1.251 1.829 7.895 6.883 11.274 6.303m-5.887-10.808c1.251 1.828 4.395 5.883 7.774 5.302m-3.774-9.302c1.251 1.828 2.321 4.254 5.774 4.302M902 518.815c1.251 1.828 1.49 3.254 4.944 3.302M488.96 546v-87M655 518.144V411m55 78V296.287M764 439V217" fill="none" stroke="#000" stroke-width="3"/><path d="M27 408l11-9 21-47 16-14v-10h6l20-35 35-20 24.005-49.986L181 197l17 44v18l6 14 19 36v18m-42 170l62-58 23.199-12L295 380.4l11.147-26.128L329 318l18.301 48.4V394l13.303 23L365 452l13 9 20 45 16 5 23.919 44.9" fill="none" stroke="#000" stroke-width="6.5"/><path d="M272 417l-16-29v-20l-29-39-22-11-12-12" fill="none" stroke="#000" stroke-width="6.5"/><path d="M540 540V277.287" fill="none" stroke="#000" stroke-width="3"/><path d="M540 410s-15.451 23.438-20 26c-4.549 2.562-18 3-18 3m208-83s-15.451 23.438-20 26c-4.549 2.562-18 3-18 3m-132 25s15.451 23.438 20 26c4.549 2.562 18 3 18 3m132-83s15.451 23.438 20 26c4.549 2.562 18 3 18 3m-208-95s-15.451 23.438-20 26c-4.549 2.562-9 3-9 3m29-29s15.451 23.438 20 26c4.549 2.562 9 3 9 3m-29 116s-15.451 23.438-20 26c-4.549 2.562-9 1-9 1m199-81s-15.451 23.438-20 26c-4.549 2.562-9 1-9 1m-141 27s15.451 23.438 20 26c4.549 2.562 9 1 9 1m141-81s15.451 23.438 20 26c4.549 2.562 9 1 9 1m-199-94s-15.451 23.438-20 26c-4.549 2.562-9 3-9 3m29-29s15.451 23.438 20 26c4.549 2.562 9 3 9 3m-29 115s-15.451 23.438-20 26c-4.549 2.562-14 2-14 2m204-82s-15.451 23.438-20 26c-4.549 2.562-14 2-14 2m-136 26s15.451 23.438 20 26c4.549 2.562 14 2 14 2m136-82s15.451 23.438 20 26c4.549 2.562 14 2 14 2m-204-94s-15.451 23.438-20 26c-4.549 2.562-9 3-9 3m29-29s15.451 23.438 20 26c4.549 2.562 9 3 9 3m-29-5s-15.451 23.438-20 26c-4.549 2.562-9 3-9 3m199-83s-15.451 23.438-20 26c-4.549 2.562-9 3-9 3m-141 25s15.451 23.438 20 26c4.549 2.562 9 3 9 3m141-83s15.451 23.438 20 26c4.549 2.562 9 3 9 3m-199 49s-15.451 23.438-20 26c-4.549 2.562-9 3-9 3m199-83s-15.451 23.438-20 26c-4.549 2.562-9 3-9 3m-141 25s15.451 23.438 20 26c4.549 2.562 9 3 9 3m141-83s15.451 23.438 20 26c4.549 2.562 9 3 9 3m-199-84s-15.451 23.438-20 26c-4.549 2.562-9 3-9 3m29-29s15.451 23.438 20 26c4.549 2.562 9 3 9 3m-29 116s-15.451 23.438-20 26c-4.549 2.562-9 1-9 1m199-81s-15.451 23.438-20 26c-4.549 2.562-9 1-9 1m-141 27s15.451 23.438 20 26c4.549 2.562 9 1 9 1m141-81s15.451 23.438 20 26c4.549 2.562 9 1 9 1m-199-93s-15.451 23.438-20 26c-4.549 2.562-9 3-9 3m29-29s15.451 23.438 20 26c4.549 2.562 9 3 9 3m-29 116s-15.451 23.438-20 26c-4.549 2.562-14 2-14 2m204-82s-15.451 23.438-20 26c-4.549 2.562-14 2-14 2m-136 26s15.451 23.438 20 26c4.549 2.562 14 2 14 2m136-82s15.451 23.438 20 26c4.549 2.562 14 2 14 2m-204-95s-15.451 23.438-20 26c-4.549 2.562-9 3-9 3m29-29s15.451 23.438 20 26c4.549 2.562 9 3 9 3" fill="none" stroke="#000"/><path d="M540 470s-15.451 23.438-20 26c-4.549 2.562-23 2-23 2m213-82s-15.451 23.438-20 26c-4.549 2.562-23 2-23 2m-127 26s15.451 23.438 20 26c4.549 2.562 23 2 23 2m127-82s15.451 23.438 20 26c4.549 2.562 23 2 23 2m-213-94s-15.451 23.438-20 26c-4.549 2.562-9 3-9 3m199-83s-15.451 23.438-20 26c-4.549 2.562-9 3-9 3m-141 25s15.451 23.438 20 26c4.549 2.562 9 3 9 3m141-83s15.451 23.438 20 26c4.549 2.562 9 3 9 3m-199 49s-15.451 23.438-20 26c-4.549 2.562-9 3-9 3m199-83s-15.451 23.438-20 26c-4.549 2.562-9 3-9 3m-141 25s15.451 23.438 20 26c4.549 2.562 9 3 9 3m141-83s15.451 23.438 20 26c4.549 2.562 9 3 9 3m-199 49s-15.451 23.438-20 26c-4.549 2.562-13 3-13 3m203-83s-15.451 23.438-20 26c-4.549 2.562-13 3-13 3m-137 25s15.451 23.438 20 26c4.549 2.562 13 3 13 3m137-83s15.451 23.438 20 26c4.549 2.562 13 3 13 3" fill="none" stroke="#000"/><path d="M232.5 449L212 434l-19-8-18-13-21-7-18-11-5-19 1-13 3-6 6-9 1-13m224 117l-21 25.298 7 15.384L333 526m-42-137l7 9 7 48.865-36 45.817L274 535l50 27" fill="none" stroke="#000" stroke-width="4"/><path d="M142 335l-14 6-5 7-14 10m33-15l-14 6-5 7-14 10m27-11.5l-12 6-21 19m29-13.5l-6 3-5 7-24 17m34-17l-5 2-5 7-28 21m40-22l-4 2-5 7-14 10-6 11-11 8m42-29l-6 3-5 7-10.5 10-5.5 10-10 13m45-37l-10 6-12.5 12-9.5 18m41-29.569l-10 6-12.5 12-9.5 18m45-31.569l-10 6-12.5 12-9.5 18M178.75 416L168 420.431 162 426l-6 9-8 19-20 11m171-66l18 17 4 11m-16 20l-16 5-10 9h-12l-15 8m39-4l-12.5 7H266l-16 8m25 4l-10-2-18 10m22 3l-10 17-9 10-3 12 5 17m-3-28l-13 7-15 3-5 5m67 2l-5 24-7 10-13 6-17 7-19 23v11m47-127l-6-2-16 10" fill="none" stroke="#000" stroke-width="3"/><path d="M263 505l-5-1-14 6m11 5l-6-1-13 5m88 43l4 19m-11-21l4 19m-12-25l4 19m-11-23l4 19m-11-22l4 19m-11-21.5l4 19" fill="none" stroke="#000" stroke-width="3"/><path d="M84 406s-15.451 23.438-20 26c-4.549 2.562-9 3-9 3m89 86s-15.451 23.438-20 26c-4.549 2.562-9 3-9 3m87-93s-15.451 23.438-20 26c-4.549 2.562-9 3-9 3m92 110s-15.451 23.438-20 26c-4.549 2.562-9 3-9 3M84 406s15.451 23.438 20 26c4.549 2.562 9 3 9 3m31 86s15.451 23.438 20 26c4.549 2.562 9 3 9 3m29-93s15.451 23.438 20 26c4.549 2.562 9 3 9 3m34 110s15.451 23.438 20 26c4.549 2.562 9 3 9 3M84 551s-15.451 23.438-20 26c-4.549 2.562-18 3-18 3m98 86s-15.451 23.438-20 26c-4.549 2.562-18 3-18 3m96-93s-15.451 23.438-20 26c-4.549 2.562-18 3-18 3m101 110s-15.451 23.438-20 26c-4.549 2.562-18 3-18 3M84 551s15.451 23.438 20 26c4.549 2.562 18 3 18 3m22 86s15.451 23.438 20 26c4.549 2.562 18 3 18 3m20-93s15.451 23.438 20 26c4.549 2.562 18 3 18 3M84 431s-15.451 23.438-20 26c-4.549 2.562-9 3-9 3" fill="none" stroke="#000" stroke-width="4"/><path d="M144 546s-15.451 23.438-20 26c-4.549 2.562-9 3-9 3m87-93s-15.451 23.438-20 26c-4.549 2.562-9 3-9 3m92 110s-15.451 23.438-20 26c-4.549 2.562-9 3-9 3M84 431s15.451 23.438 20 26c4.549 2.562 9 3 9 3m31 86s15.451 23.438 20 26c4.549 2.562 9 3 9 3m29-93s15.451 23.438 20 26c4.549 2.562 9 3 9 3m34 110s15.451 23.438 20 26c4.549 2.562 9 3 9 3M84 576s-15.451 23.438-20 26c-4.549 2.562-9 1-9 1m89 88s-15.451 23.438-20 26c-4.549 2.562-9 1-9 1m87-91s-15.451 23.438-20 26c-4.549 2.562-9 1-9 1m92 112s-15.451 23.438-20 26c-4.549 2.562-9 1-9 1M84 576s15.451 23.438 20 26c4.549 2.562 9 1 9 1m31 88s15.451 23.438 20 26c4.549 2.562 9 1 9 1m29-91s15.451 23.438 20 26c4.549 2.562 9 1 9 1M84 455s-15.451 23.438-20 26c-4.549 2.562-9 3-9 3m89 86s-15.451 23.438-20 26c-4.549 2.562-9 3-9 3m87-93s-15.451 23.438-20 26c-4.549 2.562-9 3-9 3m92 110s-15.451 23.438-20 26c-4.549 2.562-9 3-9 3M84 455s15.451 23.438 20 26c4.549 2.562 9 3 9 3m31 86s15.451 23.438 20 26c4.549 2.562 9 3 9 3m29-93s15.451 23.438 20 26c4.549 2.562 9 3 9 3m34 110s15.451 23.438 20 26c4.549 2.562 9 3 9 3M84 600s-15.451 23.438-20 26c-4.549 2.562-14 2-14 2m94 87s-15.451 23.438-20 26c-4.549 2.562-14 2-14 2m92-92s-15.451 23.438-20 26c-4.549 2.562-14 2-14 2m97 111s-15.451 23.438-20 26c-4.549 2.562-14 2-14 2M84 600s15.451 23.438 20 26c4.549 2.562 14 2 14 2m26 87s15.451 23.438 20 26c4.549 2.562 14 2 14 2m24-92s15.451 23.438 20 26c4.549 2.562 14 2 14 2M84 479s-15.451 23.438-20 26c-4.549 2.562-9 3-9 3m89 86s-15.451 23.438-20 26c-4.549 2.562-9 3-9 3m87-93s-15.451 23.438-20 26c-4.549 2.562-9 3-9 3m92 110s-15.451 23.438-20 26c-4.549 2.562-9 3-9 3M84 479s15.451 23.438 20 26c4.549 2.562 9 3 9 3m31 86s15.451 23.438 20 26c4.549 2.562 9 3 9 3m29-93s15.451 23.438 20 26c4.549 2.562 9 3 9 3m34 110s15.451 23.438 20 26M84 624s-15.451 23.438-20 26c-4.549 2.562-11 1.5-11 1.5m91 87.5s-15.451 23.438-20 26c-4.549 2.562-11 1.5-11 1.5m89-91.5s-15.451 23.438-20 26c-4.549 2.562-11 1.5-11 1.5M265 814s-15.451 23.438-20 26c-4.549 2.562-11 1.5-11 1.5M84 624s15.451 23.438 20 26c4.549 2.562 11 1.5 11 1.5m29 87.5s15.451 23.438 20 26c4.549 2.562 11 1.5 11 1.5m27-91.5s15.451 23.438 20 26c4.549 2.562 11 1.5 11 1.5M84 503s-15.451 23.438-20 26c-4.549 2.562-9 3-9 3m89 86s-15.451 23.438-20 26c-4.549 2.562-9 3-9 3m87-93s-15.451 23.438-20 26c-4.549 2.562-9 3-9 3m92 110s-15.451 23.438-20 26c-4.549 2.562-9 3-9 3M84 503s15.451 23.438 20 26c4.549 2.562 9 3 9 3m31 86s15.451 23.438 20 26c4.549 2.562 9 3 9 3m29-93s15.451 23.438 20 26c4.549 2.562 9 3 9 3m34 110s9.451 15.438 14 18M84 648s-15.451 23.438-20 26c-4.549 2.562-9 3-9 3m89 86s-15.451 23.438-20 26c-4.549 2.562-9 3-9 3m87-93s-15.451 23.438-20 26c-4.549 2.562-9 3-9 3m92 110s-15.451 23.438-20 26c-4.549 2.562-9 3-9 3M84 648s15.451 23.438 20 26c4.549 2.562 9 3 9 3m31 86s15.451 23.438 20 26c4.549 2.562 9 3 9 3m29-93s15.451 23.438 20 26c4.549 2.562 9 3 9 3m34 110s12.451 21.438 17 24M84 527s-15.451 23.438-20 26c-4.549 2.562-9 3-9 3m89 86s-15.451 23.438-20 26c-4.549 2.562-9 3-9 3m87-93s-15.451 23.438-20 26c-4.549 2.562-9 3-9 3m92 110s-15.451 23.438-20 26c-4.549 2.562-9 3-9 3M84 527s15.451 23.438 20 26c4.549 2.562 9 3 9 3m31 86s15.451 23.438 20 26c4.549 2.562 9 3 9 3m29-93s15.451 23.438 20 26c4.549 2.562 9 3 9 3m34 110s4.451 6.438 9 9M84 672s-15.451 23.438-20 26c-4.549 2.562-14 3-14 3m94 86s-15.451 23.438-20 26c-4.549 2.562-14 3-14 3m92-93s-15.451 23.438-20 26c-4.549 2.562-14 3-14 3m97 110s-15.451 23.438-20 26c-4.549 2.562-14 3-14 3M84 672s15.451 23.438 20 26c4.549 2.562 14 3 14 3m26 86s15.451 23.438 20 26c4.549 2.562 14 3 14 3m24-93s15.451 23.438 20 26c4.549 2.562 14 3 14 3m29 110s15.451 23.438 20 26c4.549 2.562 8 3 8 3M84 418s-15.451 23.438-20 26c-4.549 2.562-9 3-9 3m89 86s-15.451 23.438-20 26c-4.549 2.562-9 3-9 3m87-93s-15.451 23.438-20 26c-4.549 2.562-9 3-9 3m92 110s-15.451 23.438-20 26c-4.549 2.562-9 3-9 3M84 418s15.451 23.438 20 26c4.549 2.562 9 3 9 3m31 86s15.451 23.438 20 26c4.549 2.562 9 3 9 3m29-93s15.451 23.438 20 26c4.549 2.562 9 3 9 3m34 110s15.451 23.438 20 26c4.549 2.562 9 3 9 3M84 563s-15.451 23.438-20 26c-4.549 2.562-9 1-9 1m89 88s-15.451 23.438-20 26c-4.549 2.562-9 1-9 1m87-91s-15.451 23.438-20 26c-4.549 2.562-9 1-9 1m92 112s-15.451 23.438-20 26c-4.549 2.562-9 1-9 1M84 563s15.451 23.438 20 26c4.549 2.562 9 1 9 1m31 88s15.451 23.438 20 26c4.549 2.562 9 1 9 1m29-91s15.451 23.438 20 26c4.549 2.562 9 1 9 1M84 443s-15.451 23.438-20 26c-4.549 2.562-9 3-9 3m89 86s-15.451 23.438-20 26c-4.549 2.562-9 3-9 3m87-93s-15.451 23.438-20 26c-4.549 2.562-9 3-9 3m92 110s-15.451 23.438-20 26c-4.549 2.562-9 3-9 3M84 443s15.451 23.438 20 26c4.549 2.562 9 3 9 3m31 86s15.451 23.438 20 26c4.549 2.562 9 3 9 3m29-93s15.451 23.438 20 26c4.549 2.562 9 3 9 3m34 110s15.451 23.438 20 26c4.549 2.562 9 3 9 3M84 588s-15.451 23.438-20 26c-4.549 2.562-14 2-14 2m94 87s-15.451 23.438-20 26c-4.549 2.562-14 2-14 2" fill="none" stroke="#000" stroke-width="4"/><path d="M202 639s-15.451 23.438-20 26c-4.549 2.562-14 2-14 2m97 111s-15.451 23.438-20 26c-4.549 2.562-14 2-14 2M84 588s15.451 23.438 20 26c4.549 2.562 14 2 14 2m26 87s15.451 23.438 20 26c4.549 2.562 14 2 14 2m24-92s15.451 23.438 20 26c4.549 2.562 14 2 14 2M84 467s-15.451 23.438-20 26c-4.549 2.562-9 3-9 3m89 86s-15.451 23.438-20 26c-4.549 2.562-9 3-9 3m87-93s-15.451 23.438-20 26c-4.549 2.562-9 3-9 3m92 110s-15.451 23.438-20 26c-4.549 2.562-9 3-9 3M84 467s15.451 23.438 20 26c4.549 2.562 9 3 9 3m31 86s15.451 23.438 20 26c4.549 2.562 9 3 9 3m29-93s15.451 23.438 20 26c4.549 2.562 9 3 9 3m34 110s15.451 23.438 20 26c4.549 2.562 4 2 4 2M84 612s-15.451 23.438-20 26c-4.549 2.562-23 2-23 2m103 87s-15.451 23.438-20 26c-4.549 2.562-23 2-23 2m101-92s-15.451 23.438-20 26c-4.549 2.562-23 2-23 2m106 111s-15.451 23.438-20 26c-4.549 2.562-23 2-23 2M84 612s15.451 23.438 20 26c4.549 2.562 23 2 23 2m17 87s15.451 23.438 20 26c4.549 2.562 23 2 23 2" fill="none" stroke="#000" stroke-width="4"/><path d="M202 663s15.451 23.438 20 26c4.549 2.562 23 2 23 2M84 491s-15.451 23.438-20 26c-4.549 2.562-9 3-9 3m89 86s-15.451 23.438-20 26c-4.549 2.562-9 3-9 3m87-93s-15.451 23.438-20 26c-4.549 2.562-9 3-9 3m92 110s-15.451 23.438-20 26c-4.549 2.562-9 3-9 3M84 491s15.451 23.438 20 26c4.549 2.562 9 3 9 3m31 86s15.451 23.438 20 26c4.549 2.562 9 3 9 3m29-93s15.451 23.438 20 26c4.549 2.562 9 3 9 3m34 110s12.651 19.438 17.2 22M84 636s-15.451 23.438-20 26c-4.549 2.562-17 3-17 3m97 86s-15.451 23.438-20 26c-4.549 2.562-17 3-17 3m95-93s-15.451 23.438-20 26c-4.549 2.562-17 3-17 3m100 110s-15.451 23.438-20 26c-4.549 2.562-17 3-17 3M84 636s15.451 23.438 20 26c4.549 2.562 17 3 17 3m23 86s15.451 23.438 20 26c4.549 2.562 17 3 17 3m21-93s15.451 23.438 20 26c4.549 2.562 17 3 17 3M84 515s-15.451 23.438-20 26c-4.549 2.562-9 3-9 3m89 86s-15.451 23.438-20 26c-4.549 2.562-9 3-9 3m87-93s-15.451 23.438-20 26c-4.549 2.562-9 3-9 3m92 110s-15.451 23.438-20 26c-4.549 2.562-9 3-9 3M84 515s15.451 23.438 20 26c4.549 2.562 9 3 9 3m31 86s15.451 23.438 20 26c4.549 2.562 9 3 9 3m29-93s15.451 23.438 20 26c4.549 2.562 9 3 9 3m34 110s7.451 10.438 12 13M84 660s-15.451 23.438-20 26c-4.549 2.562-22 4.5-22 4.5M144 775s-15.451 23.438-20 26c-4.549 2.562-22 4.5-22 4.5M202 711s-15.451 23.438-20 26c-4.549 2.562-22 4.5-22 4.5M265 850s-15.451 23.438-20 26c-4.549 2.562-22 4.5-22 4.5M84 660s15.451 23.438 20 26c4.549 2.562 22 4.5 22 4.5m18 84.5s15.451 23.438 20 26c4.549 2.562 22 4.5 22 4.5m16-94.5s15.451 23.438 20 26c4.549 2.562 22 4.5 22 4.5M265 850s15.451 23.438 20 26M84 539s-15.451 23.438-20 26c-4.549 2.562-13 3-13 3" fill="none" stroke="#000" stroke-width="4"/><path d="M144 654s-15.451 23.438-20 26c-4.549 2.562-13 3-13 3m91-93s-15.451 23.438-20 26c-4.549 2.562-13 3-13 3m96 110s-15.451 23.438-20 26c-4.549 2.562-13 3-13 3M84 539s15.451 23.438 20 26c4.549 2.562 13 3 13 3m27 86s15.451 23.438 20 26c4.549 2.562 13 3 13 3m25-93s15.451 23.438 20 26c4.549 2.562 13 3 13 3m30 110s1.451 5.438 6 8M84 684s-15.451 23.438-20 26c-4.549 2.562-14 3-14 3m94 86s-15.451 23.438-20 26c-4.549 2.562-14 3-14 3m92-93s-15.451 23.438-20 26c-4.549 2.562-14 3-14 3m97 110s-15.451 23.438-20 26c-4.549 2.562-14 3-14 3M84 684s15.451 23.438 20 26c4.549 2.562 14 3 14 3m26 86s15.451 23.438 20 26c4.549 2.562 14 3 14 3m24-93s15.451 23.438 20 26c4.549 2.562 14 3 14 3m29 110s15.451 23.438 20 26c4.549 2.562 14 3 14 3" fill="none" stroke="#000" stroke-width="4"/><path d="M488.87 470s-15.451 23.438-20 26c-4.55 2.562-9 3-9 3m29-29s15.45 23.438 20 26c4.549 2.562 9 3 9 3m-29-5s-15.451 23.438-20 26c-4.55 2.562-14 3-14 3m34-29s15.45 23.438 20 26c4.549 2.562 14 3 14 3m-34-65s-15.451 23.438-20 26c-4.55 2.562-17 3-17 3m37-29s15.45 23.438 20 26c4.549 2.562 17 3 17 3m-37-5s-15.451 23.438-20 26c-4.55 2.562-22 4.5-22 4.5m42-30.5s15.45 23.438 20 26c4.549 2.562 22 4.5 22 4.5m-42-6.5s-15.451 23.438-20 26c-4.55 2.562-14 3-14 3m34-29s15.45 23.438 20 26c4.549 2.562 14 3 14 3M655 423s-15.451 23.438-20 26c-4.549 2.562-9 3-9 3m29-29s15.451 23.438 20 26c4.549 2.562 9 3 9 3m-29-5s-15.451 23.438-20 26c-4.549 2.562-9 3-9 3m29-29s15.451 23.438 20 26c4.549 2.562 9 3 9 3m-29-5s-15.451 23.438-20 26c-4.549 2.562-9 3-9 3m29-29s15.451 23.438 20 26c4.549 2.562 9 3 9 3m-29-90s-15.451 23.438-20 26c-4.549 2.562-9 3-9 3m29-29s15.451 23.438 20 26c4.549 2.562 9 3 9 3m-29-4s-15.451 23.438-20 26c-4.549 2.562-9 3-9 3m29-29s15.451 23.438 20 26c4.549 2.562 9 3 9 3m-29-5s-15.451 23.438-20 26c-4.549 2.562-9 3-9 3m29-29s15.451 23.438 20 26c4.549 2.562 9 3 9 3m80-199s-15.451 23.438-20 26c-4.549 2.562-18 3-18 3m38-29s15.451 23.438 20 26c4.549 2.562 18 3 18 3m-38-4s-15.451 23.438-20 26c-4.549 2.562-9 1-9 1m29-27s15.451 23.438 20 26c4.549 2.562 9 1 9 1m-29-4s-15.451 23.438-20 26c-4.549 2.562-14 2-14 2m34-28s15.451 23.438 20 26c4.549 2.562 14 2 14 2m-34-148s-15.451 23.438-20 26c-4.549 2.562-9 3-9 3m29-29s15.451 23.438 20 26c4.549 2.562 9 3 9 3m-29-5s-15.451 23.438-20 26c-4.549 2.562-9 3-9 3m29-29s15.451 23.438 20 26c4.549 2.562 9 3 9 3m-29-5s-15.451 23.438-20 26c-4.549 2.562-9 3-9 3m29-29s15.451 23.438 20 26c4.549 2.562 9 3 9 3m-29 7s-15.451 23.438-20 26c-4.549 2.562-9 1-9 1m29-27s15.451 23.438 20 26c4.549 2.562 9 1 9 1m-29-2s-15.451 23.438-20 26c-4.549 2.562-14 2-14 2m34-28s15.451 23.438 20 26c4.549 2.562 14 2 14 2" fill="none" stroke="#000"/><path d="M764 349s-15.451 23.438-20 26c-4.549 2.562-23 2-23 2m43-28s15.451 23.438 20 26c4.549 2.562 16 2 16 2m-36-148s-15.451 23.438-20 26c-4.549 2.562-9 3-9 3m29-29s15.451 23.438 20 26c4.549 2.562 9 3 9 3m-29-5s-15.451 23.438-20 26c-4.549 2.562-9 3-9 3m29-29s15.451 23.438 20 26c4.549 2.562 9 3 9 3m-29-5s-15.451 23.438-20 26c-4.549 2.562-13 3-13 3m33-29s15.451 23.438 20 26c4.549 2.562 13 3 13 3M326.329 87c0 22.725-16.446 39-32 39-.385 0 31.955 7.641 31.955 35 0 .082 1.218-34.735 33.045-35" fill="none" stroke="#000"/><path d="M233.638 191.868c0 14.935-10.808 25.63-21.03 25.63-.253 0 21.001 5.022 21.001 23.002 0 .054.801-22.828 21.717-23.002" fill="none" stroke="#000" stroke-width=".66"/><path d="M294.11 261.287c0 9.827-7.112 16.865-13.838 16.865-.166 0 13.819 3.304 13.819 15.135 0 .036.527-15.02 14.289-15.135" fill="none" stroke="#000" stroke-width=".43"/><path d="M359.329 126s-34.466-1.778-33-39" fill="none" stroke="#000"/><path d="M255.326 217.498s-22.651-1.169-21.688-25.63" fill="none" stroke="#000" stroke-width=".66"/><path d="M308.38 278.152s-14.904-.769-14.27-16.865" fill="none" stroke="#000" stroke-width=".43"/><path d="M540 157c-110.786 97.814-5.139 230.917 117.713 146" fill="none" stroke="#000" stroke-width="11"/></svg>