<svg viewBox="0 0 1080 1080" xmlns="http://www.w3.org/2000/svg" fill-rule="evenodd" clip-rule="evenodd" stroke-linecap="round" stroke-linejoin="round" stroke-miterlimit="1.5"><path d="M206.32 569.918l-67.638-71.02 191.641-193.895 190.513 193.895-60.874 71.02H206.32m421.609 0l-67.638-71.02 191.641-193.895 190.513 193.895-60.874 71.02H627.929"/><path d="M27.08 861.888s-1.589-164.576 0-228.841c1.098-44.447 48.713-52.983 69.892-52.983h886.056c21.18 0 68.794 8.537 69.892 52.983 1.589 64.265 0 228.841 0 228.841H27.08zm76.551-281.824s-1.352-191.567 0-266.372c.934-51.735 41.443-61.672 59.461-61.672h753.816c18.019 0 58.527 9.938 59.461 61.672 1.352 74.805 0 266.372 0 266.372H103.631z" fill="none" stroke="#000" stroke-width="25"/><path d="M126.282 872.034h128.512v34.946H126.282zm687.651 0h128.512v34.946H813.933z"/><circle cx="164.538" cy="216.537" r="12.557"/><circle cx="918.538" cy="216.537" r="12.557"/></svg>