<?xml version="1.0" encoding="UTF-8" standalone="no"?><!DOCTYPE svg PUBLIC "-//W3C//DTD SVG 1.1//EN" "http://www.w3.org/Graphics/SVG/1.1/DTD/svg11.dtd"><svg width="100%" height="100%" viewBox="0 0 1080 1080" version="1.1" xmlns="http://www.w3.org/2000/svg" xmlns:xlink="http://www.w3.org/1999/xlink" xml:space="preserve" xmlns:serif="http://www.serif.com/"><path d="M335.389,766.022l-224.367,0c0,0 -3.292,-45.861 0,-60.678c2.491,-11.209 11.524,-20.225 19.756,-28.222c8.231,-7.996 17.881,-18.076 29.633,-19.755c23.048,-3.293 82.785,-3.293 108.656,0c16.726,2.128 37.782,5.363 46.566,19.755c11.054,18.109 19.756,88.9 19.756,88.9Z"/><path d="M335.389,202.989l-224.367,0c0,0 -3.292,-45.861 0,-60.678c2.491,-11.21 11.524,-20.226 19.756,-28.222c8.231,-7.996 17.881,-18.077 29.633,-19.756c23.048,-3.292 82.785,-3.292 108.656,0c16.726,2.129 37.782,5.364 46.566,19.756c11.054,18.109 19.756,88.9 19.756,88.9Z"/><path d="M1048,53.411l-2.822,1010.36" style="fill:none;stroke-width:26px;"/><path d="M34.822,56.233l-2.822,1010.36" style="fill:none;stroke-width:26px;"/><path d="M1048,393.489l-1010.36,-2.822" style="fill:none;stroke-width:26px;"/><path d="M1045.18,956.522l-1010.36,-2.822" style="fill:none;stroke-width:26px;"/><path d="M1042.36,205.811l-1004.71,-2.822" style="fill:none;stroke-width:26px;"/><path d="M1039.53,768.844l-1001.89,-2.822" style="fill:none;stroke-width:26px;"/><path d="M441.222,202.989c97.837,62.559 195.674,125.118 293.511,187.678" style="fill:none;stroke-width:26px;"/><path d="M441.222,766.022c97.837,62.559 195.674,125.119 293.511,187.678" style="fill:none;stroke-width:26px;"/><circle cx="34.822" cy="18.233" r="12.557"/><circle cx="1048" cy="18.233" r="12.557"/></svg>