<?xml version="1.0" encoding="UTF-8" standalone="no"?><!DOCTYPE svg PUBLIC "-//W3C//DTD SVG 1.1//EN" "http://www.w3.org/Graphics/SVG/1.1/DTD/svg11.dtd"><svg width="100%" height="100%" viewBox="0 0 1080 1080" version="1.1" xmlns="http://www.w3.org/2000/svg" xmlns:xlink="http://www.w3.org/1999/xlink" xml:space="preserve" xmlns:serif="http://www.serif.com/" style="fill-rule:evenodd;clip-rule:evenodd;stroke-linecap:round;stroke-linejoin:round;stroke-miterlimit:1.5;"><path d="M414.651,1059.38c0,0 -128.869,-325.977 -133.569,-518.863c-4.7,-192.887 -3.432,-301.134 0,-377.075c3.432,-75.942 54.217,-138.076 258.918,-142.816c204.701,4.74 255.486,66.874 258.918,142.816c3.432,75.941 4.7,184.188 0,377.075c-4.7,192.886 -133.569,518.863 -133.569,518.863l-250.698,0Z" style="fill:none;stroke-width:25.69px;"/><path d="M801.986,364.819c0,0 -86.487,151.079 -160.268,238.369c-73.782,87.29 -147.663,-56.231 -353.429,-109.937c-52.255,-13.639 303.806,-176.79 513.697,-128.432Z" style="stroke-width:25.69px;"/><path d="M540.025,127.236l38.94,-60.845" style="fill:none;stroke-width:25px;"/><path d="M540.025,127.236l-38.941,-60.845" style="fill:none;stroke-width:25px;"/><circle cx="540.025" cy="53.489" r="12.902"/></svg>