<?xml version="1.0" encoding="UTF-8"?>
<svg style="isolation:isolate" viewBox="0 0 375 375" xmlns="http://www.w3.org/2000/svg">
<defs>
<clipPath id="b">
<rect width="375" height="375"/>
</clipPath>
</defs>
<g clip-path="url(#b)">
<path d="m130.02 65.832c0-31.725 25.757-57.482 57.482-57.482s57.482 25.757 57.482 57.482c0 31.726-25.757 57.483-57.482 57.483s-57.482-25.757-57.482-57.483z"/>
<path d="m187.5 144.64q96.444 0 113.5 222.01h-113.5-113.5q17.056-222.01 113.5-222.01z"/>
<clipPath id="a">
<path d="m187.5 144.64q96.444 0 113.5 222.01h-113.5-113.5q17.056-222.01 113.5-222.01z"/>
</clipPath>
<g clip-path="url(#a)">
<path d="m177.61 245.76h-41.364c-6.088 0-11.03 4.431-11.03 9.888 0 5.458 4.942 9.888 11.03 9.888h41.364v41.364c0 6.088 4.431 11.03 9.888 11.03s9.888-4.942 9.888-11.03v-41.364h41.364c6.088 0 11.03-4.43 11.03-9.888 0-5.457-4.942-9.888-11.03-9.888h-41.364v-41.364c0-6.087-4.431-11.029-9.888-11.029s-9.888 4.942-9.888 11.029v41.364z" fill="#fff"/>
</g>
</g>
</svg>
