<?xml version="1.0" encoding="UTF-8"?>
<svg style="isolation:isolate" viewBox="0 0 375 375" xmlns="http://www.w3.org/2000/svg">
<defs>
<clipPath id="a">
<rect width="375" height="375"/>
</clipPath>
</defs>
<g clip-path="url(#a)">
<path d="m362.41 253.12l1.07-1.05 2.1 2.14-1.07 1.05c-2.53 2.49-5.6 4.39-8.96 5.55-3.31 1.14-6.79 1.72-10.3 1.69-3.85 0.02-7.68-0.63-11.31-1.91-1.7-0.6-3.33-1.36-4.88-2.27-1.45-0.85-2.79-1.88-3.99-3.06-1.03-1.01-2.18-1.89-3.42-2.62-1.38-0.81-2.83-1.49-4.35-2.02-3.31-1.17-6.81-1.76-10.32-1.75-3.17-0.02-6.32 0.5-9.32 1.54-2.93 1.01-5.61 2.67-7.83 4.84-0.94 0.94-1.97 1.79-3.08 2.52-1.05 0.7-2.16 1.28-3.34 1.74-1.19 0.46-2.43 0.8-3.69 1-1.38 0.22-2.78 0.3-4.18 0.26-0.59-0.02-1.19-0.06-1.79-0.13-0.64-0.07-1.27-0.16-1.91-0.27-2-0.35-3.96-0.88-5.87-1.58-2.58-0.96-5.09-2.09-7.52-3.38-1.67-1.7-3.68-3.03-5.9-3.91-2.2-0.88-4.55-1.34-6.92-1.34-2.23 0-4.45 0.42-6.52 1.23-2.2 0.88-4.18 2.19-5.85 3.86-2.12 2.13-4.62 3.84-7.37 5.04-2.68 1.16-5.58 1.76-8.5 1.77-2.8 0-5.58-0.57-8.16-1.67-2.81-1.21-5.37-2.96-7.52-5.15-2.01-2.02-4.39-3.64-7.02-4.76-2.45-1.04-5.09-1.58-7.76-1.58-2.66 0-5.3 0.54-7.75 1.58-2.63 1.12-5.01 2.74-7.02 4.76-2.43 2.47-5.28 4.47-8.42 5.93-3.06 1.42-6.38 2.16-9.75 2.18-3.15-0.01-6.27-0.68-9.14-1.95-1.57-0.7-3.07-1.55-4.47-2.53-1.54-1.08-2.98-2.29-4.3-3.63-2.32-2.35-5.09-4.22-8.14-5.5-2.75-1.13-5.7-1.71-8.67-1.71-3.22 0.01-6.41 0.66-9.38 1.92-2.95 1.24-5.63 3.04-7.89 5.3-1.14 1.14-2.37 2.19-3.68 3.13-1.23 0.87-2.53 1.63-3.9 2.26-2.57 1.2-5.36 1.82-8.2 1.84-2.83-0.02-5.62-0.64-8.19-1.84-1.37-0.63-2.67-1.39-3.9-2.26-1.31-0.94-2.54-1.99-3.68-3.13-1.04-1.05-2.11-2.07-3.2-3.06-0.92-0.84-1.9-1.62-2.92-2.35-0.85-0.6-1.75-1.12-2.71-1.54-0.82-0.35-1.69-0.58-2.58-0.68-0.66-0.08-1.33-0.12-2-0.12-0.86 0-1.73 0.09-2.57 0.27-1.04 0.24-2.06 0.61-3.01 1.08-1.32 0.66-2.56 1.44-3.72 2.34-1.62 1.24-3.15 2.6-4.58 4.05-2.21 2.25-4.8 4.08-7.65 5.42-2.75 1.28-5.76 1.96-8.8 1.98-2.86-0.01-5.68-0.62-8.29-1.79-1.42-0.64-2.78-1.41-4.05-2.31-1.39-0.98-2.69-2.09-3.89-3.29l-1.06-1.07 2.13-2.11 1.05 1.06c1.08 1.09 2.25 2.08 3.5 2.96 1.11 0.78 2.3 1.46 3.55 2.02 2.22 0.99 4.63 1.52 7.06 1.53 2.6-0.02 5.17-0.6 7.53-1.7 2.53-1.19 4.82-2.81 6.78-4.8 1.53-1.55 3.16-3 4.89-4.32 1.31-1.02 2.72-1.91 4.21-2.65 1.17-0.59 2.41-1.03 3.69-1.32 1.07-0.24 2.16-0.35 3.25-0.35 0.77 0.01 1.54 0.05 2.31 0.14 1.19 0.13 2.36 0.44 3.45 0.91 1.15 0.5 2.24 1.12 3.25 1.85 1.12 0.79 2.18 1.65 3.19 2.57 1.14 1.02 2.24 2.08 3.32 3.16 1.02 1.03 2.12 1.97 3.3 2.81 1.07 0.77 2.21 1.43 3.41 1.98 2.17 1.01 4.54 1.54 6.93 1.56 2.4-0.02 4.77-0.55 6.94-1.56 1.2-0.55 2.34-1.21 3.41-1.98 1.18-0.84 2.28-1.78 3.3-2.81 2.54-2.53 5.55-4.55 8.85-5.94 3.34-1.42 6.92-2.15 10.55-2.16 3.37 0 6.7 0.66 9.82 1.94 3.42 1.43 6.52 3.53 9.12 6.16 1.2 1.21 2.5 2.31 3.89 3.28 1.24 0.88 2.57 1.63 3.96 2.24 2.5 1.11 5.19 1.69 7.92 1.7 2.94-0.02 5.83-0.67 8.5-1.9 2.81-1.31 5.37-3.11 7.55-5.32 2.28-2.3 4.99-4.14 7.97-5.41 2.83-1.2 5.87-1.82 8.93-1.82 3.07 0 6.11 0.62 8.94 1.82 2.98 1.27 5.69 3.11 7.97 5.41 1.88 1.91 4.11 3.44 6.57 4.51 2.21 0.93 4.58 1.42 6.98 1.42 2.51-0.01 5-0.53 7.3-1.53 2.41-1.04 4.6-2.54 6.44-4.4 1.96-1.96 4.3-3.5 6.87-4.53 2.43-0.95 5.02-1.44 7.63-1.44 2.75 0 5.48 0.53 8.03 1.55 2.45 0.97 4.69 2.42 6.59 4.25 2.19 1.15 4.45 2.16 6.76 3.01 1.74 0.64 3.53 1.13 5.35 1.45 0.57 0.1 1.14 0.18 1.71 0.24 0.53 0.05 1.05 0.09 1.58 0.11 1.2 0.04 2.41-0.04 3.6-0.23 1.05-0.16 2.08-0.44 3.07-0.83 0.98-0.38 1.9-0.86 2.77-1.44 0.95-0.62 1.83-1.34 2.63-2.15 2.54-2.49 5.6-4.39 8.96-5.55 3.32-1.15 6.8-1.72 10.31-1.7 3.85-0.01 7.67 0.64 11.31 1.92 1.69 0.59 3.33 1.35 4.87 2.27 1.46 0.85 2.8 1.88 4 3.06 1.03 1.01 2.17 1.89 3.41 2.62 1.38 0.81 2.84 1.49 4.35 2.02 3.32 1.17 6.81 1.76 10.33 1.74 3.17 0.03 6.32-0.49 9.31-1.53 2.94-1.01 5.62-2.67 7.84-4.85z"/>
<path d="m362.41 289.12l1.07-1.05 2.1 2.14-1.07 1.05c-2.53 2.49-5.6 4.39-8.96 5.55-3.31 1.14-6.79 1.72-10.3 1.69-3.85 0.02-7.68-0.63-11.31-1.91-1.7-0.6-3.33-1.36-4.88-2.27-1.45-0.85-2.79-1.88-3.99-3.06-1.03-1.01-2.18-1.89-3.42-2.62-1.38-0.81-2.83-1.49-4.35-2.02-3.31-1.17-6.81-1.76-10.32-1.75-3.17-0.02-6.32 0.5-9.32 1.54-2.93 1.01-5.61 2.67-7.83 4.84-0.94 0.94-1.97 1.79-3.08 2.52-1.05 0.7-2.16 1.28-3.34 1.74-1.19 0.46-2.43 0.8-3.69 1-1.38 0.22-2.78 0.3-4.18 0.26-0.59-0.02-1.19-0.06-1.79-0.13-0.64-0.07-1.27-0.16-1.91-0.27-2-0.35-3.96-0.88-5.87-1.58-2.58-0.96-5.09-2.09-7.52-3.38-1.67-1.7-3.68-3.03-5.9-3.91-2.2-0.88-4.55-1.34-6.92-1.34-2.23 0-4.45 0.42-6.52 1.23-2.2 0.88-4.18 2.19-5.85 3.86-2.12 2.13-4.62 3.84-7.37 5.04-2.68 1.16-5.58 1.76-8.5 1.77-2.8 0-5.58-0.57-8.16-1.67-2.81-1.21-5.37-2.96-7.52-5.15-2.01-2.02-4.39-3.64-7.02-4.76-2.45-1.04-5.09-1.58-7.76-1.58-2.66 0-5.3 0.54-7.75 1.58-2.63 1.12-5.01 2.74-7.02 4.76-2.43 2.47-5.28 4.47-8.42 5.93-3.06 1.42-6.38 2.16-9.75 2.18-3.15-0.01-6.27-0.68-9.14-1.95-1.57-0.7-3.07-1.55-4.47-2.53-1.54-1.08-2.98-2.29-4.3-3.63-2.32-2.35-5.09-4.22-8.14-5.5-2.75-1.13-5.7-1.71-8.67-1.71-3.22 0.01-6.41 0.66-9.38 1.92-2.95 1.24-5.63 3.04-7.89 5.3-1.14 1.14-2.37 2.19-3.68 3.13-1.23 0.87-2.53 1.63-3.9 2.26-2.57 1.2-5.36 1.82-8.2 1.84-2.83-0.02-5.62-0.64-8.19-1.84-1.37-0.63-2.67-1.39-3.9-2.26-1.31-0.94-2.54-1.99-3.68-3.13-1.04-1.05-2.11-2.07-3.2-3.06-0.92-0.84-1.9-1.62-2.92-2.35-0.85-0.6-1.75-1.12-2.71-1.54-0.82-0.35-1.69-0.58-2.58-0.68-0.66-0.08-1.33-0.12-2-0.12-0.86 0-1.73 0.09-2.57 0.27-1.04 0.24-2.06 0.61-3.01 1.08-1.32 0.66-2.56 1.44-3.72 2.34-1.62 1.24-3.15 2.6-4.58 4.05-2.21 2.25-4.8 4.08-7.65 5.42-2.75 1.28-5.76 1.96-8.8 1.98-2.86-0.01-5.68-0.62-8.29-1.79-1.42-0.64-2.78-1.41-4.05-2.31-1.39-0.98-2.69-2.09-3.89-3.29l-1.06-1.07 2.13-2.11 1.05 1.06c1.08 1.09 2.25 2.08 3.5 2.96 1.11 0.78 2.3 1.46 3.55 2.02 2.22 0.99 4.63 1.52 7.06 1.53 2.6-0.02 5.17-0.6 7.53-1.7 2.53-1.19 4.82-2.81 6.78-4.8 1.53-1.55 3.16-3 4.89-4.32 1.31-1.02 2.72-1.91 4.21-2.65 1.17-0.59 2.41-1.03 3.69-1.32 1.07-0.24 2.16-0.35 3.25-0.35 0.77 0.01 1.54 0.05 2.31 0.14 1.19 0.13 2.36 0.44 3.45 0.91 1.15 0.5 2.24 1.12 3.25 1.85 1.12 0.79 2.18 1.65 3.19 2.57 1.14 1.02 2.24 2.08 3.32 3.16 1.02 1.03 2.12 1.97 3.3 2.81 1.07 0.77 2.21 1.43 3.41 1.98 2.17 1.01 4.54 1.54 6.93 1.56 2.4-0.02 4.77-0.55 6.94-1.56 1.2-0.55 2.34-1.21 3.41-1.98 1.18-0.84 2.28-1.78 3.3-2.81 2.54-2.53 5.55-4.55 8.85-5.94 3.34-1.42 6.92-2.15 10.55-2.16 3.37 0 6.7 0.66 9.82 1.94 3.42 1.43 6.52 3.53 9.12 6.16 1.2 1.21 2.5 2.31 3.89 3.28 1.24 0.88 2.57 1.63 3.96 2.24 2.5 1.11 5.19 1.69 7.92 1.7 2.94-0.02 5.83-0.67 8.5-1.9 2.81-1.31 5.37-3.11 7.55-5.32 2.28-2.3 4.99-4.14 7.97-5.41 2.83-1.2 5.87-1.82 8.93-1.82 3.07 0 6.11 0.62 8.94 1.82 2.98 1.27 5.69 3.11 7.97 5.41 1.88 1.91 4.11 3.44 6.57 4.51 2.21 0.93 4.58 1.42 6.98 1.42 2.51-0.01 5-0.53 7.3-1.53 2.41-1.04 4.6-2.54 6.44-4.4 1.96-1.96 4.3-3.5 6.87-4.53 2.43-0.95 5.02-1.44 7.63-1.44 2.75 0 5.48 0.53 8.03 1.55 2.45 0.97 4.69 2.42 6.59 4.25 2.19 1.15 4.45 2.16 6.76 3.01 1.74 0.64 3.53 1.13 5.35 1.45 0.57 0.1 1.14 0.18 1.71 0.24 0.53 0.05 1.05 0.09 1.58 0.11 1.2 0.04 2.41-0.04 3.6-0.23 1.05-0.16 2.08-0.44 3.07-0.83 0.98-0.38 1.9-0.86 2.77-1.44 0.95-0.62 1.83-1.34 2.63-2.15 2.54-2.49 5.6-4.39 8.96-5.55 3.32-1.15 6.8-1.72 10.31-1.7 3.85-0.01 7.67 0.64 11.31 1.92 1.69 0.59 3.33 1.35 4.87 2.27 1.46 0.85 2.8 1.88 4 3.06 1.03 1.01 2.17 1.89 3.41 2.62 1.38 0.81 2.84 1.49 4.35 2.02 3.32 1.17 6.81 1.76 10.33 1.74 3.17 0.03 6.32-0.49 9.31-1.53 2.94-1.01 5.62-2.67 7.84-4.85z"/>
<path d="m362.41 325.12l1.07-1.05 2.1 2.14-1.07 1.05c-2.53 2.49-5.6 4.39-8.96 5.55-3.31 1.14-6.79 1.72-10.3 1.69-3.85 0.02-7.68-0.63-11.31-1.91-1.7-0.6-3.33-1.36-4.88-2.27-1.45-0.85-2.79-1.88-3.99-3.06-1.03-1.01-2.18-1.89-3.42-2.62-1.38-0.81-2.83-1.49-4.35-2.02-3.31-1.17-6.81-1.76-10.32-1.75-3.17-0.02-6.32 0.5-9.32 1.54-2.93 1.01-5.61 2.67-7.83 4.84-0.94 0.94-1.97 1.79-3.08 2.52-1.05 0.7-2.16 1.28-3.34 1.74-1.19 0.46-2.43 0.8-3.69 1-1.38 0.22-2.78 0.3-4.18 0.26-0.59-0.02-1.19-0.06-1.79-0.13-0.64-0.07-1.27-0.16-1.91-0.27-2-0.35-3.96-0.88-5.87-1.58-2.58-0.96-5.09-2.09-7.52-3.38-1.67-1.7-3.68-3.03-5.9-3.91-2.2-0.88-4.55-1.34-6.92-1.34-2.23 0-4.45 0.42-6.52 1.23-2.2 0.88-4.18 2.19-5.85 3.86-2.12 2.13-4.62 3.84-7.37 5.04-2.68 1.16-5.58 1.76-8.5 1.77-2.8 0-5.58-0.57-8.16-1.67-2.81-1.21-5.37-2.96-7.52-5.15-2.01-2.02-4.39-3.64-7.02-4.76-2.45-1.04-5.09-1.58-7.76-1.58-2.66 0-5.3 0.54-7.75 1.58-2.63 1.12-5.01 2.74-7.02 4.76-2.43 2.47-5.28 4.47-8.42 5.93-3.06 1.42-6.38 2.16-9.75 2.18-3.15-0.01-6.27-0.68-9.14-1.95-1.57-0.7-3.07-1.55-4.47-2.53-1.54-1.08-2.98-2.29-4.3-3.63-2.32-2.35-5.09-4.22-8.14-5.5-2.75-1.13-5.7-1.71-8.67-1.71-3.22 0.01-6.41 0.66-9.38 1.92-2.95 1.24-5.63 3.04-7.89 5.3-1.14 1.14-2.37 2.19-3.68 3.13-1.23 0.87-2.53 1.63-3.9 2.26-2.57 1.2-5.36 1.82-8.2 1.84-2.83-0.02-5.62-0.64-8.19-1.84-1.37-0.63-2.67-1.39-3.9-2.26-1.31-0.94-2.54-1.99-3.68-3.13-1.04-1.05-2.11-2.07-3.2-3.06-0.92-0.84-1.9-1.62-2.92-2.35-0.85-0.6-1.75-1.12-2.71-1.54-0.82-0.35-1.69-0.58-2.58-0.68-0.66-0.08-1.33-0.12-2-0.12-0.86 0-1.73 0.09-2.57 0.27-1.04 0.24-2.06 0.61-3.01 1.08-1.32 0.66-2.56 1.44-3.72 2.34-1.62 1.24-3.15 2.6-4.58 4.05-2.21 2.25-4.8 4.08-7.65 5.42-2.75 1.28-5.76 1.96-8.8 1.98-2.86-0.01-5.68-0.62-8.29-1.79-1.42-0.64-2.78-1.41-4.05-2.31-1.39-0.98-2.69-2.09-3.89-3.29l-1.06-1.07 2.13-2.11 1.05 1.06c1.08 1.09 2.25 2.08 3.5 2.96 1.11 0.78 2.3 1.46 3.55 2.02 2.22 0.99 4.63 1.52 7.06 1.53 2.6-0.02 5.17-0.6 7.53-1.7 2.53-1.19 4.82-2.81 6.78-4.8 1.53-1.55 3.16-3 4.89-4.32 1.31-1.02 2.72-1.91 4.21-2.65 1.17-0.59 2.41-1.03 3.69-1.32 1.07-0.24 2.16-0.35 3.25-0.35 0.77 0.01 1.54 0.05 2.31 0.14 1.19 0.13 2.36 0.44 3.45 0.91 1.15 0.5 2.24 1.12 3.25 1.85 1.12 0.79 2.18 1.65 3.19 2.57 1.14 1.02 2.24 2.08 3.32 3.16 1.02 1.03 2.12 1.97 3.3 2.81 1.07 0.77 2.21 1.43 3.41 1.98 2.17 1.01 4.54 1.54 6.93 1.56 2.4-0.02 4.77-0.55 6.94-1.56 1.2-0.55 2.34-1.21 3.41-1.98 1.18-0.84 2.28-1.78 3.3-2.81 2.54-2.53 5.55-4.55 8.85-5.94 3.34-1.42 6.92-2.15 10.55-2.16 3.37 0 6.7 0.66 9.82 1.94 3.42 1.43 6.52 3.53 9.12 6.16 1.2 1.21 2.5 2.31 3.89 3.28 1.24 0.88 2.57 1.63 3.96 2.24 2.5 1.11 5.19 1.69 7.92 1.7 2.94-0.02 5.83-0.67 8.5-1.9 2.81-1.31 5.37-3.11 7.55-5.32 2.28-2.3 4.99-4.14 7.97-5.41 2.83-1.2 5.87-1.82 8.93-1.82 3.07 0 6.11 0.62 8.94 1.82 2.98 1.27 5.69 3.11 7.97 5.41 1.88 1.91 4.11 3.44 6.57 4.51 2.21 0.93 4.58 1.42 6.98 1.42 2.51-0.01 5-0.53 7.3-1.53 2.41-1.04 4.6-2.54 6.44-4.4 1.96-1.96 4.3-3.5 6.87-4.53 2.43-0.95 5.02-1.44 7.63-1.44 2.75 0 5.48 0.53 8.03 1.55 2.45 0.97 4.69 2.42 6.59 4.25 2.19 1.15 4.45 2.16 6.76 3.01 1.74 0.64 3.53 1.13 5.35 1.45 0.57 0.1 1.14 0.18 1.71 0.24 0.53 0.05 1.05 0.09 1.58 0.11 1.2 0.04 2.41-0.04 3.6-0.23 1.05-0.16 2.08-0.44 3.07-0.83 0.98-0.38 1.9-0.86 2.77-1.44 0.95-0.62 1.83-1.34 2.63-2.15 2.54-2.49 5.6-4.39 8.96-5.55 3.32-1.15 6.8-1.72 10.31-1.7 3.85-0.01 7.67 0.64 11.31 1.92 1.69 0.59 3.33 1.35 4.87 2.27 1.46 0.85 2.8 1.88 4 3.06 1.03 1.01 2.17 1.89 3.41 2.62 1.38 0.81 2.84 1.49 4.35 2.02 3.32 1.17 6.81 1.76 10.33 1.74 3.17 0.03 6.32-0.49 9.31-1.53 2.94-1.01 5.62-2.67 7.84-4.85z"/>
<path d="m362.41 361.12l1.07-1.05 2.1 2.14-1.07 1.05c-2.53 2.49-5.6 4.39-8.96 5.55-3.31 1.14-6.79 1.72-10.3 1.69-3.85 0.02-7.68-0.63-11.31-1.91-1.7-0.6-3.33-1.36-4.88-2.27-1.45-0.85-2.79-1.88-3.99-3.06-1.03-1.01-2.18-1.89-3.42-2.62-1.38-0.81-2.83-1.49-4.35-2.02-3.31-1.17-6.81-1.76-10.32-1.75-3.17-0.02-6.32 0.5-9.32 1.54-2.93 1.01-5.61 2.67-7.83 4.84-0.94 0.94-1.97 1.79-3.08 2.52-1.05 0.7-2.16 1.28-3.34 1.74-1.19 0.46-2.43 0.8-3.69 1-1.38 0.22-2.78 0.3-4.18 0.26-0.59-0.02-1.19-0.06-1.79-0.13-0.64-0.07-1.27-0.16-1.91-0.27-2-0.35-3.96-0.88-5.87-1.58-2.58-0.96-5.09-2.09-7.52-3.38-1.67-1.7-3.68-3.03-5.9-3.91-2.2-0.88-4.55-1.34-6.92-1.34-2.23 0-4.45 0.42-6.52 1.23-2.2 0.88-4.18 2.19-5.85 3.86-2.12 2.13-4.62 3.84-7.37 5.04-2.68 1.16-5.58 1.76-8.5 1.77-2.8 0-5.58-0.57-8.16-1.67-2.81-1.21-5.37-2.96-7.52-5.15-2.01-2.02-4.39-3.64-7.02-4.76-2.45-1.04-5.09-1.58-7.76-1.58-2.66 0-5.3 0.54-7.75 1.58-2.63 1.12-5.01 2.74-7.02 4.76-2.43 2.47-5.28 4.47-8.42 5.93-3.06 1.42-6.38 2.16-9.75 2.18-3.15-0.01-6.27-0.68-9.14-1.95-1.57-0.7-3.07-1.55-4.47-2.53-1.54-1.08-2.98-2.29-4.3-3.63-2.32-2.35-5.09-4.22-8.14-5.5-2.75-1.13-5.7-1.71-8.67-1.71-3.22 0.01-6.41 0.66-9.38 1.92-2.95 1.24-5.63 3.04-7.89 5.3-1.14 1.14-2.37 2.19-3.68 3.13-1.23 0.87-2.53 1.63-3.9 2.26-2.57 1.2-5.36 1.82-8.2 1.84-2.83-0.02-5.62-0.64-8.19-1.84-1.37-0.63-2.67-1.39-3.9-2.26-1.31-0.94-2.54-1.99-3.68-3.13-1.04-1.05-2.11-2.07-3.2-3.06-0.92-0.84-1.9-1.62-2.92-2.35-0.85-0.6-1.75-1.12-2.71-1.54-0.82-0.35-1.69-0.58-2.58-0.68-0.66-0.08-1.33-0.12-2-0.12-0.86 0-1.73 0.09-2.57 0.27-1.04 0.24-2.06 0.61-3.01 1.08-1.32 0.66-2.56 1.44-3.72 2.34-1.62 1.24-3.15 2.6-4.58 4.05-2.21 2.25-4.8 4.08-7.65 5.42-2.75 1.28-5.76 1.96-8.8 1.98-2.86-0.01-5.68-0.62-8.29-1.79-1.42-0.64-2.78-1.41-4.05-2.31-1.39-0.98-2.69-2.09-3.89-3.29l-1.06-1.07 2.13-2.11 1.05 1.06c1.08 1.09 2.25 2.08 3.5 2.96 1.11 0.78 2.3 1.46 3.55 2.02 2.22 0.99 4.63 1.52 7.06 1.53 2.6-0.02 5.17-0.6 7.53-1.7 2.53-1.19 4.82-2.81 6.78-4.8 1.53-1.55 3.16-3 4.89-4.32 1.31-1.02 2.72-1.91 4.21-2.65 1.17-0.59 2.41-1.03 3.69-1.32 1.07-0.24 2.16-0.35 3.25-0.35 0.77 0.01 1.54 0.05 2.31 0.14 1.19 0.13 2.36 0.44 3.45 0.91 1.15 0.5 2.24 1.12 3.25 1.85 1.12 0.79 2.18 1.65 3.19 2.57 1.14 1.02 2.24 2.08 3.32 3.16 1.02 1.03 2.12 1.97 3.3 2.81 1.07 0.77 2.21 1.43 3.41 1.98 2.17 1.01 4.54 1.54 6.93 1.56 2.4-0.02 4.77-0.55 6.94-1.56 1.2-0.55 2.34-1.21 3.41-1.98 1.18-0.84 2.28-1.78 3.3-2.81 2.54-2.53 5.55-4.55 8.85-5.94 3.34-1.42 6.92-2.15 10.55-2.16 3.37 0 6.7 0.66 9.82 1.94 3.42 1.43 6.52 3.53 9.12 6.16 1.2 1.21 2.5 2.31 3.89 3.28 1.24 0.88 2.57 1.63 3.96 2.24 2.5 1.11 5.19 1.69 7.92 1.7 2.94-0.02 5.83-0.67 8.5-1.9 2.81-1.31 5.37-3.11 7.55-5.32 2.28-2.3 4.99-4.14 7.97-5.41 2.83-1.2 5.87-1.82 8.93-1.82 3.07 0 6.11 0.62 8.94 1.82 2.98 1.27 5.69 3.11 7.97 5.41 1.88 1.91 4.11 3.44 6.57 4.51 2.21 0.93 4.58 1.42 6.98 1.42 2.51-0.01 5-0.53 7.3-1.53 2.41-1.04 4.6-2.54 6.44-4.4 1.96-1.96 4.3-3.5 6.87-4.53 2.43-0.95 5.02-1.44 7.63-1.44 2.75 0 5.48 0.53 8.03 1.55 2.45 0.97 4.69 2.42 6.59 4.25 2.19 1.15 4.45 2.16 6.76 3.01 1.74 0.64 3.53 1.13 5.35 1.45 0.57 0.1 1.14 0.18 1.71 0.24 0.53 0.05 1.05 0.09 1.58 0.11 1.2 0.04 2.41-0.04 3.6-0.23 1.05-0.16 2.08-0.44 3.07-0.83 0.98-0.38 1.9-0.86 2.77-1.44 0.95-0.62 1.83-1.34 2.63-2.15 2.54-2.49 5.6-4.39 8.96-5.55 3.32-1.15 6.8-1.72 10.31-1.7 3.85-0.01 7.67 0.64 11.31 1.92 1.69 0.59 3.33 1.35 4.87 2.27 1.46 0.85 2.8 1.88 4 3.06 1.03 1.01 2.17 1.89 3.41 2.62 1.38 0.81 2.84 1.49 4.35 2.02 3.32 1.17 6.81 1.76 10.33 1.74 3.17 0.03 6.32-0.49 9.31-1.53 2.94-1.01 5.62-2.67 7.84-4.85z"/>
<path d="m72.5 122.5c-0.01-15.37 3.06-30.59 9.04-44.75 5.79-13.65 14.16-26.07 24.66-36.55 10.48-10.5 22.9-18.87 36.55-24.66 14.16-5.98 29.38-9.05 44.75-9.04 15.37-0.01 30.59 3.06 44.75 9.04 13.65 5.79 26.07 14.16 36.55 24.66 10.5 10.48 18.87 22.9 24.66 36.55 5.98 14.16 9.05 29.38 9.04 44.75 0.01 15.37-3.06 30.59-9.04 44.75-5.79 13.65-14.16 26.07-24.66 36.55-10.48 10.5-22.9 18.87-36.55 24.66-14.16 5.98-29.38 9.05-44.75 9.04-15.37 0.01-30.59-3.06-44.75-9.04-13.65-5.79-26.07-14.16-36.55-24.66-10.5-10.48-18.87-22.9-24.66-36.55-5.98-14.16-9.05-29.38-9.04-44.75zm3 0c-0.01-14.97 2.98-29.79 8.81-43.58 5.63-13.3 13.79-25.39 24.01-35.6 10.21-10.22 22.3-18.38 35.6-24.01 13.79-5.83 28.61-8.82 43.58-8.81 14.97-0.01 29.79 2.98 43.58 8.81 13.3 5.63 25.39 13.79 35.6 24.01 10.22 10.21 18.38 22.3 24.01 35.6 5.83 13.79 8.82 28.61 8.81 43.58 0.01 14.97-2.98 29.79-8.81 43.58-5.63 13.3-13.79 25.39-24.01 35.6-10.21 10.22-22.3 18.38-35.6 24.01-13.79 5.83-28.61 8.82-43.58 8.81-14.97 0.01-29.79-2.98-43.58-8.81-13.3-5.63-25.39-13.79-35.6-24.01-10.22-10.21-18.38-22.3-24.01-35.6-5.83-13.79-8.82-28.61-8.81-43.58z" fill-rule="evenodd"/>
<path d="m109.31 122.5c-0.01-10.45 2.08-20.8 6.15-30.42 3.94-9.29 9.63-17.73 16.76-24.86s15.57-12.82 24.86-16.76c9.62-4.07 19.97-6.16 30.42-6.15 10.45-0.01 20.8 2.08 30.42 6.15 9.29 3.94 17.73 9.63 24.86 16.76s12.82 15.57 16.76 24.86c4.07 9.62 6.16 19.97 6.15 30.42 0.01 10.45-2.08 20.8-6.15 30.42-3.94 9.29-9.63 17.73-16.76 24.86s-15.57 12.82-24.86 16.76c-9.62 4.07-19.97 6.16-30.42 6.15-10.45 0.01-20.8-2.08-30.42-6.15-9.29-3.94-17.73-9.63-24.86-16.76s-12.82-15.57-16.76-24.86c-4.07-9.62-6.16-19.97-6.15-30.42zm3 0c-0.01-10.05 2-20 5.91-29.26 3.79-8.92 9.26-17.04 16.12-23.9s14.98-12.33 23.91-16.12c9.25-3.91 19.2-5.92 29.25-5.91 10.05-0.01 20 2 29.25 5.91 8.93 3.79 17.05 9.26 23.91 16.12s12.33 14.98 16.12 23.91c3.91 9.25 5.92 19.2 5.91 29.25 0.01 10.05-2 20-5.91 29.25-3.79 8.93-9.26 17.05-16.12 23.91s-14.98 12.33-23.91 16.12c-9.25 3.91-19.2 5.92-29.25 5.91-10.05 0.01-20-2-29.25-5.91-8.93-3.79-17.05-9.26-23.91-16.12s-12.33-14.98-16.12-23.91c-3.91-9.25-5.92-19.2-5.91-29.25z" fill-rule="evenodd"/>
<path d="m110.97 41.95l-1.05-1.07 2.14-2.1 1.05 1.07 24.13 24.54 1.05 1.07-2.14 2.1-1.05-1.07-24.13-24.54z"/>
<path d="m239.07 65.69l-1.06 1.06-2.12-2.12 1.06-1.07 24.95-24.94 1.06-1.07 2.12 2.13-1.06 1.06-24.95 24.95z"/>
<path d="m114.33 206.38l-1.05 1.07-2.14-2.11 1.06-1.07 24.13-24.54 1.05-1.07 2.14 2.11-1.05 1.07-24.14 24.54z"/>
<path d="m238.18 182.66l-1.06-1.06 2.12-2.12 1.06 1.06 24.95 24.95 1.06 1.06-2.12 2.12-1.06-1.06-24.95-24.95z"/>
<path d="m228.83 113.74c-0.68 4.03-1.46 8.03-2.35 12.02-0.59 2.68-1.26 5.34-2 7.99-0.76 2.74-1.62 5.45-2.57 8.13-0.74 2.07-1.57 4.11-2.5 6.1-1.09 2.36-2.36 4.63-3.79 6.8-1.03 1.57-2.23 3.02-3.58 4.34-0.84 0.82-1.75 1.57-2.72 2.24-0.85 0.59-1.76 1.09-2.71 1.49-0.89 0.38-1.81 0.67-2.75 0.86s-1.9 0.29-2.86 0.29h-25c-0.97 0-1.93-0.09-2.89-0.27-0.94-0.17-1.87-0.44-2.77-0.78-0.96-0.37-1.87-0.82-2.74-1.36-0.96-0.59-1.88-1.26-2.73-2-0.37-0.32-0.72-0.64-1.06-0.98-0.36-0.35-0.72-0.72-1.06-1.1-1.09-1.19-2.09-2.46-2.98-3.81-1.15-1.71-2.19-3.49-3.12-5.33-0.52-1.01-1.01-2.04-1.47-3.08-0.53-1.18-1.02-2.38-1.5-3.59-0.34-0.87-0.67-1.75-0.98-2.63-0.35-0.96-0.68-1.93-1-2.91-0.95-2.92-1.81-5.88-2.57-8.86-1.14-4.5-2.14-9.02-3-13.58 13.5 1.96 27.12 2.93 40.77 2.91 14.02-0.01 28.03-0.97 41.93-2.89zm-3.67 3.51c-0.49 2.63-1.03 5.25-1.61 7.86-0.58 2.63-1.23 5.24-1.96 7.83-0.74 2.68-1.58 5.32-2.51 7.94-0.71 1.98-1.5 3.93-2.39 5.84-1.03 2.22-2.22 4.36-3.57 6.41-0.92 1.39-1.98 2.68-3.18 3.84-0.72 0.71-1.49 1.35-2.32 1.92-0.69 0.47-1.42 0.88-2.19 1.2-0.7 0.3-1.43 0.53-2.17 0.68s-1.5 0.23-2.26 0.23h-25c-0.78 0-1.57-0.07-2.34-0.22-0.76-0.14-1.52-0.35-2.24-0.63-0.78-0.3-1.53-0.67-2.25-1.11-0.82-0.51-1.61-1.09-2.34-1.72-0.32-0.28-0.62-0.56-0.92-0.85-0.33-0.32-0.64-0.65-0.95-0.98-0.98-1.08-1.89-2.23-2.7-3.45-1.07-1.62-2.06-3.3-2.94-5.03-0.49-0.97-0.96-1.94-1.4-2.93-0.51-1.15-0.99-2.3-1.44-3.47-0.33-0.84-0.65-1.69-0.96-2.55-0.33-0.94-0.66-1.88-0.97-2.83-0.93-2.86-1.77-5.76-2.51-8.67-0.79-3.08-1.5-6.18-2.15-9.29 12.27 1.59 24.64 2.38 37.01 2.36 12.79-0.01 25.57-0.8 38.26-2.38z" fill-rule="evenodd"/>
<path d="m172.88 152.29c0.32 0.23 0.54 0.58 0.6 0.98 0.06 0.39-0.03 0.79-0.27 1.11-0.23 0.32-0.58 0.54-0.98 0.6-0.39 0.06-0.79-0.03-1.11-0.27-0.32-0.23-0.62-0.49-0.9-0.78-0.31-0.33-0.61-0.67-0.89-1.02-0.69-0.88-1.34-1.79-1.94-2.73-1.56-2.45-2.99-4.97-4.29-7.57-1.46-2.86-2.79-5.78-3.99-8.77-0.56-1.39-1.07-2.79-1.53-4.22-0.42-1.25-0.77-2.52-1.05-3.8-0.08-0.39-0.01-0.8 0.21-1.13 0.21-0.33 0.55-0.57 0.94-0.66 0.39-0.08 0.8-0.01 1.13 0.21 0.33 0.21 0.57 0.55 0.66 0.94 0.25 1.18 0.57 2.35 0.96 3.5 0.44 1.37 0.93 2.72 1.47 4.05 1.16 2.9 2.45 5.75 3.88 8.53 1.25 2.51 2.63 4.94 4.14 7.3 0.54 0.86 1.13 1.69 1.76 2.49 0.22 0.28 0.46 0.55 0.71 0.8 0.15 0.16 0.32 0.31 0.49 0.44z"/>
<path d="m196.91 117.92l-0.42 0.91-1.82-0.84 0.42-0.91 16.5-36.08 13.98 9.68 0.82 0.57-1.14 1.64-0.82-0.57-12.02-8.32-15.5 33.92z"/>
<path d="m187.1 95.99c2.54-2.57 5.48-4.71 8.7-6.35 1.51-0.76 3.1-1.33 4.75-1.7 1.44-0.33 2.91-0.47 4.39-0.42 1.44 0.04 2.88 0.28 4.26 0.69 0.72 0.22 1.43 0.48 2.11 0.79 0.66 0.29 1.29 0.63 1.89 1.02 0.59 0.38 1.16 0.8 1.69 1.25 0.55 0.47 1.06 0.97 1.53 1.51 1.04 1.18 1.92 2.5 2.59 3.93 1.53 3.21 2.43 6.7 2.63 10.26-0.89-1.8-2.03-3.47-3.39-4.94-0.25-0.27-0.51-0.53-0.78-0.77-0.34-0.3-0.7-0.58-1.09-0.82-0.22-0.13-0.45-0.24-0.69-0.31-0.23-0.07-0.47-0.11-0.71-0.11-0.42-0.02-0.83 0-1.25 0.06-0.38 0.05-0.75 0.12-1.12 0.21-0.75 0.18-1.49 0.41-2.22 0.67-0.42-0.61-0.87-1.2-1.37-1.75-0.25-0.28-0.51-0.54-0.79-0.79-0.31-0.26-0.64-0.5-1-0.71-0.24-0.14-0.5-0.25-0.77-0.34-0.26-0.07-0.53-0.12-0.8-0.14-0.38-0.02-0.77-0.01-1.16 0.04-0.37 0.05-0.75 0.12-1.12 0.22-0.77 0.2-1.52 0.45-2.24 0.76-0.61-1.06-1.4-2.01-2.34-2.79-0.46-0.38-0.99-0.67-1.56-0.84-0.16-0.05-0.31-0.09-0.47-0.12-0.2-0.03-0.41-0.06-0.61-0.08-0.62-0.06-1.24-0.07-1.85-0.01-2.46 0.2-4.89 0.74-7.21 1.58zm7.88-3.62c0.57-0.33 1.14-0.65 1.73-0.94 1.36-0.69 2.79-1.21 4.28-1.54 1.27-0.29 2.58-0.41 3.89-0.37 1.27 0.04 2.53 0.24 3.75 0.61 0.63 0.19 1.26 0.42 1.86 0.69 0.57 0.26 1.11 0.55 1.64 0.89 0.51 0.32 1 0.69 1.46 1.08 0.48 0.41 0.92 0.85 1.33 1.31 0.92 1.05 1.69 2.21 2.29 3.46 0.22 0.48 0.43 0.96 0.63 1.45-0.13-0.09-0.27-0.18-0.41-0.27-0.36-0.22-0.76-0.4-1.17-0.52-0.39-0.12-0.8-0.19-1.2-0.2-0.54-0.02-1.07 0-1.6 0.08-0.44 0.06-0.88 0.14-1.32 0.24-0.33 0.09-0.67 0.18-1 0.27-0.21-0.25-0.42-0.5-0.63-0.74-0.31-0.34-0.63-0.66-0.97-0.95-0.4-0.35-0.83-0.66-1.29-0.93-0.38-0.23-0.79-0.4-1.22-0.53-0.4-0.12-0.83-0.2-1.25-0.22-0.51-0.03-1.02-0.01-1.52 0.05-0.47 0.06-0.93 0.14-1.38 0.26-0.32 0.08-0.64 0.18-0.96 0.28-0.54-0.7-1.16-1.34-1.84-1.91-0.66-0.55-1.44-0.97-2.27-1.22-0.22-0.06-0.45-0.12-0.67-0.16-0.26-0.05-0.52-0.09-0.79-0.11-0.45-0.05-0.91-0.07-1.37-0.06z" fill-rule="evenodd"/>
</g>
</svg>
