<?xml version="1.0" encoding="UTF-8"?>
<svg enable-background="new 0 0 480 480" version="1.1" viewBox="0 0 480 480" xml:space="preserve" xmlns="http://www.w3.org/2000/svg">
		<path d="m472 0h-208c-4.418 0-8 3.582-8 8v120c0 4.418 3.582 8 8 8s8-3.582 8-8v-112h192v448h-456c-4.418 0-8 3.582-8 8s3.582 8 8 8h464c4.418 0 8-3.582 8-8v-464c0-4.418-3.582-8-8-8z"/>
		<path d="m219.54 299.74 53.072-26.936c13.736-7.074 19.282-23.843 12.472-37.712-3.287-6.717-9.141-11.826-16.24-14.176-7.012-2.345-14.674-1.768-21.256 1.6l-30.4 15.4-10.336-17.432c29.437-7.032 47.599-36.597 40.567-66.034s-36.597-47.599-66.034-40.567-47.599 36.597-40.567 66.034c0.579 2.423 1.323 4.805 2.225 7.127l-65.439 27.648c-8.505 3.329-14.857 10.591-17.024 19.464l-13.272 53.76c-3.725 15.004 5.313 30.212 20.272 34.112 7.137 1.839 14.714 0.729 21.024-3.08 6.45-3.851 11.083-10.132 12.856-17.432l9.744-39.664 19.016-7.888-10.28 57.28-40.52 45.408-33.104-29.328c-11.445-10.174-28.972-9.143-39.146 2.302-0.102 0.114-0.203 0.23-0.302 0.346-10.043 11.729-8.874 29.334 2.632 39.632l53.064 47.04c11.158 9.476 27.69 8.918 38.184-1.288l50.904-51.56 40.656 24.696 29.544 59.88c4.645 9.567 14.349 15.639 24.984 15.632 4.349 5e-3 8.638-1.023 12.512-3 13.741-7.074 19.285-23.851 12.464-37.72l-33.176-67.2c-2.356-4.78-6.024-8.79-10.576-11.56l-49.16-29.88 5.256-23.936c7.867 11.449 22.992 15.31 35.384 9.032zm-39.384-40.544c-3.375 0.411-6.122 2.911-6.848 6.232l-11.256 51.376c-0.73 3.336 0.738 6.768 3.656 8.544l54.048 32.848c1.95 1.199 3.523 2.923 4.536 4.976l33.168 67.2c2.965 5.997 0.595 13.264-5.336 16.36-5.898 2.842-12.985 0.432-15.928-5.416l-30.592-61.952c-0.669-1.365-1.716-2.508-3.016-3.296l-48.048-29.208c-3.17-1.923-7.246-1.417-9.848 1.224l-55.352 56.072c-4.439 4.345-11.459 4.584-16.184 0.552l-53.064-47.04c-5.001-4.484-5.502-12.142-1.128-17.24 4.206-4.926 11.608-5.51 16.534-1.305 0.065 0.056 0.13 0.112 0.194 0.169l39.064 34.616c3.297 2.922 8.336 2.629 11.272-0.656l47.344-53.04c0.984-1.103 1.643-2.457 1.904-3.912l13.264-73.92c0.764-4.352-2.145-8.499-6.497-9.262-1.496-0.263-3.036-0.094-4.439 0.486l-36.272 15.048c-2.35 0.975-4.097 3.009-4.704 5.48l-10.744 43.552c-0.756 3.154-2.752 5.871-5.536 7.536-2.654 1.617-5.851 2.085-8.856 1.296-6.456-1.707-10.331-8.296-8.688-14.768l13.272-53.776c0.963-3.878 3.763-7.039 7.496-8.464l63.696-26.88 9.768 4.232c4.062 1.738 8.764-0.146 10.502-4.208 1.244-2.907 0.658-6.275-1.494-8.592-6.9-7.292-10.74-16.953-10.728-26.992 0.327-21.232 17.804-38.178 39.035-37.851s38.178 17.804 37.851 39.035c-0.323 21.002-17.442 37.858-38.447 37.856-4.418-4e-3 -8.003 3.575-8.007 7.993-1e-3 1.438 0.385 2.85 1.119 4.087l19.912 33.6c1.567 2.614 4.473 4.121 7.512 3.896l2.264-0.176c1.04-0.085 2.053-0.37 2.984-0.84l35.272-17.864c2.777-1.432 6.018-1.672 8.976-0.664 3.031 1.011 5.529 3.195 6.936 6.064 2.984 6.005 0.607 13.293-5.344 16.384l-53.072 26.888c-5.909 2.823-12.99 0.388-15.912-5.472l-8.104-16.408c-1.471-3.075-4.756-4.852-8.135-4.4z"/>
		<path d="m421.66 242.34-32-32c-3.178-3.07-8.242-2.982-11.312 0.196-2.994 3.1-2.994 8.015 0 11.116l18.344 18.344h-84.688c-4.418 0-8 3.582-8 8s3.582 8 8 8h84.688l-18.344 18.344c-3.178 3.07-3.266 8.134-0.196 11.312s8.134 3.266 11.312 0.196c0.066-0.064 0.132-0.13 0.196-0.196l32-32c3.123-3.124 3.123-8.188 0-11.312z"/>
		<path d="m264 296c-4.418 0-8 3.582-8 8v56c0 4.418 3.582 8 8 8s8-3.582 8-8v-56c0-4.418-3.582-8-8-8z"/>
		<path d="m264 184c-4.418 0-8 3.582-8 8v8c0 4.418 3.582 8 8 8s8-3.582 8-8v-8c0-4.418-3.582-8-8-8z"/>
</svg>
