<?xml version="1.0" encoding="UTF-8"?>
<svg style="isolation:isolate" viewBox="0 0 375 375" xmlns="http://www.w3.org/2000/svg">
<defs>
<clipPath id="a">
<rect width="375" height="375"/>
</clipPath>
</defs>
<g clip-path="url(#a)">
<path d="m69.94 356.5h-1.5v-3h1.5 235.12 1.5v3h-1.5-235.12z"/>
<path d="m303.56 193v-1.5h3v1.5 149.5h-238.12v-149.5-1.5h3v1.5 146.5h232.12v-146.5z"/>
<path d="m87.37 182.64l1.36-0.63 1.26 2.72-1.36 0.63c-7.31 3.39-15.27 5.15-23.32 5.14-5.71 0.01-11.38-0.87-16.82-2.59-5.29-1.66-10.27-4.17-14.76-7.43-4.41-3.19-8.2-7.17-11.18-11.73-3.05-4.71-5.09-9.98-6.03-15.5-0.9-5.36-1.62-10.75-2.15-16.16-0.75-7.4-1.14-14.83-1.15-22.27-0.01-4.15 0.13-8.3 0.42-12.44 0.29-4.2 0.78-8.37 1.47-12.52 0.66-4.08 1.58-8.11 2.76-12.08 1.13-3.82 2.58-7.55 4.35-11.13 1.7-3.45 3.8-6.69 6.24-9.67 2.43-2.93 5.26-5.5 8.43-7.63 3.33-2.21 6.98-3.89 10.83-4.98 2.08-0.59 4.21-1.03 6.36-1.31 2.33-0.31 4.68-0.46 7.02-0.45 3.79 0.01 7.57 0.34 11.3 0.98 4.33 0.73 8.6 1.75 12.8 3.05 4.89 1.51 9.69 3.28 14.4 5.3 5.13 2.2 10.17 4.61 15.11 7.21 4.8-4.85 9.99-9.31 15.52-13.32 5.8-4.22 12.01-7.86 18.52-10.88 6.61-3.05 13.52-5.39 20.63-6.98 7.42-1.65 15.01-2.48 22.62-2.47 7.65-0.01 15.28 0.74 22.78 2.25 7.27 1.47 14.37 3.69 21.19 6.62 6.83 2.95 13.35 6.57 19.46 10.8 6.03 4.19 11.68 8.88 16.9 14.04 2.91-1.27 5.86-2.44 8.86-3.49 2.96-1.05 5.97-1.95 9.03-2.71 2.73-0.68 5.5-1.21 8.29-1.58 2.51-0.33 5.05-0.5 7.59-0.51 2.37 0 4.75 0.17 7.1 0.52 2.18 0.32 4.32 0.82 6.42 1.5 3.89 1.25 7.56 3.14 10.83 5.6 3.17 2.4 5.97 5.24 8.32 8.44 2.4 3.28 4.44 6.8 6.07 10.52 1.7 3.84 3.1 7.81 4.18 11.87 1.11 4.14 1.98 8.34 2.61 12.58 0.63 4.18 1.08 8.4 1.35 12.62 0.26 4 0.39 8.01 0.39 12.01 0 5.45-0.22 10.89-0.67 16.31-0.17 2.03-0.37 4.06-0.61 6.09-0.17 1.42-0.37 2.85-0.61 4.27l-0.18 1.03c-0.3 1.86-0.64 3.71-1 5.55-0.4 2.01-0.88 4.01-1.44 5.98-0.6 2.07-1.34 4.1-2.21 6.07-0.91 2.04-2.02 3.99-3.31 5.81-1.36 1.92-2.95 3.66-4.74 5.18-1.96 1.66-4.13 3.05-6.46 4.14-2.67 1.24-5.49 2.15-8.39 2.71-3.49 0.67-7.03 0.99-10.58 0.96-2.23 0-4.47-0.1-6.69-0.3-2.5-0.22-4.99-0.54-7.47-0.94-2.78-0.46-5.54-1-8.28-1.63-3.07-0.71-6.12-1.5-9.15-2.37l-1.44-0.41 0.83-2.89 1.45 0.42c2.97 0.86 5.97 1.63 8.98 2.32 2.68 0.62 5.38 1.15 8.09 1.6 2.41 0.39 4.82 0.7 7.25 0.91 2.14 0.19 4.3 0.29 6.45 0.29 3.35 0.03 6.7-0.28 9.99-0.91 2.66-0.51 5.24-1.35 7.7-2.48 2.08-0.98 4.02-2.22 5.78-3.7 1.59-1.37 3.02-2.92 4.23-4.63 1.18-1.67 2.19-3.44 3.02-5.3 0.82-1.84 1.51-3.74 2.06-5.68 0.54-1.89 1.01-3.8 1.39-5.73 0.35-1.81 0.68-3.63 0.98-5.46v-0.01l0.18-1.03c0.23-1.37 0.43-2.75 0.59-4.13 0.24-1.99 0.44-3.98 0.6-5.98 0.44-5.34 0.66-10.7 0.66-16.06 0-3.94-0.13-7.88-0.38-11.82-0.27-4.14-0.71-8.26-1.32-12.37-0.62-4.13-1.47-8.21-2.55-12.24-1.04-3.92-2.38-7.74-4.02-11.44-1.55-3.52-3.48-6.85-5.75-9.95-2.18-2.97-4.77-5.6-7.7-7.83-3.01-2.25-6.37-3.99-9.95-5.14-1.94-0.62-3.93-1.08-5.94-1.38-2.2-0.33-4.43-0.49-6.66-0.49-2.4 0.01-4.81 0.17-7.2 0.49-2.68 0.35-5.34 0.86-7.96 1.51-2.96 0.74-5.88 1.61-8.75 2.63-3.57 1.26-7.08 2.67-10.52 4.25-5.49-5.61-11.5-10.69-17.95-15.16-5.95-4.12-12.29-7.64-18.94-10.51-6.62-2.85-13.53-5.01-20.59-6.44-7.31-1.47-14.74-2.2-22.19-2.19-7.39-0.01-14.76 0.79-21.97 2.39-6.9 1.55-13.61 3.82-20.03 6.78-6.33 2.94-12.36 6.48-18.01 10.58-5.99 4.36-11.58 9.25-16.7 14.61-5.5-2.97-11.13-5.7-16.88-8.16-4.6-1.98-9.31-3.71-14.1-5.19-4.07-1.26-8.21-2.25-12.41-2.96-3.57-0.61-7.18-0.93-10.81-0.94-2.21-0.01-4.42 0.13-6.62 0.42-2 0.27-3.99 0.68-5.93 1.23-3.55 1-6.92 2.55-9.99 4.59-2.92 1.96-5.53 4.33-7.78 7.04-2.29 2.8-4.26 5.84-5.86 9.09-1.69 3.42-3.08 6.99-4.16 10.65-1.14 3.85-2.04 7.76-2.68 11.72-0.67 4.05-1.15 8.14-1.43 12.24-0.29 4.07-0.43 8.15-0.42 12.23 0.01 7.34 0.39 14.67 1.13 21.97 0.53 5.34 1.24 10.67 2.13 15.96 0.86 5.12 2.76 10 5.58 14.36 2.78 4.26 6.32 7.96 10.43 10.94 4.23 3.07 8.92 5.43 13.9 7 5.15 1.63 10.52 2.46 15.92 2.45 7.62 0.01 15.15-1.65 22.06-4.86z"/>
<path d="m296.95 158.93l1.07-1.05 2.1 2.14-1.07 1.05c-7.8 7.63-16.41 14.38-25.67 20.15-8.91 5.52-18.36 10.13-28.2 13.74-9.62 3.53-19.55 6.17-29.66 7.87-9.93 1.68-19.99 2.51-30.06 2.5-10.78 0-21.53-0.93-32.14-2.78-10.22-1.77-20.27-4.41-30.03-7.9-4.68-1.68-9.29-3.57-13.8-5.67-4.36-2.02-8.62-4.26-12.77-6.7-3.98-2.34-7.84-4.9-11.56-7.66-3.56-2.64-6.97-5.49-10.19-8.53l-1.09-1.03 2.06-2.18 1.09 1.03c3.14 2.96 6.45 5.74 9.92 8.3 3.63 2.7 7.4 5.19 11.29 7.48 4.07 2.39 8.24 4.59 12.51 6.57 4.43 2.06 8.95 3.91 13.55 5.56 9.6 3.44 19.48 6.04 29.53 7.78 10.45 1.82 21.03 2.73 31.63 2.73 9.9 0.01 19.79-0.81 29.56-2.46 9.93-1.67 19.68-4.26 29.12-7.72 9.65-3.54 18.92-8.06 27.65-13.48 9.08-5.65 17.52-12.27 25.16-19.74z"/>
</g>
</svg>
