<?xml version="1.0" encoding="UTF-8"?>
<svg style="isolation:isolate" viewBox="0 0 375 375" xmlns="http://www.w3.org/2000/svg">
<defs>
<clipPath id="a">
<rect width="375" height="375"/>
</clipPath>
</defs>
<g clip-path="url(#a)">
<path d="m178.89 30.08h0.16 0.01c1.71 0.02 3.39 0.4 4.95 1.12 0.74 0.33 1.47 0.7 2.17 1.11 0.69 0.41 1.38 0.83 2.06 1.26 1.03 0.67 2.09 1.29 3.18 1.86 1.03 0.55 2.14 0.94 3.28 1.18 0.4 0.07 0.8 0.1 1.2 0.1 0.77-0.01 1.54-0.09 2.3-0.24 0.83-0.16 1.67-0.34 2.49-0.54 0.86-0.21 1.73-0.4 2.6-0.57 0.85-0.16 1.7-0.25 2.56-0.26 0.38 0 0.76 0.02 1.14 0.07 0.6 0.09 1.19 0.28 1.72 0.57 0.55 0.29 1.06 0.63 1.54 1.03 0.49 0.41 0.95 0.84 1.39 1.3 0.45 0.47 0.88 0.94 1.31 1.42 0.59 0.67 1.22 1.32 1.87 1.94 0.5 0.51 1.09 0.92 1.74 1.22 0.49 0.2 1 0.32 1.52 0.37 0.61 0.07 1.22 0.11 1.84 0.1l1.62-0.03c0.52-0.02 1.04-0.03 1.57-0.03 0.51-0.01 1.03 0.02 1.54 0.06 0.47 0.05 0.94 0.14 1.39 0.29 0.94 0.31 1.79 0.83 2.5 1.53 0.55 0.6 1.04 1.25 1.45 1.95 0.34 0.56 0.71 1.09 1.13 1.59 0.47 0.55 1.03 1.01 1.66 1.37 0.7 0.42 1.36 0.92 1.96 1.48 0.64 0.58 1.26 1.18 1.86 1.8 0.54 0.55 1.1 1.1 1.67 1.63 0.48 0.45 1.01 0.85 1.57 1.19 0.39 0.22 0.81 0.38 1.24 0.48 0.46 0.09 0.93 0.14 1.4 0.13 0.57 0 1.14-0.04 1.7-0.12 0.59-0.09 1.18-0.18 1.76-0.29 0.56-0.11 1.12-0.2 1.68-0.28 0.54-0.08 1.08-0.12 1.62-0.13 0.75-0.02 1.5 0.12 2.19 0.43 1.01 0.49 1.98 1.04 2.92 1.66 0.89 0.58 1.76 1.19 2.62 1.81 0.6 0.43 1.21 0.86 1.83 1.28 0.56 0.37 1.13 0.73 1.72 1.05 0.52 0.29 1.07 0.52 1.64 0.71 0.5 0.16 1.03 0.24 1.56 0.25 0.48 0 0.95-0.08 1.41-0.24 0.69-0.25 1.36-0.56 2-0.93 0.75-0.42 1.48-0.85 2.21-1.31 1.22-0.77 2.47-1.48 3.76-2.13 1.3-0.67 2.7-1.12 4.15-1.34 0.66-0.08 1.33-0.12 2-0.12 1.33 0.01 2.66 0.16 3.97 0.43 1.29 0.28 2.58 0.61 3.86 0.97 1.13 0.33 2.27 0.62 3.42 0.89 1.24 0.29 2.48 0.5 3.74 0.64 0.27 0.03 0.53 0.04 0.8 0.04 0.62-0.01 1.23-0.06 1.84-0.15 0.67-0.09 1.34-0.2 2.01-0.33 0.77-0.14 1.54-0.26 2.31-0.37 0.81-0.12 1.61-0.18 2.42-0.18 0.52 0 1.03 0.03 1.55 0.09 0.61 0.09 1.21 0.26 1.77 0.51 0.57 0.25 1.11 0.56 1.62 0.92 1 0.73 1.96 1.52 2.86 2.39 0.59 0.55 1.19 1.08 1.82 1.59 0.52 0.43 1.09 0.78 1.7 1.05 0.77 0.3 1.57 0.5 2.39 0.61 0.89 0.11 1.78 0.19 2.68 0.24 0.97 0.05 1.94 0.14 2.9 0.28 0.95 0.12 1.88 0.38 2.76 0.77 0.5 0.24 0.95 0.57 1.33 0.98 0.37 0.42 0.68 0.88 0.94 1.37 0.26 0.52 0.5 1.05 0.7 1.59 0.2 0.56 0.4 1.12 0.58 1.69 0.26 0.83 0.56 1.65 0.89 2.45 0.28 0.69 0.67 1.34 1.15 1.91 0.55 0.58 1.23 1 1.98 1.25 0.82 0.27 1.67 0.48 2.53 0.62 0.91 0.15 1.8 0.37 2.66 0.67 0.42 0.15 0.81 0.36 1.18 0.62s0.7 0.6 0.95 0.98c0.65 1.03 1.1 2.17 1.34 3.37 0.26 1.22 0.44 2.45 0.56 3.69 0.09 0.82 0.2 1.65 0.33 2.47 0.12 0.78 0.3 1.54 0.53 2.29 0.14 0.39 0.31 0.76 0.52 1.1 0.26 0.43 0.54 0.84 0.84 1.23 0.7 0.9 1.43 1.77 2.2 2.61 0.66 0.73 1.3 1.48 1.91 2.25 0.27 0.34 0.52 0.69 0.76 1.06 0.21 0.32 0.39 0.67 0.54 1.02 0.32 0.84 0.54 1.72 0.66 2.61 0.12 0.86 0.17 1.72 0.16 2.58 0 0.73-0.02 1.45-0.05 2.18s-0.05 1.45-0.06 2.18c0 0.89 0.05 1.77 0.17 2.65 0.13 0.9 0.36 1.79 0.7 2.64 0.14 0.37 0.35 0.71 0.61 1.01 0.27 0.3 0.57 0.56 0.91 0.79 0.36 0.25 0.75 0.47 1.15 0.67 0.43 0.21 0.86 0.41 1.3 0.6 0.93 0.39 1.83 0.86 2.69 1.4 0.91 0.58 1.65 1.39 2.16 2.34 0.43 0.89 0.72 1.85 0.86 2.83 0.14 0.97 0.22 1.94 0.26 2.92 0.04 1.18 0.17 2.36 0.37 3.52 0.22 1.16 0.67 2.27 1.33 3.26 0.39 0.56 0.81 1.1 1.27 1.61 0.51 0.58 1.03 1.15 1.56 1.71 1 1.03 1.95 2.11 2.84 3.24 0.42 0.55 0.81 1.12 1.15 1.72 0.32 0.58 0.58 1.19 0.76 1.82 0.28 1.02 0.42 2.08 0.42 3.14-0.02 1.27-0.19 2.54-0.51 3.77-0.32 1.24-0.7 2.46-1.12 3.68-0.37 1.08-0.71 2.18-1.03 3.29-0.33 1.17-0.57 2.36-0.73 3.56-0.07 0.59-0.1 1.18-0.1 1.78 0.01 1.02 0.07 2.05 0.2 3.07 0.13 1.08 0.28 2.17 0.45 3.25 0.18 1.13 0.34 2.26 0.47 3.4 0.14 1.11 0.21 2.23 0.22 3.35 0 0.83-0.05 1.65-0.17 2.47-0.12 0.8-0.32 1.58-0.61 2.33-0.59 1.44-1.42 2.77-2.45 3.94-1.04 1.19-2.14 2.32-3.3 3.4-0.78 0.73-1.54 1.49-2.29 2.26-0.73 0.76-1.42 1.57-2.04 2.43-0.21 0.3-0.38 0.62-0.5 0.97-0.14 0.39-0.24 0.79-0.32 1.2-0.15 0.93-0.26 1.87-0.31 2.82-0.05 0.91-0.15 1.81-0.3 2.71-0.07 0.41-0.18 0.82-0.32 1.21-0.14 0.37-0.33 0.72-0.58 1.03-0.79 0.95-1.79 1.7-2.92 2.2-1.05 0.44-2.13 0.79-3.24 1.04-0.68 0.17-1.36 0.37-2.02 0.58-0.65 0.21-1.27 0.49-1.86 0.83-0.59 0.38-1.09 0.89-1.45 1.48-0.46 0.71-0.86 1.45-1.23 2.2-0.38 0.81-0.82 1.6-1.32 2.34-0.24 0.35-0.51 0.66-0.82 0.94s-0.67 0.49-1.05 0.63c-1.05 0.36-2.16 0.54-3.27 0.53-1.07-0.01-2.14-0.14-3.18-0.38-1.02-0.24-2.04-0.51-3.04-0.82-0.92-0.28-1.85-0.53-2.78-0.75-0.87-0.2-1.75-0.31-2.64-0.33l-0.59 0.02c-1.45 0.13-2.88 0.44-4.25 0.94-1.38 0.5-2.73 1.05-4.06 1.67-1.32 0.62-2.67 1.18-4.05 1.66-1.34 0.48-2.74 0.74-4.16 0.77-0.9 0-1.81-0.13-2.67-0.39-0.9-0.29-1.73-0.77-2.43-1.41-0.72-0.65-1.4-1.35-2.03-2.08-0.56-0.65-1.15-1.27-1.77-1.87-0.63-0.61-1.32-1.15-2.07-1.6-0.48-0.27-0.99-0.48-1.51-0.64-0.61-0.19-1.23-0.34-1.86-0.45-1.4-0.24-2.81-0.41-4.23-0.53-1.19-0.1-2.38-0.24-3.57-0.42-0.52-0.09-1.04-0.2-1.55-0.34-0.46-0.12-0.91-0.29-1.33-0.51-1.1-0.6-2.11-1.36-3-2.25-0.89-0.88-1.73-1.8-2.54-2.76-0.61-0.73-1.24-1.43-1.89-2.12-0.61-0.65-1.28-1.24-1.99-1.78-0.79-0.56-1.65-1.01-2.55-1.35-0.97-0.36-1.95-0.68-2.95-0.96-0.84-0.24-1.68-0.51-2.51-0.79-0.87-0.3-1.72-0.67-2.53-1.09-0.67-0.36-1.3-0.79-1.87-1.29-0.59-0.49-1.16-1.01-1.72-1.54-0.68-0.66-1.39-1.29-2.13-1.88-0.71-0.57-1.5-1.03-2.34-1.37-0.48-0.18-0.98-0.3-1.48-0.37-0.57-0.07-1.13-0.11-1.7-0.1-0.99 0.01-1.98 0.06-2.97 0.15-1.03 0.09-2.07 0.14-3.11 0.15-0.65 0.01-1.3-0.03-1.94-0.12-1.16-0.16-2.31-0.39-3.44-0.68-1.15-0.29-2.28-0.6-3.42-0.93-1.38-0.4-2.78-0.77-4.18-1.1-1.06-0.26-2.07-0.7-2.99-1.3-0.94-0.6-1.84-1.25-2.71-1.94-0.9-0.71-1.83-1.38-2.8-1.98-0.87-0.56-1.85-0.94-2.86-1.13-0.33-0.05-0.67-0.07-1.01-0.07-0.93 0.02-1.86 0.15-2.76 0.39-1 0.25-1.98 0.55-2.96 0.87-0.96 0.33-1.94 0.62-2.93 0.87-0.93 0.25-1.9 0.39-2.87 0.41h-0.03l-0.66-0.03h-0.02c-1.59-0.16-3.16-0.46-4.69-0.88-1.33-0.38-2.65-0.8-3.95-1.27-1.28-0.46-2.58-0.87-3.89-1.22-1.33-0.34-2.69-0.52-4.06-0.53l-0.27 0.01c-1.21 0.03-2.4 0.22-3.56 0.57-1.11 0.35-2.2 0.76-3.27 1.22-1.02 0.44-2.06 0.84-3.12 1.18-1.15 0.37-2.33 0.61-3.54 0.7-1.17 0.08-2.35 0.12-3.53 0.12-3.06-0.03-6.11-0.15-9.16-0.35-0.68-0.04-1.36-0.08-2.05-0.12-1.73-0.09-3.48-0.14-5.22-0.15-1.26 0-2.52 0.04-3.78 0.12-1.11 0.07-2.2 0.21-3.29 0.43-0.85 0.2-1.65 0.55-2.37 1.04-0.77 0.53-1.51 1.1-2.21 1.72-0.53 0.45-1.07 0.89-1.62 1.3-0.56 0.43-1.16 0.8-1.79 1.1-1.03 0.47-2.16 0.71-3.3 0.69-0.68-0.01-1.36-0.05-2.04-0.13-0.59-0.07-1.18-0.11-1.76-0.12-0.75-0.02-1.5 0.14-2.17 0.47-0.86 0.47-1.7 0.98-2.51 1.54-0.96 0.65-1.91 1.32-2.86 2-1.83 1.33-3.71 2.6-5.63 3.82-2.03 1.28-4.18 2.37-6.42 3.23-1.01 0.38-2.08 0.57-3.16 0.57-0.6-0.01-1.19-0.05-1.78-0.14-0.57-0.09-1.14-0.18-1.71-0.3-0.6-0.12-1.2-0.22-1.8-0.31-0.62-0.09-1.24-0.13-1.87-0.14-1.02 0-2.04 0.15-3.03 0.45-0.58 0.17-1.13 0.41-1.66 0.7-0.62 0.33-1.22 0.69-1.79 1.09-1.31 0.9-2.58 1.86-3.81 2.86-1.4 1.14-2.84 2.21-4.33 3.23-0.7 0.46-1.42 0.88-2.17 1.25-0.68 0.34-1.4 0.61-2.15 0.79-0.81 0.18-1.64 0.27-2.47 0.26-1.11-0.01-2.23-0.13-3.32-0.36-1.1-0.22-2.18-0.48-3.26-0.78-1.07-0.29-2.14-0.54-3.23-0.77-1.03-0.21-2.09-0.33-3.15-0.34-0.48 0-0.97 0.03-1.45 0.1-0.66 0.09-1.31 0.25-1.94 0.47-0.7 0.24-1.38 0.52-2.04 0.84-1.44 0.7-2.86 1.47-4.24 2.29-0.79 0.45-1.58 0.9-2.38 1.34-0.77 0.42-1.55 0.81-2.35 1.18-0.75 0.34-1.53 0.62-2.33 0.85-0.74 0.21-1.51 0.33-2.28 0.35h-0.01l-0.18 0.01h-0.01c-1.01-0.01-2.01-0.12-2.99-0.34-0.97-0.22-1.91-0.51-2.83-0.88-0.91-0.36-1.8-0.77-2.68-1.22-0.86-0.44-1.72-0.89-2.58-1.36-1.13-0.63-2.28-1.23-3.45-1.79-1.08-0.52-2.21-0.93-3.38-1.23-0.96-0.21-1.95-0.34-2.94-0.38-1.11-0.05-2.23-0.08-3.35-0.08-0.82 0-1.65-0.02-2.47-0.04-0.8-0.02-1.6-0.08-2.39-0.16-0.75-0.08-1.48-0.22-2.2-0.41-0.67-0.18-1.31-0.45-1.91-0.81-1.81-1.13-3.47-2.49-4.93-4.04-1.5-1.59-2.82-3.35-3.93-5.23-0.47-0.81-0.8-1.69-0.98-2.61-0.17-0.93-0.25-1.88-0.24-2.83 0.01-1.06 0.06-2.11 0.14-3.17 0.09-1.1 0.13-2.2 0.15-3.31 0.01-1.07-0.09-2.15-0.29-3.2-0.22-1.02-0.53-2.01-0.94-2.96-0.45-1.06-0.92-2.09-1.43-3.12-0.73-1.46-1.38-2.96-1.96-4.49-0.28-0.76-0.5-1.53-0.67-2.32s-0.25-1.58-0.26-2.38v-0.01l0.01-0.24v-0.01c0.02-0.97 0.13-1.93 0.31-2.89 0.19-0.97 0.43-1.93 0.72-2.88 0.6-1.93 1.29-3.83 2.05-5.7 0.47-1.17 0.91-2.34 1.34-3.52 0.41-1.13 0.76-2.28 1.06-3.45 0.45-1.93 0.83-3.88 1.15-5.84 0.3-1.92 0.68-3.83 1.13-5.72 0.46-1.9 1.13-3.74 2.01-5.49 0.54-1.02 1.27-1.93 2.14-2.7 0.83-0.72 1.71-1.4 2.62-2.02 0.65-0.45 1.28-0.91 1.89-1.4 0.59-0.47 1.13-0.99 1.6-1.57 0.57-0.72 1-1.54 1.3-2.41 0.31-0.94 0.58-1.89 0.79-2.86 0.14-0.59 0.29-1.19 0.46-1.78 0.15-0.57 0.35-1.14 0.58-1.68s0.52-1.05 0.87-1.51c0.36-0.47 0.81-0.88 1.31-1.19 0.63-0.39 1.29-0.72 1.98-0.99 0.74-0.3 1.48-0.59 2.23-0.85 1.03-0.36 2.04-0.77 3.04-1.22 0.41-0.19 0.82-0.42 1.2-0.67 0.31-0.2 0.59-0.45 0.83-0.73 0.4-0.48 0.73-1.01 0.99-1.59 0.24-0.56 0.43-1.15 0.55-1.75 0.12-0.64 0.21-1.27 0.25-1.92 0.05-0.67 0.09-1.35 0.11-2.03 0.03-1.1 0.1-2.2 0.23-3.29 0.14-1.15 0.43-2.28 0.86-3.35 0.27-0.63 0.63-1.23 1.05-1.78 0.44-0.57 0.92-1.11 1.45-1.6 1.14-1.05 2.34-2.04 3.59-2.97 1.14-0.86 2.25-1.76 3.33-2.7 1.03-0.9 1.95-1.93 2.73-3.05 0.5-0.77 0.88-1.61 1.14-2.49 0.29-0.96 0.53-1.92 0.73-2.9 0.17-0.78 0.35-1.56 0.56-2.34 0.21-0.81 0.48-1.6 0.8-2.37 0.73-1.72 1.86-3.23 3.3-4.42 0.63-0.5 1.31-0.93 2.03-1.29 0.76-0.38 1.55-0.71 2.36-0.99 1.68-0.57 3.39-1.06 5.12-1.47 1.11-0.28 2.22-0.58 3.32-0.91 0.91-0.26 1.8-0.6 2.65-1.03 0.94-0.51 1.87-1.06 2.77-1.65 0.84-0.56 1.68-1.13 2.51-1.72 1.3-0.95 2.66-1.83 4.05-2.64 1.42-0.82 2.95-1.41 4.55-1.78 1.31-0.3 2.66-0.46 4.01-0.48 0.69 0 1.37 0.05 2.05 0.15 0.63 0.09 1.25 0.2 1.87 0.32 0.81 0.16 1.61 0.3 2.42 0.41 1.04 0.13 2.08 0.19 3.12 0.19h0.06c0.02 0 0.04-0.01 0.06-0.02 0.11-0.03 0.22-0.06 0.32-0.1 0.33-0.11 0.66-0.24 0.99-0.37 0.94-0.37 1.87-0.75 2.8-1.14s1.87-0.77 2.81-1.14c0.34-0.13 0.68-0.26 1.02-0.38 0.12-0.04 0.23-0.08 0.35-0.11 0.1-0.04 0.2-0.06 0.31-0.06h0.03 0.02c1.14 0.04 2.27 0.28 3.33 0.72 1.09 0.45 2.16 0.95 3.2 1.51 0.98 0.52 1.98 1 3.01 1.42 0.92 0.39 1.89 0.62 2.88 0.67h0.16c1.01-0.02 2.01-0.23 2.95-0.6 1.05-0.4 2.07-0.86 3.08-1.37 0.97-0.5 1.96-0.95 2.98-1.35 0.99-0.4 2.03-0.64 3.09-0.72 1.77-0.07 3.51-0.44 5.16-1.1 1.04-0.43 2.04-0.96 2.99-1.59 1.18-0.79 2.29-1.68 3.32-2.66 0.58-0.56 1.09-1.18 1.52-1.86 0.46-0.71 0.88-1.45 1.28-2.2 0.36-0.66 0.74-1.32 1.13-1.96 0.42-0.69 0.88-1.34 1.39-1.95 1.2-1.4 2.7-2.51 4.39-3.24 0.52-0.22 1.06-0.37 1.62-0.45s1.13-0.12 1.7-0.11c0.8 0.01 1.6 0.04 2.39 0.11 0.91 0.06 1.83 0.1 2.74 0.11 0.68 0.01 1.35-0.03 2.02-0.11 0.45-0.06 0.89-0.16 1.31-0.31 0.47-0.17 0.94-0.38 1.38-0.61 1-0.53 1.98-1.11 2.93-1.73 1.15-0.76 2.34-1.46 3.57-2.08 0.6-0.29 1.22-0.53 1.86-0.72 0.63-0.18 1.27-0.28 1.92-0.3h0.01zm-69.32 23.48h0.02-0.03-0.02 0.03c1.02 0.04 2.02 0.26 2.96 0.65 1.06 0.43 2.09 0.92 3.1 1.46s2.05 1.03 3.11 1.47c1.02 0.43 2.11 0.68 3.22 0.74h0.02 0.17 0.02c1.13-0.03 2.25-0.25 3.3-0.67 1.08-0.41 2.14-0.89 3.17-1.41 0.95-0.48 1.91-0.92 2.9-1.31 0.89-0.36 1.83-0.58 2.78-0.65 1.88-0.08 3.73-0.48 5.47-1.17 1.11-0.46 2.17-1.03 3.17-1.69 1.23-0.82 2.39-1.75 3.46-2.76 0.63-0.62 1.2-1.31 1.67-2.05s0.91-1.49 1.32-2.26c0.35-0.65 0.72-1.29 1.1-1.92 0.39-0.64 0.83-1.25 1.31-1.82 1.09-1.29 2.47-2.3 4.02-2.97 0.43-0.18 0.89-0.31 1.36-0.38 0.51-0.07 1.03-0.11 1.55-0.1 0.78 0.01 1.55 0.04 2.32 0.1 0.94 0.07 1.88 0.11 2.82 0.12 0.71 0.01 1.43-0.03 2.14-0.11 0.52-0.07 1.03-0.19 1.53-0.37 0.52-0.19 1.02-0.41 1.51-0.66 1.03-0.55 2.03-1.15 3.01-1.79 1.11-0.74 2.27-1.41 3.46-2.01 0.55-0.27 1.12-0.49 1.71-0.66 0.53-0.16 1.09-0.25 1.65-0.26h0.15c1.57 0.02 3.12 0.37 4.54 1.03 0.72 0.32 1.41 0.67 2.08 1.07 0.69 0.4 1.36 0.81 2.03 1.23 1.05 0.69 2.14 1.32 3.25 1.91 1.12 0.59 2.32 1.01 3.57 1.27 0.45 0.08 0.92 0.12 1.39 0.12 0.83-0.01 1.66-0.1 2.48-0.26 0.85-0.16 1.7-0.34 2.54-0.55s1.69-0.39 2.55-0.55c0.78-0.16 1.58-0.24 2.38-0.25 0.33 0 0.66 0.02 0.99 0.06 0.49 0.08 0.96 0.23 1.4 0.46 0.48 0.26 0.94 0.56 1.35 0.92 0.47 0.38 0.9 0.79 1.32 1.23 0.44 0.45 0.86 0.91 1.28 1.38 0.61 0.69 1.25 1.36 1.92 2 0.59 0.59 1.29 1.07 2.05 1.42 0.58 0.23 1.18 0.38 1.8 0.45 0.65 0.07 1.3 0.11 1.96 0.1l1.63-0.03h0.01c0.51-0.02 1.03-0.03 1.54-0.03 0.49-0.01 0.97 0.02 1.45 0.06 0.4 0.04 0.79 0.11 1.17 0.24 0.78 0.26 1.5 0.69 2.09 1.27 0.5 0.55 0.94 1.14 1.31 1.78 0.37 0.6 0.77 1.17 1.22 1.72 0.55 0.63 1.2 1.17 1.92 1.58 0.64 0.39 1.25 0.84 1.79 1.35 0.63 0.57 1.23 1.16 1.82 1.76 0.56 0.57 1.13 1.13 1.71 1.67 0.54 0.5 1.12 0.94 1.74 1.32 0.48 0.28 1 0.48 1.54 0.59 0.53 0.12 1.08 0.17 1.62 0.16 0.61 0 1.22-0.05 1.83-0.13 0.6-0.09 1.2-0.19 1.8-0.3 0.55-0.1 1.1-0.19 1.64-0.27 0.5-0.07 1-0.11 1.5-0.12 0.6-0.02 1.2 0.1 1.75 0.34 0.96 0.47 1.9 1 2.79 1.59 0.88 0.57 1.74 1.17 2.59 1.78 0.61 0.44 1.22 0.87 1.85 1.29 0.58 0.4 1.18 0.77 1.8 1.11 0.58 0.31 1.19 0.58 1.81 0.78 0.6 0.19 1.23 0.29 1.86 0.3 0.6 0 1.19-0.1 1.75-0.3 0.75-0.27 1.47-0.6 2.16-1 0.76-0.42 1.51-0.87 2.25-1.33 1.19-0.76 2.42-1.46 3.68-2.09 1.2-0.62 2.5-1.03 3.83-1.24 0.62-0.07 1.24-0.11 1.86-0.11 1.27 0.01 2.53 0.15 3.77 0.41 1.27 0.28 2.54 0.6 3.79 0.96 1.15 0.32 2.31 0.62 3.48 0.9 1.27 0.29 2.56 0.51 3.85 0.65 0.31 0.03 0.61 0.05 0.92 0.05 0.66-0.01 1.32-0.06 1.98-0.16 0.68-0.09 1.36-0.21 2.04-0.33 0.76-0.14 1.51-0.27 2.27-0.37 0.76-0.11 1.52-0.17 2.29-0.17 0.47 0 0.94 0.03 1.41 0.08 0.51 0.08 1.02 0.22 1.5 0.43 0.5 0.23 0.98 0.5 1.44 0.82 0.97 0.7 1.89 1.47 2.75 2.3 0.6 0.57 1.23 1.12 1.88 1.64 0.59 0.49 1.24 0.9 1.95 1.21 0.85 0.33 1.74 0.56 2.64 0.67 0.92 0.12 1.83 0.2 2.75 0.25 0.95 0.05 1.89 0.14 2.83 0.27 0.85 0.11 1.68 0.34 2.47 0.69 0.38 0.18 0.72 0.43 1 0.74 0.32 0.35 0.58 0.74 0.8 1.16 0.25 0.48 0.46 0.97 0.65 1.47 0.2 0.55 0.39 1.1 0.57 1.66 0.27 0.85 0.57 1.69 0.91 2.52 0.33 0.8 0.78 1.54 1.34 2.2 0.66 0.7 1.49 1.23 2.4 1.53 0.88 0.29 1.78 0.51 2.69 0.66 0.85 0.13 1.68 0.34 2.48 0.62 0.34 0.12 0.65 0.29 0.94 0.5 0.27 0.19 0.51 0.43 0.69 0.7 0.58 0.93 0.99 1.95 1.2 3.03 0.25 1.18 0.43 2.38 0.55 3.59 0.09 0.84 0.2 1.68 0.33 2.52 0.13 0.83 0.32 1.65 0.57 2.45 0.16 0.46 0.37 0.9 0.62 1.31 0.27 0.46 0.58 0.9 0.9 1.33 0.72 0.91 1.47 1.8 2.25 2.66 0.64 0.71 1.27 1.45 1.87 2.2 0.25 0.31 0.48 0.64 0.7 0.98 0.18 0.27 0.32 0.55 0.45 0.85 0.29 0.77 0.49 1.56 0.6 2.37s0.16 1.63 0.15 2.44c0 0.72-0.02 1.43-0.05 2.14-0.03 0.74-0.05 1.48-0.06 2.22 0 0.94 0.06 1.87 0.18 2.8 0.14 0.98 0.39 1.94 0.76 2.87 0.19 0.47 0.45 0.91 0.79 1.3 0.32 0.36 0.69 0.69 1.1 0.96 0.4 0.27 0.83 0.52 1.26 0.73 0.45 0.22 0.9 0.43 1.35 0.63 0.89 0.37 1.74 0.81 2.55 1.32 0.76 0.49 1.38 1.16 1.81 1.96 0.38 0.79 0.64 1.63 0.76 2.51 0.13 0.93 0.22 1.87 0.25 2.82 0.04 1.23 0.17 2.45 0.39 3.66 0.24 1.3 0.75 2.54 1.48 3.64 0.42 0.6 0.87 1.17 1.35 1.71 0.52 0.59 1.05 1.17 1.59 1.74 0.98 1.01 1.9 2.06 2.77 3.16 0.4 0.51 0.75 1.05 1.07 1.61 0.28 0.5 0.51 1.03 0.66 1.59 0.26 0.93 0.39 1.9 0.39 2.86-0.02 1.19-0.18 2.37-0.48 3.52-0.31 1.22-0.68 2.42-1.09 3.61-0.38 1.11-0.73 2.22-1.05 3.35-0.34 1.21-0.6 2.45-0.76 3.71-0.08 0.63-0.11 1.26-0.11 1.9 0.01 1.07 0.08 2.13 0.21 3.19 0.13 1.1 0.28 2.19 0.45 3.29 0.18 1.11 0.33 2.24 0.47 3.36 0.13 1.07 0.2 2.16 0.21 3.24 0 0.77-0.05 1.55-0.16 2.31-0.11 0.72-0.29 1.43-0.55 2.11-0.55 1.34-1.32 2.57-2.27 3.65-1.02 1.17-2.1 2.28-3.23 3.33-0.79 0.74-1.57 1.51-2.33 2.3-0.77 0.79-1.48 1.64-2.13 2.54-0.27 0.37-0.48 0.78-0.63 1.21-0.16 0.45-0.28 0.91-0.36 1.37-0.17 0.97-0.27 1.95-0.33 2.93-0.04 0.87-0.14 1.74-0.28 2.6-0.06 0.35-0.16 0.7-0.28 1.03-0.1 0.27-0.24 0.52-0.41 0.75-0.69 0.82-1.56 1.48-2.55 1.91-0.99 0.42-2.02 0.75-3.07 0.99-0.71 0.18-1.41 0.38-2.1 0.6-0.72 0.24-1.41 0.54-2.07 0.92-0.72 0.46-1.33 1.08-1.78 1.81-0.47 0.74-0.9 1.51-1.28 2.3-0.36 0.77-0.78 1.51-1.25 2.21-0.19 0.28-0.41 0.53-0.67 0.76-0.2 0.19-0.44 0.33-0.7 0.43-0.95 0.32-1.93 0.48-2.93 0.47s-1.99-0.13-2.97-0.36c-1-0.23-1.99-0.49-2.97-0.79-0.94-0.29-1.89-0.55-2.84-0.77-0.94-0.22-1.9-0.34-2.87-0.36h-0.02l-0.62 0.03h-0.03c-1.54 0.13-3.05 0.46-4.51 0.99-1.4 0.5-2.79 1.08-4.14 1.71-1.3 0.6-2.62 1.15-3.97 1.62-1.23 0.44-2.52 0.68-3.83 0.71-0.8 0-1.6-0.12-2.36-0.34-0.77-0.25-1.47-0.66-2.06-1.2-0.69-0.63-1.34-1.29-1.94-2-0.59-0.66-1.2-1.31-1.83-1.93-0.69-0.66-1.45-1.25-2.27-1.74-0.54-0.31-1.12-0.56-1.72-0.74-0.65-0.2-1.31-0.36-1.98-0.48-1.43-0.24-2.87-0.42-4.31-0.53-1.17-0.1-2.34-0.24-3.5-0.42-0.49-0.08-0.98-0.18-1.45-0.32-0.39-0.1-0.76-0.24-1.12-0.42-1.01-0.56-1.95-1.26-2.76-2.08-0.87-0.86-1.7-1.76-2.48-2.7-0.62-0.73-1.27-1.45-1.93-2.15s-1.37-1.34-2.13-1.91c-0.87-0.61-1.81-1.11-2.8-1.48s-1.99-0.7-3.01-0.98c-0.83-0.24-1.65-0.5-2.47-0.78-0.81-0.28-1.61-0.62-2.38-1.02-0.61-0.33-1.17-0.72-1.7-1.17-0.57-0.48-1.13-0.98-1.66-1.5-0.71-0.68-1.44-1.33-2.21-1.94-0.78-0.63-1.66-1.14-2.59-1.52-0.56-0.21-1.14-0.36-1.73-0.43-0.6-0.08-1.22-0.12-1.83-0.11-1.02 0.01-2.03 0.06-3.05 0.15-1.01 0.09-2.02 0.14-3.03 0.15-0.6 0.01-1.2-0.03-1.79-0.11-1.13-0.16-2.24-0.38-3.34-0.66-1.13-0.29-2.26-0.59-3.38-0.92-1.4-0.41-2.81-0.78-4.23-1.11-0.95-0.24-1.85-0.63-2.68-1.17-0.9-0.58-1.78-1.21-2.63-1.88-0.92-0.74-1.89-1.42-2.89-2.05-0.98-0.62-2.08-1.05-3.22-1.26-0.4-0.06-0.79-0.09-1.19-0.09-1.01 0.02-2.02 0.16-3.01 0.42-1.01 0.26-2.02 0.56-3.02 0.89-0.94 0.32-1.9 0.61-2.86 0.86-0.86 0.23-1.74 0.35-2.62 0.37l-0.63-0.03c-1.52-0.16-3.03-0.44-4.51-0.84-1.3-0.37-2.6-0.79-3.87-1.25-1.31-0.47-2.63-0.89-3.98-1.25-1.4-0.36-2.85-0.55-4.31-0.56l-0.28 0.01h-0.01c-1.3 0.03-2.59 0.24-3.84 0.62-1.14 0.36-2.26 0.78-3.36 1.25-1 0.43-2.01 0.81-3.04 1.15-1.07 0.35-2.18 0.57-3.3 0.66-1.15 0.08-2.3 0.11-3.45 0.11-3.04-0.03-6.08-0.15-9.11-0.35-0.68-0.04-1.37-0.08-2.05-0.11-1.76-0.1-3.51-0.15-5.27-0.16-1.29 0-2.58 0.04-3.86 0.13-1.15 0.07-2.3 0.22-3.43 0.44-0.97 0.23-1.9 0.63-2.73 1.2-0.8 0.54-1.57 1.14-2.3 1.78-0.51 0.44-1.03 0.86-1.57 1.27-0.5 0.38-1.04 0.71-1.6 0.99-0.9 0.4-1.88 0.61-2.86 0.59-0.65-0.01-1.3-0.05-1.95-0.13-0.61-0.07-1.23-0.11-1.85-0.12-0.92-0.03-1.83 0.17-2.65 0.58-0.9 0.49-1.77 1.02-2.61 1.6-0.97 0.66-1.93 1.33-2.88 2.02-1.82 1.32-3.68 2.58-5.58 3.78-1.97 1.25-4.06 2.3-6.24 3.15-0.9 0.33-1.85 0.5-2.81 0.5-0.55-0.01-1.09-0.05-1.63-0.13-0.56-0.08-1.12-0.18-1.67-0.29-0.61-0.12-1.23-0.23-1.84-0.32-0.67-0.09-1.34-0.14-2.01-0.15-1.13 0-2.25 0.17-3.33 0.49-0.64 0.2-1.26 0.46-1.85 0.78-0.65 0.34-1.28 0.73-1.88 1.14-1.33 0.93-2.62 1.9-3.87 2.91-1.37 1.12-2.79 2.18-4.26 3.18-0.66 0.44-1.34 0.84-2.05 1.19-0.62 0.3-1.27 0.54-1.94 0.7-0.73 0.17-1.48 0.25-2.23 0.24-1.05-0.01-2.1-0.12-3.13-0.34-1.07-0.22-2.14-0.47-3.2-0.76-1.09-0.3-2.18-0.56-3.28-0.78-1.1-0.23-2.23-0.35-3.35-0.37-0.53 0-1.07 0.04-1.6 0.11-0.72 0.1-1.43 0.28-2.13 0.52-0.73 0.25-1.45 0.54-2.15 0.88-1.46 0.71-2.9 1.49-4.31 2.33-0.78 0.45-1.56 0.89-2.35 1.32-0.74 0.41-1.51 0.79-2.29 1.14-0.7 0.33-1.43 0.6-2.18 0.81-0.66 0.19-1.34 0.3-2.03 0.31l-0.18 0.01c-0.93-0.01-1.86-0.11-2.77-0.32-0.92-0.2-1.81-0.48-2.68-0.83-0.88-0.35-1.75-0.74-2.59-1.18-0.86-0.43-1.71-0.88-2.55-1.35-1.15-0.64-2.32-1.24-3.51-1.81-1.14-0.55-2.34-0.99-3.58-1.3-1.03-0.23-2.07-0.36-3.12-0.41-1.13-0.05-2.26-0.08-3.39-0.08-0.82 0-1.64-0.02-2.45-0.04-0.78-0.02-1.55-0.07-2.32-0.16-0.69-0.07-1.37-0.2-2.04-0.38-0.58-0.15-1.13-0.39-1.65-0.69-1.73-1.09-3.32-2.39-4.72-3.87-1.45-1.54-2.72-3.24-3.8-5.06-0.41-0.7-0.7-1.48-0.85-2.28-0.16-0.87-0.24-1.75-0.23-2.63 0.01-1.04 0.06-2.08 0.14-3.11 0.08-1.13 0.13-2.25 0.15-3.38 0.01-1.14-0.09-2.29-0.31-3.41-0.23-1.08-0.57-2.14-1-3.16-0.46-1.07-0.94-2.12-1.45-3.16-0.72-1.43-1.36-2.9-1.92-4.39-0.26-0.72-0.47-1.45-0.63-2.19-0.15-0.72-0.23-1.45-0.24-2.18l0.01-0.22c0.02-0.92 0.12-1.83 0.29-2.73 0.18-0.94 0.41-1.86 0.69-2.77 0.6-1.9 1.28-3.78 2.03-5.63 0.47-1.17 0.92-2.36 1.35-3.55 0.42-1.16 0.79-2.35 1.09-3.55 0.46-1.96 0.85-3.94 1.17-5.92 0.29-1.9 0.67-3.78 1.11-5.65 0.44-1.82 1.09-3.58 1.92-5.26 0.49-0.91 1.14-1.72 1.92-2.4 0.8-0.7 1.64-1.36 2.53-1.95 0.66-0.46 1.31-0.95 1.95-1.45 0.64-0.51 1.23-1.09 1.75-1.72 0.64-0.82 1.14-1.74 1.46-2.73 0.33-0.96 0.6-1.95 0.83-2.95 0.13-0.58 0.28-1.15 0.44-1.73 0.15-0.53 0.33-1.06 0.54-1.56 0.2-0.46 0.45-0.9 0.75-1.29 0.29-0.38 0.64-0.7 1.04-0.95 0.58-0.36 1.19-0.66 1.82-0.91 0.73-0.3 1.46-0.58 2.19-0.84 1.06-0.37 2.1-0.78 3.12-1.25 0.47-0.21 0.91-0.46 1.34-0.75 0.39-0.25 0.74-0.56 1.05-0.91 0.46-0.56 0.84-1.17 1.13-1.83 0.28-0.64 0.48-1.29 0.62-1.97 0.13-0.67 0.22-1.35 0.27-2.04s0.09-1.38 0.11-2.07c0.03-1.07 0.1-2.14 0.22-3.21 0.13-1.05 0.4-2.09 0.79-3.07 0.24-0.56 0.55-1.08 0.92-1.56 0.41-0.53 0.86-1.02 1.34-1.48 1.12-1.03 2.29-1.99 3.51-2.9 1.16-0.87 2.29-1.79 3.39-2.75s2.07-2.05 2.9-3.24c0.55-0.86 0.98-1.79 1.27-2.77s0.54-1.97 0.75-2.97c0.16-0.77 0.34-1.54 0.54-2.3s0.46-1.51 0.76-2.23c0.67-1.57 1.7-2.95 3.01-4.03 0.57-0.46 1.19-0.85 1.84-1.17 0.73-0.37 1.48-0.68 2.24-0.95 1.66-0.55 3.34-1.03 5.03-1.44 1.13-0.28 2.25-0.58 3.37-0.92 0.97-0.27 1.92-0.64 2.83-1.1 0.98-0.53 1.93-1.09 2.86-1.7 0.85-0.57 1.7-1.15 2.54-1.75 1.28-0.93 2.6-1.79 3.97-2.59 1.33-0.76 2.77-1.32 4.27-1.66 1.24-0.29 2.52-0.44 3.8-0.46 0.63 0 1.27 0.05 1.9 0.14 0.61 0.09 1.21 0.19 1.82 0.31 0.82 0.17 1.65 0.31 2.48 0.42 1.08 0.13 2.16 0.2 3.25 0.2h0.08 0.03c0.11-0.01 0.21-0.03 0.31-0.06 0.12-0.03 0.24-0.07 0.35-0.11 0.35-0.12 0.69-0.25 1.03-0.39 0.94-0.37 1.88-0.75 2.82-1.14 0.92-0.39 1.86-0.77 2.79-1.14 0.32-0.13 0.65-0.25 0.98-0.37 0.11-0.04 0.21-0.07 0.32-0.1 0.02-0.01 0.03-0.01 0.05-0.01z" fill-rule="evenodd"/>
<path d="m125.74 196.06-0.47-0.15 0.29-0.96 0.48 0.15c7.05 2.21 14.03 4.65 20.93 7.31 4.4 1.71 8.72 3.64 12.93 5.78 2.55 1.29 5.03 2.71 7.44 4.24 1.67 1.05 3.27 2.23 4.78 3.5 0.97 0.82 1.88 1.69 2.75 2.62 0.66 0.72 1.27 1.49 1.82 2.31 0.6 0.89 1.09 1.84 1.48 2.85 0.32 0.83 0.52 1.71 0.6 2.6 0.19 2.14 0.28 4.28 0.27 6.43 0 3.54-0.2 7.09-0.6 10.61-0.43 3.95-1.08 7.87-1.94 11.74-0.91 4.1-2.08 8.14-3.5 12.09-1.44 4.02-3.21 7.92-5.28 11.66-2.05 3.72-4.49 7.23-7.27 10.45s-5.97 6.07-9.5 8.46c-3.67 2.47-7.69 4.38-11.92 5.66-4.72 1.4-9.62 2.09-14.55 2.06-1.54 0-3.09-0.06-4.63-0.18l-0.49-0.04 0.07-0.99 0.5 0.03c1.52 0.12 3.04 0.18 4.56 0.18 4.82 0.03 9.62-0.65 14.25-2.02 4.14-1.25 8.07-3.11 11.65-5.53 3.45-2.34 6.58-5.13 9.3-8.28 2.74-3.17 5.14-6.62 7.16-10.29 2.04-3.69 3.78-7.54 5.21-11.51 1.41-3.91 2.57-7.91 3.46-11.97 0.86-3.84 1.5-7.72 1.93-11.63 0.39-3.49 0.59-6.99 0.59-10.5 0.01-2.12-0.08-4.23-0.26-6.34-0.08-0.8-0.26-1.59-0.55-2.34-0.35-0.93-0.81-1.82-1.37-2.65-0.52-0.77-1.09-1.5-1.73-2.18-0.83-0.9-1.72-1.74-2.66-2.53-1.47-1.25-3.03-2.39-4.67-3.43-2.38-1.51-4.83-2.91-7.35-4.19-4.18-2.13-8.47-4.04-12.85-5.73-6.87-2.66-13.83-5.09-20.86-7.29z"/>
<path d="m164.6 184.98c-0.11-0.07-0.18-0.19-0.2-0.32s0.01-0.27 0.09-0.37c0.07-0.11 0.19-0.18 0.32-0.21 0.13-0.02 0.27 0.02 0.37 0.09 0.88 0.63 1.71 1.34 2.47 2.1 0.87 0.86 1.69 1.77 2.47 2.71 1.65 1.99 3.17 4.09 4.56 6.27 1.23 1.89 2.35 3.85 3.37 5.87 0.36 0.71 0.69 1.45 0.98 2.2 0.11 0.27 0.2 0.55 0.27 0.83 0.07 0.21 0.1 0.43 0.11 0.65 0.01 0.18-0.03 0.36-0.12 0.51-0.12 0.22-0.36 0.35-0.62 0.33s-0.5-0.13-0.7-0.3c-0.27-0.19-0.51-0.41-0.74-0.65-0.4-0.39-0.83-0.75-1.29-1.08-0.57-0.41-1.17-0.79-1.78-1.15-1.53-0.89-3.1-1.71-4.7-2.44-3.18-1.47-6.39-2.86-9.63-4.17-3.31-1.35-6.63-2.67-9.96-3.97-2.39-0.93-4.78-1.88-7.16-2.84-0.13-0.05-0.23-0.14-0.28-0.27-0.05-0.12-0.05-0.26 0-0.38s0.15-0.22 0.27-0.27 0.26-0.05 0.38-0.01c2.38 0.97 4.76 1.91 7.15 2.84 3.34 1.3 6.66 2.62 9.97 3.97 3.26 1.32 6.49 2.71 9.67 4.19 1.64 0.75 3.24 1.58 4.8 2.48 0.63 0.38 1.25 0.78 1.85 1.21 0.51 0.36 0.98 0.76 1.42 1.19 0.12 0.13 0.25 0.24 0.38 0.36-0.06-0.23-0.14-0.45-0.22-0.67-0.28-0.72-0.59-1.42-0.94-2.11-1-1.99-2.11-3.91-3.32-5.77-1.37-2.16-2.87-4.22-4.49-6.19-0.76-0.91-1.56-1.79-2.4-2.63-0.73-0.73-1.51-1.39-2.35-2z"/>
<path d="m208.97 185.11c0.01-0.14 0.06-0.26 0.16-0.35s0.23-0.14 0.36-0.14c0.13 0.01 0.26 0.06 0.35 0.16s0.14 0.23 0.13 0.36c-0.01 0.53-0.08 1.07-0.2 1.59-0.17 0.77-0.39 1.54-0.66 2.29-0.21 0.58-0.44 1.16-0.68 1.73-0.33 0.74-0.67 1.47-1.03 2.19-0.26 0.53-0.53 1.06-0.81 1.58-0.33 0.61-0.67 1.22-1.02 1.83-0.98 1.71-2 3.39-3.07 5.04-1.68 2.59-3.42 5.14-5.2 7.66-2.95-4.87-6.24-9.53-9.86-13.92-3.02-3.65-6.32-7.05-9.88-10.18-0.1-0.08-0.16-0.21-0.17-0.34s0.04-0.26 0.13-0.36c0.08-0.1 0.21-0.16 0.34-0.17s0.26 0.03 0.36 0.12c3.6 3.16 6.94 6.6 9.99 10.3 3.33 4.03 6.38 8.29 9.14 12.73 1.48-2.1 2.91-4.23 4.31-6.38 1.06-1.64 2.08-3.3 3.04-5 0.35-0.59 0.68-1.2 1-1.8 0.28-0.52 0.55-1.03 0.81-1.55 0.35-0.71 0.68-1.42 1-2.15 0.24-0.55 0.46-1.1 0.66-1.67 0.25-0.71 0.46-1.43 0.63-2.17 0.1-0.46 0.16-0.93 0.17-1.4z"/>
<path d="m264.93 198.08c0.13 0.01 0.25 0.07 0.34 0.17s0.13 0.23 0.12 0.36c-0.01 0.14-0.07 0.26-0.17 0.35-0.1 0.08-0.23 0.13-0.36 0.12-0.36-0.03-0.73-0.04-1.09-0.04-1.1 0.01-2.21 0.09-3.3 0.24-1.3 0.18-2.59 0.41-3.87 0.69-2.98 0.66-5.94 1.46-8.85 2.38-3.17 0.98-6.32 2.04-9.45 3.15-3.01 1.07-6 2.16-8.99 3.27-2.81 1.06-5.64 2.07-8.48 3.05-0.98 0.34-1.98 0.65-2.98 0.92-0.36 0.1-0.73 0.19-1.1 0.26-0.28 0.06-0.56 0.09-0.84 0.09-0.2 0.02-0.41-0.02-0.6-0.1-0.27-0.12-0.44-0.39-0.43-0.68 0.02-0.25 0.11-0.48 0.27-0.67 0.42-0.65 0.8-1.32 1.13-2.03 0.47-0.99 0.92-1.99 1.32-3.01 1.02-2.55 1.94-5.14 2.75-7.76 0.85-2.69 1.59-5.41 2.21-8.16 0.27-1.17 0.49-2.34 0.66-3.52 0.15-0.91 0.23-1.82 0.24-2.74 0.01-0.32-0.01-0.64-0.06-0.95-0.02-0.13 0.02-0.27 0.1-0.37 0.08-0.11 0.2-0.18 0.33-0.2 0.13-0.01 0.26 0.02 0.37 0.1s0.17 0.2 0.19 0.33c0.05 0.37 0.08 0.73 0.07 1.1-0.01 0.97-0.09 1.93-0.25 2.88-0.18 1.21-0.4 2.4-0.67 3.59-0.63 2.77-1.37 5.52-2.24 8.23-0.81 2.65-1.74 5.26-2.77 7.84-0.41 1.04-0.86 2.06-1.35 3.07-0.33 0.71-0.71 1.39-1.14 2.05 0.18-0.01 0.35-0.04 0.51-0.07 0.35-0.07 0.7-0.15 1.04-0.24 0.98-0.27 1.95-0.57 2.92-0.91 2.83-0.97 5.65-1.98 8.45-3.04 2.99-1.11 5.99-2.2 9-3.27 3.14-1.12 6.31-2.18 9.49-3.17 2.94-0.93 5.92-1.73 8.94-2.4 1.3-0.28 2.62-0.52 3.94-0.7 1.14-0.16 2.29-0.24 3.44-0.25 0.38 0 0.77 0.01 1.16 0.04z"/>
<path d="m264.89 298.22c0.13 0 0.26 0.05 0.35 0.14 0.1 0.1 0.15 0.22 0.15 0.36 0 0.13-0.05 0.26-0.14 0.35-0.09 0.1-0.22 0.15-0.35 0.15l-1.06 0.01c-4.75 0.03-9.5-0.44-14.15-1.4-3.95-0.83-7.78-2.13-11.4-3.89-3.22-1.58-6.21-3.56-8.91-5.9-2.51-2.2-4.75-4.69-6.67-7.42-1.84-2.64-3.42-5.46-4.69-8.43-1.25-2.89-2.25-5.89-3.01-8.95-0.73-2.95-1.26-5.96-1.59-8.99-0.32-2.84-0.48-5.69-0.48-8.55 0-2.23 0.1-4.46 0.29-6.69 0.17-1.9 0.42-3.8 0.75-5.69 0.26-1.48 0.61-2.95 1.04-4.39 0.17-0.55 0.36-1.09 0.57-1.62 0.17-0.42 0.37-0.83 0.6-1.21 0.11-0.17 0.22-0.34 0.35-0.5 0.14-0.18 0.3-0.36 0.46-0.53 0.45-0.49 0.95-0.93 1.49-1.32 0.85-0.63 1.74-1.21 2.65-1.74 1.08-0.62 2.18-1.19 3.3-1.72 1.67-0.78 3.37-1.52 5.09-2.21 1.31-0.53 2.63-1.04 3.96-1.53 1.67-0.62 3.36-1.21 5.05-1.79 1.22-0.41 2.45-0.82 3.68-1.22 1.42-0.45 2.84-0.9 4.27-1.34 4.07-1.26 8.15-2.45 12.25-3.59 5.66-1.56 11.34-3.07 17.03-4.52 0.13-0.03 0.26-0.01 0.38 0.06 0.11 0.07 0.19 0.18 0.23 0.31 0.03 0.12 0.01 0.26-0.06 0.37-0.07 0.12-0.18 0.2-0.3 0.23-5.69 1.45-11.36 2.95-17.01 4.52-4.09 1.13-8.17 2.32-12.23 3.57-1.42 0.44-2.83 0.89-4.25 1.35-1.23 0.39-2.45 0.8-3.67 1.21-1.68 0.57-3.36 1.16-5.03 1.78-1.32 0.48-2.63 0.99-3.93 1.51-1.7 0.69-3.38 1.42-5.03 2.2-1.1 0.51-2.18 1.07-3.23 1.68-0.88 0.51-1.74 1.07-2.56 1.67-0.48 0.36-0.94 0.76-1.35 1.2-0.14 0.15-0.28 0.31-0.4 0.47-0.1 0.13-0.2 0.26-0.28 0.4-0.21 0.34-0.38 0.69-0.53 1.06-0.2 0.5-0.39 1.02-0.54 1.54-0.42 1.4-0.76 2.83-1.01 4.28-0.33 1.85-0.58 3.72-0.74 5.6-0.19 2.2-0.29 4.4-0.29 6.6 0 2.82 0.16 5.64 0.47 8.44 0.33 2.99 0.85 5.95 1.57 8.86 0.75 3.01 1.73 5.95 2.96 8.8 1.24 2.9 2.78 5.66 4.59 8.25 1.87 2.66 4.05 5.09 6.51 7.23 2.63 2.29 5.55 4.22 8.68 5.76 3.56 1.72 7.31 3 11.17 3.81 4.59 0.95 9.26 1.41 13.94 1.38l1.06-0.01z"/>
<path d="m28.47 204.83c-0.07-0.11-0.09-0.25-0.06-0.38 0.04-0.13 0.12-0.24 0.24-0.3 0.11-0.07 0.25-0.09 0.37-0.06 0.13 0.04 0.24 0.12 0.31 0.24 0.48 0.82 0.72 1.75 0.71 2.7-0.02 0.9-0.16 1.8-0.43 2.67-0.27 0.9-0.57 1.8-0.91 2.68-0.32 0.84-0.61 1.69-0.87 2.55-0.24 0.78-0.39 1.59-0.43 2.4l-0.01 0.23c0.01 0.5 0.05 0.99 0.14 1.48 0.1 0.59 0.22 1.18 0.38 1.76 0.36 1.37 0.76 2.73 1.2 4.07 0.57 1.77 1.09 3.56 1.55 5.37 0.22 0.89 0.4 1.79 0.53 2.7 0.14 0.87 0.21 1.75 0.21 2.62v0.01 0.36 0.01c-0.07 1.62-0.3 3.24-0.7 4.81-0.4 1.6-0.85 3.19-1.35 4.76-0.48 1.51-0.92 3.05-1.3 4.59-0.37 1.46-0.59 2.94-0.65 4.44l-0.01 0.31c0.03 1.53 0.29 3.05 0.77 4.51 0.51 1.54 1.09 3.06 1.74 4.54 0.57 1.34 1.1 2.69 1.57 4.06 0.47 1.34 0.78 2.73 0.92 4.15 0.02 0.13-0.02 0.26-0.11 0.37-0.08 0.1-0.2 0.16-0.33 0.18-0.13 0.01-0.27-0.03-0.37-0.11-0.1-0.09-0.17-0.21-0.18-0.34-0.13-1.34-0.43-2.65-0.87-3.92-0.47-1.35-0.99-2.68-1.55-3.99-0.66-1.51-1.25-3.06-1.77-4.63-0.51-1.55-0.79-3.18-0.82-4.81v-0.02l0.01-0.32v-0.01c0.06-1.57 0.29-3.13 0.68-4.65 0.39-1.57 0.83-3.12 1.32-4.66 0.49-1.55 0.94-3.11 1.33-4.69 0.38-1.51 0.6-3.05 0.67-4.6v-0.34c0-0.83-0.07-1.66-0.2-2.48-0.13-0.87-0.3-1.75-0.51-2.61-0.45-1.78-0.97-3.55-1.54-5.3-0.44-1.36-0.84-2.74-1.21-4.13-0.16-0.6-0.29-1.22-0.4-1.84-0.09-0.54-0.14-1.1-0.15-1.65v-0.01l0.01-0.25v-0.02c0.05-0.89 0.21-1.78 0.47-2.64 0.27-0.88 0.57-1.76 0.9-2.62s0.62-1.73 0.88-2.61c0.24-0.78 0.37-1.59 0.39-2.4 0.01-0.76-0.19-1.52-0.57-2.18z"/>
<path d="m52.39 240.28v-0.47c0-1.14 0.07-2.28 0.2-3.42 0.14-1.18 0.32-2.36 0.54-3.53 0.45-2.37 0.97-4.72 1.54-7.05 0.44-1.79 0.85-3.58 1.21-5.38 0.15-0.77 0.28-1.55 0.38-2.34 0.08-0.66 0.13-1.33 0.14-2l-0.01-0.31c-0.04-1.09-0.19-2.17-0.44-3.23-0.26-1.13-0.55-2.26-0.88-3.37-0.33-1.17-0.63-2.34-0.9-3.52-0.26-1.13-0.4-2.28-0.42-3.44-0.02-1.17 0.21-2.34 0.68-3.42 0.06-0.12 0.16-0.22 0.28-0.27s0.26-0.04 0.38 0.01 0.22 0.15 0.27 0.28c0.05 0.12 0.04 0.26-0.01 0.38-0.41 0.95-0.62 1.97-0.6 3.01 0.02 1.08 0.15 2.17 0.39 3.23 0.27 1.16 0.56 2.31 0.9 3.46 0.32 1.13 0.62 2.28 0.88 3.43 0.27 1.12 0.42 2.26 0.47 3.41v0.02l0.01 0.32v0.01c-0.01 0.71-0.06 1.43-0.15 2.13-0.1 0.81-0.23 1.61-0.39 2.41-0.37 1.81-0.77 3.62-1.21 5.42-0.58 2.32-1.09 4.65-1.54 6.99-0.22 1.15-0.39 2.31-0.52 3.47-0.13 1.09-0.2 2.19-0.2 3.3v0.45c0.06 2.06 0.29 4.1 0.67 6.12 0.4 2.08 0.84 4.15 1.34 6.2 0.49 2.03 0.93 4.07 1.32 6.11 0.38 2.01 0.61 4.04 0.67 6.07v0.01l0.01 0.42v0.01c-0.03 2.12-0.3 4.22-0.81 6.27-0.51 2.04-1.1 4.07-1.76 6.08-0.57 1.73-1.09 3.49-1.56 5.26-0.45 1.71-0.75 3.46-0.88 5.23-0.01 0.13-0.07 0.25-0.17 0.34-0.1 0.08-0.23 0.13-0.37 0.12-0.13-0.01-0.25-0.08-0.34-0.18-0.08-0.1-0.13-0.23-0.12-0.36 0.14-1.83 0.45-3.63 0.92-5.4 0.47-1.79 0.99-3.57 1.57-5.33 0.65-1.98 1.23-3.98 1.74-6.01 0.49-1.97 0.75-3.99 0.78-6.02l-0.01-0.41c-0.06-1.98-0.28-3.96-0.65-5.91-0.39-2.03-0.83-4.05-1.31-6.06-0.5-2.08-0.95-4.16-1.35-6.25-0.39-2.07-0.62-4.17-0.69-6.28v-0.01z"/>
<path d="m78.43 199.74c-0.05-0.13-0.04-0.27 0.01-0.39 0.06-0.12 0.16-0.21 0.29-0.26 0.12-0.04 0.26-0.04 0.38 0.02s0.21 0.16 0.26 0.28c0.46 1.28 0.69 2.63 0.67 3.99s-0.16 2.71-0.42 4.03c-0.26 1.4-0.56 2.78-0.9 4.16-0.32 1.33-0.62 2.67-0.88 4.01-0.25 1.27-0.4 2.56-0.44 3.85l-0.01 0.38c0.01 0.8 0.06 1.6 0.14 2.39 0.1 0.93 0.23 1.86 0.38 2.78 0.37 2.13 0.77 4.26 1.21 6.37 0.58 2.77 1.09 5.55 1.55 8.35 0.21 1.38 0.39 2.78 0.53 4.17 0.13 1.34 0.2 2.68 0.2 4.02v0.01 0.55 0.01c-0.07 2.48-0.3 4.96-0.69 7.41-0.39 2.48-0.84 4.94-1.34 7.39-0.49 2.39-0.93 4.79-1.32 7.2-0.37 2.32-0.59 4.67-0.65 7.02l-0.01 0.49c0.03 2.41 0.29 4.81 0.79 7.18 0.5 2.39 1.08 4.77 1.74 7.12 0.58 2.09 1.1 4.19 1.57 6.3 0.47 2.09 0.77 4.22 0.91 6.37 0 0.13-0.04 0.26-0.13 0.36s-0.21 0.16-0.34 0.17-0.26-0.04-0.36-0.12c-0.1-0.09-0.16-0.22-0.17-0.35-0.14-2.09-0.43-4.17-0.89-6.22-0.46-2.09-0.98-4.17-1.55-6.24-0.67-2.38-1.25-4.77-1.76-7.19-0.51-2.43-0.78-4.9-0.81-7.38v-0.01l0.01-0.49v-0.01c0.06-2.4 0.28-4.79 0.67-7.16 0.39-2.42 0.83-4.84 1.32-7.24 0.49-2.44 0.94-4.89 1.33-7.35 0.39-2.4 0.62-4.83 0.68-7.27v-0.54c0-1.31-0.07-2.62-0.2-3.93-0.13-1.38-0.31-2.75-0.52-4.12-0.45-2.77-0.97-5.54-1.54-8.29-0.44-2.13-0.85-4.27-1.21-6.41-0.16-0.94-0.29-1.89-0.39-2.84-0.09-0.83-0.14-1.67-0.15-2.5v-0.01l0.01-0.38v-0.02c0.05-1.34 0.2-2.69 0.46-4.01 0.26-1.36 0.56-2.71 0.89-4.06 0.33-1.36 0.63-2.73 0.89-4.1 0.25-1.28 0.38-2.57 0.4-3.86 0.02-1.24-0.19-2.47-0.61-3.63z"/>
<path d="m103.45 188.34c0.06-0.12 0.17-0.2 0.3-0.24s0.26-0.02 0.38 0.04 0.2 0.17 0.24 0.29c0.04 0.13 0.03 0.27-0.04 0.38-0.39 0.74-0.59 1.56-0.58 2.4 0.02 0.88 0.15 1.76 0.39 2.61 0.26 0.95 0.56 1.89 0.89 2.83 0.33 0.93 0.62 1.87 0.89 2.82 0.26 0.92 0.42 1.88 0.47 2.84v0.01l0.01 0.27v0.01c-0.01 0.59-0.06 1.19-0.15 1.77-0.11 0.67-0.24 1.33-0.4 1.99-0.36 1.49-0.77 2.98-1.21 4.45-0.57 1.89-1.08 3.8-1.54 5.73-0.21 0.94-0.38 1.88-0.51 2.83-0.13 0.89-0.2 1.78-0.2 2.68v0.37c0.07 1.68 0.29 3.35 0.67 4.99 0.39 1.7 0.84 3.39 1.33 5.07 0.49 1.66 0.93 3.34 1.33 5.03 0.38 1.64 0.61 3.32 0.67 5.01v0.01l0.01 0.34v0.02c-0.03 1.75-0.31 3.5-0.82 5.17-0.51 1.7-1.1 3.36-1.76 5-0.57 1.42-1.09 2.86-1.55 4.31-0.45 1.38-0.75 2.81-0.88 4.25-0.01 0.14-0.08 0.26-0.18 0.34-0.1 0.09-0.23 0.13-0.36 0.12-0.14-0.02-0.26-0.08-0.34-0.18-0.09-0.1-0.13-0.24-0.12-0.37 0.15-1.52 0.45-3.01 0.92-4.46 0.48-1.48 1-2.94 1.58-4.38 0.65-1.61 1.23-3.25 1.73-4.92 0.49-1.58 0.75-3.23 0.78-4.89l-0.01-0.33c-0.06-1.62-0.28-3.24-0.65-4.82-0.38-1.66-0.82-3.32-1.31-4.96-0.5-1.7-0.95-3.41-1.34-5.14-0.4-1.7-0.63-3.43-0.7-5.18v-0.01-0.38-0.01c0-0.94 0.07-1.89 0.21-2.82 0.13-0.98 0.31-1.95 0.53-2.92 0.46-1.94 0.97-3.87 1.55-5.79 0.44-1.45 0.84-2.92 1.2-4.4 0.15-0.63 0.28-1.26 0.38-1.9 0.09-0.54 0.13-1.08 0.14-1.62l-0.01-0.25c-0.04-0.88-0.19-1.76-0.43-2.61-0.26-0.93-0.55-1.85-0.88-2.76-0.33-0.95-0.64-1.92-0.9-2.9-0.27-0.93-0.41-1.89-0.43-2.85-0.02-1.01 0.23-2 0.7-2.89z"/>
<path d="m119.81 183.3c0.48 0.73 0.74 1.58 0.73 2.45-0.02 0.82-0.17 1.63-0.44 2.4-0.27 0.81-0.57 1.6-0.91 2.38-0.32 0.75-0.61 1.5-0.87 2.26-0.23 0.68-0.38 1.38-0.43 2.1v0.2c0.01 0.43 0.05 0.87 0.14 1.29 0.09 0.53 0.22 1.04 0.37 1.55 0.36 1.22 0.76 2.42 1.2 3.61 0.57 1.56 1.09 3.15 1.55 4.76 0.22 0.79 0.4 1.6 0.54 2.41 0.13 0.77 0.2 1.56 0.21 2.34v0.01l-0.01 0.31v0.02c-0.06 1.45-0.3 2.89-0.69 4.29-0.4 1.42-0.85 2.83-1.36 4.22-0.48 1.34-0.91 2.7-1.3 4.07-0.37 1.27-0.58 2.59-0.65 3.91v0.27c0.03 1.35 0.29 2.69 0.77 3.96 0.5 1.37 1.08 2.71 1.72 4.03 0.58 1.17 1.1 2.38 1.58 3.6 0.47 1.18 0.79 2.43 0.93 3.7 0.02 0.13-0.02 0.26-0.1 0.37-0.09 0.1-0.21 0.17-0.34 0.18-0.13 0.02-0.26-0.02-0.37-0.1-0.1-0.08-0.17-0.2-0.18-0.34-0.14-1.18-0.43-2.34-0.87-3.45-0.47-1.19-0.98-2.37-1.54-3.52-0.66-1.35-1.25-2.72-1.77-4.12-0.52-1.38-0.8-2.83-0.83-4.3v-0.02-0.28c0-0.01 0.01-0.01 0.01-0.02 0.06-1.4 0.29-2.79 0.68-4.14 0.39-1.4 0.83-2.78 1.32-4.14 0.5-1.37 0.94-2.75 1.33-4.15 0.38-1.33 0.6-2.69 0.66-4.06l0.01-0.3c-0.01-0.73-0.07-1.45-0.2-2.17-0.13-0.78-0.3-1.55-0.51-2.31-0.45-1.58-0.96-3.14-1.53-4.69-0.44-1.21-0.85-2.43-1.22-3.66-0.16-0.54-0.29-1.09-0.4-1.65-0.09-0.49-0.14-0.98-0.15-1.48v-0.02-0.21c0.01-0.01 0.01-0.02 0.01-0.03 0.05-0.8 0.21-1.6 0.48-2.36 0.27-0.79 0.56-1.57 0.89-2.33s0.63-1.53 0.89-2.31c0.23-0.68 0.36-1.38 0.38-2.09 0-0.67-0.19-1.33-0.56-1.88-0.07-0.12-0.1-0.25-0.08-0.38 0.03-0.13 0.11-0.24 0.22-0.32 0.11-0.07 0.24-0.1 0.37-0.07 0.13 0.02 0.25 0.1 0.32 0.21z"/>
<path d="m311.45 199.33c0.07-0.12 0.17-0.21 0.3-0.25 0.13-0.03 0.26-0.02 0.38 0.04 0.12 0.07 0.2 0.17 0.24 0.3s0.03 0.26-0.04 0.38c-0.39 0.73-0.59 1.55-0.58 2.38 0.02 0.88 0.15 1.75 0.39 2.59 0.26 0.95 0.56 1.89 0.89 2.81 0.32 0.93 0.62 1.87 0.89 2.81 0.26 0.92 0.42 1.87 0.47 2.82v0.02l0.01 0.26v0.02c-0.01 0.59-0.06 1.18-0.15 1.76-0.11 0.66-0.24 1.32-0.4 1.97-0.36 1.49-0.77 2.97-1.21 4.43-0.57 1.89-1.08 3.79-1.54 5.7-0.21 0.93-0.38 1.87-0.51 2.81-0.13 0.89-0.2 1.78-0.2 2.67v0.37c0.07 1.67 0.29 3.33 0.67 4.96 0.39 1.69 0.84 3.37 1.33 5.04 0.49 1.65 0.93 3.32 1.33 5 0.38 1.63 0.61 3.3 0.67 4.98v0.01l0.01 0.35v0.01c-0.03 1.75-0.31 3.48-0.82 5.15-0.52 1.68-1.1 3.34-1.76 4.97-0.57 1.41-1.09 2.84-1.55 4.29-0.45 1.37-0.75 2.79-0.88 4.23-0.01 0.13-0.08 0.25-0.18 0.33-0.1 0.09-0.23 0.13-0.36 0.12-0.14-0.02-0.26-0.08-0.34-0.18-0.09-0.1-0.13-0.24-0.12-0.37 0.15-1.51 0.45-3 0.92-4.44 0.48-1.47 1-2.92 1.58-4.35 0.65-1.6 1.23-3.24 1.73-4.89 0.49-1.58 0.75-3.22 0.78-4.87l-0.01-0.33c-0.06-1.61-0.28-3.21-0.65-4.78-0.38-1.66-0.82-3.31-1.31-4.94-0.5-1.69-0.95-3.39-1.34-5.11-0.4-1.69-0.63-3.41-0.7-5.15v-0.01-0.38-0.01c0-0.94 0.07-1.88 0.21-2.81 0.13-0.97 0.31-1.94 0.53-2.9 0.46-1.93 0.97-3.85 1.55-5.76 0.44-1.44 0.84-2.9 1.2-4.37 0.15-0.63 0.28-1.26 0.38-1.9 0.09-0.53 0.13-1.07 0.14-1.6l-0.01-0.25c-0.04-0.88-0.19-1.75-0.43-2.59-0.26-0.93-0.55-1.85-0.88-2.75-0.33-0.95-0.64-1.91-0.9-2.88-0.27-0.93-0.41-1.88-0.43-2.84-0.02-1 0.23-1.99 0.7-2.87z"/>
<path d="m346.69 250.01c-0.01 0.13-0.08 0.25-0.18 0.34-0.1 0.08-0.24 0.12-0.37 0.1-0.13-0.01-0.25-0.08-0.33-0.18-0.09-0.11-0.13-0.24-0.11-0.37 0.14-1.3 0.46-2.57 0.93-3.79 0.47-1.25 1-2.48 1.57-3.69 0.65-1.34 1.23-2.72 1.73-4.12 0.48-1.3 0.74-2.68 0.77-4.07v-0.27c-0.07-1.36-0.28-2.71-0.65-4.01-0.39-1.41-0.82-2.8-1.3-4.17-0.51-1.43-0.96-2.87-1.36-4.33-0.39-1.43-0.63-2.9-0.69-4.38v-0.02l-0.01-0.32v-0.01c0.01-0.8 0.08-1.6 0.21-2.39 0.14-0.83 0.32-1.66 0.54-2.47 0.46-1.64 0.98-3.27 1.55-4.88 0.44-1.22 0.84-2.45 1.2-3.69 0.15-0.53 0.28-1.06 0.38-1.59 0.08-0.44 0.13-0.89 0.13-1.33v-0.21c-0.05-0.73-0.2-1.45-0.43-2.15-0.26-0.78-0.55-1.56-0.87-2.32-0.34-0.8-0.64-1.61-0.91-2.44-0.27-0.79-0.41-1.61-0.44-2.44-0.01-0.89 0.24-1.76 0.73-2.5 0.07-0.11 0.18-0.19 0.31-0.22s0.27 0 0.38 0.07 0.19 0.18 0.22 0.31c0.02 0.13 0 0.27-0.07 0.38-0.38 0.58-0.57 1.25-0.57 1.94 0.02 0.73 0.15 1.45 0.39 2.15 0.26 0.8 0.55 1.59 0.88 2.37s0.63 1.57 0.9 2.38c0.26 0.78 0.42 1.6 0.48 2.42v0.02 0.22 0.02c0 0.51-0.06 1.02-0.15 1.51-0.11 0.57-0.24 1.13-0.4 1.69-0.37 1.26-0.77 2.51-1.22 3.75-0.56 1.58-1.07 3.19-1.53 4.81-0.21 0.78-0.38 1.56-0.51 2.36-0.13 0.74-0.19 1.48-0.2 2.23l0.01 0.31c0.06 1.41 0.28 2.8 0.66 4.16 0.39 1.43 0.84 2.85 1.33 4.26 0.49 1.39 0.93 2.8 1.32 4.23 0.39 1.38 0.62 2.81 0.69 4.24v0.02 0.28 0.02c-0.03 1.5-0.31 2.99-0.83 4.4-0.51 1.44-1.1 2.84-1.76 4.22-0.57 1.18-1.08 2.38-1.55 3.61-0.44 1.14-0.73 2.33-0.87 3.54z"/>
<path d="m333.4 248.38v0.46 0.01c-0.07 2.11-0.3 4.21-0.69 6.28-0.4 2.1-0.85 4.18-1.35 6.25-0.48 2.01-0.92 4.03-1.31 6.07-0.37 1.95-0.59 3.92-0.65 5.91l-0.01 0.4c0.03 2.03 0.29 4.06 0.78 6.03 0.51 2.02 1.09 4.03 1.74 6.01 0.58 1.76 1.1 3.53 1.57 5.32 0.47 1.77 0.78 3.58 0.92 5.41 0.01 0.13-0.04 0.26-0.12 0.36-0.09 0.1-0.21 0.16-0.35 0.17-0.13 0.01-0.26-0.03-0.36-0.12-0.1-0.08-0.16-0.21-0.17-0.34-0.14-1.76-0.43-3.51-0.88-5.22-0.47-1.77-0.99-3.53-1.56-5.27-0.66-2-1.25-4.03-1.76-6.08s-0.78-4.15-0.81-6.26v-0.01l0.01-0.42v-0.01c0.06-2.04 0.29-4.07 0.67-6.07 0.39-2.05 0.83-4.09 1.32-6.11 0.5-2.06 0.94-4.13 1.34-6.2 0.38-2.02 0.6-4.07 0.67-6.12v-0.46c0-1.1-0.07-2.2-0.2-3.29-0.13-1.17-0.3-2.32-0.52-3.47-0.45-2.35-0.96-4.68-1.54-7-0.44-1.8-0.84-3.6-1.21-5.42-0.16-0.79-0.29-1.6-0.39-2.4-0.09-0.71-0.14-1.42-0.15-2.13v-0.01l0.01-0.33v-0.01c0.05-1.15 0.2-2.29 0.47-3.42 0.26-1.15 0.56-2.29 0.88-3.43 0.34-1.14 0.63-2.3 0.89-3.46 0.25-1.06 0.38-2.14 0.4-3.23 0.02-1.03-0.19-2.06-0.6-3.01-0.05-0.12-0.06-0.26-0.01-0.38s0.15-0.22 0.27-0.28c0.12-0.05 0.26-0.05 0.38 0s0.22 0.14 0.28 0.26c0.47 1.08 0.7 2.25 0.68 3.43-0.02 1.16-0.16 2.31-0.42 3.43-0.27 1.18-0.57 2.36-0.91 3.52-0.32 1.12-0.61 2.25-0.87 3.38-0.25 1.06-0.4 2.14-0.44 3.23l-0.01 0.3c0.01 0.68 0.05 1.34 0.14 2.01 0.1 0.78 0.23 1.56 0.38 2.34 0.36 1.8 0.77 3.59 1.21 5.37 0.57 2.34 1.09 4.69 1.54 7.05 0.22 1.18 0.4 2.36 0.54 3.54 0.13 1.13 0.2 2.27 0.2 3.41v0.01z"/>
<path d="m291.4 235.68v0.46 0.01c-0.07 2.11-0.3 4.21-0.69 6.28-0.4 2.1-0.85 4.18-1.35 6.25-0.48 2.01-0.92 4.03-1.31 6.07-0.37 1.94-0.59 3.92-0.65 5.9l-0.01 0.41c0.03 2.03 0.29 4.06 0.78 6.03 0.51 2.02 1.09 4.03 1.74 6.01 0.58 1.75 1.1 3.53 1.57 5.32 0.47 1.77 0.78 3.58 0.92 5.4 0.01 0.14-0.04 0.27-0.12 0.37-0.09 0.1-0.21 0.16-0.35 0.17-0.13 0.01-0.26-0.03-0.36-0.12s-0.16-0.21-0.17-0.34c-0.14-1.77-0.43-3.52-0.88-5.23-0.47-1.77-0.99-3.52-1.56-5.26-0.66-2.01-1.25-4.03-1.76-6.08s-0.78-4.15-0.81-6.26v-0.01l0.01-0.42v-0.01c0.06-2.04 0.29-4.07 0.67-6.07 0.39-2.05 0.83-4.09 1.32-6.12 0.5-2.05 0.94-4.12 1.34-6.19 0.38-2.02 0.6-4.07 0.67-6.12v-0.46c0-1.1-0.07-2.2-0.2-3.3-0.13-1.16-0.3-2.31-0.52-3.46-0.45-2.35-0.96-4.68-1.54-7-0.44-1.8-0.84-3.6-1.21-5.42-0.16-0.8-0.29-1.6-0.39-2.4-0.09-0.71-0.14-1.42-0.15-2.14v-0.01l0.01-0.32v-0.01c0.05-1.15 0.2-2.3 0.47-3.42 0.26-1.15 0.56-2.29 0.88-3.43 0.34-1.14 0.63-2.3 0.89-3.46 0.25-1.06 0.38-2.14 0.4-3.23 0.02-1.03-0.19-2.06-0.6-3.01-0.05-0.12-0.06-0.26-0.01-0.38 0.05-0.13 0.15-0.22 0.27-0.28 0.12-0.05 0.26-0.05 0.38 0 0.12 0.04 0.22 0.14 0.28 0.26 0.47 1.08 0.7 2.25 0.68 3.43-0.02 1.15-0.16 2.3-0.42 3.43-0.27 1.18-0.57 2.36-0.91 3.52-0.32 1.12-0.61 2.24-0.87 3.38-0.25 1.06-0.4 2.14-0.44 3.22l-0.01 0.31c0.01 0.67 0.05 1.34 0.14 2.01 0.1 0.78 0.23 1.56 0.38 2.33 0.36 1.81 0.77 3.6 1.21 5.38 0.57 2.34 1.09 4.69 1.54 7.05 0.22 1.17 0.4 2.35 0.54 3.54 0.13 1.13 0.2 2.27 0.2 3.41v0.01z"/>
<path d="m180.39 247.27c0.03-0.5 0.23-0.98 0.56-1.35 0.36-0.43 0.79-0.83 1.26-1.16 0.58-0.43 1.19-0.81 1.82-1.15 0.73-0.4 1.47-0.76 2.23-1.09 1.63-0.71 3.31-1.29 5.03-1.73 0.83-0.22 1.66-0.39 2.5-0.52 0.75-0.12 1.52-0.19 2.28-0.19 0.75 0 1.5 0.07 2.23 0.21 0.8 0.14 1.58 0.33 2.35 0.56 1.58 0.48 3.1 1.09 4.57 1.84 1.26 0.62 2.46 1.38 3.56 2.26 0.41 0.33 0.78 0.7 1.1 1.11 0.29 0.34 0.46 0.76 0.48 1.21-0.02 0.44-0.19 0.86-0.48 1.2-0.32 0.41-0.69 0.79-1.1 1.11-1.1 0.89-2.3 1.64-3.56 2.26-1.47 0.75-2.99 1.37-4.57 1.84-0.77 0.24-1.55 0.42-2.35 0.57-0.73 0.13-1.48 0.2-2.23 0.21-0.76-0.01-1.53-0.07-2.28-0.2-0.84-0.13-1.67-0.3-2.5-0.51-1.72-0.45-3.4-1.03-5.03-1.74-0.76-0.33-1.5-0.69-2.23-1.09-0.63-0.34-1.24-0.72-1.82-1.14-0.47-0.34-0.9-0.73-1.27-1.18-0.33-0.37-0.52-0.84-0.55-1.33zm1 0c0.03-0.25 0.13-0.49 0.3-0.67 0.33-0.4 0.7-0.74 1.11-1.03 0.54-0.4 1.11-0.76 1.71-1.08 0.7-0.38 1.41-0.73 2.14-1.05 1.59-0.69 3.22-1.25 4.9-1.69 0.79-0.2 1.59-0.37 2.4-0.49 0.7-0.12 1.41-0.18 2.12-0.18 0.69 0 1.38 0.07 2.06 0.19 0.75 0.14 1.5 0.32 2.23 0.54 1.52 0.46 3 1.05 4.41 1.78 1.21 0.58 2.34 1.3 3.39 2.14 0.35 0.28 0.67 0.61 0.94 0.97 0.15 0.16 0.24 0.36 0.26 0.57-0.02 0.21-0.11 0.41-0.26 0.57-0.27 0.36-0.59 0.68-0.94 0.96-1.05 0.84-2.18 1.56-3.39 2.15-1.41 0.72-2.89 1.32-4.41 1.78-0.73 0.22-1.48 0.4-2.23 0.53-0.68 0.12-1.37 0.19-2.06 0.2-0.71-0.01-1.42-0.07-2.12-0.18-0.81-0.13-1.61-0.29-2.4-0.5-1.68-0.43-3.31-1-4.9-1.69-0.73-0.31-1.44-0.66-2.14-1.04-0.6-0.33-1.17-0.69-1.71-1.09-0.41-0.29-0.78-0.63-1.1-1.01-0.17-0.19-0.28-0.43-0.31-0.68z" fill-rule="evenodd"/>
<path d="m192.19 247.27c0-0.85 0.34-1.66 0.93-2.26 0.6-0.6 1.41-0.93 2.26-0.93 0.84 0 1.65 0.33 2.25 0.93s0.94 1.41 0.94 2.26c0 0.84-0.34 1.65-0.94 2.25s-1.41 0.94-2.25 0.94c-0.85 0-1.66-0.34-2.26-0.94-0.59-0.6-0.93-1.41-0.93-2.25zm1 0c0-0.58 0.23-1.14 0.64-1.55s0.97-0.64 1.55-0.64 1.13 0.23 1.54 0.64c0.42 0.41 0.65 0.97 0.65 1.55s-0.23 1.13-0.65 1.54c-0.41 0.41-0.96 0.65-1.54 0.65s-1.14-0.24-1.55-0.65-0.64-0.96-0.64-1.54z" fill-rule="evenodd"/>
<path d="m12.11 320.17-0.48 0.13-0.27-0.96 0.48-0.13c0.69-0.2 1.4-0.33 2.11-0.4 0.79-0.09 1.58-0.13 2.37-0.13 1.08 0.01 2.17 0.06 3.24 0.16 1.17 0.11 2.33 0.25 3.49 0.42 2.45 0.37 4.89 0.78 7.32 1.25 1.98 0.37 3.96 0.71 5.95 1.03 1.77 0.29 3.55 0.5 5.34 0.61 0.36 0.02 0.73 0.03 1.09 0.03 1.37-0.01 2.75-0.1 4.11-0.26 1.64-0.18 3.27-0.41 4.89-0.68 3.69-0.63 7.37-1.32 11.04-2.08 3.3-0.67 6.62-1.31 9.94-1.89 1.49-0.26 2.99-0.49 4.49-0.68 1.3-0.18 2.61-0.3 3.93-0.37h0.01l0.85-0.02h0.02c1.24 0.01 2.48 0.11 3.71 0.3 1.32 0.21 2.63 0.47 3.93 0.8 1.39 0.35 2.77 0.73 4.15 1.14 1.44 0.43 2.87 0.87 4.31 1.33 1.71 0.54 3.43 1.07 5.15 1.58 1.75 0.51 3.51 0.98 5.28 1.41 1.76 0.41 3.54 0.75 5.34 1 1.76 0.25 3.55 0.38 5.33 0.39l1.14-0.02c1.84-0.08 3.68-0.27 5.5-0.56 2.14-0.33 4.26-0.73 6.37-1.19 2.33-0.51 4.64-1.05 6.96-1.63 2.43-0.61 4.86-1.23 7.29-1.86 2.69-0.7 5.39-1.38 8.09-2.05 2.6-0.65 5.22-1.25 7.85-1.8 2.42-0.52 4.85-0.95 7.3-1.29 2.12-0.31 4.27-0.47 6.42-0.49 2.11 0.02 4.21 0.18 6.29 0.5 2.37 0.35 4.72 0.79 7.05 1.31 2.51 0.57 5.02 1.18 7.51 1.84 2.56 0.68 5.11 1.37 7.66 2.08 2.34 0.65 4.69 1.29 7.03 1.91 2.21 0.59 4.43 1.14 6.65 1.65 1.99 0.46 4 0.84 6.01 1.15 1.69 0.27 3.39 0.41 5.1 0.43 1.69-0.01 3.38-0.14 5.05-0.4 1.78-0.27 3.56-0.62 5.31-1.05 1.83-0.45 3.65-0.95 5.46-1.49 1.84-0.55 3.67-1.11 5.5-1.69 1.7-0.54 3.41-1.06 5.11-1.57 1.64-0.5 3.3-0.95 4.96-1.37 1.56-0.39 3.14-0.71 4.73-0.96 1.46-0.23 2.93-0.36 4.41-0.37 1.47 0.02 2.95 0.11 4.41 0.3 1.72 0.2 3.44 0.46 5.14 0.77 3.96 0.73 7.91 1.53 11.83 2.41 2.5 0.55 5 1.07 7.5 1.59s5.01 0.99 7.53 1.43c2.42 0.41 4.84 0.75 7.28 1.02 2.23 0.25 4.48 0.38 6.72 0.39 2.14-0.01 4.26-0.11 6.39-0.32 2.26-0.21 4.52-0.49 6.78-0.84 2.33-0.35 4.66-0.75 6.99-1.18 2.34-0.43 4.68-0.87 7.02-1.33 4.12-0.83 8.25-1.57 12.4-2.24 1.88-0.3 3.78-0.54 5.68-0.73 1.71-0.18 3.43-0.27 5.16-0.28h0.5v1h-0.5c-1.69 0.01-3.38 0.1-5.06 0.27-1.88 0.19-3.76 0.43-5.62 0.73-4.14 0.66-8.26 1.41-12.37 2.23-2.34 0.46-4.68 0.9-7.03 1.34-2.34 0.43-4.68 0.82-7.02 1.18-2.27 0.35-4.55 0.63-6.84 0.85-2.15 0.2-4.31 0.31-6.48 0.32-2.28-0.01-4.56-0.14-6.83-0.4-2.46-0.26-4.9-0.61-7.34-1.03-2.53-0.43-5.05-0.91-7.56-1.43s-5.01-1.05-7.51-1.59c-3.92-0.88-7.85-1.68-11.8-2.41-1.68-0.3-3.38-0.56-5.08-0.76-1.42-0.18-2.86-0.27-4.29-0.29-1.43 0.01-2.85 0.13-4.26 0.36-1.56 0.24-3.1 0.56-4.64 0.94-1.64 0.41-3.28 0.86-4.91 1.35-1.7 0.52-3.4 1.04-5.1 1.57-1.83 0.58-3.67 1.15-5.51 1.7-1.83 0.55-3.66 1.04-5.51 1.5-1.79 0.44-3.59 0.79-5.4 1.07-1.72 0.26-3.46 0.4-5.2 0.41-1.76-0.02-3.51-0.17-5.25-0.44-2.04-0.32-4.07-0.7-6.08-1.17-2.24-0.51-4.47-1.06-6.68-1.65-2.35-0.63-4.7-1.26-7.04-1.91-2.55-0.71-5.1-1.4-7.66-2.08-2.48-0.66-4.97-1.27-7.47-1.83-2.31-0.52-4.64-0.96-6.98-1.3-2.03-0.31-4.08-0.47-6.14-0.49-2.1 0.02-4.2 0.18-6.28 0.48-2.43 0.34-4.84 0.76-7.23 1.27-2.62 0.56-5.23 1.16-7.82 1.8-2.7 0.67-5.39 1.35-8.08 2.05-2.43 0.63-4.87 1.25-7.3 1.86-2.32 0.58-4.65 1.12-6.99 1.63-2.13 0.47-4.27 0.87-6.42 1.21-1.86 0.3-3.74 0.49-5.62 0.57h-0.02l-1.15 0.02h-0.01c-1.83-0.01-3.66-0.14-5.47-0.4-1.83-0.25-3.64-0.59-5.43-1.02s-3.57-0.9-5.33-1.42c-1.73-0.52-3.46-1.05-5.17-1.59-1.43-0.45-2.87-0.89-4.3-1.32-1.36-0.41-2.72-0.79-4.1-1.13-1.27-0.32-2.55-0.58-3.85-0.78-1.17-0.18-2.36-0.28-3.55-0.29l-0.84 0.02c-1.28 0.07-2.56 0.19-3.84 0.36-1.49 0.19-2.97 0.42-4.45 0.67-3.31 0.59-6.61 1.22-9.91 1.89-3.68 0.76-7.37 1.45-11.07 2.09-1.64 0.27-3.29 0.5-4.95 0.69-1.4 0.16-2.81 0.25-4.22 0.26-0.38 0-0.76-0.01-1.15-0.03-1.82-0.12-3.64-0.32-5.44-0.62-2-0.32-3.99-0.67-5.97-1.04-2.42-0.46-4.85-0.87-7.29-1.24-1.14-0.17-2.28-0.31-3.43-0.41-1.05-0.1-2.1-0.15-3.15-0.16-0.76 0-1.51 0.04-2.26 0.12-0.66 0.07-1.31 0.19-1.95 0.37z"/>
<path d="m12.11 330.05-0.48 0.14-0.27-0.97 0.48-0.13c0.69-0.19 1.4-0.33 2.11-0.4 0.79-0.08 1.58-0.12 2.37-0.12 1.08 0 2.17 0.06 3.24 0.16 1.17 0.11 2.33 0.24 3.49 0.41 2.45 0.37 4.89 0.79 7.32 1.25 1.98 0.37 3.96 0.72 5.95 1.04 1.77 0.29 3.55 0.49 5.34 0.61 0.36 0.02 0.73 0.03 1.09 0.03 1.37-0.01 2.75-0.1 4.11-0.26 1.64-0.18 3.27-0.41 4.89-0.68 3.69-0.63 7.37-1.33 11.04-2.08 3.3-0.68 6.62-1.31 9.94-1.9 1.49-0.25 2.99-0.48 4.49-0.68 1.3-0.17 2.61-0.29 3.93-0.36h0.01l0.85-0.02h0.02c1.24 0.01 2.48 0.11 3.71 0.3 1.32 0.2 2.63 0.47 3.93 0.8 1.39 0.34 2.77 0.72 4.15 1.13 1.44 0.44 2.87 0.88 4.31 1.33 1.71 0.54 3.43 1.07 5.15 1.58 1.75 0.52 3.51 0.99 5.28 1.41 1.76 0.42 3.54 0.76 5.34 1.01 1.76 0.25 3.55 0.38 5.33 0.39l1.14-0.02c1.84-0.08 3.68-0.27 5.5-0.56 2.14-0.34 4.26-0.73 6.37-1.2 2.33-0.51 4.64-1.05 6.96-1.63 2.43-0.6 4.86-1.22 7.29-1.85 2.69-0.7 5.39-1.38 8.09-2.05 2.6-0.65 5.22-1.25 7.85-1.81 2.42-0.51 4.85-0.94 7.3-1.29 2.12-0.3 4.27-0.47 6.42-0.49 2.11 0.02 4.21 0.19 6.29 0.51 2.37 0.34 4.72 0.78 7.05 1.31 2.51 0.56 5.02 1.18 7.51 1.84 2.56 0.68 5.11 1.37 7.66 2.08 2.34 0.65 4.69 1.28 7.03 1.91 2.21 0.59 4.43 1.13 6.65 1.64 1.99 0.46 4 0.85 6.01 1.15 1.69 0.27 3.39 0.42 5.1 0.44 1.69-0.02 3.38-0.15 5.05-0.4 1.78-0.27 3.56-0.63 5.31-1.06 1.83-0.45 3.65-0.94 5.46-1.48 1.84-0.55 3.67-1.12 5.5-1.69 1.7-0.54 3.41-1.07 5.11-1.58 1.64-0.49 3.3-0.95 4.96-1.36 1.56-0.39 3.14-0.72 4.73-0.97 1.46-0.23 2.93-0.35 4.41-0.36 1.47 0.01 2.95 0.11 4.41 0.29 1.72 0.21 3.44 0.47 5.14 0.77 3.96 0.73 7.91 1.54 11.83 2.42 2.5 0.54 5 1.07 7.5 1.59 2.5 0.51 5.01 0.99 7.53 1.42 2.42 0.42 4.84 0.76 7.28 1.02 2.23 0.25 4.48 0.38 6.72 0.4 2.14-0.01 4.26-0.12 6.39-0.32 2.26-0.22 4.52-0.5 6.78-0.84 2.33-0.36 4.66-0.75 6.99-1.18 2.34-0.43 4.68-0.88 7.02-1.33 4.12-0.83 8.25-1.58 12.4-2.25 1.88-0.29 3.78-0.54 5.68-0.73 1.71-0.17 3.43-0.26 5.16-0.27l0.5-0.01v1l-0.5 0.01c-1.69 0.01-3.38 0.1-5.06 0.27-1.88 0.19-3.76 0.43-5.62 0.72-4.14 0.67-8.26 1.41-12.37 2.24-2.34 0.45-4.68 0.9-7.03 1.33-2.34 0.43-4.68 0.83-7.02 1.19-2.27 0.34-4.55 0.63-6.84 0.84-2.15 0.21-4.31 0.32-6.48 0.33-2.28-0.02-4.56-0.15-6.83-0.4-2.46-0.27-4.9-0.61-7.34-1.03-2.53-0.44-5.05-0.92-7.56-1.43-2.51-0.52-5.01-1.05-7.51-1.6-3.92-0.87-7.85-1.67-11.8-2.4-1.68-0.31-3.38-0.56-5.08-0.77-1.42-0.17-2.86-0.27-4.29-0.28-1.43 0.01-2.85 0.13-4.26 0.35-1.56 0.25-3.1 0.56-4.64 0.95-1.64 0.41-3.28 0.86-4.91 1.35-1.7 0.51-3.4 1.03-5.1 1.57-1.83 0.58-3.67 1.14-5.51 1.69-1.83 0.55-3.66 1.05-5.51 1.5-1.79 0.44-3.59 0.8-5.4 1.07-1.72 0.27-3.46 0.4-5.2 0.42-1.76-0.02-3.51-0.17-5.25-0.45-2.04-0.31-4.07-0.7-6.08-1.16-2.24-0.51-4.47-1.06-6.68-1.66-2.35-0.62-4.7-1.26-7.04-1.91-2.55-0.71-5.1-1.4-7.66-2.08-2.48-0.65-4.97-1.26-7.47-1.83-2.31-0.52-4.63-0.95-6.97-1.3-2.04-0.3-4.09-0.47-6.15-0.49-2.1 0.02-4.2 0.18-6.28 0.48-2.43 0.34-4.84 0.77-7.23 1.28-2.62 0.55-5.23 1.15-7.82 1.8-2.7 0.67-5.39 1.35-8.08 2.05-2.43 0.63-4.87 1.25-7.3 1.85-2.32 0.58-4.65 1.13-6.99 1.64-2.13 0.47-4.27 0.87-6.42 1.21-1.86 0.29-3.74 0.48-5.62 0.56-0.01 0-0.01 0.01-0.02 0.01l-1.15 0.01c0 0.01 0 0.01-0.01 0.01-1.83-0.01-3.66-0.14-5.47-0.4-1.83-0.26-3.64-0.6-5.43-1.03-1.79-0.42-3.57-0.9-5.33-1.42-1.73-0.51-3.46-1.04-5.17-1.58-1.43-0.46-2.87-0.9-4.3-1.33-1.36-0.41-2.72-0.78-4.1-1.12-1.27-0.32-2.55-0.58-3.85-0.78-1.17-0.19-2.36-0.28-3.55-0.29l-0.84 0.02c-1.28 0.07-2.56 0.18-3.84 0.35-1.49 0.2-2.97 0.42-4.45 0.68-3.31 0.58-6.61 1.21-9.91 1.89-3.68 0.75-7.37 1.45-11.07 2.08-1.64 0.28-3.29 0.51-4.95 0.69-1.4 0.17-2.81 0.26-4.22 0.27-0.38 0-0.76-0.01-1.15-0.03-1.82-0.12-3.64-0.33-5.44-0.63-2-0.32-3.99-0.66-5.97-1.04-2.42-0.46-4.85-0.87-7.29-1.24-1.14-0.16-2.28-0.3-3.43-0.41-1.05-0.09-2.1-0.15-3.15-0.15-0.76 0-1.51 0.03-2.26 0.11-0.66 0.07-1.31 0.2-1.95 0.37z"/>
<path d="m12.11 339.94-0.48 0.13-0.27-0.96 0.48-0.13c0.69-0.2 1.4-0.33 2.11-0.4 0.79-0.09 1.58-0.13 2.37-0.13 1.08 0.01 2.17 0.06 3.24 0.16 1.17 0.11 2.33 0.25 3.49 0.42 2.45 0.37 4.89 0.78 7.32 1.25 1.98 0.37 3.96 0.71 5.95 1.03 1.77 0.29 3.55 0.5 5.34 0.61 0.36 0.02 0.73 0.03 1.09 0.03 1.37-0.01 2.75-0.1 4.11-0.26 1.64-0.18 3.27-0.41 4.89-0.68 3.69-0.63 7.37-1.32 11.04-2.08 3.3-0.67 6.62-1.31 9.94-1.89 1.49-0.26 2.99-0.49 4.49-0.68 1.3-0.18 2.61-0.3 3.93-0.37h0.01l0.85-0.02h0.02c1.24 0.01 2.48 0.11 3.71 0.3 1.32 0.21 2.63 0.48 3.93 0.8 1.39 0.35 2.77 0.73 4.15 1.14 1.44 0.43 2.87 0.87 4.31 1.33 1.71 0.54 3.43 1.07 5.15 1.58 1.75 0.52 3.51 0.98 5.28 1.41 1.76 0.42 3.54 0.75 5.34 1 1.76 0.25 3.55 0.38 5.33 0.39l1.14-0.02c1.84-0.08 3.68-0.27 5.5-0.56 2.14-0.33 4.26-0.73 6.37-1.19 2.33-0.51 4.64-1.05 6.96-1.63 2.43-0.61 4.86-1.23 7.29-1.86 2.69-0.69 5.39-1.38 8.09-2.05 2.6-0.65 5.22-1.25 7.85-1.8 2.42-0.52 4.85-0.95 7.3-1.29 2.12-0.31 4.27-0.47 6.42-0.49 2.11 0.02 4.21 0.18 6.29 0.5 2.37 0.35 4.72 0.79 7.05 1.31 2.51 0.57 5.02 1.18 7.51 1.84 2.56 0.68 5.11 1.37 7.66 2.08 2.34 0.65 4.69 1.29 7.03 1.91 2.21 0.59 4.43 1.14 6.65 1.65 1.99 0.46 4 0.84 6.01 1.15 1.69 0.27 3.39 0.41 5.1 0.43 1.69-0.01 3.38-0.14 5.05-0.4 1.78-0.27 3.56-0.62 5.31-1.05 1.83-0.45 3.65-0.95 5.46-1.49 1.84-0.55 3.67-1.11 5.5-1.69 1.7-0.54 3.41-1.06 5.11-1.57 1.64-0.5 3.3-0.95 4.96-1.37 1.56-0.39 3.14-0.71 4.73-0.96 1.46-0.23 2.93-0.36 4.41-0.37 1.47 0.02 2.95 0.11 4.41 0.3 1.72 0.2 3.44 0.46 5.14 0.77 3.96 0.73 7.91 1.53 11.83 2.41 2.5 0.55 5 1.08 7.5 1.59 2.5 0.52 5.01 0.99 7.53 1.43 2.42 0.41 4.84 0.75 7.28 1.02 2.23 0.25 4.48 0.38 6.72 0.39 2.14-0.01 4.26-0.11 6.39-0.32 2.26-0.21 4.52-0.49 6.78-0.84 2.33-0.35 4.66-0.75 6.99-1.18 2.34-0.43 4.68-0.87 7.02-1.33 4.12-0.83 8.25-1.57 12.4-2.24 1.88-0.3 3.78-0.54 5.68-0.73 1.71-0.18 3.43-0.27 5.16-0.28h0.5v1h-0.5c-1.69 0.01-3.38 0.1-5.06 0.27-1.88 0.19-3.76 0.43-5.62 0.73-4.14 0.66-8.26 1.41-12.37 2.23-2.34 0.46-4.68 0.9-7.03 1.34-2.34 0.43-4.68 0.82-7.02 1.18-2.27 0.35-4.55 0.63-6.84 0.85-2.15 0.21-4.31 0.31-6.48 0.32-2.28-0.01-4.56-0.14-6.83-0.4-2.46-0.26-4.9-0.61-7.34-1.03-2.53-0.43-5.05-0.91-7.56-1.43s-5.01-1.05-7.51-1.59c-3.92-0.88-7.85-1.68-11.8-2.41-1.68-0.3-3.38-0.56-5.08-0.76-1.42-0.18-2.86-0.27-4.29-0.29-1.43 0.01-2.85 0.13-4.26 0.36-1.56 0.24-3.1 0.56-4.64 0.94-1.64 0.41-3.28 0.87-4.91 1.35-1.7 0.52-3.4 1.04-5.1 1.57-1.83 0.58-3.67 1.15-5.51 1.7-1.83 0.55-3.66 1.05-5.51 1.5-1.79 0.44-3.59 0.8-5.4 1.07-1.72 0.26-3.46 0.4-5.2 0.41-1.76-0.02-3.51-0.17-5.25-0.44-2.04-0.31-4.07-0.7-6.08-1.17-2.24-0.51-4.47-1.06-6.68-1.65-2.35-0.63-4.7-1.26-7.04-1.91-2.55-0.71-5.1-1.4-7.66-2.08-2.48-0.66-4.97-1.27-7.47-1.83-2.31-0.52-4.63-0.96-6.97-1.3-2.04-0.31-4.09-0.47-6.15-0.49-2.1 0.02-4.2 0.18-6.28 0.48-2.43 0.34-4.84 0.76-7.23 1.27-2.62 0.56-5.23 1.16-7.82 1.8-2.7 0.67-5.39 1.35-8.08 2.05-2.43 0.63-4.87 1.25-7.3 1.86-2.32 0.58-4.65 1.12-6.99 1.63-2.13 0.47-4.27 0.87-6.42 1.21-1.86 0.3-3.74 0.49-5.62 0.57h-0.02l-1.15 0.02h-0.01c-1.83-0.01-3.66-0.14-5.47-0.4-1.83-0.25-3.64-0.59-5.43-1.02s-3.57-0.9-5.33-1.42c-1.73-0.52-3.46-1.05-5.17-1.59-1.43-0.45-2.87-0.89-4.3-1.32-1.36-0.41-2.72-0.79-4.1-1.13-1.27-0.32-2.55-0.58-3.85-0.78-1.17-0.18-2.36-0.28-3.55-0.29l-0.84 0.02c-1.28 0.07-2.56 0.19-3.84 0.36-1.49 0.19-2.97 0.42-4.45 0.67-3.31 0.59-6.61 1.22-9.91 1.89-3.68 0.76-7.37 1.45-11.07 2.09-1.64 0.27-3.29 0.5-4.95 0.69-1.4 0.16-2.81 0.25-4.22 0.26-0.38 0-0.76-0.01-1.15-0.03-1.82-0.12-3.64-0.32-5.44-0.62-2-0.32-3.99-0.67-5.97-1.04-2.42-0.46-4.85-0.87-7.29-1.24-1.14-0.17-2.28-0.3-3.43-0.41-1.05-0.1-2.1-0.15-3.15-0.16-0.76 0-1.51 0.04-2.26 0.12-0.66 0.07-1.31 0.19-1.95 0.37z"/>
<path d="m168.38 305.46-0.37 0.34-0.67-0.74 0.36-0.34c2.14-1.97 4.23-4.01 6.27-6.1 1.22-1.24 2.46-2.47 3.7-3.68 1.13-1.11 2.29-2.17 3.48-3.19 0.98-0.84 2.02-1.6 3.13-2.26 0.45-0.26 0.93-0.48 1.42-0.65 0.43-0.16 0.88-0.24 1.33-0.25 0.31-0.01 0.61 0.04 0.9 0.15 0.28 0.11 0.53 0.29 0.72 0.52 0.19 0.24 0.33 0.52 0.41 0.82 0.08 0.34 0.12 0.68 0.11 1.03-0.01 0.76-0.11 1.51-0.29 2.25-0.24 1.03-0.54 2.04-0.88 3.04-0.45 1.33-0.93 2.65-1.45 3.95-0.66 1.66-1.34 3.3-2.05 4.94l-0.2 0.46-0.91-0.4 0.19-0.46c0.71-1.62 1.38-3.26 2.04-4.91 0.51-1.28 0.99-2.59 1.43-3.9 0.34-0.97 0.62-1.96 0.85-2.96 0.17-0.66 0.26-1.34 0.28-2.03 0-0.26-0.03-0.52-0.09-0.77-0.04-0.16-0.11-0.3-0.21-0.43-0.08-0.1-0.19-0.17-0.3-0.21-0.17-0.07-0.35-0.09-0.53-0.09-0.34 0.01-0.69 0.07-1.01 0.19-0.44 0.15-0.85 0.34-1.25 0.57-1.06 0.63-2.06 1.35-2.98 2.16-1.19 1.01-2.33 2.05-3.44 3.14-1.24 1.21-2.47 2.44-3.69 3.67-2.04 2.1-4.14 4.15-6.3 6.14z"/>
<path d="m200.52 303.95 0.14 0.48-0.96 0.28-0.14-0.48c-0.6-2.05-1.12-4.12-1.57-6.21-0.24-1.14-0.4-2.3-0.48-3.47-0.04-0.69-0.03-1.37 0.03-2.06 0.03-0.42 0.13-0.84 0.27-1.25 0.1-0.26 0.23-0.5 0.39-0.73 0.14-0.2 0.3-0.37 0.5-0.51 0.18-0.13 0.39-0.24 0.61-0.3 0.24-0.08 0.49-0.11 0.74-0.11 0.45 0.01 0.91 0.07 1.35 0.19 0.52 0.14 1.04 0.31 1.54 0.52 1.26 0.52 2.48 1.12 3.66 1.79 1.42 0.8 2.82 1.64 4.2 2.51 1.5 0.93 2.99 1.88 4.47 2.84 2.41 1.58 4.86 3.11 7.34 4.58 1.02 0.6 2.06 1.15 3.12 1.66 0.78 0.39 1.6 0.7 2.44 0.93l0.48 0.12-0.25 0.97-0.49-0.13c-0.9-0.24-1.78-0.57-2.62-0.99-1.09-0.52-2.15-1.09-3.19-1.7-2.49-1.48-4.96-3.01-7.38-4.61-1.48-0.95-2.96-1.89-4.45-2.83-1.37-0.86-2.75-1.69-4.16-2.48-1.15-0.65-2.33-1.23-3.55-1.74-0.46-0.19-0.94-0.35-1.42-0.47-0.36-0.1-0.73-0.15-1.1-0.16-0.15 0-0.3 0.02-0.44 0.06-0.12 0.04-0.22 0.09-0.32 0.16s-0.19 0.16-0.26 0.27c-0.11 0.16-0.2 0.33-0.27 0.51-0.11 0.32-0.19 0.65-0.22 0.99-0.05 0.63-0.06 1.27-0.02 1.9 0.07 1.12 0.23 2.24 0.46 3.33 0.44 2.07 0.96 4.11 1.55 6.14z"/>
</g>
</svg>
