<?xml version="1.0" encoding="UTF-8"?>
<svg style="isolation:isolate" viewBox="0 0 375 375" xmlns="http://www.w3.org/2000/svg">
<defs>
<clipPath id="a">
<rect width="375" height="375"/>
</clipPath>
</defs>
<g clip-path="url(#a)" fill-rule="evenodd">
<path d="m69.5 195.15l221 127.59v45.42l-221-127.59v-45.42zm3 5.2l215 124.13v38.49l-215-124.13v-38.49z"/>
<path d="m290.5 195.15v45.42l-221 127.59v-45.42l221-127.59zm-3 5.2v38.49l-215 124.13v-38.49l215-124.13z"/>
<path d="m186.2 220.7c-4.25 0.51-8.52 0.77-12.8 0.78-3.61 0.01-7.21-0.2-10.79-0.62-3.51-0.41-6.99-1.05-10.42-1.9-6.86-1.73-13.46-4.39-19.6-7.91-4.29-2.45-8.15-5.6-11.4-9.32-3.01-3.48-5.48-7.38-7.34-11.58-1.8-4.08-3.11-8.35-3.91-12.73-0.78-4.23-1.16-8.53-1.15-12.83-0.01-4.98 0.48-9.95 1.46-14.83 0.42-2.12 0.95-4.21 1.58-6.28 0.94-3.05 2.21-5.99 3.8-8.77 0.44 2.46 1.24 4.83 2.37 7.05 0.5 0.99 1.07 1.94 1.72 2.84 0.62 0.87 1.3 1.69 2.05 2.45 0.75 0.78 1.57 1.49 2.43 2.14 0.91 0.69 1.86 1.3 2.86 1.84 1.11 0.61 2.26 1.14 3.45 1.59 1.36 0.51 2.76 0.94 4.18 1.27 0.77 0.18 1.55 0.34 2.32 0.48-1.82-3.58-3.52-7.21-5.1-10.89-1.57-3.66-2.95-7.4-4.14-11.2-1.21-3.89-2.17-7.85-2.86-11.87-0.55-3.21-0.83-6.47-0.83-9.73-0.01-1.96 0.11-3.92 0.33-5.86 0.21-1.77 0.53-3.53 0.97-5.27 0.41-1.62 0.93-3.22 1.54-4.78 0.61-1.51 1.31-2.98 2.11-4.4 0.8-1.43 1.7-2.8 2.68-4.1 1.02-1.35 2.13-2.63 3.32-3.84 1.28-1.3 2.63-2.51 4.07-3.63 1.58-1.24 3.23-2.38 4.94-3.43 2.9-1.77 5.69-3.69 8.38-5.77 2.53-1.96 4.94-4.06 7.22-6.3 2.22-2.17 4.3-4.46 6.25-6.88 1.93-2.4 3.73-4.92 5.37-7.53 1.68-2.68 3.19-5.45 4.55-8.3 1.42-3 2.68-6.08 3.76-9.23 1.17-3.39 2.15-6.85 2.94-10.35 1.13-5.03 1.93-10.13 2.39-15.27 4.61 5.51 9.08 11.14 13.4 16.88 2.88 3.83 5.66 7.75 8.33 11.74 3.14 4.69 6.09 9.52 8.82 14.46 2 3.61 3.79 7.33 5.35 11.15 1.71 4.18 3.03 8.5 3.95 12.92 0.64 3.1 0.85 6.26 0.64 9.41-0.12 1.83-0.43 3.65-0.91 5.41-0.44 1.62-1.06 3.18-1.84 4.66-0.78 1.46-1.71 2.83-2.79 4.09-1.15 1.35-2.44 2.57-3.85 3.66-1.29 1-2.51 2.08-3.65 3.24-0.94 0.95-1.79 1.97-2.56 3.06-0.67 0.93-1.26 1.92-1.76 2.96-0.46 0.94-0.83 1.91-1.12 2.92-0.28 0.98-0.47 1.99-0.57 3.01-0.11 1.07-0.12 2.14-0.04 3.21 0.08 1.18 0.27 2.36 0.56 3.51 0.34 1.36 0.78 2.7 1.31 4.01 0.44 1.07 0.94 2.12 1.49 3.14 0.64 1.21 1.34 2.4 2.09 3.55 0.56 0.86 1.15 1.7 1.76 2.53 0.68 0.93 1.4 1.85 2.13 2.75 0.53 0.66 1.08 1.31 1.63 1.94 0.61 0.7 1.22 1.39 1.85 2.06 1.93 2.09 3.93 4.09 6.02 6.02 2.17 2.01 4.4 3.97 6.67 5.86 0.25-0.59 0.47-1.19 0.66-1.8 0.37-1.17 0.62-2.36 0.76-3.58 0.14-1.27 0.17-2.55 0.07-3.82-0.11-1.45-0.35-2.88-0.7-4.29-0.15-0.61-0.33-1.21-0.52-1.81-0.21-0.65-0.43-1.29-0.68-1.93-0.8-2.05-1.76-4.03-2.89-5.93-2.27-3.84-4.91-7.45-7.87-10.79 5.87 1.16 11.42 3.61 16.24 7.17 3.18 2.39 5.93 5.3 8.12 8.62 2.11 3.22 3.7 6.76 4.7 10.48 1.02 3.78 1.53 7.68 1.51 11.6-0.01 3.71-0.41 7.41-1.2 11.04-0.81 3.74-1.97 7.4-3.48 10.92-3.09 7.28-7.54 13.91-13.12 19.52-3.01 3.01-6.28 5.74-9.79 8.15-3.52 2.42-7.25 4.51-11.15 6.26-4.03 1.8-8.21 3.27-12.48 4.39-4.53 1.19-9.14 2.06-13.79 2.61zm-0.36-2.98c-4.13 0.5-8.29 0.75-12.45 0.76-3.48 0.01-6.97-0.19-10.43-0.6-3.38-0.39-6.73-1.01-10.04-1.83-6.6-1.66-12.94-4.22-18.84-7.6-4-2.29-7.59-5.22-10.63-8.69-2.81-3.25-5.12-6.9-6.86-10.82-1.7-3.86-2.94-7.91-3.7-12.06-0.74-4.05-1.11-8.17-1.1-12.29-0.01-4.78 0.46-9.56 1.4-14.25 0.4-2.01 0.9-4.01 1.51-5.98 0.16-0.5 0.32-1 0.49-1.49 0.04 0.08 0.09 0.16 0.13 0.25 0.57 1.12 1.22 2.2 1.96 3.23 0.71 0.99 1.49 1.93 2.34 2.8 0.86 0.88 1.79 1.7 2.77 2.44 1.03 0.77 2.11 1.47 3.24 2.08 1.23 0.67 2.5 1.25 3.82 1.75 1.49 0.57 3.01 1.03 4.56 1.39 2.74 0.64 5.52 1.04 8.32 1.2-2.8-5.11-5.36-10.36-7.66-15.71-1.53-3.57-2.88-7.21-4.03-10.91-1.18-3.77-2.1-7.6-2.77-11.49-0.52-3.05-0.79-6.13-0.79-9.23-0.01-1.84 0.1-3.67 0.31-5.5 0.19-1.65 0.49-3.28 0.9-4.88 0.38-1.5 0.85-2.97 1.42-4.41 0.55-1.39 1.2-2.74 1.93-4.04 0.74-1.31 1.56-2.56 2.46-3.76 0.95-1.25 1.97-2.43 3.07-3.55 1.18-1.2 2.45-2.33 3.78-3.37 1.48-1.17 3.04-2.24 4.65-3.23 2.99-1.82 5.88-3.81 8.65-5.96 2.63-2.02 5.13-4.2 7.49-6.53 2.3-2.25 4.46-4.63 6.48-7.14 2.01-2.49 3.87-5.1 5.58-7.82 1.74-2.77 3.31-5.64 4.72-8.6 1.47-3.1 2.77-6.29 3.89-9.54 1.21-3.5 2.22-7.06 3.03-10.67 0.63-2.85 1.17-5.72 1.6-8.61 3.02 3.74 5.97 7.52 8.86 11.36 2.85 3.79 5.6 7.66 8.24 11.61 3.09 4.62 5.99 9.37 8.69 14.24 1.94 3.51 3.67 7.13 5.19 10.84 1.65 4 2.91 8.15 3.79 12.39 0.58 2.83 0.78 5.72 0.59 8.6-0.11 1.63-0.38 3.25-0.81 4.82-0.39 1.41-0.92 2.76-1.6 4.04-0.67 1.27-1.48 2.46-2.42 3.55-1.02 1.19-2.16 2.28-3.4 3.24-1.4 1.08-2.72 2.25-3.96 3.51-1.05 1.06-2.01 2.2-2.87 3.42-0.76 1.07-1.43 2.2-2.01 3.38-0.53 1.1-0.97 2.24-1.3 3.42-0.33 1.15-0.56 2.34-0.68 3.53-0.12 1.24-0.14 2.48-0.04 3.72 0.09 1.36 0.31 2.7 0.64 4.02 0.37 1.51 0.86 2.99 1.45 4.43 0.48 1.16 1.02 2.31 1.61 3.42 0.69 1.29 1.43 2.54 2.23 3.77 0.59 0.9 1.21 1.79 1.85 2.66 0.72 0.98 1.46 1.94 2.22 2.88 0.56 0.68 1.12 1.35 1.7 2.01 0.63 0.72 1.26 1.43 1.91 2.13 1.98 2.14 4.04 4.2 6.18 6.18 3.12 2.89 6.34 5.66 9.66 8.31 1.1-1.73 1.96-3.6 2.58-5.56 0.42-1.34 0.71-2.73 0.87-4.13 0.16-1.46 0.19-2.93 0.08-4.39-0.13-1.62-0.39-3.22-0.78-4.79-0.17-0.67-0.36-1.34-0.57-2-0.23-0.7-0.48-1.4-0.75-2.09-0.85-2.21-1.89-4.34-3.1-6.38-0.67-1.14-1.38-2.26-2.11-3.36 2.15 1.03 4.19 2.26 6.11 3.68 2.9 2.17 5.41 4.83 7.41 7.85 1.93 2.96 3.39 6.21 4.31 9.62 0.95 3.52 1.42 7.16 1.4 10.81-0.01 3.5-0.39 6.99-1.13 10.42-0.77 3.55-1.87 7.03-3.3 10.37-2.95 6.94-7.19 13.24-12.5 18.58-2.87 2.88-6.01 5.49-9.36 7.8-3.37 2.31-6.94 4.31-10.67 5.99-3.89 1.73-7.91 3.15-12.02 4.23-4.4 1.16-8.87 2-13.39 2.53z"/>
<path d="m180.01 206.83c-2.1 0.02-4.19-0.35-6.14-1.11-1.72-0.69-3.26-1.73-4.52-3.06-1.18-1.26-2.1-2.75-2.69-4.38-0.59-1.62-0.88-3.33-0.88-5.05 0-0.6 0.06-1.19 0.17-1.78 0.17-0.91 0.38-1.81 0.65-2.7 0.21-0.71 0.44-1.41 0.69-2.11 0.34-0.93 0.7-1.86 1.08-2.78 0.28-0.68 0.56-1.36 0.86-2.03 0.35-0.81 0.71-1.61 1.08-2.41 1.04-2.24 2.12-4.46 3.25-6.66 2.06-4.01 4.2-8 6.41-11.94 1.65 2.81 3.27 5.65 4.84 8.52 0.91 1.65 1.79 3.33 2.65 5.01 1.14 2.23 2.23 4.5 3.25 6.79 0.68 1.52 1.31 3.08 1.87 4.66 0.53 1.49 0.97 3.03 1.32 4.58 0.21 0.93 0.32 1.88 0.32 2.84 0.02 1.87-0.27 3.72-0.87 5.49-0.57 1.65-1.5 3.15-2.73 4.39-1.29 1.26-2.84 2.21-4.55 2.79-0.92 0.32-1.88 0.56-2.85 0.7-1.06 0.16-2.14 0.24-3.21 0.24zm-0.02-3c-1.72 0.02-3.43-0.29-5.04-0.91-1.29-0.52-2.46-1.31-3.42-2.32-0.9-0.96-1.6-2.1-2.05-3.35-0.47-1.28-0.7-2.65-0.7-4.02 0-0.41 0.04-0.82 0.12-1.23 0.15-0.81 0.34-1.6 0.57-2.39 0.2-0.66 0.41-1.3 0.65-1.95 0.32-0.89 0.66-1.78 1.02-2.67 0.27-0.65 0.55-1.31 0.84-1.96 0.34-0.79 0.69-1.57 1.06-2.35 1.01-2.21 2.08-4.39 3.19-6.54 1.24-2.42 2.51-4.82 3.8-7.21 0.72 1.28 1.44 2.56 2.15 3.85 0.89 1.63 1.76 3.28 2.61 4.94 1.12 2.18 2.18 4.4 3.18 6.64 0.65 1.46 1.25 2.94 1.78 4.44 0.49 1.39 0.9 2.8 1.22 4.23 0.17 0.73 0.25 1.47 0.25 2.21 0.02 1.53-0.22 3.05-0.71 4.5-0.42 1.21-1.11 2.32-2.01 3.23-0.96 0.94-2.12 1.65-3.4 2.08-0.75 0.26-1.53 0.46-2.32 0.57-0.93 0.14-1.86 0.21-2.79 0.21z"/>
</g>
</svg>
