<?xml version="1.0" standalone="no"?><!-- Generator: Gravit.io --><svg xmlns="http://www.w3.org/2000/svg" xmlns:xlink="http://www.w3.org/1999/xlink" style="isolation:isolate" viewBox="0 0 375 375" width="375" height="375"><defs><clipPath id="_clipPath_yPRWzkZq6lA3Avp5nFSRLJlubyzZuqrE"><rect width="375" height="375"/></clipPath></defs><g clip-path="url(#_clipPath_yPRWzkZq6lA3Avp5nFSRLJlubyzZuqrE)"><path d=" M 362.38 47.38 L 51.38 358.38 C 46.51 363.26 39.89 366 33 366 C 26.11 366 19.49 363.26 14.62 358.38 C 9.74 353.51 7 346.89 7 340 C 7 333.11 9.74 326.49 14.62 321.62 L 325.62 10.62 C 330.49 5.74 337.11 3 344 3 C 350.89 3 357.51 5.74 362.38 10.62 C 367.26 15.49 370 22.11 370 29 C 370 35.89 367.26 42.51 362.38 47.38 Z " fill="rgb(0,0,0)"/><path d=" M 51.38 10.62 L 362.38 321.62 C 367.26 326.49 370 333.11 370 340 C 370 346.89 367.26 353.51 362.38 358.38 C 357.51 363.26 350.89 366 344 366 C 337.11 366 330.49 363.26 325.62 358.38 L 14.62 47.38 C 9.74 42.51 7 35.89 7 29 C 7 22.11 9.74 15.49 14.62 10.62 C 19.49 5.74 26.11 3 33 3 C 39.89 3 46.51 5.74 51.38 10.62 Z " fill="rgb(0,0,0)"/></g></svg>