<?xml version="1.0" encoding="UTF-8"?>
<svg style="isolation:isolate" viewBox="0 0 375 375" xmlns="http://www.w3.org/2000/svg">
<defs>
<clipPath id="a">
<rect width="375" height="375"/>
</clipPath>
</defs>
<g clip-path="url(#a)">
<path d="m358 130.56v196.44h-341v-196.44l170.5-82.73 170.5 82.73zm-3 1.88v191.56h-335v-191.56l167.5-81.27 167.5 81.27z" fill-rule="evenodd"/>
<path d="m6.94 122.06c-0.28-0.28-0.44-0.66-0.44-1.06s0.16-0.78 0.44-1.06 0.66-0.44 1.06-0.44 0.78 0.16 1.06 0.44l10.5 10.5c0.28 0.28 0.44 0.66 0.44 1.06s-0.16 0.78-0.44 1.06-0.66 0.44-1.06 0.44-0.78-0.16-1.06-0.44l-10.5-10.5z"/>
<path d="m369.96 122.15l-12.5 10.5c-0.3 0.25-0.69 0.38-1.09 0.34-0.4-0.03-0.76-0.22-1.02-0.53-0.25-0.3-0.38-0.69-0.34-1.09 0.03-0.4 0.22-0.76 0.53-1.02l12.5-10.5c0.3-0.25 0.69-0.38 1.09-0.34 0.4 0.03 0.76 0.22 1.02 0.53 0.25 0.3 0.38 0.69 0.34 1.09-0.03 0.4-0.22 0.76-0.53 1.02z"/>
<path d="m201.24 39.71c0.34-0.21 0.75-0.26 1.14-0.16 0.38 0.1 0.71 0.35 0.91 0.69 0.21 0.34 0.26 0.75 0.16 1.14-0.1 0.38-0.35 0.71-0.69 0.91l-15.24 8.93-16.24-8.9c-0.35-0.2-0.61-0.52-0.72-0.9s-0.07-0.79 0.12-1.14c0.2-0.35 0.52-0.61 0.9-0.72s0.79-0.07 1.14 0.12l14.76 8.1 13.76-8.07z"/>
<path d="m184 41c0-1.932 1.568-3.5 3.5-3.5s3.5 1.568 3.5 3.5-1.568 3.5-3.5 3.5-3.5-1.568-3.5-3.5z"/>
<g style="isolation:isolate">
<path d="m181.12 253v-22.01-1.78-0.01-0.02c0-0.27-0.04-0.54-0.13-0.79-0.11-0.26-0.28-0.49-0.5-0.67-0.44-0.34-0.94-0.59-1.47-0.73-1.02-0.29-2.06-0.46-3.11-0.49-0.61-0.05-1.17-0.32-1.59-0.77-0.33-0.34-0.6-0.74-0.8-1.18-0.22-0.47-0.4-0.96-0.55-1.46-0.17-0.59-0.32-1.19-0.44-1.8-0.28-1.52-0.48-3.05-0.59-4.59-0.14-1.92-0.21-3.84-0.21-5.76 0.01-5.9 0.52-11.79 1.53-17.61 0.53-3.19 1.23-6.35 2.09-9.46 0.85-3.12 1.91-6.17 3.16-9.14 1.21-2.88 2.68-5.63 4.39-8.24 1.63-2.49 3.58-4.76 5.8-6.74 2.18-1.94 4.68-3.49 7.39-4.58 2.88-1.12 5.95-1.69 9.04-1.67 0.49 0 0.96 0.21 1.29 0.58 0.22 0.25 0.4 0.54 0.53 0.84 0.07 0.18 0.13 0.36 0.18 0.54 0.07 0.24 0.13 0.48 0.18 0.73 0.05 0.21 0.09 0.43 0.12 0.65 0.05 0.29 0.09 0.57 0.13 0.86 0.1 0.8 0.18 1.6 0.24 2.4 0.1 1.4 0.18 2.8 0.24 4.2 0.08 1.79 0.13 3.57 0.16 5.36 0.05 2.78 0.08 5.57 0.09 8.36 0 2.15 0 4.31-0.02 6.46-0.02 2.76-0.04 5.52-0.08 8.28-0.1 7.7-0.25 15.39-0.45 23.09-0.33 12.4-0.7 24.8-1.12 37.2-0.01 0.39-0.18 0.76-0.46 1.03s-0.65 0.42-1.04 0.42h-22.5c-0.4 0-0.78-0.16-1.06-0.44s-0.44-0.66-0.44-1.06zm-4.75-29.48c-0.05-0.08-0.09-0.15-0.13-0.23-0.16-0.33-0.29-0.68-0.39-1.04-0.15-0.5-0.27-1.01-0.37-1.52-0.26-1.41-0.45-2.83-0.55-4.25-0.14-1.84-0.2-3.68-0.2-5.53 0.01-5.74 0.51-11.46 1.48-17.11 0.52-3.09 1.2-6.16 2.03-9.18 0.82-2.99 1.83-5.92 3.04-8.77 1.13-2.71 2.52-5.3 4.13-7.75 1.49-2.28 3.26-4.34 5.29-6.15 1.91-1.71 4.11-3.07 6.5-4.03 2.27-0.88 4.67-1.37 7.11-1.45 0.02 0.1 0.04 0.19 0.06 0.29 0.04 0.17 0.07 0.34 0.1 0.52 0.04 0.26 0.08 0.51 0.11 0.77 0.1 0.74 0.17 1.49 0.23 2.23 0.1 1.37 0.18 2.74 0.24 4.11 0.07 1.76 0.12 3.52 0.15 5.28 0.05 2.77 0.08 5.54 0.09 8.31 0 2.15 0 4.3-0.02 6.45-0.02 2.75-0.04 5.5-0.08 8.25-0.1 7.68-0.25 15.37-0.45 23.05l-1.07 35.73h-19.55v-20.51-1.77-0.01c0.01-0.65-0.11-1.3-0.34-1.92-0.3-0.74-0.79-1.4-1.41-1.91-0.76-0.59-1.62-1.03-2.55-1.28-1.12-0.32-2.28-0.52-3.45-0.58z" fill-rule="evenodd"/>
<path d="m233.88 254.5v-38.05c-1.08-0.08-2.15-0.26-3.2-0.52-1.43-0.37-2.81-0.94-4.1-1.69-1.25-0.75-2.4-1.66-3.42-2.71-1.04-1.08-1.95-2.29-2.71-3.58-0.82-1.38-1.5-2.82-2.05-4.33-0.59-1.62-1.06-3.29-1.41-4.98-0.39-1.84-0.67-3.69-0.84-5.56-0.18-2.02-0.27-4.05-0.27-6.08 0.01-2.2 0.3-4.38 0.86-6.49 0.55-2.12 1.33-4.18 2.3-6.14 0.98-1.97 2.12-3.85 3.42-5.63 1.27-1.76 2.68-3.42 4.19-4.97 1.46-1.5 3.02-2.9 4.67-4.18 1.53-1.19 3.15-2.27 4.84-3.22 1.51-0.85 3.1-1.55 4.75-2.09 1.44-0.49 2.95-0.76 4.48-0.78 1.53 0.03 3.05 0.33 4.48 0.88 1.63 0.6 3.19 1.38 4.65 2.31 1.64 1.04 3.21 2.2 4.67 3.48 1.59 1.36 3.08 2.83 4.47 4.39 1.44 1.61 2.77 3.31 3.99 5.1 1.22 1.77 2.3 3.63 3.23 5.57 0.92 1.87 1.65 3.83 2.19 5.84 0.52 1.93 0.8 3.92 0.81 5.92 0.02 3.62-0.38 7.24-1.2 10.77-0.38 1.66-0.88 3.29-1.49 4.88-0.58 1.51-1.29 2.97-2.11 4.37-0.78 1.33-1.69 2.58-2.72 3.73-1 1.12-2.13 2.11-3.37 2.95-2.12 1.44-4.56 2.36-7.11 2.69v38.12h-22zm3-3v-36.5c0-0.4-0.16-0.78-0.44-1.06-0.28-0.29-0.67-0.44-1.07-0.44-1.33 0.01-2.65-0.15-3.95-0.48-1.16-0.3-2.28-0.76-3.31-1.37-1.02-0.6-1.96-1.34-2.78-2.2-0.88-0.92-1.65-1.93-2.3-3.03-0.72-1.21-1.32-2.49-1.81-3.82-0.54-1.49-0.98-3.02-1.3-4.57-0.36-1.73-0.62-3.47-0.78-5.23-0.17-1.92-0.26-3.86-0.26-5.8 0.01-1.93 0.26-3.86 0.76-5.73 0.5-1.92 1.2-3.79 2.09-5.56 0.9-1.82 1.96-3.56 3.16-5.2 1.19-1.65 2.49-3.2 3.91-4.65 1.36-1.4 2.82-2.7 4.36-3.9 1.41-1.11 2.91-2.1 4.47-2.97 1.34-0.76 2.76-1.39 4.23-1.87 1.13-0.38 2.32-0.59 3.52-0.62 1.17 0.03 2.34 0.26 3.43 0.68 1.44 0.54 2.81 1.22 4.1 2.05 1.52 0.96 2.96 2.03 4.32 3.21 1.48 1.28 2.88 2.66 4.19 4.12 1.35 1.51 2.61 3.11 3.75 4.79 1.14 1.65 2.14 3.39 3.02 5.19 0.83 1.7 1.49 3.48 1.98 5.31 0.46 1.68 0.7 3.42 0.71 5.16 0.02 3.39-0.36 6.77-1.12 10.07-0.35 1.53-0.81 3.02-1.37 4.48-0.53 1.36-1.16 2.68-1.89 3.93-0.68 1.16-1.48 2.25-2.38 3.25-0.83 0.94-1.78 1.77-2.81 2.47-2.07 1.4-4.49 2.19-6.99 2.29-0.38 0.02-0.75 0.18-1.02 0.46s-0.42 0.65-0.42 1.04v36.5h-16z" fill-rule="evenodd"/>
<path d="m129.5 194v1.5h-3v-1.5-39-1.5h3v1.5 39z"/>
<path d="m147.5 194v1.5h-3v-1.5-39-1.5h3v1.5 39z"/>
<path d="m158.52 155.23l-0.23-1.48 2.96-0.46 0.23 1.48c0.71 4.55 1.21 9.12 1.51 13.71 0.32 4.74 0.48 9.5 0.48 14.25 0 2.89-0.07 5.77-0.2 8.66-0.11 2.48-0.31 4.95-0.59 7.41-0.11 1.03-0.26 2.05-0.43 3.07-0.14 0.86-0.32 1.71-0.53 2.55-0.17 0.69-0.39 1.36-0.65 2.01-0.23 0.58-0.55 1.12-0.96 1.58-0.86 0.91-1.85 1.68-2.93 2.29-1.03 0.58-2.13 1.04-3.27 1.37-1.12 0.31-2.27 0.54-3.43 0.66-0.99 0.11-1.99 0.17-2.98 0.18v41.99h-21v-41.91h-0.16c-2.52 0.01-5.01-0.5-7.32-1.5-1.09-0.46-2.12-1.06-3.06-1.79-0.91-0.7-1.68-1.57-2.26-2.56-0.15-0.26-0.27-0.53-0.35-0.82-0.1-0.3-0.18-0.6-0.25-0.91-0.17-0.78-0.31-1.58-0.41-2.37-0.28-2.27-0.49-4.55-0.62-6.83-0.18-2.95-0.31-5.9-0.38-8.86-0.09-3.28-0.14-6.56-0.13-9.85-0.01-4.1 0.07-8.21 0.23-12.31 0.07-1.81 0.17-3.61 0.29-5.41 0.11-1.52 0.25-3.04 0.43-4.56l0.18-1.49 2.98 0.36-0.18 1.49c-0.18 1.46-0.31 2.93-0.42 4.41-0.12 1.77-0.22 3.54-0.29 5.32-0.16 4.06-0.23 8.13-0.22 12.19-0.01 3.26 0.04 6.52 0.13 9.77 0.07 2.93 0.2 5.85 0.38 8.77 0.12 2.21 0.32 4.42 0.6 6.62 0.09 0.71 0.21 1.41 0.36 2.11 0.05 0.22 0.11 0.44 0.18 0.65 0.02 0.08 0.06 0.16 0.1 0.24 0.38 0.64 0.89 1.21 1.48 1.66 0.74 0.58 1.55 1.05 2.41 1.41 1.94 0.84 4.03 1.27 6.13 1.26 0.51 0 1.01-0.03 1.51-0.08 0.42-0.05 0.84 0.09 1.16 0.37 0.32 0.29 0.5 0.69 0.5 1.12v40.5h15v-42.02l2.55 0.03c1.04 0.01 2.07-0.05 3.1-0.16 1-0.11 1.98-0.3 2.94-0.57 0.91-0.26 1.79-0.63 2.61-1.09 0.81-0.46 1.55-1.03 2.19-1.7 0.17-0.2 0.3-0.42 0.38-0.66 0.22-0.53 0.4-1.07 0.54-1.63 0.19-0.77 0.35-1.54 0.48-2.33 0.16-0.96 0.3-1.93 0.41-2.91 0.27-2.39 0.46-4.8 0.57-7.21 0.14-2.84 0.2-5.68 0.2-8.52 0-4.69-0.16-9.37-0.48-14.05-0.28-4.5-0.78-8.99-1.47-13.45z"/>
</g>
<path d="m27.5 312c0-1.99 0.79-3.9 2.2-5.3 1.4-1.41 3.31-2.2 5.3-2.2s3.9 0.79 5.3 2.2c1.41 1.4 2.2 3.31 2.2 5.3s-0.79 3.9-2.2 5.3c-1.4 1.41-3.31 2.2-5.3 2.2s-3.9-0.79-5.3-2.2c-1.41-1.4-2.2-3.31-2.2-5.3zm3 0c0-1.19 0.47-2.34 1.32-3.18 0.84-0.85 1.99-1.32 3.18-1.32s2.34 0.47 3.18 1.32c0.85 0.84 1.32 1.99 1.32 3.18s-0.47 2.34-1.32 3.18c-0.84 0.85-1.99 1.32-3.18 1.32s-2.34-0.47-3.18-1.32c-0.85-0.84-1.32-1.99-1.32-3.18z" fill-rule="evenodd"/>
<path d="m49.5 312c0-1.99 0.79-3.9 2.2-5.3 1.4-1.41 3.31-2.2 5.3-2.2s3.9 0.79 5.3 2.2c1.41 1.4 2.2 3.31 2.2 5.3s-0.79 3.9-2.2 5.3c-1.4 1.41-3.31 2.2-5.3 2.2s-3.9-0.79-5.3-2.2c-1.41-1.4-2.2-3.31-2.2-5.3zm3 0c0-1.19 0.47-2.34 1.32-3.18 0.84-0.85 1.99-1.32 3.18-1.32s2.34 0.47 3.18 1.32c0.85 0.84 1.32 1.99 1.32 3.18s-0.47 2.34-1.32 3.18c-0.84 0.85-1.99 1.32-3.18 1.32s-2.34-0.47-3.18-1.32c-0.85-0.84-1.32-1.99-1.32-3.18z" fill-rule="evenodd"/>
<path d="m71.5 312c0-1.99 0.79-3.9 2.2-5.3 1.4-1.41 3.31-2.2 5.3-2.2s3.9 0.79 5.3 2.2c1.41 1.4 2.2 3.31 2.2 5.3s-0.79 3.9-2.2 5.3c-1.4 1.41-3.31 2.2-5.3 2.2s-3.9-0.79-5.3-2.2c-1.41-1.4-2.2-3.31-2.2-5.3zm3 0c0-1.19 0.47-2.34 1.32-3.18 0.84-0.85 1.99-1.32 3.18-1.32s2.34 0.47 3.18 1.32c0.85 0.84 1.32 1.99 1.32 3.18s-0.47 2.34-1.32 3.18c-0.84 0.85-1.99 1.32-3.18 1.32s-2.34-0.47-3.18-1.32c-0.85-0.84-1.32-1.99-1.32-3.18z" fill-rule="evenodd"/>
<path d="m93.5 312c0-1.99 0.79-3.9 2.2-5.3 1.4-1.41 3.31-2.2 5.3-2.2s3.9 0.79 5.3 2.2c1.41 1.4 2.2 3.31 2.2 5.3s-0.79 3.9-2.2 5.3c-1.4 1.41-3.31 2.2-5.3 2.2s-3.9-0.79-5.3-2.2c-1.41-1.4-2.2-3.31-2.2-5.3zm3 0c0-1.19 0.47-2.34 1.32-3.18 0.84-0.85 1.99-1.32 3.18-1.32s2.34 0.47 3.18 1.32c0.85 0.84 1.32 1.99 1.32 3.18s-0.47 2.34-1.32 3.18c-0.84 0.85-1.99 1.32-3.18 1.32s-2.34-0.47-3.18-1.32c-0.85-0.84-1.32-1.99-1.32-3.18z" fill-rule="evenodd"/>
<path d="m115.5 312c0-1.99 0.79-3.9 2.2-5.3 1.4-1.41 3.31-2.2 5.3-2.2s3.9 0.79 5.3 2.2c1.41 1.4 2.2 3.31 2.2 5.3s-0.79 3.9-2.2 5.3c-1.4 1.41-3.31 2.2-5.3 2.2s-3.9-0.79-5.3-2.2c-1.41-1.4-2.2-3.31-2.2-5.3zm3 0c0-1.19 0.47-2.34 1.32-3.18 0.84-0.85 1.99-1.32 3.18-1.32s2.34 0.47 3.18 1.32c0.85 0.84 1.32 1.99 1.32 3.18s-0.47 2.34-1.32 3.18c-0.84 0.85-1.99 1.32-3.18 1.32s-2.34-0.47-3.18-1.32c-0.85-0.84-1.32-1.99-1.32-3.18z" fill-rule="evenodd"/>
<path d="m137.5 312c0-1.99 0.79-3.9 2.2-5.3 1.4-1.41 3.31-2.2 5.3-2.2s3.9 0.79 5.3 2.2c1.41 1.4 2.2 3.31 2.2 5.3s-0.79 3.9-2.2 5.3c-1.4 1.41-3.31 2.2-5.3 2.2s-3.9-0.79-5.3-2.2c-1.41-1.4-2.2-3.31-2.2-5.3zm3 0c0-1.19 0.47-2.34 1.32-3.18 0.84-0.85 1.99-1.32 3.18-1.32s2.34 0.47 3.18 1.32c0.85 0.84 1.32 1.99 1.32 3.18s-0.47 2.34-1.32 3.18c-0.84 0.85-1.99 1.32-3.18 1.32s-2.34-0.47-3.18-1.32c-0.85-0.84-1.32-1.99-1.32-3.18z" fill-rule="evenodd"/>
<path d="m159.5 312c0-1.99 0.79-3.9 2.2-5.3 1.4-1.41 3.31-2.2 5.3-2.2s3.9 0.79 5.3 2.2c1.41 1.4 2.2 3.31 2.2 5.3s-0.79 3.9-2.2 5.3c-1.4 1.41-3.31 2.2-5.3 2.2s-3.9-0.79-5.3-2.2c-1.41-1.4-2.2-3.31-2.2-5.3zm3 0c0-1.19 0.47-2.34 1.32-3.18 0.84-0.85 1.99-1.32 3.18-1.32s2.34 0.47 3.18 1.32c0.85 0.84 1.32 1.99 1.32 3.18s-0.47 2.34-1.32 3.18c-0.84 0.85-1.99 1.32-3.18 1.32s-2.34-0.47-3.18-1.32c-0.85-0.84-1.32-1.99-1.32-3.18z" fill-rule="evenodd"/>
<path d="m181.5 312c0-1.99 0.79-3.9 2.2-5.3 1.4-1.41 3.31-2.2 5.3-2.2s3.9 0.79 5.3 2.2c1.41 1.4 2.2 3.31 2.2 5.3s-0.79 3.9-2.2 5.3c-1.4 1.41-3.31 2.2-5.3 2.2s-3.9-0.79-5.3-2.2c-1.41-1.4-2.2-3.31-2.2-5.3zm3 0c0-1.19 0.47-2.34 1.32-3.18 0.84-0.85 1.99-1.32 3.18-1.32s2.34 0.47 3.18 1.32c0.85 0.84 1.32 1.99 1.32 3.18s-0.47 2.34-1.32 3.18c-0.84 0.85-1.99 1.32-3.18 1.32s-2.34-0.47-3.18-1.32c-0.85-0.84-1.32-1.99-1.32-3.18z" fill-rule="evenodd"/>
<path d="m203.5 312c0-1.99 0.79-3.9 2.2-5.3 1.4-1.41 3.31-2.2 5.3-2.2s3.9 0.79 5.3 2.2c1.41 1.4 2.2 3.31 2.2 5.3s-0.79 3.9-2.2 5.3c-1.4 1.41-3.31 2.2-5.3 2.2s-3.9-0.79-5.3-2.2c-1.41-1.4-2.2-3.31-2.2-5.3zm3 0c0-1.19 0.47-2.34 1.32-3.18 0.84-0.85 1.99-1.32 3.18-1.32s2.34 0.47 3.18 1.32c0.85 0.84 1.32 1.99 1.32 3.18s-0.47 2.34-1.32 3.18c-0.84 0.85-1.99 1.32-3.18 1.32s-2.34-0.47-3.18-1.32c-0.85-0.84-1.32-1.99-1.32-3.18z" fill-rule="evenodd"/>
<path d="m225.5 312c0-1.99 0.79-3.9 2.2-5.3 1.4-1.41 3.31-2.2 5.3-2.2s3.9 0.79 5.3 2.2c1.41 1.4 2.2 3.31 2.2 5.3s-0.79 3.9-2.2 5.3c-1.4 1.41-3.31 2.2-5.3 2.2s-3.9-0.79-5.3-2.2c-1.41-1.4-2.2-3.31-2.2-5.3zm3 0c0-1.19 0.47-2.34 1.32-3.18 0.84-0.85 1.99-1.32 3.18-1.32s2.34 0.47 3.18 1.32c0.85 0.84 1.32 1.99 1.32 3.18s-0.47 2.34-1.32 3.18c-0.84 0.85-1.99 1.32-3.18 1.32s-2.34-0.47-3.18-1.32c-0.85-0.84-1.32-1.99-1.32-3.18z" fill-rule="evenodd"/>
<path d="m247.5 312c0-1.99 0.79-3.9 2.2-5.3 1.4-1.41 3.31-2.2 5.3-2.2s3.9 0.79 5.3 2.2c1.41 1.4 2.2 3.31 2.2 5.3s-0.79 3.9-2.2 5.3c-1.4 1.41-3.31 2.2-5.3 2.2s-3.9-0.79-5.3-2.2c-1.41-1.4-2.2-3.31-2.2-5.3zm3 0c0-1.19 0.47-2.34 1.32-3.18 0.84-0.85 1.99-1.32 3.18-1.32s2.34 0.47 3.18 1.32c0.85 0.84 1.32 1.99 1.32 3.18s-0.47 2.34-1.32 3.18c-0.84 0.85-1.99 1.32-3.18 1.32s-2.34-0.47-3.18-1.32c-0.85-0.84-1.32-1.99-1.32-3.18z" fill-rule="evenodd"/>
<path d="m269.5 312c0-1.99 0.79-3.9 2.2-5.3 1.4-1.41 3.31-2.2 5.3-2.2s3.9 0.79 5.3 2.2c1.41 1.4 2.2 3.31 2.2 5.3s-0.79 3.9-2.2 5.3c-1.4 1.41-3.31 2.2-5.3 2.2s-3.9-0.79-5.3-2.2c-1.41-1.4-2.2-3.31-2.2-5.3zm3 0c0-1.19 0.47-2.34 1.32-3.18 0.84-0.85 1.99-1.32 3.18-1.32s2.34 0.47 3.18 1.32c0.85 0.84 1.32 1.99 1.32 3.18s-0.47 2.34-1.32 3.18c-0.84 0.85-1.99 1.32-3.18 1.32s-2.34-0.47-3.18-1.32c-0.85-0.84-1.32-1.99-1.32-3.18z" fill-rule="evenodd"/>
<path d="m291.5 312c0-1.99 0.79-3.9 2.2-5.3 1.4-1.41 3.31-2.2 5.3-2.2s3.9 0.79 5.3 2.2c1.41 1.4 2.2 3.31 2.2 5.3s-0.79 3.9-2.2 5.3c-1.4 1.41-3.31 2.2-5.3 2.2s-3.9-0.79-5.3-2.2c-1.41-1.4-2.2-3.31-2.2-5.3zm3 0c0-1.19 0.47-2.34 1.32-3.18 0.84-0.85 1.99-1.32 3.18-1.32s2.34 0.47 3.18 1.32c0.85 0.84 1.32 1.99 1.32 3.18s-0.47 2.34-1.32 3.18c-0.84 0.85-1.99 1.32-3.18 1.32s-2.34-0.47-3.18-1.32c-0.85-0.84-1.32-1.99-1.32-3.18z" fill-rule="evenodd"/>
<path d="m313.5 312c0-1.99 0.79-3.9 2.2-5.3 1.4-1.41 3.31-2.2 5.3-2.2s3.9 0.79 5.3 2.2c1.41 1.4 2.2 3.31 2.2 5.3s-0.79 3.9-2.2 5.3c-1.4 1.41-3.31 2.2-5.3 2.2s-3.9-0.79-5.3-2.2c-1.41-1.4-2.2-3.31-2.2-5.3zm3 0c0-1.19 0.47-2.34 1.32-3.18 0.84-0.85 1.99-1.32 3.18-1.32s2.34 0.47 3.18 1.32c0.85 0.84 1.32 1.99 1.32 3.18s-0.47 2.34-1.32 3.18c-0.84 0.85-1.99 1.32-3.18 1.32s-2.34-0.47-3.18-1.32c-0.85-0.84-1.32-1.99-1.32-3.18z" fill-rule="evenodd"/>
<path d="m335.5 312c0-1.99 0.79-3.9 2.2-5.3 1.4-1.41 3.31-2.2 5.3-2.2s3.9 0.79 5.3 2.2c1.41 1.4 2.2 3.31 2.2 5.3s-0.79 3.9-2.2 5.3c-1.4 1.41-3.31 2.2-5.3 2.2s-3.9-0.79-5.3-2.2c-1.41-1.4-2.2-3.31-2.2-5.3zm3 0c0-1.19 0.47-2.34 1.32-3.18 0.84-0.85 1.99-1.32 3.18-1.32s2.34 0.47 3.18 1.32c0.85 0.84 1.32 1.99 1.32 3.18s-0.47 2.34-1.32 3.18c-0.84 0.85-1.99 1.32-3.18 1.32s-2.34-0.47-3.18-1.32c-0.85-0.84-1.32-1.99-1.32-3.18z" fill-rule="evenodd"/>
<path d="m27.5 290c0-1.99 0.79-3.9 2.2-5.3 1.4-1.41 3.31-2.2 5.3-2.2s3.9 0.79 5.3 2.2c1.41 1.4 2.2 3.31 2.2 5.3s-0.79 3.9-2.2 5.3c-1.4 1.41-3.31 2.2-5.3 2.2s-3.9-0.79-5.3-2.2c-1.41-1.4-2.2-3.31-2.2-5.3zm3 0c0-1.19 0.47-2.34 1.32-3.18 0.84-0.85 1.99-1.32 3.18-1.32s2.34 0.47 3.18 1.32c0.85 0.84 1.32 1.99 1.32 3.18s-0.47 2.34-1.32 3.18c-0.84 0.85-1.99 1.32-3.18 1.32s-2.34-0.47-3.18-1.32c-0.85-0.84-1.32-1.99-1.32-3.18z" fill-rule="evenodd"/>
<path d="m49.5 290c0-1.99 0.79-3.9 2.2-5.3 1.4-1.41 3.31-2.2 5.3-2.2s3.9 0.79 5.3 2.2c1.41 1.4 2.2 3.31 2.2 5.3s-0.79 3.9-2.2 5.3c-1.4 1.41-3.31 2.2-5.3 2.2s-3.9-0.79-5.3-2.2c-1.41-1.4-2.2-3.31-2.2-5.3zm3 0c0-1.19 0.47-2.34 1.32-3.18 0.84-0.85 1.99-1.32 3.18-1.32s2.34 0.47 3.18 1.32c0.85 0.84 1.32 1.99 1.32 3.18s-0.47 2.34-1.32 3.18c-0.84 0.85-1.99 1.32-3.18 1.32s-2.34-0.47-3.18-1.32c-0.85-0.84-1.32-1.99-1.32-3.18z" fill-rule="evenodd"/>
<path d="m71.5 290c0-1.99 0.79-3.9 2.2-5.3 1.4-1.41 3.31-2.2 5.3-2.2s3.9 0.79 5.3 2.2c1.41 1.4 2.2 3.31 2.2 5.3s-0.79 3.9-2.2 5.3c-1.4 1.41-3.31 2.2-5.3 2.2s-3.9-0.79-5.3-2.2c-1.41-1.4-2.2-3.31-2.2-5.3zm3 0c0-1.19 0.47-2.34 1.32-3.18 0.84-0.85 1.99-1.32 3.18-1.32s2.34 0.47 3.18 1.32c0.85 0.84 1.32 1.99 1.32 3.18s-0.47 2.34-1.32 3.18c-0.84 0.85-1.99 1.32-3.18 1.32s-2.34-0.47-3.18-1.32c-0.85-0.84-1.32-1.99-1.32-3.18z" fill-rule="evenodd"/>
<path d="m93.5 290c0-1.99 0.79-3.9 2.2-5.3 1.4-1.41 3.31-2.2 5.3-2.2s3.9 0.79 5.3 2.2c1.41 1.4 2.2 3.31 2.2 5.3s-0.79 3.9-2.2 5.3c-1.4 1.41-3.31 2.2-5.3 2.2s-3.9-0.79-5.3-2.2c-1.41-1.4-2.2-3.31-2.2-5.3zm3 0c0-1.19 0.47-2.34 1.32-3.18 0.84-0.85 1.99-1.32 3.18-1.32s2.34 0.47 3.18 1.32c0.85 0.84 1.32 1.99 1.32 3.18s-0.47 2.34-1.32 3.18c-0.84 0.85-1.99 1.32-3.18 1.32s-2.34-0.47-3.18-1.32c-0.85-0.84-1.32-1.99-1.32-3.18z" fill-rule="evenodd"/>
<path d="m115.5 290c0-1.99 0.79-3.9 2.2-5.3 1.4-1.41 3.31-2.2 5.3-2.2s3.9 0.79 5.3 2.2c1.41 1.4 2.2 3.31 2.2 5.3s-0.79 3.9-2.2 5.3c-1.4 1.41-3.31 2.2-5.3 2.2s-3.9-0.79-5.3-2.2c-1.41-1.4-2.2-3.31-2.2-5.3zm3 0c0-1.19 0.47-2.34 1.32-3.18 0.84-0.85 1.99-1.32 3.18-1.32s2.34 0.47 3.18 1.32c0.85 0.84 1.32 1.99 1.32 3.18s-0.47 2.34-1.32 3.18c-0.84 0.85-1.99 1.32-3.18 1.32s-2.34-0.47-3.18-1.32c-0.85-0.84-1.32-1.99-1.32-3.18z" fill-rule="evenodd"/>
<path d="m137.5 290c0-1.99 0.79-3.9 2.2-5.3 1.4-1.41 3.31-2.2 5.3-2.2s3.9 0.79 5.3 2.2c1.41 1.4 2.2 3.31 2.2 5.3s-0.79 3.9-2.2 5.3c-1.4 1.41-3.31 2.2-5.3 2.2s-3.9-0.79-5.3-2.2c-1.41-1.4-2.2-3.31-2.2-5.3zm3 0c0-1.19 0.47-2.34 1.32-3.18 0.84-0.85 1.99-1.32 3.18-1.32s2.34 0.47 3.18 1.32c0.85 0.84 1.32 1.99 1.32 3.18s-0.47 2.34-1.32 3.18c-0.84 0.85-1.99 1.32-3.18 1.32s-2.34-0.47-3.18-1.32c-0.85-0.84-1.32-1.99-1.32-3.18z" fill-rule="evenodd"/>
<path d="m159.5 290c0-1.99 0.79-3.9 2.2-5.3 1.4-1.41 3.31-2.2 5.3-2.2s3.9 0.79 5.3 2.2c1.41 1.4 2.2 3.31 2.2 5.3s-0.79 3.9-2.2 5.3c-1.4 1.41-3.31 2.2-5.3 2.2s-3.9-0.79-5.3-2.2c-1.41-1.4-2.2-3.31-2.2-5.3zm3 0c0-1.19 0.47-2.34 1.32-3.18 0.84-0.85 1.99-1.32 3.18-1.32s2.34 0.47 3.18 1.32c0.85 0.84 1.32 1.99 1.32 3.18s-0.47 2.34-1.32 3.18c-0.84 0.85-1.99 1.32-3.18 1.32s-2.34-0.47-3.18-1.32c-0.85-0.84-1.32-1.99-1.32-3.18z" fill-rule="evenodd"/>
<path d="m181.5 290c0-1.99 0.79-3.9 2.2-5.3 1.4-1.41 3.31-2.2 5.3-2.2s3.9 0.79 5.3 2.2c1.41 1.4 2.2 3.31 2.2 5.3s-0.79 3.9-2.2 5.3c-1.4 1.41-3.31 2.2-5.3 2.2s-3.9-0.79-5.3-2.2c-1.41-1.4-2.2-3.31-2.2-5.3zm3 0c0-1.19 0.47-2.34 1.32-3.18 0.84-0.85 1.99-1.32 3.18-1.32s2.34 0.47 3.18 1.32c0.85 0.84 1.32 1.99 1.32 3.18s-0.47 2.34-1.32 3.18c-0.84 0.85-1.99 1.32-3.18 1.32s-2.34-0.47-3.18-1.32c-0.85-0.84-1.32-1.99-1.32-3.18z" fill-rule="evenodd"/>
<path d="m203.5 290c0-1.99 0.79-3.9 2.2-5.3 1.4-1.41 3.31-2.2 5.3-2.2s3.9 0.79 5.3 2.2c1.41 1.4 2.2 3.31 2.2 5.3s-0.79 3.9-2.2 5.3c-1.4 1.41-3.31 2.2-5.3 2.2s-3.9-0.79-5.3-2.2c-1.41-1.4-2.2-3.31-2.2-5.3zm3 0c0-1.19 0.47-2.34 1.32-3.18 0.84-0.85 1.99-1.32 3.18-1.32s2.34 0.47 3.18 1.32c0.85 0.84 1.32 1.99 1.32 3.18s-0.47 2.34-1.32 3.18c-0.84 0.85-1.99 1.32-3.18 1.32s-2.34-0.47-3.18-1.32c-0.85-0.84-1.32-1.99-1.32-3.18z" fill-rule="evenodd"/>
<path d="m225.5 290c0-1.99 0.79-3.9 2.2-5.3 1.4-1.41 3.31-2.2 5.3-2.2s3.9 0.79 5.3 2.2c1.41 1.4 2.2 3.31 2.2 5.3s-0.79 3.9-2.2 5.3c-1.4 1.41-3.31 2.2-5.3 2.2s-3.9-0.79-5.3-2.2c-1.41-1.4-2.2-3.31-2.2-5.3zm3 0c0-1.19 0.47-2.34 1.32-3.18 0.84-0.85 1.99-1.32 3.18-1.32s2.34 0.47 3.18 1.32c0.85 0.84 1.32 1.99 1.32 3.18s-0.47 2.34-1.32 3.18c-0.84 0.85-1.99 1.32-3.18 1.32s-2.34-0.47-3.18-1.32c-0.85-0.84-1.32-1.99-1.32-3.18z" fill-rule="evenodd"/>
<path d="m247.5 290c0-1.99 0.79-3.9 2.2-5.3 1.4-1.41 3.31-2.2 5.3-2.2s3.9 0.79 5.3 2.2c1.41 1.4 2.2 3.31 2.2 5.3s-0.79 3.9-2.2 5.3c-1.4 1.41-3.31 2.2-5.3 2.2s-3.9-0.79-5.3-2.2c-1.41-1.4-2.2-3.31-2.2-5.3zm3 0c0-1.19 0.47-2.34 1.32-3.18 0.84-0.85 1.99-1.32 3.18-1.32s2.34 0.47 3.18 1.32c0.85 0.84 1.32 1.99 1.32 3.18s-0.47 2.34-1.32 3.18c-0.84 0.85-1.99 1.32-3.18 1.32s-2.34-0.47-3.18-1.32c-0.85-0.84-1.32-1.99-1.32-3.18z" fill-rule="evenodd"/>
<path d="m269.5 290c0-1.99 0.79-3.9 2.2-5.3 1.4-1.41 3.31-2.2 5.3-2.2s3.9 0.79 5.3 2.2c1.41 1.4 2.2 3.31 2.2 5.3s-0.79 3.9-2.2 5.3c-1.4 1.41-3.31 2.2-5.3 2.2s-3.9-0.79-5.3-2.2c-1.41-1.4-2.2-3.31-2.2-5.3zm3 0c0-1.19 0.47-2.34 1.32-3.18 0.84-0.85 1.99-1.32 3.18-1.32s2.34 0.47 3.18 1.32c0.85 0.84 1.32 1.99 1.32 3.18s-0.47 2.34-1.32 3.18c-0.84 0.85-1.99 1.32-3.18 1.32s-2.34-0.47-3.18-1.32c-0.85-0.84-1.32-1.99-1.32-3.18z" fill-rule="evenodd"/>
<path d="m291.5 290c0-1.99 0.79-3.9 2.2-5.3 1.4-1.41 3.31-2.2 5.3-2.2s3.9 0.79 5.3 2.2c1.41 1.4 2.2 3.31 2.2 5.3s-0.79 3.9-2.2 5.3c-1.4 1.41-3.31 2.2-5.3 2.2s-3.9-0.79-5.3-2.2c-1.41-1.4-2.2-3.31-2.2-5.3zm3 0c0-1.19 0.47-2.34 1.32-3.18 0.84-0.85 1.99-1.32 3.18-1.32s2.34 0.47 3.18 1.32c0.85 0.84 1.32 1.99 1.32 3.18s-0.47 2.34-1.32 3.18c-0.84 0.85-1.99 1.32-3.18 1.32s-2.34-0.47-3.18-1.32c-0.85-0.84-1.32-1.99-1.32-3.18z" fill-rule="evenodd"/>
<path d="m313.5 290c0-1.99 0.79-3.9 2.2-5.3 1.4-1.41 3.31-2.2 5.3-2.2s3.9 0.79 5.3 2.2c1.41 1.4 2.2 3.31 2.2 5.3s-0.79 3.9-2.2 5.3c-1.4 1.41-3.31 2.2-5.3 2.2s-3.9-0.79-5.3-2.2c-1.41-1.4-2.2-3.31-2.2-5.3zm3 0c0-1.19 0.47-2.34 1.32-3.18 0.84-0.85 1.99-1.32 3.18-1.32s2.34 0.47 3.18 1.32c0.85 0.84 1.32 1.99 1.32 3.18s-0.47 2.34-1.32 3.18c-0.84 0.85-1.99 1.32-3.18 1.32s-2.34-0.47-3.18-1.32c-0.85-0.84-1.32-1.99-1.32-3.18z" fill-rule="evenodd"/>
<path d="m335.5 290c0-1.99 0.79-3.9 2.2-5.3 1.4-1.41 3.31-2.2 5.3-2.2s3.9 0.79 5.3 2.2c1.41 1.4 2.2 3.31 2.2 5.3s-0.79 3.9-2.2 5.3c-1.4 1.41-3.31 2.2-5.3 2.2s-3.9-0.79-5.3-2.2c-1.41-1.4-2.2-3.31-2.2-5.3zm3 0c0-1.19 0.47-2.34 1.32-3.18 0.84-0.85 1.99-1.32 3.18-1.32s2.34 0.47 3.18 1.32c0.85 0.84 1.32 1.99 1.32 3.18s-0.47 2.34-1.32 3.18c-0.84 0.85-1.99 1.32-3.18 1.32s-2.34-0.47-3.18-1.32c-0.85-0.84-1.32-1.99-1.32-3.18z" fill-rule="evenodd"/>
<path d="m27.5 268c0-1.99 0.79-3.9 2.2-5.3 1.4-1.41 3.31-2.2 5.3-2.2s3.9 0.79 5.3 2.2c1.41 1.4 2.2 3.31 2.2 5.3s-0.79 3.9-2.2 5.3c-1.4 1.41-3.31 2.2-5.3 2.2s-3.9-0.79-5.3-2.2c-1.41-1.4-2.2-3.31-2.2-5.3zm3 0c0-1.19 0.47-2.34 1.32-3.18 0.84-0.85 1.99-1.32 3.18-1.32s2.34 0.47 3.18 1.32c0.85 0.84 1.32 1.99 1.32 3.18s-0.47 2.34-1.32 3.18c-0.84 0.85-1.99 1.32-3.18 1.32s-2.34-0.47-3.18-1.32c-0.85-0.84-1.32-1.99-1.32-3.18z" fill-rule="evenodd"/>
<path d="m49.5 268c0-1.99 0.79-3.9 2.2-5.3 1.4-1.41 3.31-2.2 5.3-2.2s3.9 0.79 5.3 2.2c1.41 1.4 2.2 3.31 2.2 5.3s-0.79 3.9-2.2 5.3c-1.4 1.41-3.31 2.2-5.3 2.2s-3.9-0.79-5.3-2.2c-1.41-1.4-2.2-3.31-2.2-5.3zm3 0c0-1.19 0.47-2.34 1.32-3.18 0.84-0.85 1.99-1.32 3.18-1.32s2.34 0.47 3.18 1.32c0.85 0.84 1.32 1.99 1.32 3.18s-0.47 2.34-1.32 3.18c-0.84 0.85-1.99 1.32-3.18 1.32s-2.34-0.47-3.18-1.32c-0.85-0.84-1.32-1.99-1.32-3.18z" fill-rule="evenodd"/>
<path d="m71.5 268c0-1.99 0.79-3.9 2.2-5.3 1.4-1.41 3.31-2.2 5.3-2.2s3.9 0.79 5.3 2.2c1.41 1.4 2.2 3.31 2.2 5.3s-0.79 3.9-2.2 5.3c-1.4 1.41-3.31 2.2-5.3 2.2s-3.9-0.79-5.3-2.2c-1.41-1.4-2.2-3.31-2.2-5.3zm3 0c0-1.19 0.47-2.34 1.32-3.18 0.84-0.85 1.99-1.32 3.18-1.32s2.34 0.47 3.18 1.32c0.85 0.84 1.32 1.99 1.32 3.18s-0.47 2.34-1.32 3.18c-0.84 0.85-1.99 1.32-3.18 1.32s-2.34-0.47-3.18-1.32c-0.85-0.84-1.32-1.99-1.32-3.18z" fill-rule="evenodd"/>
<path d="m93.5 268c0-1.99 0.79-3.9 2.2-5.3 1.4-1.41 3.31-2.2 5.3-2.2s3.9 0.79 5.3 2.2c1.41 1.4 2.2 3.31 2.2 5.3s-0.79 3.9-2.2 5.3c-1.4 1.41-3.31 2.2-5.3 2.2s-3.9-0.79-5.3-2.2c-1.41-1.4-2.2-3.31-2.2-5.3zm3 0c0-1.19 0.47-2.34 1.32-3.18 0.84-0.85 1.99-1.32 3.18-1.32s2.34 0.47 3.18 1.32c0.85 0.84 1.32 1.99 1.32 3.18s-0.47 2.34-1.32 3.18c-0.84 0.85-1.99 1.32-3.18 1.32s-2.34-0.47-3.18-1.32c-0.85-0.84-1.32-1.99-1.32-3.18z" fill-rule="evenodd"/>
<path d="m115.5 268c0-1.99 0.79-3.9 2.2-5.3 1.4-1.41 3.31-2.2 5.3-2.2s3.9 0.79 5.3 2.2c1.41 1.4 2.2 3.31 2.2 5.3s-0.79 3.9-2.2 5.3c-1.4 1.41-3.31 2.2-5.3 2.2s-3.9-0.79-5.3-2.2c-1.41-1.4-2.2-3.31-2.2-5.3zm3 0c0-1.19 0.47-2.34 1.32-3.18 0.84-0.85 1.99-1.32 3.18-1.32s2.34 0.47 3.18 1.32c0.85 0.84 1.32 1.99 1.32 3.18s-0.47 2.34-1.32 3.18c-0.84 0.85-1.99 1.32-3.18 1.32s-2.34-0.47-3.18-1.32c-0.85-0.84-1.32-1.99-1.32-3.18z" fill-rule="evenodd"/>
<path d="m137.5 268c0-1.99 0.79-3.9 2.2-5.3 1.4-1.41 3.31-2.2 5.3-2.2s3.9 0.79 5.3 2.2c1.41 1.4 2.2 3.31 2.2 5.3s-0.79 3.9-2.2 5.3c-1.4 1.41-3.31 2.2-5.3 2.2s-3.9-0.79-5.3-2.2c-1.41-1.4-2.2-3.31-2.2-5.3zm3 0c0-1.19 0.47-2.34 1.32-3.18 0.84-0.85 1.99-1.32 3.18-1.32s2.34 0.47 3.18 1.32c0.85 0.84 1.32 1.99 1.32 3.18s-0.47 2.34-1.32 3.18c-0.84 0.85-1.99 1.32-3.18 1.32s-2.34-0.47-3.18-1.32c-0.85-0.84-1.32-1.99-1.32-3.18z" fill-rule="evenodd"/>
<path d="m159.5 268c0-1.99 0.79-3.9 2.2-5.3 1.4-1.41 3.31-2.2 5.3-2.2s3.9 0.79 5.3 2.2c1.41 1.4 2.2 3.31 2.2 5.3s-0.79 3.9-2.2 5.3c-1.4 1.41-3.31 2.2-5.3 2.2s-3.9-0.79-5.3-2.2c-1.41-1.4-2.2-3.31-2.2-5.3zm3 0c0-1.19 0.47-2.34 1.32-3.18 0.84-0.85 1.99-1.32 3.18-1.32s2.34 0.47 3.18 1.32c0.85 0.84 1.32 1.99 1.32 3.18s-0.47 2.34-1.32 3.18c-0.84 0.85-1.99 1.32-3.18 1.32s-2.34-0.47-3.18-1.32c-0.85-0.84-1.32-1.99-1.32-3.18z" fill-rule="evenodd"/>
<path d="m181.5 268c0-1.99 0.79-3.9 2.2-5.3 1.4-1.41 3.31-2.2 5.3-2.2s3.9 0.79 5.3 2.2c1.41 1.4 2.2 3.31 2.2 5.3s-0.79 3.9-2.2 5.3c-1.4 1.41-3.31 2.2-5.3 2.2s-3.9-0.79-5.3-2.2c-1.41-1.4-2.2-3.31-2.2-5.3zm3 0c0-1.19 0.47-2.34 1.32-3.18 0.84-0.85 1.99-1.32 3.18-1.32s2.34 0.47 3.18 1.32c0.85 0.84 1.32 1.99 1.32 3.18s-0.47 2.34-1.32 3.18c-0.84 0.85-1.99 1.32-3.18 1.32s-2.34-0.47-3.18-1.32c-0.85-0.84-1.32-1.99-1.32-3.18z" fill-rule="evenodd"/>
<path d="m203.5 268c0-1.99 0.79-3.9 2.2-5.3 1.4-1.41 3.31-2.2 5.3-2.2s3.9 0.79 5.3 2.2c1.41 1.4 2.2 3.31 2.2 5.3s-0.79 3.9-2.2 5.3c-1.4 1.41-3.31 2.2-5.3 2.2s-3.9-0.79-5.3-2.2c-1.41-1.4-2.2-3.31-2.2-5.3zm3 0c0-1.19 0.47-2.34 1.32-3.18 0.84-0.85 1.99-1.32 3.18-1.32s2.34 0.47 3.18 1.32c0.85 0.84 1.32 1.99 1.32 3.18s-0.47 2.34-1.32 3.18c-0.84 0.85-1.99 1.32-3.18 1.32s-2.34-0.47-3.18-1.32c-0.85-0.84-1.32-1.99-1.32-3.18z" fill-rule="evenodd"/>
<path d="m225.5 268c0-1.99 0.79-3.9 2.2-5.3 1.4-1.41 3.31-2.2 5.3-2.2s3.9 0.79 5.3 2.2c1.41 1.4 2.2 3.31 2.2 5.3s-0.79 3.9-2.2 5.3c-1.4 1.41-3.31 2.2-5.3 2.2s-3.9-0.79-5.3-2.2c-1.41-1.4-2.2-3.31-2.2-5.3zm3 0c0-1.19 0.47-2.34 1.32-3.18 0.84-0.85 1.99-1.32 3.18-1.32s2.34 0.47 3.18 1.32c0.85 0.84 1.32 1.99 1.32 3.18s-0.47 2.34-1.32 3.18c-0.84 0.85-1.99 1.32-3.18 1.32s-2.34-0.47-3.18-1.32c-0.85-0.84-1.32-1.99-1.32-3.18z" fill-rule="evenodd"/>
<path d="m247.5 268c0-1.99 0.79-3.9 2.2-5.3 1.4-1.41 3.31-2.2 5.3-2.2s3.9 0.79 5.3 2.2c1.41 1.4 2.2 3.31 2.2 5.3s-0.79 3.9-2.2 5.3c-1.4 1.41-3.31 2.2-5.3 2.2s-3.9-0.79-5.3-2.2c-1.41-1.4-2.2-3.31-2.2-5.3zm3 0c0-1.19 0.47-2.34 1.32-3.18 0.84-0.85 1.99-1.32 3.18-1.32s2.34 0.47 3.18 1.32c0.85 0.84 1.32 1.99 1.32 3.18s-0.47 2.34-1.32 3.18c-0.84 0.85-1.99 1.32-3.18 1.32s-2.34-0.47-3.18-1.32c-0.85-0.84-1.32-1.99-1.32-3.18z" fill-rule="evenodd"/>
<path d="m269.5 268c0-1.99 0.79-3.9 2.2-5.3 1.4-1.41 3.31-2.2 5.3-2.2s3.9 0.79 5.3 2.2c1.41 1.4 2.2 3.31 2.2 5.3s-0.79 3.9-2.2 5.3c-1.4 1.41-3.31 2.2-5.3 2.2s-3.9-0.79-5.3-2.2c-1.41-1.4-2.2-3.31-2.2-5.3zm3 0c0-1.19 0.47-2.34 1.32-3.18 0.84-0.85 1.99-1.32 3.18-1.32s2.34 0.47 3.18 1.32c0.85 0.84 1.32 1.99 1.32 3.18s-0.47 2.34-1.32 3.18c-0.84 0.85-1.99 1.32-3.18 1.32s-2.34-0.47-3.18-1.32c-0.85-0.84-1.32-1.99-1.32-3.18z" fill-rule="evenodd"/>
<path d="m291.5 268c0-1.99 0.79-3.9 2.2-5.3 1.4-1.41 3.31-2.2 5.3-2.2s3.9 0.79 5.3 2.2c1.41 1.4 2.2 3.31 2.2 5.3s-0.79 3.9-2.2 5.3c-1.4 1.41-3.31 2.2-5.3 2.2s-3.9-0.79-5.3-2.2c-1.41-1.4-2.2-3.31-2.2-5.3zm3 0c0-1.19 0.47-2.34 1.32-3.18 0.84-0.85 1.99-1.32 3.18-1.32s2.34 0.47 3.18 1.32c0.85 0.84 1.32 1.99 1.32 3.18s-0.47 2.34-1.32 3.18c-0.84 0.85-1.99 1.32-3.18 1.32s-2.34-0.47-3.18-1.32c-0.85-0.84-1.32-1.99-1.32-3.18z" fill-rule="evenodd"/>
<path d="m313.5 268c0-1.99 0.79-3.9 2.2-5.3 1.4-1.41 3.31-2.2 5.3-2.2s3.9 0.79 5.3 2.2c1.41 1.4 2.2 3.31 2.2 5.3s-0.79 3.9-2.2 5.3c-1.4 1.41-3.31 2.2-5.3 2.2s-3.9-0.79-5.3-2.2c-1.41-1.4-2.2-3.31-2.2-5.3zm3 0c0-1.19 0.47-2.34 1.32-3.18 0.84-0.85 1.99-1.32 3.18-1.32s2.34 0.47 3.18 1.32c0.85 0.84 1.32 1.99 1.32 3.18s-0.47 2.34-1.32 3.18c-0.84 0.85-1.99 1.32-3.18 1.32s-2.34-0.47-3.18-1.32c-0.85-0.84-1.32-1.99-1.32-3.18z" fill-rule="evenodd"/>
<path d="m335.5 268c0-1.99 0.79-3.9 2.2-5.3 1.4-1.41 3.31-2.2 5.3-2.2s3.9 0.79 5.3 2.2c1.41 1.4 2.2 3.31 2.2 5.3s-0.79 3.9-2.2 5.3c-1.4 1.41-3.31 2.2-5.3 2.2s-3.9-0.79-5.3-2.2c-1.41-1.4-2.2-3.31-2.2-5.3zm3 0c0-1.19 0.47-2.34 1.32-3.18 0.84-0.85 1.99-1.32 3.18-1.32s2.34 0.47 3.18 1.32c0.85 0.84 1.32 1.99 1.32 3.18s-0.47 2.34-1.32 3.18c-0.84 0.85-1.99 1.32-3.18 1.32s-2.34-0.47-3.18-1.32c-0.85-0.84-1.32-1.99-1.32-3.18z" fill-rule="evenodd"/>
<path d="m18.5 254.5h-1.5v-3h1.5 338 1.5v3h-1.5-338z"/>
</g>
</svg>
