<?xml version="1.0" encoding="UTF-8"?>
<svg style="isolation:isolate" viewBox="0 0 375 375" xmlns="http://www.w3.org/2000/svg">
<defs>
<clipPath id="a">
<rect width="375" height="375"/>
</clipPath>
</defs>
<g clip-path="url(#a)">
<g fill-rule="evenodd">
<path d="m64.559 129.14h75.433v89.498c4.356 8.611 8.679 17.245 12.957 25.891 3.438 6.943 6.831 13.897 10.19 20.873 4.524 9.385 8.937 18.825 13.27 28.299 2.8 6.137 5.499 12.307 8.097 18.533 0.996 2.386 1.971 4.782 2.934 7.19 0.75 1.903 1.489 3.818 2.206 5.745 0.963 2.564 1.859 5.151 2.721 7.76 0.56 1.713 1.064 3.449 1.523 5.196 0.269 1.053 0.515 2.094 0.728 3.158 0.157 0.75 0.28 1.512 0.37 2.285 0.067 0.481 0.1 0.974 0.134 1.455 0.022 0.392 0.022 0.773 0.011 1.165-0.022 0.549-0.089 1.109-0.213 1.646-0.1 0.448-0.257 0.885-0.492 1.288-0.37 0.605-0.885 1.109-1.501 1.456-0.627 0.381-1.288 0.694-1.982 0.929-0.84 0.314-1.713 0.571-2.587 0.795-1.064 0.258-2.15 0.493-3.225 0.695-2.732 0.492-5.487 0.895-8.253 1.187-3.449 0.392-6.91 0.705-10.37 0.952-8.544 0.604-17.111 1.007-25.678 1.22-9.888 0.269-19.777 0.403-29.676 0.392-11.49 0-22.99-0.157-34.48-0.47-10.392-0.269-20.773-0.717-31.143-1.355-4.311-0.269-8.623-0.594-12.923-0.986-3.483-0.302-6.965-0.694-10.426-1.164-1.377-0.191-2.754-0.415-4.121-0.661-1.108-0.202-2.206-0.437-3.303-0.717-0.862-0.201-1.691-0.47-2.509-0.795-0.347-0.134-0.671-0.302-0.985-0.481-0.325-0.18-0.616-0.392-0.873-0.65-0.258-0.257-0.482-0.549-0.65-0.862-0.19-0.336-0.336-0.694-0.437-1.064-0.089-0.302-0.157-0.616-0.201-0.929-0.056-0.37-0.09-0.751-0.101-1.132-0.011-0.593 0-1.187 0.056-1.769 0.067-0.829 0.179-1.635 0.325-2.452 0.089-0.504 0.19-1.019 0.291-1.523 0.134-0.616 0.28-1.221 0.425-1.826 0.426-1.691 0.907-3.37 1.434-5.028 0.806-2.497 1.657-4.972 2.564-7.424 1.019-2.766 2.083-5.51 3.203-8.242 1.545-3.797 3.136-7.571 4.77-11.322 1.221-2.788 2.464-5.577 3.718-8.354 1.523-3.36 3.069-6.719 4.625-10.056 4.379-9.373 8.858-18.69 13.461-27.952 6.786-13.684 13.684-27.324 20.683-40.896v-89.498zm3.36 3.359h68.713v86.542c0 0.269 0.056 0.526 0.18 0.761 4.412 8.724 8.79 17.459 13.124 26.216 3.427 6.932 6.82 13.875 10.18 20.84 4.501 9.362 8.914 18.78 13.236 28.243 2.777 6.103 5.465 12.24 8.052 18.421 0.985 2.374 1.96 4.748 2.911 7.134 0.751 1.892 1.479 3.785 2.184 5.677 0.941 2.531 1.837 5.073 2.665 7.637 0.549 1.658 1.042 3.326 1.479 5.006 0.257 0.986 0.481 1.971 0.683 2.968 0.134 0.672 0.246 1.355 0.336 2.027 0.044 0.414 0.078 0.828 0.1 1.243 0.023 0.28 0.023 0.571 0.012 0.851-0.012 0.358-0.056 0.705-0.135 1.052-0.022 0.101-0.056 0.202-0.101 0.303-0.078 0.101-0.179 0.19-0.302 0.257-0.448 0.269-0.918 0.504-1.411 0.672-0.75 0.269-1.501 0.493-2.273 0.683-1.008 0.258-2.016 0.471-3.024 0.661-2.654 0.482-5.33 0.862-8.007 1.154-3.415 0.38-6.831 0.694-10.246 0.94-8.5 0.594-17.011 0.997-25.533 1.21-9.854 0.268-19.72 0.403-29.586 0.392-11.467 0-22.923-0.157-34.39-0.471-10.348-0.269-20.695-0.716-31.031-1.344-4.278-0.268-8.556-0.593-12.822-0.985-3.438-0.291-6.854-0.683-10.269-1.153-1.333-0.18-2.654-0.392-3.987-0.628-1.03-0.19-2.072-0.414-3.091-0.671-0.705-0.168-1.4-0.392-2.072-0.661-0.19-0.079-0.391-0.168-0.571-0.28-0.067-0.034-0.123-0.079-0.179-0.123-0.022-0.023-0.045-0.056-0.056-0.079-0.067-0.123-0.123-0.257-0.157-0.38-0.044-0.157-0.078-0.314-0.1-0.471-0.034-0.257-0.056-0.515-0.068-0.773-0.011-0.447 0-0.907 0.045-1.355 0.056-0.727 0.157-1.455 0.28-2.172 0.09-0.47 0.179-0.941 0.28-1.4 0.123-0.571 0.258-1.153 0.392-1.724 0.403-1.613 0.862-3.214 1.378-4.805 0.783-2.452 1.623-4.882 2.508-7.29 1.008-2.732 2.06-5.442 3.169-8.141 1.534-3.763 3.113-7.514 4.737-11.243 1.221-2.777 2.453-5.555 3.696-8.309 1.523-3.349 3.057-6.697 4.613-10.023 4.368-9.351 8.836-18.645 13.416-27.884 6.842-13.785 13.796-27.526 20.852-41.21 0.123-0.236 0.19-0.504 0.19-0.773v-86.542z"/>
<path d="m65.186 107.43h73.765c1.601 0 3.135 0.638 4.266 1.769 1.12 1.12 1.758 2.654 1.758 4.256v13.024c0 1.601-0.638 3.135-1.758 4.266-1.131 1.12-2.665 1.758-4.266 1.758h-73.765c-1.601 0-3.135-0.638-4.255-1.758-1.131-1.131-1.769-2.665-1.769-4.266v-13.024c0-1.602 0.638-3.136 1.769-4.256 1.12-1.131 2.654-1.769 4.255-1.769zm0 3.36h73.765c0.705 0 1.388 0.28 1.881 0.784 0.504 0.492 0.784 1.175 0.784 1.881v13.024c0 0.705-0.28 1.388-0.784 1.881-0.493 0.504-1.176 0.784-1.881 0.784h-73.765c-0.705 0-1.388-0.28-1.881-0.784-0.504-0.493-0.784-1.176-0.784-1.881v-13.024c0-0.706 0.28-1.389 0.784-1.881 0.493-0.504 1.176-0.784 1.881-0.784z"/>
<path d="m114.6 81.372v25.107c0 1.142-0.459 2.24-1.265 3.046-0.807 0.806-1.904 1.266-3.046 1.266h-16.451c-1.142 0-2.239-0.46-3.046-1.266-0.806-0.806-1.265-1.904-1.265-3.046v-25.107c0-1.142 0.459-2.239 1.265-3.046 0.807-0.806 1.904-1.265 3.046-1.265h16.451c1.142 0 2.239 0.459 3.046 1.265 0.806 0.807 1.265 1.904 1.265 3.046zm-3.359 0v25.107c0 0.247-0.101 0.493-0.28 0.672-0.18 0.179-0.426 0.28-0.672 0.28h-16.451c-0.246 0-0.492-0.101-0.672-0.28-0.179-0.179-0.28-0.425-0.28-0.672v-25.107c0-0.246 0.101-0.492 0.28-0.672 0.18-0.179 0.426-0.28 0.672-0.28h16.451c0.246 0 0.492 0.101 0.672 0.28 0.179 0.18 0.28 0.426 0.28 0.672z"/>
<path d="m114.6 133.46v25.107c0 1.142-0.459 2.24-1.265 3.046-0.807 0.806-1.904 1.266-3.046 1.266h-16.451c-1.142 0-2.239-0.46-3.046-1.266-0.806-0.806-1.265-1.904-1.265-3.046v-25.107c0-1.142 0.459-2.239 1.265-3.046 0.807-0.806 1.904-1.265 3.046-1.265h16.451c1.142 0 2.239 0.459 3.046 1.265 0.806 0.807 1.265 1.904 1.265 3.046zm-3.359 0v25.107c0 0.247-0.101 0.493-0.28 0.672-0.18 0.179-0.426 0.28-0.672 0.28h-16.451c-0.246 0-0.492-0.101-0.672-0.28-0.179-0.179-0.28-0.425-0.28-0.672v-25.107c0-0.246 0.101-0.492 0.28-0.672 0.18-0.179 0.426-0.28 0.672-0.28h16.451c0.246 0 0.492 0.101 0.672 0.28 0.179 0.18 0.28 0.426 0.28 0.672z"/>
<path d="m145.52 258.36c2.71 4.938 5.398 9.899 8.041 14.882 2.105 3.953 4.177 7.929 6.203 11.927 2.688 5.263 5.286 10.571 7.795 15.924 1.668 3.55 3.247 7.133 4.748 10.75 0.604 1.49 1.198 2.968 1.769 4.469 0.448 1.198 0.885 2.396 1.299 3.605 0.538 1.568 1.03 3.147 1.467 4.737 0.302 1.109 0.56 2.218 0.762 3.349 0.156 0.817 0.268 1.646 0.336 2.475 0.056 0.615 0.067 1.231 0.044 1.836-0.022 0.414-0.067 0.818-0.134 1.221-0.067 0.347-0.146 0.683-0.258 1.019-0.134 0.392-0.313 0.761-0.526 1.108-0.213 0.348-0.481 0.661-0.784 0.93-0.448 0.381-0.974 0.672-1.523 0.885-0.627 0.246-1.265 0.448-1.915 0.604-1.803 0.448-3.639 0.784-5.487 1.019-2.508 0.348-5.039 0.627-7.57 0.84-3.113 0.28-6.238 0.504-9.373 0.683-7.57 0.437-15.141 0.751-22.722 0.919-8.544 0.201-17.089 0.302-25.633 0.302s-17.1-0.101-25.633-0.302c-7.582-0.168-15.163-0.482-22.733-0.919-3.124-0.179-6.249-0.403-9.373-0.683-2.531-0.213-5.051-0.492-7.57-0.84-1.848-0.235-3.673-0.571-5.488-1.019-0.649-0.156-1.287-0.358-1.903-0.604-0.56-0.213-1.075-0.504-1.535-0.885-0.447-0.403-0.806-0.885-1.041-1.434-0.28-0.604-0.459-1.243-0.549-1.903-0.078-0.515-0.112-1.03-0.1-1.557 0.011-0.672 0.056-1.355 0.145-2.038 0.168-1.344 0.426-2.665 0.784-3.975 0.582-2.15 1.243-4.278 1.993-6.383 0.605-1.691 1.243-3.36 1.926-5.017 0.908-2.229 1.848-4.446 2.834-6.641 0.716-1.613 1.455-3.236 2.206-4.838 0.907-1.915 1.814-3.818 2.743-5.722 2.61-5.342 5.308-10.639 8.086-15.891 4.065-7.66 8.208-15.274 12.441-22.845 0.302-0.537 0.862-0.862 1.467-0.862h83.283c0.616 0 1.176 0.336 1.478 0.874zm-2.475 2.486c2.553 4.636 5.062 9.294 7.548 13.975 2.094 3.931 4.155 7.895 6.181 11.871 2.666 5.229 5.241 10.515 7.75 15.834 1.635 3.494 3.203 7.033 4.67 10.605 0.604 1.445 1.175 2.912 1.735 4.379 0.448 1.153 0.863 2.318 1.266 3.494 0.515 1.5 0.985 3.012 1.411 4.546 0.28 1.008 0.504 2.027 0.694 3.057 0.134 0.717 0.235 1.445 0.291 2.162 0.045 0.459 0.056 0.929 0.034 1.388-0.011 0.269-0.045 0.538-0.09 0.818-0.033 0.168-0.067 0.336-0.123 0.493-0.056 0.145-0.123 0.291-0.202 0.425-0.033 0.056-0.078 0.112-0.123 0.157-0.157 0.123-0.336 0.213-0.526 0.28-0.493 0.201-0.997 0.358-1.523 0.493-1.68 0.414-3.393 0.727-5.118 0.951-2.463 0.336-4.938 0.605-7.424 0.818-3.08 0.28-6.182 0.504-9.273 0.683-7.525 0.437-15.073 0.739-22.609 0.907-8.522 0.202-17.033 0.302-25.555 0.302s-17.044-0.1-25.555-0.302c-7.548-0.168-15.084-0.47-22.621-0.907-3.091-0.179-6.181-0.403-9.272-0.683-2.486-0.213-4.961-0.482-7.425-0.818-1.724-0.224-3.426-0.537-5.117-0.951-0.515-0.135-1.031-0.292-1.523-0.493-0.191-0.067-0.359-0.157-0.515-0.28-0.079-0.079-0.146-0.168-0.191-0.269-0.134-0.313-0.235-0.649-0.28-0.985-0.056-0.348-0.067-0.695-0.067-1.031 0.011-0.571 0.045-1.131 0.123-1.679 0.146-1.187 0.381-2.374 0.695-3.528 0.548-2.06 1.187-4.11 1.914-6.125 0.583-1.635 1.21-3.27 1.871-4.883 0.895-2.195 1.825-4.367 2.788-6.54 0.706-1.601 1.445-3.191 2.184-4.782 0.896-1.892 1.791-3.785 2.71-5.666 2.598-5.308 5.274-10.582 8.04-15.801 3.897-7.346 7.873-14.648 11.927-21.915h81.3z"/>
<path d="m50.92 299.66c0-4.053 1.623-7.95 4.49-10.828 2.867-2.867 6.775-4.48 10.829-4.48 4.065 0 7.962 1.613 10.829 4.48 2.878 2.878 4.491 6.775 4.491 10.828 0 4.066-1.613 7.963-4.491 10.841-2.867 2.866-6.764 4.479-10.829 4.479-4.054 0-7.962-1.613-10.829-4.479-2.867-2.878-4.49-6.775-4.49-10.841zm3.359 0c0-3.169 1.266-6.203 3.505-8.454 2.24-2.24 5.286-3.494 8.455-3.494s6.215 1.254 8.455 3.494c2.24 2.251 3.505 5.285 3.505 8.454 0 3.181-1.265 6.216-3.505 8.466-2.24 2.24-5.286 3.494-8.455 3.494s-6.215-1.254-8.455-3.494c-2.239-2.25-3.505-5.285-3.505-8.466z"/>
<path d="m77.314 285.1c0-2.206 0.874-4.333 2.442-5.901 1.567-1.568 3.695-2.441 5.901-2.441 2.217 0 4.345 0.873 5.913 2.441 1.557 1.568 2.441 3.695 2.441 5.901 0 2.218-0.884 4.345-2.441 5.913-1.568 1.557-3.696 2.442-5.913 2.442-2.206 0-4.334-0.885-5.901-2.442-1.568-1.568-2.442-3.695-2.442-5.913zm3.36 0c0-1.321 0.526-2.586 1.456-3.527 0.94-0.929 2.206-1.456 3.527-1.456 1.333 0 2.598 0.527 3.539 1.456 0.929 0.941 1.456 2.206 1.456 3.527 0 1.333-0.527 2.599-1.456 3.539-0.941 0.93-2.206 1.456-3.539 1.456-1.321 0-2.587-0.526-3.527-1.456-0.93-0.94-1.456-2.206-1.456-3.539z"/>
</g>
<path d="m288.91 130.58h27.64v32.12h-27.64v-32.12zm3 3h21.64v26.12h-21.64v-26.12z" fill-rule="evenodd"/>
<path d="m276.59 101.46h52.27v32.12h-52.27v-32.12zm3 3h46.27v26.12h-46.27v-26.12z" fill-rule="evenodd"/>
<path d="m105.08 77.621v2.799h-5.599v-2.799-59.777h207.17v83.999 2.8h-5.599v-2.8-78.4h-195.97v54.178z"/>
<path d="m299.93 147.19v1.679h-3.359v-1.679-8.959-1.68h3.359v1.68 8.959z"/>
<path d="m308.89 147.19v1.679h-3.36v-1.679-8.959-1.68h3.36v1.68 8.959z"/>
<path d="m324.56 181.9v-1.68h3.359v1.68 33.225 22.588c2.912 0.784 5.756 1.825 8.5 3.09 2.923 1.367 5.7 3.024 8.287 4.95 4.905 3.696 9.07 8.298 12.24 13.561 1.579 2.61 2.945 5.342 4.076 8.175 1.142 2.856 2.083 5.801 2.811 8.802 1.467 6.137 2.194 12.419 2.161 18.724-0.011 3.371-0.336 6.742-0.963 10.056-0.672 3.561-1.646 7.067-2.901 10.482-2.687 7.335-6.651 14.144-11.691 20.112-5.442 6.462-12.184 11.692-19.776 15.376-4.132 1.993-8.477 3.494-12.957 4.502-4.927 1.086-10.504 1.623-15.543 1.612v-3.359q8.609-0.14 14.815-1.534c4.222-0.952 8.321-2.375 12.229-4.245 7.167-3.482 13.528-8.421 18.668-14.513 4.793-5.677 8.544-12.139 11.097-19.116 1.199-3.236 2.117-6.551 2.755-9.944 0.594-3.113 0.896-6.271 0.907-9.451 0.034-6.025-0.66-12.05-2.071-17.918-0.683-2.833-1.579-5.621-2.666-8.343-1.063-2.654-2.34-5.229-3.829-7.682-2.946-4.893-6.809-9.171-11.378-12.609-2.397-1.792-4.972-3.326-7.693-4.592-2.934-1.366-6.003-2.441-9.161-3.202-0.358-0.09-0.683-0.303-0.918-0.594-0.235-0.302-0.358-0.661-0.358-1.041v-23.887-33.225zm-22.397 171.9v3.359q-9.496-0.515-14.413-1.579c-4.468-0.974-8.813-2.452-12.956-4.401-7.593-3.617-14.334-8.779-19.777-15.174-5.073-5.946-9.037-12.755-11.702-20.09-1.265-3.449-2.24-6.987-2.9-10.605-0.627-3.393-0.952-6.842-0.963-10.302 0-3.248 0.168-6.484 0.526-9.72 0.347-3.147 0.896-6.271 1.635-9.351 0.717-3.012 1.657-5.958 2.811-8.824 1.131-2.822 2.497-5.532 4.076-8.119 3.18-5.208 7.346-9.754 12.251-13.371 2.598-1.893 5.375-3.517 8.287-4.849 2.743-1.254 5.577-2.273 8.488-3.057v-15.129-40.684-1.68h3.36v1.68 40.684 16.428c0 0.38-0.123 0.739-0.359 1.041-0.235 0.291-0.56 0.504-0.918 0.594-3.158 0.761-6.226 1.825-9.171 3.169-2.71 1.243-5.286 2.755-7.694 4.513-4.557 3.359-8.421 7.581-11.377 12.408-1.479 2.43-2.766 4.983-3.819 7.626-1.097 2.71-1.982 5.509-2.665 8.354-0.717 2.945-1.232 5.924-1.568 8.936-0.336 3.102-0.504 6.227-0.504 9.351 0.011 3.247 0.314 6.495 0.907 9.698 0.627 3.415 1.557 6.786 2.755 10.056 2.531 6.965 6.293 13.416 11.098 19.06 5.14 6.036 11.5 10.907 18.656 14.311 3.908 1.848 8.018 3.237 12.24 4.166 4.681 1.008 8.914 1.512 13.696 1.501z" fill-rule="evenodd"/>
<path d="m270.81 183.58h-1.68v-3.359h1.68 63.831 1.68v3.359h-1.68-63.831z"/>
<path d="m355.98 282.61c0.09 1.926 0.135 3.841 0.146 5.767 0.011 3.909-0.213 7.817-0.672 11.692-0.426 3.605-1.131 7.167-2.105 10.649-0.919 3.27-2.173 6.451-3.718 9.474-1.512 2.912-3.36 5.644-5.51 8.119-2.184 2.497-4.67 4.715-7.413 6.574-2.934 1.982-6.092 3.617-9.418 4.848-3.718 1.367-7.559 2.375-11.479 2.979-4.512 0.695-9.07 1.031-13.639 1.008-4.513 0.034-9.015-0.313-13.472-1.008-3.796-0.593-7.514-1.59-11.098-2.967-3.158-1.232-6.148-2.856-8.891-4.849-2.553-1.87-4.849-4.076-6.809-6.574-1.948-2.497-3.583-5.207-4.882-8.096-1.355-3.035-2.408-6.182-3.169-9.418-0.818-3.483-1.389-7.01-1.714-10.571-0.369-3.853-0.537-7.716-0.526-11.591 0-2.004 0.045-4.009 0.112-6.013 0.011-0.437 0.201-0.851 0.515-1.154 0.314-0.302 0.728-0.47 1.165-0.47h100.9c0.436 0 0.851 0.168 1.164 0.459 0.314 0.302 0.504 0.706 0.515 1.142zm-3.292 1.758c0.045 1.344 0.067 2.677 0.078 4.021 0.012 3.774-0.201 7.547-0.649 11.288-0.403 3.426-1.075 6.808-2.005 10.134-0.862 3.057-2.027 6.014-3.471 8.836-1.378 2.676-3.08 5.185-5.051 7.458-1.993 2.284-4.266 4.3-6.775 6.002-2.71 1.837-5.621 3.337-8.69 4.469-3.505 1.299-7.133 2.239-10.829 2.81-4.333 0.672-8.734 0.997-13.124 0.975-4.334 0.033-8.668-0.292-12.946-0.963-3.561-0.56-7.055-1.49-10.414-2.789-2.878-1.12-5.611-2.609-8.119-4.423-2.307-1.691-4.379-3.685-6.148-5.935-1.781-2.274-3.27-4.76-4.457-7.403-1.265-2.833-2.262-5.778-2.968-8.802-0.772-3.337-1.332-6.707-1.646-10.112-0.347-3.751-0.515-7.514-0.504-11.288 0-1.422 0.023-2.855 0.056-4.278h97.662z" fill-rule="evenodd"/>
<path d="m264.86 309.19c0-3.628 1.444-7.111 3.997-9.664 2.565-2.564 6.048-4.009 9.676-4.009 3.617 0 7.1 1.445 9.664 4.009 2.565 2.553 3.998 6.036 3.998 9.664 0 3.617-1.433 7.1-3.998 9.665-2.564 2.564-6.047 4.009-9.664 4.009-3.628 0-7.111-1.445-9.676-4.009-2.553-2.565-3.997-6.048-3.997-9.665zm3.359 0c0-2.732 1.086-5.364 3.024-7.29 1.926-1.937 4.546-3.023 7.29-3.023 2.732 0 5.353 1.086 7.29 3.023 1.926 1.926 3.012 4.558 3.012 7.29 0 2.733-1.086 5.353-3.012 7.291-1.937 1.926-4.558 3.023-7.29 3.023-2.744 0-5.364-1.097-7.29-3.023-1.938-1.938-3.024-4.558-3.024-7.291z" fill-rule="evenodd"/>
<path d="m289.18 294.15c0-2.005 0.795-3.92 2.206-5.342 1.411-1.411 3.337-2.206 5.33-2.206 2.005 0 3.931 0.795 5.342 2.206 1.411 1.422 2.206 3.337 2.206 5.342 0 1.993-0.795 3.919-2.206 5.33s-3.337 2.206-5.342 2.206c-1.993 0-3.919-0.795-5.33-2.206s-2.206-3.337-2.206-5.33zm3.359 0c0-1.109 0.437-2.173 1.221-2.968 0.784-0.784 1.848-1.22 2.956-1.22 1.12 0 2.184 0.436 2.968 1.22 0.784 0.795 1.22 1.859 1.22 2.968 0 1.108-0.436 2.172-1.22 2.956s-1.848 1.221-2.968 1.221c-1.108 0-2.172-0.437-2.956-1.221s-1.221-1.848-1.221-2.956z" fill-rule="evenodd"/>
</g>
</svg>
