<?xml version="1.0" encoding="UTF-8"?>
<svg style="isolation:isolate" viewBox="0 0 375 375" xmlns="http://www.w3.org/2000/svg">
<defs>
<clipPath id="a">
<rect width="375" height="375"/>
</clipPath>
</defs>
<g clip-path="url(#a)">
<path d="m237.52 367.73c-17.4 0.75-34.81 1.13-52.23 1.13-17.29 0-34.58-0.37-51.85-1.13-2.84-13.75-5.82-27.48-8.92-41.18-2.74-12.1-5.62-24.18-8.64-36.21-2.71-10.84-5.57-21.63-8.59-32.39-2.67-9.57-5.52-19.09-8.54-28.56-0.15-0.45-0.06-0.95 0.22-1.34 0.28-0.38 0.73-0.61 1.21-0.61h174.64c0.49 0 0.96 0.24 1.24 0.65s0.34 0.93 0.16 1.39c-4.27 11.1-8.23 22.32-11.87 33.64-3.63 11.28-7 22.64-10.1 34.07-3.11 11.44-6.02 22.94-8.73 34.49-2.81 11.98-5.48 24-8 36.05zm-2.46-2.9c-16.58 0.69-33.17 1.03-49.77 1.03-16.47 0-32.94-0.34-49.39-1.03-2.7-13-5.52-25.99-8.46-38.94-2.74-12.13-5.63-24.22-8.65-36.28-2.71-10.86-5.58-21.69-8.61-32.47-2.5-8.94-5.15-17.84-7.95-26.7h170.41c-3.99 10.49-7.71 21.08-11.15 31.76-3.64 11.32-7.02 22.73-10.14 34.2-3.12 11.48-6.04 23.01-8.75 34.59-2.64 11.25-5.15 22.54-7.54 33.84z" fill-rule="evenodd"/>
<path d="m83.74 196.49h207.52v33.95h-207.52v-33.95zm3 3h201.52v27.95h-201.52v-27.95z" fill-rule="evenodd"/>
<path d="m195.82 146.78l0.22-1.48 2.97 0.43-0.22 1.49-7.47 50.98-0.22 1.49-2.97-0.44 0.22-1.48 7.47-50.99z"/>
<path d="m258.26 118.02c-3.2 4.92-7.04 9.4-11.4 13.33-4.18 3.75-8.82 6.95-13.8 9.53-9.76 5.03-20.58 7.64-31.56 7.62-10.98 0.02-21.8-2.59-31.56-7.62-4.98-2.58-9.62-5.78-13.8-9.53-4.36-3.93-8.2-8.41-11.4-13.33-1.37-2.11-2.6-4.32-3.66-6.61-0.97-2.11-1.78-4.29-2.42-6.52-0.61-2.16-1.05-4.35-1.31-6.57-0.27-2.24-0.36-4.5-0.28-6.75 0.09-2.33 0.35-4.65 0.79-6.93 0.48-2.52 1.14-5 1.96-7.42 0.94-2.78 2.08-5.49 3.39-8.11 1.55-3.09 3.28-6.1 5.18-9 1.42-2.16 2.91-4.27 4.48-6.32 1.79-2.35 3.67-4.65 5.61-6.88 1.42-1.63 2.87-3.24 4.36-4.81 1.64-1.74 3.31-3.44 5.01-5.11 1.23-1.21 2.48-2.4 3.74-3.58 1.35-1.26 2.71-2.51 4.09-3.74 4.34-3.87 8.8-7.61 13.37-11.2 5.89-4.62 11.91-9.08 18.05-13.37 6.05 5.22 11.95 10.62 17.66 16.21 4.37 4.27 8.57 8.7 12.61 13.29 4.11 4.67 7.98 9.54 11.62 14.59 2.84 3.95 5.43 8.07 7.76 12.34 1.61 2.97 3.07 6.03 4.36 9.15 1.09 2.67 2.02 5.4 2.77 8.18 0.66 2.45 1.17 4.93 1.51 7.43 0.32 2.28 0.47 4.57 0.46 6.87-0.01 2.18-0.18 4.36-0.5 6.52-0.31 2.11-0.78 4.2-1.4 6.24-0.63 2.08-1.41 4.12-2.34 6.08-0.98 2.08-2.1 4.09-3.35 6.02zm-2.52-1.64c-3.06 4.71-6.72 8.99-10.89 12.74-3.98 3.58-8.41 6.64-13.17 9.1-9.33 4.8-19.68 7.3-30.18 7.28-10.5 0.02-20.85-2.48-30.18-7.28-4.76-2.46-9.19-5.52-13.17-9.1-4.17-3.75-7.83-8.04-10.89-12.74-1.3-1.99-2.46-4.07-3.45-6.23-0.91-1.97-1.67-4-2.26-6.08-0.57-2-0.98-4.04-1.22-6.11-0.25-2.08-0.34-4.18-0.26-6.28 0.08-2.17 0.33-4.34 0.74-6.48 0.45-2.38 1.07-4.72 1.85-7.02 0.9-2.64 1.98-5.22 3.23-7.72 1.5-3 3.18-5.9 5.01-8.71 1.38-2.1 2.83-4.15 4.35-6.14 1.76-2.3 3.59-4.55 5.49-6.73 1.39-1.6 2.82-3.18 4.28-4.72 1.61-1.71 3.26-3.39 4.93-5.03 1.22-1.19 2.44-2.37 3.69-3.53 1.33-1.25 2.67-2.48 4.04-3.69 4.29-3.83 8.7-7.53 13.22-11.08 5.24-4.1 10.57-8.08 16-11.93 5.4 4.7 10.65 9.56 15.77 14.56 4.31 4.21 8.46 8.59 12.44 13.12 4.05 4.6 7.87 9.39 11.44 14.36 2.77 3.85 5.3 7.86 7.56 12.03 1.57 2.87 2.97 5.83 4.22 8.86 1.05 2.54 1.94 5.16 2.66 7.82 0.63 2.32 1.1 4.67 1.43 7.05 0.29 2.14 0.44 4.29 0.43 6.45-0.01 2.04-0.17 4.07-0.47 6.09-0.29 1.97-0.73 3.91-1.3 5.81-0.59 1.95-1.32 3.84-2.18 5.67-0.92 1.96-1.98 3.85-3.16 5.66z" fill-rule="evenodd"/>
<path d="m196.82 141.82l6.69-56c0.05-0.39 0.25-0.75 0.56-1 0.32-0.24 0.71-0.36 1.11-0.31 0.39 0.05 0.75 0.25 1 0.56 0.24 0.32 0.36 0.71 0.31 1.11l-6.69 56c-0.05 0.39-0.25 0.75-0.57 1-0.31 0.24-0.71 0.36-1.1 0.31-0.4-0.05-0.76-0.25-1-0.56-0.25-0.32-0.36-0.71-0.31-1.11z"/>
<path d="m230.19 95.74c0.33-0.22 0.74-0.29 1.13-0.21 0.38 0.09 0.72 0.32 0.94 0.66 0.22 0.33 0.29 0.74 0.21 1.13-0.09 0.38-0.32 0.72-0.66 0.94l-31.97 20.63-25.86-23.79c-0.29-0.27-0.46-0.64-0.48-1.04-0.02-0.39 0.13-0.78 0.4-1.08 0.27-0.29 0.64-0.46 1.04-0.48 0.39-0.02 0.78 0.13 1.08 0.4l24.14 22.21 30.03-19.37z"/>
</g>
</svg>
