<?xml version="1.0" encoding="UTF-8"?>
<svg style="isolation:isolate" viewBox="0 0 375 375" xmlns="http://www.w3.org/2000/svg">
<defs>
<clipPath id="a">
<rect width="375" height="375"/>
</clipPath>
</defs>
<g clip-path="url(#a)">
<path d="m156.86 73.972c-1.369-1.696-2.958-3.225-4.738-4.587-1.615-1.242-3.45-2.293-5.367-3.129-2.054-0.884-4.217-1.529-6.463-1.935-2.684-0.478-5.422-0.693-8.161-0.645-1.177 0.023-2.327 0.071-3.478 0.167-1.287 0.095-2.574 0.239-3.861 0.43-3.889 0.549-7.722 1.385-11.474 2.484-7.011 2.055-13.83 4.611-20.402 7.621 3.368-4.109 6.791-8.194 10.215-12.255 1.259-1.482 2.546-2.939 3.833-4.396 2.164-2.485 4.3-4.993 6.381-7.526 3.013-3.727 6.162-7.358 9.475-10.894 3.314-3.464 7.038-6.617 11.146-9.365 5.997-4.013 12.679-7.191 19.799-9.413 6.628-2.007 13.583-3.01 20.594-3.01 4.162 0.024 8.325 0.335 12.405 0.932 1.726 0.263 3.369 0.716 4.957 1.362 1.588 0.645 3.094 1.409 4.519 2.293 2.875 1.84 5.613 3.846 8.215 5.997 1.369 1.099 2.793 2.174 4.217 3.249 1.315 1.003 2.711 1.911 4.19 2.771 1.315 0.764 2.711 1.386 4.19 1.887 1.369 0.43 2.821 0.669 4.272 0.669 1.397 0 2.766-0.215 4.053-0.621 0.986-0.287 1.917-0.669 2.821-1.123 1.177-0.621 2.327-1.314 3.396-2.078 1.04-0.765 2.026-1.553 2.957-2.389 1.205-1.123 2.383-2.27 3.478-3.464 1.807-1.959 3.505-4.014 5.094-6.14 2.245-3.034 4.354-6.164 6.326-9.318 0.219-0.406 0.684-0.645 1.204-0.645h30.343l-3.259 90.76-32.889-0.31c-0.548 0-1.041-0.287-1.232-0.717-1.726-3.488-3.643-6.904-5.724-10.225-1.342-2.198-2.903-4.3-4.573-6.307-1.041-1.219-2.164-2.389-3.369-3.512-0.876-0.788-1.807-1.529-2.82-2.198-1.15-0.764-2.383-1.386-3.725-1.84-0.985-0.358-2.053-0.573-3.121-0.621h-0.712c-1.589-0.024-3.15 0.263-4.601 0.837-1.369 0.573-2.602 1.361-3.615 2.341-1.15 1.147-2.109 2.413-2.875 3.774-0.877 1.601-1.589 3.25-2.164 4.946-1.287 3.966-2.163 8.051-2.656 12.16-0.548 4.348-0.959 8.696-1.287 13.068-0.192 2.437-0.384 4.85-0.63 7.263-0.192 2.078-0.493 4.157-0.876 6.211-0.165 1.028-0.274 2.031-0.274 3.058-0.082 1.721-0.11 3.465-0.11 5.185 0.055 7.215 0.247 14.406 0.575 21.621 0.438 10.153 0.931 20.306 1.506 30.436 1.37 24.368 2.848 48.737 4.409 73.081l3.396 56.167c0.411 7 0.767 14.023 1.096 21.023 0.246 4.54 0.383 9.103 0.41 13.642 0 0.836 0 1.648-0.054 2.484 0 0.526-0.055 1.076-0.165 1.601-0.274 1.051-0.958 1.983-1.917 2.652-1.095 0.788-2.3 1.409-3.587 1.863-1.588 0.598-3.232 1.099-4.929 1.482-2 0.477-4.026 0.884-6.08 1.194-4.792 0.741-9.639 1.266-14.514 1.577-5.23 0.334-10.488 0.502-15.774 0.502-3.642 0-7.311-0.12-10.981-0.311-3.177-0.167-6.353-0.454-9.53-0.86-2.465-0.287-4.902-0.788-7.257-1.457-0.904-0.263-1.753-0.598-2.574-1.004-0.74-0.358-1.369-0.86-1.862-1.457-0.356-0.55-0.548-1.147-0.575-1.768-0.11-0.788-0.137-1.553-0.137-2.341 0.027-2.341 0.164-4.659 0.41-6.976 0.329-3.321 0.712-6.642 1.151-9.963 1.204-9.126 2.574-18.228 4.053-27.306 3.916-23.891 7.996-47.758 12.268-71.6 4.08-22.983 8.024-45.99 11.803-69.02 1.424-8.624 2.711-17.249 3.861-25.873 0.438-3.106 0.794-6.236 1.096-9.342 0.219-2.102 0.356-4.228 0.383-6.331 0-0.597-0.027-1.218-0.11-1.815-0.602-5.399-0.958-10.799-1.068-16.198-0.082-3.345-0.246-6.665-0.438-10.01-0.219-3.201-0.602-6.403-1.205-9.604-0.547-3.034-1.424-5.997-2.601-8.911-1.15-2.819-2.739-5.495-4.683-7.98zm47.376 186.06 3.396 56.166c0.41 7 0.766 14 1.095 21.024 0.247 4.491 0.383 9.03 0.411 13.546 0 0.788 0 1.6-0.055 2.389 0 0.406-0.027 0.812-0.109 1.194-0.137 0.502-0.493 0.956-0.959 1.266-0.876 0.646-1.862 1.147-2.93 1.529-1.479 0.55-3.012 1.028-4.573 1.386-1.917 0.454-3.862 0.836-5.833 1.147-4.711 0.717-9.476 1.242-14.241 1.529-5.175 0.334-10.379 0.502-15.582 0.502-3.587 0-7.202-0.096-10.817-0.311-3.122-0.143-6.216-0.43-9.311-0.836-2.3-0.263-4.573-0.717-6.791-1.362-0.712-0.215-1.424-0.478-2.081-0.812-0.329-0.167-0.63-0.406-0.877-0.669-0.109-0.191-0.164-0.406-0.164-0.645-0.11-0.717-0.137-1.434-0.137-2.15 0.027-2.27 0.164-4.54 0.411-6.785 0.301-3.321 0.684-6.618 1.123-9.915 1.232-9.078 2.574-18.157 4.053-27.211 3.916-23.891 7.996-47.757 12.241-71.6 4.107-22.983 8.051-46.013 11.83-69.043 1.424-8.625 2.711-17.273 3.889-25.946 0.41-3.129 0.766-6.259 1.095-9.389 0.219-2.174 0.356-4.348 0.383-6.522 0-0.692-0.027-1.385-0.109-2.078-0.603-5.328-0.959-10.679-1.068-16.007-0.082-3.368-0.247-6.737-0.466-10.082-0.191-3.296-0.602-6.593-1.205-9.842-0.575-3.178-1.478-6.308-2.738-9.342-1.232-3.034-2.93-5.901-5.012-8.552-1.506-1.84-3.231-3.536-5.175-5.017-1.808-1.386-3.807-2.557-5.97-3.488-2.273-0.98-4.656-1.697-7.12-2.127-2.876-0.501-5.833-0.74-8.763-0.693-1.233 0.024-2.465 0.072-3.67 0.168-1.369 0.119-2.711 0.262-4.053 0.454-4.053 0.573-8.024 1.433-11.913 2.58-3.724 1.099-7.393 2.341-11.008 3.703 1.314-1.553 2.601-3.106 3.916-4.635 1.232-1.481 2.492-2.938 3.779-4.396 2.191-2.484 4.327-5.017 6.435-7.597 2.985-3.679 6.107-7.263 9.393-10.727 3.15-3.344 6.737-6.355 10.681-9.007 5.778-3.846 12.186-6.904 19.032-9.054 6.326-1.911 12.981-2.867 19.69-2.867 3.998 0.024 7.996 0.311 11.94 0.908 1.479 0.215 2.903 0.597 4.244 1.147 1.452 0.597 2.821 1.29 4.108 2.078 2.766 1.792 5.422 3.727 7.942 5.806 1.396 1.122 2.82 2.245 4.299 3.32 1.397 1.052 2.903 2.031 4.437 2.939 1.506 0.86 3.094 1.577 4.765 2.126 1.67 0.55 3.45 0.836 5.23 0.836 1.698 0 3.368-0.263 4.957-0.74 1.15-0.359 2.273-0.813 3.313-1.338 1.315-0.693 2.547-1.458 3.725-2.294 1.123-0.812 2.191-1.672 3.204-2.58 1.26-1.147 2.492-2.365 3.642-3.607 1.89-2.031 3.642-4.157 5.258-6.355 2.136-2.891 4.135-5.853 6.025-8.864h26.727l-3.094 85.958-29.329-0.262c-1.644-3.321-3.478-6.546-5.45-9.724-1.424-2.293-3.012-4.491-4.792-6.57-1.096-1.314-2.301-2.556-3.56-3.727-0.986-0.907-2.027-1.72-3.15-2.484-1.342-0.884-2.793-1.601-4.354-2.15-1.287-0.454-2.656-0.717-4.026-0.765-0.027 0-0.027-0.024-0.054-0.024h-0.74-0.027c-1.999-0.024-3.971 0.335-5.778 1.051-1.698 0.717-3.232 1.697-4.491 2.939-1.342 1.29-2.438 2.747-3.314 4.3-0.931 1.72-1.725 3.512-2.328 5.328-1.314 4.109-2.245 8.314-2.738 12.566-0.548 4.396-0.986 8.792-1.315 13.188-0.164 2.389-0.383 4.802-0.63 7.215-0.191 2.007-0.465 4.037-0.849 6.044-0.191 1.099-0.273 2.222-0.301 3.345-0.082 1.768-0.109 3.512-0.109 5.256 0.054 7.238 0.246 14.477 0.575 21.716 0.438 10.154 0.931 20.307 1.506 30.461 1.397 24.368 2.848 48.736 4.409 73.081z" fill-rule="evenodd"/>
</g>
</svg>
