<?xml version="1.0" encoding="UTF-8"?>
<svg style="isolation:isolate" viewBox="0 0 375 375" xmlns="http://www.w3.org/2000/svg">
<defs>
<clipPath id="a">
<rect width="375" height="375"/>
</clipPath>
</defs>
<g clip-path="url(#a)">
<path d="m141.62 108.5v-3c3.25-0.05 6.49-0.06 9.74-0.03 3.74 0.04 7.48 0.12 11.22 0.25 2.68 0.09 5.35 0.19 8.03 0.32 2.93 0.14 5.86 0.31 8.79 0.49 8.78 0.54 17.55 1.23 26.31 2.07 11.1 1.06 22.18 2.27 33.25 3.63 0.36 0.04 0.7 0.22 0.94 0.49 0.24 0.28 0.37 0.63 0.37 1v60.75 9.28 159.39c0 0.4-0.03 0.8-0.1 1.19-0.08 0.39-0.18 0.78-0.33 1.15-0.14 0.39-0.33 0.77-0.55 1.13-0.23 0.39-0.5 0.76-0.79 1.11-0.5 0.58-1.06 1.12-1.67 1.58-0.8 0.61-1.65 1.15-2.54 1.62-0.39 0.21-0.78 0.41-1.18 0.59-0.45 0.22-0.91 0.42-1.38 0.61-1.32 0.54-2.68 1.01-4.05 1.42-1.92 0.56-3.86 1.05-5.81 1.46-2.1 0.45-4.2 0.84-6.32 1.16-2.81 0.44-5.63 0.81-8.46 1.12-2.09 0.23-4.18 0.44-6.27 0.62-2.48 0.21-4.97 0.39-7.46 0.55-1.78 0.11-3.57 0.22-5.36 0.31-1.99 0.1-3.98 0.18-5.97 0.26-5.84 0.23-11.68 0.37-17.52 0.42-7.63 0.08-15.26 0.07-22.88-0.02l-1.5-0.02 0.03-3 1.5 0.02c7.61 0.09 15.21 0.1 22.82 0.02 5.81-0.05 11.63-0.19 17.44-0.42 1.98-0.07 3.96-0.16 5.93-0.26 1.78-0.09 3.55-0.19 5.32-0.3 2.47-0.16 4.93-0.34 7.4-0.55 2.06-0.18 4.13-0.38 6.19-0.61 2.79-0.31 5.57-0.67 8.34-1.1 2.05-0.32 4.1-0.69 6.14-1.13 1.88-0.4 3.75-0.87 5.6-1.41 1.27-0.38 2.53-0.81 3.75-1.32 0.42-0.17 0.84-0.35 1.25-0.55 0.35-0.16 0.7-0.33 1.04-0.51 0.75-0.4 1.46-0.86 2.14-1.37 0.44-0.33 0.84-0.71 1.19-1.13 0.19-0.23 0.36-0.47 0.52-0.72 0.12-0.2 0.23-0.42 0.31-0.64 0.08-0.21 0.14-0.42 0.18-0.63 0.03-0.21 0.05-0.43 0.05-0.65v-159.39-9.28-59.42c-10.6-1.3-21.22-2.45-31.85-3.47-8.72-0.83-17.46-1.52-26.21-2.06-2.91-0.18-5.83-0.34-8.75-0.48-2.66-0.13-5.32-0.24-7.98-0.33-3.71-0.12-7.43-0.2-11.15-0.24-3.22-0.03-6.49-0.02-9.71 0.03z"/>
<path d="m141.63 356.42l1.5-0.02 0.03 3-1.5 0.02c-6.95 0.08-13.89 0.1-20.84 0.05-5.47-0.05-10.94-0.16-16.4-0.34-7.45-0.24-14.9-0.66-22.33-1.26-4.74-0.38-9.47-0.94-14.17-1.68-1.82-0.28-3.63-0.61-5.44-0.97-1.43-0.28-2.85-0.6-4.27-0.97-1.84-0.47-3.67-1.02-5.46-1.67-1.25-0.44-2.46-0.97-3.62-1.59-0.88-0.46-1.73-0.99-2.53-1.58-0.61-0.45-1.17-0.97-1.68-1.54-0.31-0.36-0.6-0.74-0.85-1.14-0.24-0.37-0.43-0.76-0.59-1.17-0.16-0.38-0.27-0.78-0.35-1.19-0.08-0.4-0.11-0.81-0.11-1.23v-159.39-9.28-60.75c0-0.37 0.13-0.72 0.37-1 0.24-0.27 0.58-0.45 0.94-0.49 11.13-1.37 22.28-2.59 33.45-3.65 8.79-0.84 17.6-1.53 26.42-2.07 6.96-0.43 13.93-0.74 20.9-0.92 5.52-0.15 11.05-0.18 16.57-0.09l-0.05 3c-5.48-0.09-10.96-0.06-16.44 0.09-6.94 0.18-13.87 0.49-20.8 0.91-8.78 0.54-17.56 1.23-26.32 2.06-10.69 1.03-21.38 2.19-32.04 3.49v59.42 9.28 159.39c0 0.23 0.02 0.45 0.06 0.67s0.1 0.44 0.19 0.65c0.09 0.23 0.2 0.46 0.34 0.67 0.16 0.27 0.35 0.52 0.56 0.75 0.36 0.42 0.77 0.79 1.22 1.12 0.67 0.5 1.39 0.94 2.13 1.34 1.05 0.54 2.13 1.02 3.24 1.42 1.7 0.61 3.44 1.14 5.2 1.59 1.36 0.35 2.73 0.66 4.11 0.93 1.77 0.35 3.54 0.67 5.32 0.95 4.62 0.72 9.28 1.27 13.94 1.65 7.39 0.59 14.78 1.01 22.19 1.26 5.44 0.17 10.88 0.28 16.32 0.33 6.93 0.05 13.86 0.03 20.79-0.05z"/>
<path d="m238.78 256.21c6.54 0.01 13.05-0.92 19.33-2.76 3.19-0.94 6.31-2.14 9.3-3.59 2.99-1.44 5.84-3.17 8.5-5.16 2.67-2 5.12-4.29 7.29-6.83 2.24-2.62 4.15-5.5 5.7-8.57 1.66-3.33 2.91-6.84 3.73-10.47 0.91-4.1 1.36-8.3 1.34-12.5v-0.31c0-3.57-0.23-7.13-0.7-10.67-0.36-2.72-0.96-5.4-1.82-8.01-0.65-2.01-1.55-3.93-2.67-5.71-0.91-1.43-2.01-2.73-3.28-3.84-1.13-0.97-2.39-1.78-3.74-2.4-1.31-0.6-2.69-1.05-4.09-1.35-1.42-0.3-2.85-0.49-4.3-0.58-1.42-0.09-2.85-0.14-4.28-0.13l-1.69 0.01-1.57 0.01-1.22-0.01h-0.01c-0.86-0.02-1.71 0.04-2.56 0.16-0.95 0.14-1.89 0.35-2.82 0.62-1.08 0.32-2.14 0.72-3.17 1.2-1.26 0.58-2.48 1.23-3.66 1.96-0.48 0.29-0.95 0.59-1.41 0.9-0.5 0.34-1 0.69-1.49 1.05-1.53 1.12-3 2.31-4.41 3.58-1.81 1.62-3.55 3.31-5.22 5.07-0.42 0.44-1.07 0.59-1.64 0.36s-0.95-0.78-0.95-1.4v-32.27c0-0.37 0.14-0.73 0.39-1 2.02-2.24 4.23-4.31 6.6-6.17 2.04-1.61 4.24-3 6.55-4.17 2.14-1.08 4.38-1.94 6.69-2.57 2.3-0.62 4.64-1.02 7.02-1.17 1.51-0.11 3.01-0.26 4.51-0.45 2.1-0.25 4.19-0.47 6.29-0.65 2.47-0.21 4.95-0.32 7.43-0.33 2.71-0.01 5.41 0.16 8.1 0.49 2.85 0.36 5.67 0.97 8.41 1.82 2.9 0.9 5.69 2.12 8.32 3.65 2.83 1.65 5.43 3.66 7.75 5.98 2.61 2.63 4.87 5.58 6.73 8.77 2.19 3.79 3.96 7.8 5.27 11.97 0.76 2.4 1.42 4.84 1.96 7.31 0.6 2.74 1.09 5.5 1.47 8.28 0.41 3.09 0.72 6.19 0.91 9.3 0.21 3.46 0.32 6.93 0.31 10.39 0 3.83-0.16 7.66-0.5 11.48-0.3 3.37-0.77 6.73-1.41 10.05-0.57 3-1.29 5.96-2.16 8.88-0.8 2.68-1.74 5.32-2.83 7.9-1.03 2.44-2.19 4.82-3.49 7.13-1.24 2.22-2.61 4.38-4.1 6.44-1.47 2.04-3.06 4-4.75 5.85-1.72 1.88-3.54 3.66-5.46 5.34-1.84 1.6-3.76 3.1-5.75 4.51-2.11 1.48-4.29 2.85-6.53 4.12-2.42 1.36-4.9 2.6-7.44 3.72-2.79 1.23-5.63 2.33-8.51 3.3-1.32 0.44-2.64 0.85-3.96 1.25-1.4 0.41-2.8 0.79-4.2 1.15-4.77 1.23-9.6 2.19-14.47 2.88-5.83 0.84-11.69 1.4-17.57 1.71-0.41 0.02-0.81-0.13-1.11-0.42-0.3-0.28-0.47-0.67-0.47-1.08v-32.52c0-0.4 0.16-0.78 0.44-1.06 0.29-0.28 0.67-0.44 1.07-0.44zm1.49 2.99c6.33-0.13 12.61-1.09 18.68-2.87 3.36-0.99 6.62-2.25 9.77-3.77 3.16-1.53 6.17-3.36 8.99-5.46 2.85-2.13 5.45-4.57 7.77-7.28 2.4-2.8 4.45-5.88 6.1-9.18 1.77-3.54 3.11-7.29 3.98-11.16 0.96-4.32 1.43-8.73 1.41-13.16v-0.3c0-3.7-0.24-7.39-0.73-11.06-0.38-2.9-1.02-5.76-1.93-8.55-0.73-2.24-1.74-4.39-2.99-6.38-1.06-1.68-2.36-3.2-3.86-4.51-1.34-1.15-2.84-2.12-4.45-2.86-1.52-0.69-3.1-1.21-4.73-1.55-1.55-0.33-3.13-0.55-4.72-0.65-1.49-0.09-2.99-0.14-4.49-0.13l-1.69 0.01-1.55 0.01-1.19-0.01c-1.01-0.02-2.03 0.05-3.03 0.19-1.09 0.16-2.18 0.4-3.24 0.72-1.22 0.36-2.42 0.81-3.57 1.34-1.37 0.63-2.7 1.34-3.98 2.13-0.51 0.32-1.02 0.64-1.51 0.98-0.54 0.36-1.07 0.73-1.59 1.11-1.61 1.17-3.16 2.43-4.65 3.76-0.95 0.86-1.88 1.73-2.8 2.62v-28.04c1.81-1.95 3.76-3.75 5.85-5.39 1.88-1.49 3.91-2.78 6.04-3.85 1.96-0.99 4.02-1.78 6.13-2.36 2.1-0.57 4.26-0.93 6.43-1.06 1.57-0.12 3.13-0.28 4.68-0.47 2.06-0.25 4.12-0.46 6.18-0.64 2.39-0.2 4.78-0.31 7.18-0.32 2.58-0.01 5.16 0.15 7.72 0.47 2.67 0.33 5.32 0.9 7.89 1.7 2.69 0.83 5.27 1.97 7.7 3.38 2.6 1.52 5 3.38 7.14 5.51 2.42 2.44 4.52 5.19 6.25 8.16 2.08 3.59 3.76 7.4 5.01 11.36 0.74 2.32 1.37 4.67 1.89 7.05 0.59 2.66 1.06 5.34 1.42 8.04 0.41 3.02 0.71 6.05 0.9 9.09 0.21 3.39 0.31 6.8 0.3 10.2 0 3.74-0.16 7.49-0.49 11.22-0.29 3.27-0.75 6.52-1.36 9.75-0.56 2.89-1.25 5.76-2.09 8.58-0.77 2.58-1.68 5.12-2.73 7.6-0.98 2.33-2.1 4.61-3.33 6.83-1.19 2.12-2.5 4.17-3.92 6.15-1.41 1.94-2.92 3.81-4.54 5.58-1.64 1.8-3.38 3.5-5.21 5.1-1.76 1.53-3.6 2.97-5.51 4.31-2.02 1.42-4.12 2.75-6.27 3.96-2.33 1.32-4.73 2.51-7.18 3.59-2.7 1.19-5.46 2.26-8.26 3.2-1.28 0.43-2.56 0.84-3.85 1.22-1.36 0.4-2.73 0.78-4.1 1.13-4.66 1.19-9.38 2.13-14.15 2.81-5.21 0.75-10.46 1.28-15.72 1.59v-29.44z" fill-rule="evenodd"/>
<path d="m237.27 113.72v-1.5h3v1.5c0 0.68-0.05 1.36-0.17 2.03-0.11 0.62-0.27 1.23-0.49 1.83-0.22 0.57-0.49 1.13-0.81 1.65-0.32 0.54-0.7 1.05-1.12 1.52-0.81 0.91-1.76 1.69-2.81 2.31-1.38 0.81-2.84 1.47-4.36 1.96-0.64 0.2-1.28 0.39-1.92 0.55-0.74 0.18-1.49 0.34-2.24 0.48-0.55 0.1-1.09 0.19-1.64 0.27-0.61 0.09-1.22 0.17-1.83 0.23-1.8 0.2-3.6 0.33-5.41 0.37-2.36 0.07-4.71 0.06-7.07-0.03h-131.28-12.93c-2.21 0-4.41-0.25-6.56-0.74-1.98-0.46-3.89-1.16-5.7-2.09-1.83-0.94-3.55-2.11-5.1-3.48-1.74-1.54-3.32-3.26-4.69-5.14l-0.89-1.21 2.43-1.77 0.88 1.21c1.25 1.7 2.67 3.27 4.26 4.67 1.36 1.2 2.87 2.23 4.48 3.06 1.59 0.81 3.26 1.42 5 1.82 1.93 0.45 3.91 0.67 5.89 0.67h12.93 131.31 0.05c2.3 0.09 4.61 0.1 6.91 0.04 1.73-0.05 3.45-0.17 5.16-0.36 0.58-0.06 1.15-0.13 1.72-0.22 0.52-0.07 1.03-0.16 1.53-0.25 0.7-0.13 1.39-0.28 2.07-0.45 0.58-0.14 1.15-0.3 1.71-0.48 1.31-0.43 2.58-1 3.76-1.7 0.79-0.46 1.5-1.04 2.1-1.72 0.3-0.34 0.57-0.7 0.8-1.08 0.22-0.36 0.41-0.75 0.56-1.14 0.15-0.42 0.27-0.85 0.34-1.29 0.09-0.5 0.13-1.01 0.13-1.52z"/>
<path d="m263.06 366.5c0.4 0 0.78 0.16 1.06 0.44s0.44 0.66 0.44 1.06-0.16 0.78-0.44 1.06-0.66 0.44-1.06 0.44h-242c-0.4 0-0.78-0.16-1.06-0.44s-0.44-0.66-0.44-1.06 0.16-0.78 0.44-1.06 0.66-0.44 1.06-0.44h242z"/>
<path d="m104.61 86.73c0.34 0.21 0.58 0.55 0.67 0.93 0.09 0.39 0.02 0.8-0.19 1.14-0.22 0.33-0.55 0.57-0.94 0.66s-0.8 0.02-1.13-0.19c-3.24-2.03-6.36-4.23-9.36-6.59-2.19-1.72-4.24-3.59-6.15-5.62-1.34-1.41-2.57-2.91-3.7-4.49-0.92-1.28-1.72-2.64-2.41-4.07-0.58-1.21-1.06-2.47-1.43-3.77-0.33-1.18-0.55-2.39-0.65-3.61-0.03-0.34-0.04-0.69-0.04-1.04 0-1.8 0.41-3.58 1.21-5.19 0.79-1.54 1.83-2.95 3.07-4.15 1.27-1.25 2.64-2.38 4.1-3.39 1.47-1.04 2.98-2.04 4.5-3 1.42-0.89 2.81-1.81 4.17-2.76 1.24-0.86 2.4-1.81 3.49-2.85 0.92-0.87 1.69-1.88 2.28-3 0.53-1.03 0.8-2.16 0.81-3.31-0.02-1.01-0.19-2-0.52-2.95-0.32-0.99-0.77-1.94-1.32-2.83-0.83-1.33-1.77-2.59-2.81-3.76-0.94-1.05-1.93-2.06-2.98-3.01-1.41-1.29-2.87-2.52-4.38-3.7-0.32-0.24-0.52-0.6-0.57-0.99-0.05-0.4 0.06-0.8 0.3-1.11s0.6-0.52 1-0.57c0.39-0.05 0.79 0.06 1.1 0.31 1.58 1.22 3.1 2.5 4.57 3.84 1.13 1.03 2.19 2.11 3.2 3.24 1.15 1.3 2.19 2.69 3.11 4.16 0.68 1.09 1.22 2.25 1.63 3.46 0.43 1.25 0.65 2.57 0.67 3.89-0.01 1.64-0.4 3.26-1.15 4.72-0.75 1.41-1.72 2.68-2.87 3.78-1.2 1.15-2.48 2.2-3.84 3.14-1.41 0.98-2.84 1.93-4.29 2.84-1.48 0.94-2.95 1.91-4.39 2.92-1.32 0.92-2.56 1.95-3.71 3.07-1.01 0.98-1.85 2.11-2.49 3.36-0.59 1.19-0.89 2.51-0.89 3.84 0 0.27 0.01 0.53 0.03 0.8 0.08 1.02 0.27 2.04 0.55 3.04 0.32 1.12 0.74 2.22 1.25 3.28 0.61 1.27 1.33 2.48 2.14 3.63 1.05 1.47 2.2 2.86 3.44 4.17 1.81 1.92 3.75 3.7 5.82 5.33 2.92 2.29 5.96 4.43 9.1 6.4z"/>
<path d="m139.95 16.18c-0.32-0.24-0.52-0.6-0.57-0.99-0.05-0.4 0.06-0.8 0.3-1.11 0.25-0.31 0.61-0.52 1-0.57 0.4-0.05 0.79 0.06 1.11 0.31 1.47 1.14 2.9 2.33 4.28 3.58 1.07 0.97 2.1 1.99 3.08 3.05 1.26 1.38 2.4 2.86 3.4 4.43 0.73 1.14 1.31 2.36 1.74 3.64 0.43 1.25 0.66 2.57 0.67 3.89 0 1.64-0.4 3.26-1.15 4.72-0.74 1.41-1.71 2.68-2.87 3.78-1.19 1.15-2.48 2.2-3.84 3.14-1.41 0.98-2.83 1.93-4.28 2.84-1.49 0.94-2.95 1.91-4.39 2.92-1.33 0.92-2.57 1.95-3.72 3.07-1.01 0.98-1.84 2.11-2.48 3.36-0.59 1.19-0.9 2.51-0.9 3.84 0 0.27 0.01 0.53 0.03 0.8 0.09 1.02 0.27 2.03 0.55 3.02 0.32 1.13 0.73 2.22 1.24 3.27 0.57 1.19 1.23 2.33 1.98 3.41 0.95 1.36 1.99 2.66 3.11 3.89 0.45 0.49 0.91 0.97 1.38 1.44 0.52 0.52 1.05 1.03 1.59 1.53 1.65 1.53 3.38 2.97 5.19 4.31 2.35 1.76 4.78 3.42 7.27 4.98 0.33 0.21 0.57 0.55 0.66 0.93 0.09 0.39 0.02 0.8-0.19 1.14-0.21 0.33-0.55 0.57-0.94 0.66-0.38 0.09-0.79 0.02-1.13-0.19-2.56-1.6-5.05-3.31-7.47-5.11-1.88-1.41-3.7-2.92-5.43-4.52-0.57-0.52-1.12-1.06-1.67-1.61-0.5-0.5-0.99-1.02-1.47-1.54-1.21-1.32-2.33-2.72-3.36-4.19-0.84-1.22-1.59-2.5-2.23-3.83-0.58-1.21-1.05-2.46-1.42-3.75-0.33-1.18-0.55-2.38-0.65-3.6-0.03-0.34-0.04-0.69-0.04-1.04 0-1.8 0.42-3.58 1.22-5.19 0.79-1.54 1.82-2.95 3.07-4.15 1.26-1.25 2.63-2.38 4.09-3.39 1.48-1.04 2.98-2.04 4.51-3 1.41-0.89 2.8-1.81 4.17-2.76 1.23-0.86 2.4-1.81 3.48-2.85 0.92-0.87 1.69-1.88 2.28-3 0.53-1.03 0.8-2.16 0.81-3.31-0.01-1.01-0.19-2-0.51-2.95-0.35-1.05-0.83-2.05-1.42-2.98-0.92-1.43-1.95-2.77-3.09-4.02-0.92-1-1.88-1.95-2.88-2.85-1.33-1.2-2.7-2.35-4.11-3.45z"/>
<path d="m202.72 86.73c0.34 0.21 0.57 0.55 0.66 0.93 0.09 0.39 0.02 0.8-0.19 1.14-0.21 0.33-0.55 0.57-0.93 0.66-0.39 0.09-0.8 0.02-1.14-0.19-3.23-2.03-6.35-4.23-9.35-6.59-2.19-1.72-4.25-3.59-6.16-5.62-1.33-1.41-2.56-2.91-3.69-4.49-0.92-1.28-1.72-2.64-2.41-4.07-0.58-1.21-1.06-2.47-1.43-3.77-0.33-1.18-0.55-2.39-0.65-3.61-0.03-0.34-0.05-0.69-0.05-1.04 0.01-1.8 0.42-3.58 1.22-5.19 0.79-1.54 1.83-2.95 3.07-4.15 1.27-1.25 2.64-2.38 4.09-3.39 1.48-1.04 2.98-2.04 4.51-3 1.41-0.89 2.8-1.81 4.17-2.76 1.24-0.86 2.4-1.81 3.48-2.85 0.92-0.87 1.69-1.88 2.29-3 0.52-1.03 0.8-2.16 0.8-3.31-0.01-1.01-0.18-2-0.51-2.95-0.33-0.99-0.77-1.94-1.33-2.83-0.83-1.33-1.77-2.59-2.81-3.76-0.93-1.05-1.93-2.06-2.97-3.01-1.41-1.29-2.88-2.52-4.39-3.7-0.31-0.24-0.52-0.6-0.57-0.99-0.05-0.4 0.06-0.8 0.31-1.11 0.24-0.31 0.6-0.52 0.99-0.57 0.4-0.05 0.8 0.06 1.11 0.31 1.57 1.22 3.1 2.5 4.57 3.84 1.12 1.03 2.19 2.11 3.2 3.24 1.15 1.3 2.19 2.69 3.11 4.16 0.67 1.09 1.22 2.25 1.62 3.46 0.43 1.25 0.66 2.57 0.67 3.89 0 1.64-0.39 3.26-1.14 4.72-0.75 1.41-1.72 2.68-2.87 3.78-1.2 1.15-2.49 2.2-3.85 3.14-1.4 0.98-2.83 1.93-4.28 2.84-1.49 0.94-2.95 1.91-4.39 2.92-1.32 0.92-2.57 1.95-3.72 3.07-1 0.98-1.84 2.11-2.48 3.36-0.59 1.19-0.9 2.51-0.9 3.84 0 0.27 0.01 0.53 0.04 0.8 0.08 1.02 0.27 2.04 0.55 3.04 0.32 1.12 0.73 2.22 1.24 3.28 0.61 1.27 1.33 2.48 2.15 3.63 1.05 1.47 2.2 2.86 3.43 4.17 1.81 1.92 3.76 3.7 5.83 5.33 2.92 2.29 5.95 4.43 9.1 6.4z"/>
<path d="m109.5 185v1.5h-3v-1.5-58-1.5h3v1.5 58z"/>
<path d="m77.5 183.5h61v49.4h-61v-49.4zm3 3h55v43.4h-55v-43.4z" fill-rule="evenodd"/>
</g>
</svg>
