<?xml version="1.0" encoding="UTF-8"?>
<svg style="isolation:isolate" viewBox="0 0 375 375" xmlns="http://www.w3.org/2000/svg">
<defs>
<clipPath id="a">
<rect width="375" height="375"/>
</clipPath>
</defs>
<g clip-path="url(#a)">
<path d="m366.37 259.98l1.07-1.05 2.1 2.14-1.07 1.05c-2.53 2.5-5.59 4.39-8.96 5.55-3.31 1.15-6.79 1.72-10.3 1.7-3.85 0.01-7.68-0.64-11.31-1.92-1.7-0.59-3.33-1.35-4.88-2.27-1.45-0.85-2.79-1.88-3.99-3.06-1.03-1.01-2.17-1.89-3.42-2.61-1.38-0.82-2.83-1.5-4.35-2.03-3.31-1.16-6.8-1.75-10.32-1.74-3.17-0.03-6.32 0.49-9.32 1.53-2.93 1.01-5.61 2.67-7.83 4.85-0.94 0.94-1.97 1.78-3.08 2.52-1.04 0.69-2.16 1.27-3.34 1.73-1.19 0.46-2.43 0.8-3.69 1-1.38 0.22-2.78 0.31-4.18 0.26-0.59-0.02-1.19-0.06-1.79-0.12-0.64-0.07-1.27-0.16-1.91-0.27-2-0.36-3.96-0.89-5.86-1.59-2.59-0.95-5.1-2.08-7.53-3.38-1.67-1.7-3.68-3.03-5.9-3.91-2.2-0.88-4.55-1.33-6.92-1.33-2.23-0.01-4.45 0.41-6.52 1.23-2.19 0.87-4.18 2.18-5.85 3.85-2.12 2.13-4.62 3.84-7.37 5.04-2.68 1.16-5.58 1.77-8.5 1.77-2.8 0-5.58-0.57-8.16-1.66-2.81-1.22-5.37-2.97-7.52-5.15-2.01-2.03-4.39-3.65-7.02-4.77-2.45-1.04-5.09-1.57-7.76-1.58-2.66 0.01-5.3 0.54-7.75 1.58-2.63 1.12-5.01 2.74-7.02 4.77-2.43 2.46-5.28 4.47-8.42 5.93-3.06 1.41-6.38 2.15-9.75 2.17-3.15-0.01-6.27-0.67-9.14-1.95-1.57-0.7-3.07-1.54-4.47-2.53-1.54-1.08-2.98-2.29-4.3-3.62-2.32-2.36-5.09-4.23-8.14-5.51-2.75-1.13-5.7-1.71-8.67-1.71-3.22 0.01-6.41 0.66-9.38 1.92-2.95 1.24-5.63 3.04-7.89 5.3-1.14 1.15-2.37 2.19-3.68 3.13-1.23 0.88-2.53 1.64-3.9 2.27-2.57 1.19-5.36 1.82-8.2 1.83-2.83-0.01-5.62-0.64-8.19-1.83-1.37-0.63-2.67-1.39-3.9-2.27-1.31-0.94-2.54-1.99-3.68-3.13-1.04-1.05-2.1-2.07-3.2-3.06-0.92-0.84-1.9-1.62-2.92-2.35-0.85-0.6-1.75-1.12-2.7-1.53-0.83-0.36-1.7-0.59-2.59-0.69-0.66-0.07-1.33-0.11-2-0.12-0.86 0-1.72 0.09-2.57 0.28-1.04 0.24-2.05 0.6-3.01 1.08-1.31 0.65-2.56 1.44-3.72 2.33-1.62 1.25-3.15 2.6-4.58 4.05-2.21 2.25-4.8 4.08-7.65 5.42-2.75 1.29-5.75 1.96-8.8 1.98-2.85-0.01-5.68-0.62-8.29-1.79-1.42-0.64-2.78-1.41-4.05-2.31-1.39-0.98-2.69-2.08-3.89-3.29l-1.06-1.06 2.13-2.12 1.05 1.07c1.08 1.08 2.25 2.07 3.5 2.95 1.12 0.79 2.3 1.46 3.55 2.02 2.22 1 4.63 1.52 7.06 1.53 2.6-0.02 5.17-0.6 7.53-1.7 2.53-1.18 4.83-2.81 6.78-4.8 1.53-1.55 3.16-2.99 4.89-4.32 1.31-1.02 2.72-1.9 4.21-2.65 1.17-0.58 2.41-1.03 3.69-1.32 1.07-0.23 2.16-0.35 3.25-0.35 0.77 0.01 1.54 0.05 2.31 0.14 1.19 0.13 2.36 0.44 3.45 0.92 1.15 0.5 2.24 1.12 3.25 1.84 1.12 0.79 2.18 1.65 3.2 2.57 1.13 1.03 2.23 2.08 3.31 3.17 1.02 1.02 2.12 1.96 3.3 2.8 1.07 0.77 2.21 1.43 3.41 1.98 2.17 1.01 4.54 1.55 6.93 1.56 2.4-0.01 4.77-0.55 6.94-1.56 1.2-0.55 2.34-1.21 3.41-1.98 1.18-0.84 2.28-1.78 3.3-2.81 2.54-2.53 5.55-4.55 8.85-5.94 3.34-1.42 6.92-2.15 10.55-2.16 3.37 0 6.71 0.66 9.82 1.94 3.42 1.43 6.52 3.53 9.12 6.17 1.2 1.2 2.5 2.3 3.89 3.28 1.25 0.87 2.57 1.62 3.96 2.24 2.5 1.11 5.19 1.68 7.92 1.69 2.94-0.01 5.83-0.66 8.5-1.9 2.81-1.3 5.37-3.1 7.55-5.31 2.28-2.31 4.99-4.15 7.97-5.42 2.83-1.2 5.87-1.81 8.93-1.82 3.07 0.01 6.11 0.62 8.94 1.82 2.98 1.27 5.69 3.11 7.97 5.42 1.88 1.91 4.12 3.44 6.57 4.5 2.21 0.94 4.58 1.42 6.98 1.42 2.51 0 5-0.52 7.3-1.52 2.41-1.05 4.6-2.54 6.44-4.41 1.96-1.96 4.3-3.5 6.87-4.52 2.43-0.96 5.02-1.45 7.63-1.44 2.75 0 5.48 0.52 8.03 1.54 2.45 0.98 4.69 2.42 6.59 4.26 2.19 1.15 4.45 2.15 6.76 3.01 1.74 0.64 3.53 1.12 5.35 1.44 0.57 0.1 1.14 0.18 1.71 0.24 0.53 0.06 1.05 0.1 1.58 0.11 1.2 0.04 2.41-0.03 3.6-0.22 1.05-0.17 2.08-0.45 3.07-0.84 0.98-0.38 1.91-0.86 2.77-1.43 0.95-0.63 1.83-1.35 2.63-2.15 2.54-2.5 5.6-4.39 8.96-5.55 3.32-1.15 6.8-1.73 10.31-1.7 3.85-0.01 7.67 0.63 11.31 1.91 1.69 0.6 3.33 1.36 4.88 2.27 1.45 0.85 2.79 1.88 3.99 3.06 1.03 1.01 2.17 1.89 3.41 2.62 1.38 0.81 2.84 1.49 4.35 2.02 3.32 1.17 6.81 1.76 10.33 1.75 3.17 0.02 6.32-0.5 9.31-1.54 2.94-1.01 5.62-2.67 7.84-4.85z"/>
<path d="m92.38 265.65l1.06 1.06-2.12 2.12-1.06-1.06-70.46-70.45h236.95l-58.5 58.5-1.06 1.06-2.12-2.12 1.06-1.06 53.38-53.38h-222.47l65.34 65.33z"/>
<path d="m24.92 328.95c0 0.4-0.16 0.78-0.44 1.06s-0.66 0.44-1.06 0.44-0.78-0.16-1.06-0.44-0.44-0.66-0.44-1.06v-130.13c0-0.4 0.16-0.78 0.44-1.06 0.28-0.29 0.66-0.44 1.06-0.44s0.78 0.15 1.06 0.44c0.28 0.28 0.44 0.66 0.44 1.06v130.13z"/>
<path d="m21.97 328.42c0.1-0.39 0.34-0.72 0.69-0.92 0.34-0.21 0.75-0.26 1.13-0.16 0.39 0.09 0.72 0.34 0.92 0.68 0.2 0.35 0.26 0.76 0.16 1.14-0.37 1.45-0.83 2.88-1.36 4.28-0.36 0.92-0.79 1.81-1.31 2.64-0.34 0.54-0.72 1.05-1.14 1.52-0.35 0.39-0.74 0.73-1.17 1.02-0.49 0.33-1.02 0.57-1.59 0.72-0.55 0.15-1.13 0.19-1.7 0.14-0.52-0.06-1.02-0.18-1.5-0.37-0.57-0.23-1.11-0.52-1.61-0.86-0.44-0.29-0.85-0.62-1.25-0.97-0.49-0.44-0.96-0.91-1.41-1.4-0.72-0.79-1.39-1.62-2.01-2.48-0.89-1.25-1.73-2.53-2.53-3.84-0.2-0.34-0.26-0.75-0.17-1.13 0.1-0.39 0.34-0.72 0.68-0.93 0.34-0.2 0.75-0.26 1.14-0.17 0.39 0.1 0.72 0.34 0.92 0.68 0.75 1.25 1.55 2.46 2.4 3.64 0.55 0.77 1.15 1.51 1.79 2.21 0.38 0.42 0.78 0.81 1.19 1.19 0.29 0.26 0.6 0.5 0.92 0.71 0.33 0.23 0.69 0.41 1.06 0.56 0.21 0.09 0.44 0.15 0.68 0.17 0.21 0.02 0.43 0 0.64-0.05 0.24-0.06 0.46-0.17 0.67-0.31 0.23-0.15 0.43-0.33 0.62-0.53 0.3-0.34 0.58-0.71 0.82-1.1 0.42-0.67 0.77-1.39 1.06-2.13 0.49-1.29 0.91-2.61 1.26-3.95z"/>
<path d="m37.98 328.01c0.2-0.34 0.54-0.58 0.92-0.68 0.39-0.09 0.8-0.03 1.14 0.17 0.34 0.21 0.58 0.54 0.68 0.93 0.09 0.38 0.03 0.79-0.17 1.13-0.76 1.26-1.56 2.48-2.41 3.68-0.6 0.84-1.25 1.66-1.94 2.43-0.43 0.49-0.89 0.96-1.37 1.41-0.39 0.35-0.79 0.68-1.21 0.99-0.55 0.39-1.14 0.72-1.76 0.99-0.51 0.22-1.06 0.36-1.62 0.42-0.56 0.05-1.12 0.01-1.66-0.13-0.56-0.14-1.08-0.37-1.56-0.68-0.44-0.29-0.84-0.63-1.19-1.02-0.43-0.47-0.82-0.98-1.16-1.52-0.52-0.84-0.96-1.72-1.32-2.65-0.54-1.41-1.01-2.85-1.38-4.32-0.1-0.38-0.04-0.79 0.16-1.14 0.2-0.34 0.53-0.59 0.92-0.68 0.38-0.1 0.79-0.05 1.13 0.16 0.35 0.2 0.6 0.53 0.69 0.92 0.35 1.35 0.78 2.68 1.28 3.98 0.29 0.75 0.64 1.46 1.07 2.14 0.24 0.39 0.52 0.75 0.83 1.09 0.18 0.2 0.39 0.38 0.61 0.53 0.2 0.13 0.43 0.22 0.66 0.28 0.2 0.05 0.41 0.07 0.62 0.05 0.26-0.03 0.51-0.09 0.74-0.19 0.42-0.18 0.82-0.4 1.19-0.67 0.32-0.23 0.62-0.48 0.91-0.75 0.41-0.38 0.81-0.78 1.18-1.2 0.62-0.7 1.19-1.42 1.73-2.18 0.81-1.13 1.57-2.3 2.29-3.49z"/>
<path d="m14.37 311.61h18.1c0.4 0 0.78 0.15 1.06 0.43 0.29 0.29 0.44 0.67 0.44 1.07 0 0.39-0.15 0.77-0.44 1.06-0.28 0.28-0.66 0.44-1.06 0.44h-18.1c-0.4 0-0.78-0.16-1.06-0.44-0.28-0.29-0.44-0.67-0.44-1.06 0-0.4 0.16-0.78 0.44-1.07 0.28-0.28 0.66-0.43 1.06-0.43z"/>
<path d="m166.31 152.27c1.84 0.48 3.63 1.15 5.33 2 1.56 0.78 3.03 1.74 4.37 2.87 1.35 1.12 2.56 2.41 3.6 3.81 1.16 1.55 2.14 3.22 2.95 4.98 0.34 0.75 0.66 1.51 0.94 2.29 0.31 0.84 0.59 1.7 0.84 2.56 0.18 0.65 0.35 1.31 0.51 1.97 0.16 0.71 0.31 1.42 0.44 2.13 0.42 2.26 0.69 4.54 0.82 6.82 0.18 3.29 0.18 6.59-0.01 9.87-4.15 0.76-8.36 1.14-12.58 1.14-6.13-0.01-12.23-0.77-18.18-2.26-5.96-1.47-11.72-3.68-17.14-6.57 0.46-2.82 1.03-5.62 1.71-8.39 0.48-1.92 1.04-3.83 1.68-5.7 0.75-2.19 1.65-4.33 2.69-6.4 0.79-1.58 1.73-3.08 2.79-4.48 0.62-0.82 1.3-1.6 2.02-2.33 0.65-0.66 1.34-1.26 2.08-1.81 0.68-0.51 1.39-0.96 2.14-1.36 0.72-0.38 1.47-0.71 2.24-0.98 0.77-0.26 1.56-0.47 2.37-0.61 0.84-0.15 1.68-0.24 2.53-0.26 0.93-0.03 1.86 0.02 2.78 0.13 1.04 0.13 2.07 0.32 3.08 0.58zm-0.75 2.91c1.64 0.42 3.23 1.02 4.74 1.77 1.35 0.68 2.62 1.51 3.78 2.48 1.17 0.98 2.22 2.09 3.13 3.32 1.02 1.38 1.9 2.86 2.62 4.43 0.31 0.68 0.6 1.37 0.86 2.07 0.28 0.78 0.54 1.56 0.76 2.36 0.18 0.6 0.33 1.21 0.48 1.82 0.15 0.66 0.29 1.33 0.41 2 0.4 2.13 0.65 4.28 0.77 6.44 0.14 2.38 0.17 4.76 0.1 7.14-3.21 0.47-6.44 0.7-9.69 0.7-5.88-0.01-11.74-0.74-17.45-2.17-5.03-1.24-9.9-3.02-14.54-5.32 0.37-2.01 0.8-4.02 1.3-6.01 0.45-1.84 0.98-3.66 1.6-5.45 0.7-2.06 1.55-4.08 2.53-6.02 0.71-1.42 1.55-2.76 2.5-4.02 0.55-0.71 1.14-1.39 1.77-2.03 0.54-0.55 1.12-1.06 1.74-1.52 0.55-0.41 1.14-0.79 1.76-1.11 0.58-0.31 1.18-0.58 1.8-0.79 0.62-0.22 1.26-0.38 1.91-0.5 0.69-0.12 1.39-0.19 2.09-0.21 0.78-0.02 1.56 0.01 2.34 0.11 0.9 0.11 1.8 0.28 2.69 0.51z" fill-rule="evenodd"/>
<path d="m163.78 132.98c0.83-3.32 2.75-6.28 5.45-8.39 2.69-2.11 6.02-3.26 9.45-3.26 1.25 0 2.5 0.16 3.72 0.46 3.32 0.83 6.28 2.75 8.39 5.45 2.11 2.69 3.26 6.02 3.26 9.45 0 1.25-0.16 2.5-0.46 3.72-0.83 3.32-2.74 6.28-5.44 8.39s-6.03 3.26-9.46 3.26c-1.25 0-2.5-0.16-3.72-0.46-3.32-0.83-6.28-2.74-8.39-5.44s-3.26-6.03-3.26-9.46c0-1.25 0.16-2.5 0.46-3.72zm2.91 0.73c0.67-2.68 2.21-5.06 4.38-6.75 2.17-1.7 4.85-2.63 7.61-2.63 1.01 0 2.01 0.13 2.99 0.37 2.68 0.67 5.06 2.21 6.75 4.38 1.7 2.17 2.63 4.85 2.63 7.61 0 1.01-0.13 2.02-0.37 2.99-0.67 2.68-2.21 5.06-4.38 6.76-2.17 1.69-4.85 2.62-7.61 2.62-1.01 0-2.01-0.13-2.99-0.37-2.68-0.67-5.06-2.21-6.75-4.38-1.7-2.17-2.63-4.85-2.63-7.61 0-1.01 0.13-2.01 0.37-2.99z" fill-rule="evenodd"/>
<path d="m207.34 174.1c1.04 1.25 1.61 2.82 1.6 4.44-0.01 2.17-0.98 4.22-2.65 5.61l-7.26 6.09c-1.32 1.11-3 1.73-4.73 1.73-2.05 0.02-4.01-0.88-5.34-2.45-1.04-1.24-1.6-2.81-1.6-4.43 0.01-2.17 0.98-4.23 2.65-5.61l7.26-6.09c1.33-1.12 3-1.73 4.74-1.74 2.05-0.01 4 0.89 5.33 2.45zm-2.29 1.93c0.58 0.71 0.89 1.59 0.89 2.5-0.01 1.28-0.58 2.49-1.57 3.31v0.01l-7.27 6.09c-0.79 0.67-1.79 1.03-2.82 1.03-1.16 0.01-2.27-0.5-3.02-1.38-0.58-0.7-0.9-1.58-0.9-2.49 0.01-1.28 0.58-2.5 1.57-3.32h0.01l7.26-6.09c0-0.01 0-0.01 0.01-0.01 0.78-0.66 1.78-1.03 2.81-1.03 1.16-0.01 2.27 0.5 3.03 1.38z" fill-rule="evenodd"/>
<path d="m205.15 174.16l99.58-50.92c0.23-0.12 0.51-0.14 0.76-0.06s0.46 0.26 0.58 0.5c0.13 0.23 0.15 0.51 0.07 0.76-0.09 0.25-0.26 0.46-0.5 0.58l-99.58 50.92c-0.24 0.12-0.51 0.15-0.76 0.06-0.25-0.08-0.46-0.26-0.59-0.49-0.12-0.24-0.14-0.51-0.06-0.76 0.09-0.26 0.26-0.47 0.5-0.59z"/>
<path d="m356.45 266.35c0.09 0.09 0.15 0.21 0.16 0.34 0 0.14-0.05 0.27-0.14 0.36-0.09 0.1-0.22 0.16-0.35 0.16s-0.26-0.04-0.36-0.14c-0.36-0.34-0.69-0.73-0.98-1.14-0.4-0.57-0.77-1.16-1.11-1.76-0.98-1.72-1.87-3.48-2.7-5.28-1.13-2.43-2.21-4.88-3.25-7.35-1.26-3.02-2.5-6.05-3.7-9.1-2.87-7.31-5.64-14.65-8.31-22.03-3-8.25-5.93-16.53-8.79-24.83-2.85-8.25-5.65-16.53-8.39-24.82-2.42-7.32-4.78-14.66-7.09-22.03-1.72-5.45-3.36-10.93-4.9-16.43-0.5-1.75-0.95-3.5-1.37-5.26-0.13-0.58-0.25-1.16-0.36-1.75-0.07-0.38-0.11-0.76-0.13-1.14 0-0.14 0.05-0.27 0.14-0.36 0.09-0.1 0.22-0.15 0.35-0.16 0.13 0 0.26 0.05 0.36 0.14 0.09 0.09 0.15 0.21 0.15 0.35 0.01 0.33 0.05 0.66 0.12 0.99 0.1 0.57 0.21 1.13 0.35 1.7 0.41 1.75 0.86 3.49 1.35 5.22 1.54 5.49 3.18 10.96 4.9 16.4 2.3 7.36 4.66 14.7 7.08 22.02 2.74 8.29 5.53 16.56 8.38 24.81 2.86 8.29 5.79 16.56 8.79 24.81 2.67 7.37 5.44 14.71 8.3 22 1.2 3.04 2.43 6.07 3.7 9.08 1.03 2.46 2.1 4.9 3.23 7.32 0.81 1.77 1.7 3.51 2.66 5.2 0.33 0.58 0.68 1.14 1.07 1.69 0.24 0.36 0.52 0.69 0.84 0.99z"/>
<path d="m43.42 69.82c0-9.1 3.62-17.84 10.05-24.27s15.17-10.05 24.27-10.05c9.09 0 17.83 3.62 24.26 10.05s10.05 15.17 10.05 24.27c0 9.09-3.62 17.83-10.05 24.26s-15.17 10.05-24.26 10.05c-9.1 0-17.84-3.62-24.27-10.05s-10.05-15.17-10.05-24.26zm3 0c0-8.31 3.3-16.28 9.17-22.15s13.84-9.17 22.15-9.17c8.3 0 16.27 3.3 22.14 9.17s9.17 13.84 9.17 22.15c0 8.3-3.3 16.27-9.17 22.14s-13.84 9.17-22.14 9.17c-8.31 0-16.28-3.3-22.15-9.17s-9.17-13.84-9.17-22.14z" fill-rule="evenodd"/>
<path d="m154.7 75.04c0.95-0.64 1.93-1.24 2.92-1.82 1.47-0.85 2.99-1.59 4.57-2.22s3.23-1.12 4.9-1.45c1.43-0.28 2.89-0.4 4.34-0.36 1.54 0.04 3.06 0.28 4.53 0.72 1.5 0.44 2.94 1.07 4.28 1.88 1.46 0.87 2.82 1.92 4.04 3.12 1.51 1.48 2.87 3.1 4.08 4.84 0.39 0.54 0.7 1.13 0.92 1.75 0.21 0.6 0.32 1.23 0.32 1.87 0 0.71-0.14 1.42-0.41 2.09-0.27 0.66-0.64 1.29-1.1 1.85-0.48 0.6-1.03 1.14-1.62 1.63-0.66 0.54-1.36 1.03-2.08 1.47-1.71 1.02-3.51 1.89-5.38 2.6-2.22 0.86-4.48 1.59-6.78 2.2-2.63 0.7-5.27 1.3-7.94 1.8-2.92 0.55-5.85 1-8.79 1.36-6.27 0.78-12.59 1.19-18.91 1.24h-0.01-1.13-0.01c-5.91 0.01-11.82-0.34-17.69-1.04-2.69-0.31-5.38-0.72-8.05-1.22-2.42-0.45-4.82-1-7.19-1.64-2.07-0.56-4.11-1.24-6.11-2.03-1.67-0.65-3.28-1.46-4.81-2.41-0.65-0.41-1.27-0.87-1.86-1.37-0.54-0.46-1.02-0.97-1.45-1.52-0.41-0.53-0.74-1.12-0.98-1.74s-0.37-1.28-0.37-1.95c0.01-0.65 0.12-1.29 0.35-1.9 0.65-1.93 1.57-3.76 2.73-5.43 1.11-1.61 2.46-3.05 4-4.27 1.5-1.2 3.19-2.14 5-2.8 1.84-0.66 3.78-1 5.73-1 2.73 0.02 5.42 0.65 7.88 1.84 1.38 0.66 2.69 1.46 3.91 2.38 0.55 0.4 1.08 0.83 1.59 1.28 0.12-0.69 0.25-1.37 0.4-2.05 0.3-1.35 0.72-2.67 1.26-3.94 0.45-1.08 1-2.12 1.63-3.1 0.58-0.89 1.24-1.73 1.99-2.48 0.77-0.8 1.63-1.5 2.55-2.11 0.96-0.62 1.99-1.15 3.06-1.57 1.2-0.47 2.45-0.81 3.72-1.02 1.53-0.26 3.07-0.39 4.61-0.39 1.77-0.01 3.53 0.11 5.27 0.36 1.42 0.2 2.81 0.56 4.16 1.06 1.14 0.43 2.21 1.02 3.18 1.74 0.87 0.67 1.63 1.46 2.26 2.36 0.59 0.85 1.06 1.78 1.4 2.76 0.34 0.97 0.58 1.96 0.73 2.98 0.16 1.03 0.26 2.06 0.3 3.1 0.03 0.85 0.05 1.7 0.06 2.55zm-18.13 21.57h-1.13c-5.79 0.01-11.58-0.33-17.33-1.01-2.63-0.32-5.25-0.72-7.86-1.2-2.34-0.43-4.66-0.96-6.96-1.59-1.96-0.53-3.9-1.17-5.79-1.92-1.5-0.58-2.95-1.31-4.31-2.16-0.53-0.33-1.04-0.7-1.51-1.11-0.38-0.32-0.72-0.69-1.03-1.08-0.23-0.3-0.42-0.63-0.56-0.98-0.1-0.28-0.16-0.57-0.16-0.87 0.01-0.3 0.06-0.61 0.17-0.9 0.57-1.68 1.37-3.27 2.37-4.72 0.95-1.37 2.1-2.6 3.4-3.63 1.25-0.99 2.66-1.78 4.16-2.33 1.51-0.54 3.1-0.82 4.69-0.82 2.29 0.02 4.54 0.55 6.6 1.55 1.2 0.57 2.35 1.26 3.41 2.07 2.3 1.71 4.29 3.8 5.91 6.16-0.1-2.92 0.17-5.83 0.81-8.67 0.26-1.18 0.63-2.33 1.1-3.44 0.38-0.92 0.84-1.8 1.38-2.63 0.47-0.73 1.01-1.4 1.61-2.02 0.62-0.63 1.31-1.2 2.06-1.68 0.78-0.52 1.62-0.95 2.5-1.29 1.01-0.4 2.06-0.69 3.13-0.87 1.36-0.22 2.74-0.34 4.12-0.34 1.62-0.01 3.23 0.1 4.83 0.33 1.21 0.17 2.39 0.47 3.54 0.9 0.86 0.33 1.68 0.77 2.42 1.33 0.62 0.47 1.16 1.03 1.6 1.66s0.78 1.32 1.04 2.04c0.27 0.8 0.47 1.61 0.6 2.44 0.13 0.93 0.22 1.85 0.26 2.78 0.04 1.01 0.06 2.02 0.06 3.03l-0.01 1.14v1.16c0 0.57 0.32 1.09 0.83 1.34 0.5 0.25 1.11 0.2 1.57-0.14 1.61-1.2 3.3-2.31 5.04-3.33 1.34-0.77 2.73-1.45 4.17-2.03 1.41-0.56 2.88-0.99 4.37-1.29 1.21-0.23 2.45-0.34 3.68-0.3 1.27 0.03 2.54 0.24 3.76 0.6 1.26 0.37 2.46 0.9 3.59 1.57 1.26 0.75 2.43 1.66 3.47 2.69 1.38 1.35 2.63 2.84 3.74 4.43 0.23 0.31 0.41 0.66 0.54 1.03 0.1 0.27 0.15 0.56 0.15 0.86 0 0.33-0.07 0.65-0.19 0.96-0.16 0.39-0.38 0.76-0.65 1.09-0.36 0.44-0.76 0.84-1.19 1.2-0.55 0.44-1.13 0.85-1.73 1.22-1.56 0.93-3.2 1.73-4.9 2.37-2.12 0.82-4.29 1.52-6.49 2.1-2.54 0.68-5.12 1.27-7.71 1.75-2.86 0.53-5.72 0.98-8.61 1.33-6.16 0.77-12.35 1.17-18.56 1.22z" fill-rule="evenodd"/>
</g>
</svg>
