<?xml version="1.0" encoding="UTF-8"?>
<svg style="isolation:isolate" viewBox="0 0 375 375" xmlns="http://www.w3.org/2000/svg">
<defs>
<clipPath id="a">
<rect width="375" height="375"/>
</clipPath>
</defs>
<g clip-path="url(#a)">
<g style="isolation:isolate">
<path d="m190.09 273.37h1.5v3h-1.5-39c-0.4 0-0.78-0.16-1.06-0.44s-0.44-0.66-0.44-1.06c0-3.46-0.07-6.92-0.22-10.37-0.11-2.72-0.29-5.43-0.54-8.13-0.32-3.48-0.8-6.95-1.44-10.39-0.42-2.28-1-4.54-1.72-6.74-0.85-2.57-1.99-5.02-3.41-7.31-1.36-2.17-2.92-4.21-4.66-6.09-1.76-1.88-3.62-3.66-5.58-5.32-2-1.7-4.03-3.36-6.09-4.98-1.98-1.55-3.93-3.13-5.85-4.75-1.94-1.64-3.8-3.38-5.57-5.21-1.81-1.87-3.46-3.89-4.93-6.04-1.55-2.28-2.85-4.71-3.88-7.26-4.84-12.04-7.32-24.91-7.3-37.89 0.03-13.01 2.39-25.9 6.97-38.07 2.24-5.97 4.99-11.74 8.22-17.24 3.19-5.43 6.85-10.56 10.95-15.34 4.03-4.7 8.51-9.02 13.36-12.88 4.79-3.83 9.97-7.14 15.45-9.9s11.26-4.89 17.22-6.35c6.11-1.49 12.37-2.24 18.66-2.24h0.87l1.5 0.01-0.02 3-1.5-0.01h-0.86c-6.04 0-12.06 0.72-17.94 2.15-5.74 1.41-11.3 3.46-16.58 6.12-5.3 2.66-10.3 5.87-14.93 9.56-4.71 3.75-9.04 7.93-12.95 12.5-3.99 4.64-7.55 9.63-10.64 14.9-3.15 5.35-5.82 10.96-8 16.78-4.46 11.83-6.76 24.37-6.78 37.01-0.02 12.6 2.38 25.08 7.08 36.77 0.95 2.35 2.15 4.59 3.58 6.69 1.37 2 2.92 3.9 4.61 5.65s3.48 3.42 5.35 5c1.89 1.59 3.81 3.15 5.76 4.68 2.09 1.65 4.15 3.33 6.18 5.05 2.05 1.74 4 3.6 5.83 5.57 1.88 2.02 3.56 4.21 5.02 6.54 1.54 2.5 2.79 5.17 3.7 7.96 0.77 2.33 1.38 4.72 1.83 7.14 0.65 3.52 1.15 7.08 1.48 10.65 0.25 2.76 0.44 5.52 0.55 8.28 0.12 3 0.2 6 0.21 9h37.51z"/>
<path d="m190.1 55.37-1.5 0.01-0.02-3 1.5-0.01h0.87c6.29 0 12.55 0.75 18.66 2.24 5.96 1.46 11.74 3.59 17.22 6.35s10.66 6.07 15.45 9.9c4.85 3.86 9.33 8.18 13.36 12.88 4.1 4.78 7.76 9.91 10.95 15.34 3.23 5.5 5.98 11.27 8.22 17.24 4.58 12.17 6.94 25.06 6.97 38.07 0.02 12.98-2.46 25.85-7.3 37.89-1.03 2.55-2.33 4.98-3.88 7.26-1.47 2.15-3.12 4.17-4.93 6.04-1.77 1.83-3.63 3.57-5.57 5.21-1.92 1.62-3.87 3.2-5.85 4.75-2.06 1.62-4.09 3.28-6.09 4.98-1.96 1.66-3.82 3.44-5.58 5.32-1.74 1.88-3.3 3.92-4.66 6.09-1.42 2.29-2.56 4.74-3.41 7.31-0.33 1.01-0.63 2.04-0.89 3.08-0.33 1.28-0.61 2.56-0.86 3.85-0.19 0.95-0.35 1.89-0.5 2.84-0.17 1.08-0.33 2.17-0.46 3.26-0.4 3.16-0.69 6.33-0.86 9.51-0.23 4.36-0.35 8.73-0.35 13.09 0 0.4-0.16 0.78-0.44 1.06s-0.66 0.44-1.06 0.44h-39-1.5v-3h1.5 37.51c0.02-3.92 0.14-7.83 0.35-11.75 0.17-3.25 0.46-6.5 0.87-9.73 0.14-1.12 0.3-2.23 0.47-3.35 0.16-0.98 0.33-1.96 0.52-2.94 0.26-1.35 0.56-2.69 0.9-4.02 0.28-1.1 0.6-2.2 0.96-3.28 0.91-2.79 2.16-5.46 3.7-7.96 1.46-2.33 3.14-4.52 5.02-6.54 1.83-1.97 3.78-3.83 5.83-5.57 2.03-1.72 4.09-3.4 6.18-5.05 1.95-1.53 3.87-3.09 5.76-4.68 1.87-1.58 3.66-3.25 5.35-5s3.24-3.65 4.61-5.65c1.43-2.1 2.63-4.34 3.58-6.69 4.7-11.69 7.1-24.17 7.08-36.77-0.02-12.64-2.32-25.18-6.78-37.01-2.18-5.82-4.85-11.43-8-16.78-3.09-5.27-6.65-10.26-10.64-14.9-3.91-4.57-8.24-8.75-12.95-12.5-4.63-3.69-9.63-6.9-14.93-9.56-5.28-2.66-10.84-4.71-16.58-6.12-5.88-1.43-11.9-2.15-17.94-2.15h-0.86z"/>
<path d="m149.59 289.37h81v27h-81v-27zm3 3h75v21h-75v-21z" fill-rule="evenodd"/>
<path d="m149.59 328.37h81v27h-81v-27zm3 3h75v21h-75v-21z" fill-rule="evenodd"/>
<path d="m185.58 21.13c0-0.4 0.16-0.78 0.44-1.06s0.66-0.44 1.06-0.44 0.78 0.16 1.06 0.44 0.44 0.66 0.44 1.06v22c0 0.4-0.16 0.78-0.44 1.06s-0.66 0.44-1.06 0.44-0.78-0.16-1.06-0.44-0.44-0.66-0.44-1.06v-22z"/>
<path d="m240.88 32.834c0.212-0.339 0.549-0.576 0.934-0.666 0.386-0.089 0.793-0.023 1.133 0.189 0.339 0.212 0.576 0.549 0.666 0.934 0.089 0.386 0.023 0.793-0.189 1.133l-11.653 18.659c-0.212 0.34-0.549 0.577-0.935 0.666-0.386 0.09-0.793 0.024-1.132-0.188-0.34-0.212-0.577-0.549-0.666-0.935-0.089-0.385-0.024-0.792 0.188-1.132l11.654-18.66z"/>
<path d="m288.25 72.326c0.334-0.22 0.739-0.295 1.127-0.214 0.388 0.08 0.73 0.31 0.95 0.644s0.295 0.74 0.214 1.127c-0.08 0.388-0.31 0.731-0.644 0.95l-18.385 12.082c-0.334 0.22-0.74 0.295-1.128 0.215-0.387-0.08-0.73-0.31-0.95-0.644-0.219-0.335-0.294-0.74-0.214-1.128s0.31-0.73 0.644-0.95l18.386-12.082z"/>
<path d="m303.04 209.1c0.387 0.101 0.715 0.352 0.915 0.693 0.2 0.342 0.259 0.75 0.158 1.137s-0.352 0.714-0.693 0.915c-0.342 0.2-0.75 0.259-1.137 0.158l-21.287-5.555c-0.387-0.101-0.715-0.352-0.915-0.694s-0.259-0.75-0.158-1.137 0.352-0.714 0.694-0.914c0.341-0.2 0.749-0.259 1.136-0.158l21.287 5.555z"/>
<path d="m310.26 111.56c0.381-0.121 0.792-0.084 1.143 0.098 0.352 0.182 0.62 0.496 0.741 0.877s0.084 0.792-0.098 1.144c-0.182 0.351-0.495 0.619-0.877 0.74l-20.964 6.671c-0.381 0.121-0.792 0.084-1.143-0.098-0.352-0.182-0.62-0.495-0.741-0.876-0.121-0.382-0.084-0.792 0.098-1.144s0.495-0.619 0.877-0.741l20.964-6.671z"/>
<path d="m314.09 164.37c0.4 0 0.78 0.16 1.06 0.44s0.44 0.66 0.44 1.06-0.16 0.78-0.44 1.06-0.66 0.44-1.06 0.44h-22c-0.4 0-0.78-0.16-1.06-0.44s-0.44-0.66-0.44-1.06 0.16-0.78 0.44-1.06 0.66-0.44 1.06-0.44h22z"/>
<path d="m280.21 244.05c0.316 0.245 0.519 0.604 0.569 0.996 0.05 0.393-0.055 0.792-0.3 1.108-0.245 0.317-0.604 0.519-0.997 0.569-0.392 0.051-0.791-0.055-1.107-0.3l-17.404-13.458c-0.316-0.245-0.519-0.604-0.569-0.997-0.05-0.392 0.056-0.791 0.3-1.107 0.245-0.317 0.604-0.52 0.997-0.57s0.791 0.056 1.108 0.301l17.403 13.458z"/>
<path d="m127.71 32.834c-0.212-0.339-0.549-0.576-0.935-0.666-0.386-0.089-0.793-0.023-1.132 0.189s-0.577 0.549-0.666 0.934c-0.089 0.386-0.024 0.793 0.188 1.133l11.654 18.659c0.212 0.34 0.549 0.577 0.935 0.666 0.386 0.09 0.793 0.024 1.132-0.188s0.577-0.549 0.666-0.935c0.089-0.385 0.023-0.792-0.188-1.132l-11.654-18.66z"/>
<path d="m80.345 72.326c-0.334-0.22-0.74-0.295-1.128-0.214-0.387 0.08-0.73 0.31-0.949 0.644-0.22 0.334-0.295 0.74-0.215 1.127 0.08 0.388 0.31 0.731 0.644 0.95l18.386 12.082c0.334 0.22 0.74 0.295 1.127 0.215 0.388-0.08 0.73-0.31 0.95-0.644 0.22-0.335 0.295-0.74 0.215-1.128-0.081-0.388-0.31-0.73-0.645-0.95l-18.385-12.082z"/>
<path d="m65.548 209.1c-0.387 0.101-0.714 0.352-0.914 0.693-0.201 0.342-0.259 0.75-0.158 1.137s0.351 0.714 0.693 0.915c0.342 0.2 0.75 0.259 1.137 0.158l21.287-5.555c0.387-0.101 0.714-0.352 0.914-0.694 0.201-0.342 0.259-0.75 0.158-1.137s-0.351-0.714-0.693-0.914-0.75-0.259-1.137-0.158l-21.287 5.555z"/>
<path d="m58.336 111.56c-0.381-0.121-0.792-0.084-1.144 0.098-0.351 0.182-0.619 0.496-0.74 0.877-0.122 0.381-0.084 0.792 0.097 1.144 0.182 0.351 0.496 0.619 0.877 0.74l20.964 6.671c0.382 0.121 0.792 0.084 1.144-0.098s0.619-0.495 0.741-0.876c0.121-0.382 0.084-0.792-0.098-1.144s-0.496-0.619-0.877-0.741l-20.964-6.671z"/>
<path d="m54.5 164.37c-0.4 0-0.78 0.16-1.06 0.44s-0.44 0.66-0.44 1.06 0.16 0.78 0.44 1.06 0.66 0.44 1.06 0.44h22c0.4 0 0.78-0.16 1.06-0.44s0.44-0.66 0.44-1.06-0.16-0.78-0.44-1.06-0.66-0.44-1.06-0.44h-22z"/>
<path d="m88.381 244.05c-0.317 0.245-0.519 0.604-0.57 0.996-0.05 0.393 0.056 0.792 0.301 1.108 0.244 0.317 0.603 0.519 0.996 0.569 0.393 0.051 0.792-0.055 1.108-0.3l17.403-13.458c0.317-0.245 0.519-0.604 0.57-0.997 0.05-0.392-0.056-0.791-0.301-1.107-0.244-0.317-0.603-0.52-0.996-0.57s-0.792 0.056-1.108 0.301l-17.403 13.458z"/>
</g>
<g style="isolation:isolate">
<path d="m185.09 54.87v-1.5h3v1.5 45c0 0.55-0.3 1.05-0.78 1.31-0.47 0.27-1.06 0.25-1.52-0.04-1.63-1.03-3.33-1.96-5.07-2.78-1.15-0.54-2.34-0.98-3.57-1.3-0.8-0.22-1.63-0.36-2.46-0.44-0.61-0.05-1.22-0.04-1.83 0.04-0.5 0.06-1 0.18-1.48 0.36-0.44 0.16-0.86 0.37-1.25 0.62-0.41 0.28-0.79 0.6-1.13 0.96-0.41 0.44-0.78 0.92-1.1 1.44-0.34 0.55-0.64 1.13-0.88 1.73-0.33 0.8-0.6 1.62-0.82 2.46-0.37 1.38-0.62 2.8-0.77 4.22-0.23 2.13-0.34 4.28-0.34 6.42 0 2.11 0.11 4.22 0.32 6.32 0.15 1.48 0.4 2.95 0.76 4.39 0.24 1 0.55 1.98 0.93 2.94 0.28 0.73 0.63 1.44 1.03 2.11 0.33 0.54 0.7 1.06 1.11 1.55 0.35 0.41 0.75 0.79 1.17 1.13 0.4 0.32 0.84 0.6 1.3 0.84 0.47 0.24 0.96 0.44 1.47 0.59 0.56 0.16 1.14 0.27 1.72 0.33 0.72 0.06 1.44 0.07 2.16 0.02 1.24-0.08 2.48-0.3 3.68-0.65 1.78-0.51 3.53-1.16 5.23-1.93 0.46-0.22 1-0.18 1.43 0.1 0.43 0.27 0.69 0.75 0.69 1.26v64.38c1.22-0.69 2.45-1.35 3.7-1.97 1.48-0.74 3-1.39 4.56-1.94 1.03-0.37 2.08-0.68 3.14-0.93 0.85-0.21 1.71-0.36 2.59-0.44 0.95-0.1 1.9-0.1 2.85-0.02 0.81 0.07 1.6 0.24 2.37 0.49 0.68 0.23 1.33 0.53 1.95 0.9 0.6 0.38 1.17 0.82 1.67 1.32 0.55 0.54 1.03 1.14 1.44 1.78 0.47 0.75 0.87 1.54 1.19 2.36 0.13 0.33 0.25 0.67 0.36 1 0.12 0.37 0.22 0.74 0.32 1.11 0.29 1.12 0.49 2.26 0.62 3.41 0.16 1.51 0.24 3.03 0.24 4.55 0 2.01-0.14 4.02-0.43 6.01-0.22 1.5-0.58 2.98-1.08 4.42-0.31 0.87-0.68 1.71-1.1 2.53-0.39 0.73-0.83 1.43-1.33 2.08-0.46 0.61-0.98 1.18-1.54 1.71-0.54 0.51-1.13 0.97-1.76 1.39-0.63 0.4-1.28 0.76-1.96 1.06-0.73 0.32-1.49 0.58-2.25 0.79-0.87 0.23-1.75 0.4-2.64 0.49-1.03 0.11-2.07 0.16-3.11 0.14-1.7-0.03-3.4-0.21-5.08-0.52-1.59-0.3-3.16-0.66-4.72-1.09v43.99 1.5h-3v-1.5-46c0-0.48 0.23-0.93 0.61-1.21 0.39-0.28 0.89-0.36 1.34-0.22 2.07 0.65 4.19 1.18 6.32 1.58 1.52 0.28 3.05 0.44 4.59 0.47 0.91 0.02 1.82-0.02 2.72-0.12 0.74-0.08 1.47-0.22 2.19-0.41 0.62-0.16 1.23-0.38 1.82-0.64 0.53-0.23 1.04-0.51 1.52-0.82 0.49-0.32 0.94-0.68 1.36-1.07 0.44-0.41 0.84-0.86 1.2-1.33 0.4-0.53 0.75-1.08 1.06-1.67 0.36-0.68 0.67-1.4 0.93-2.13 0.44-1.25 0.75-2.54 0.94-3.85 0.27-1.85 0.4-3.71 0.4-5.58 0-1.41-0.08-2.83-0.23-4.23-0.1-1.01-0.28-2-0.54-2.98-0.08-0.32-0.17-0.63-0.27-0.94-0.09-0.28-0.18-0.55-0.29-0.82-0.25-0.65-0.57-1.27-0.94-1.85-0.28-0.46-0.62-0.88-1.01-1.26-0.34-0.34-0.72-0.63-1.13-0.89-0.42-0.25-0.86-0.46-1.32-0.61-0.55-0.18-1.12-0.3-1.69-0.35-0.77-0.07-1.53-0.06-2.29 0.01-0.74 0.08-1.47 0.2-2.19 0.37-0.96 0.23-1.9 0.51-2.83 0.84-1.45 0.52-2.86 1.12-4.23 1.8-1.97 0.98-3.89 2.05-5.76 3.19-0.46 0.28-1.04 0.29-1.51 0.03-0.48-0.27-0.77-0.77-0.77-1.31v-64.74c-1.16 0.45-2.33 0.85-3.52 1.19-1.41 0.41-2.85 0.66-4.3 0.77-0.88 0.06-1.77 0.05-2.65-0.04-0.77-0.07-1.54-0.22-2.29-0.44-0.69-0.2-1.36-0.47-2-0.8-0.63-0.33-1.23-0.71-1.79-1.16-0.57-0.45-1.1-0.97-1.58-1.52-0.52-0.62-0.99-1.27-1.41-1.96-0.48-0.82-0.9-1.67-1.25-2.56-0.42-1.08-0.77-2.19-1.05-3.31-0.39-1.58-0.66-3.19-0.83-4.81-0.22-2.2-0.33-4.41-0.33-6.62 0-2.25 0.12-4.5 0.35-6.73 0.17-1.58 0.45-3.14 0.86-4.68 0.25-0.96 0.57-1.9 0.94-2.83 0.31-0.75 0.68-1.47 1.1-2.16 0.43-0.69 0.92-1.34 1.48-1.93 0.49-0.53 1.05-1 1.66-1.4 0.59-0.39 1.22-0.7 1.88-0.94 0.68-0.25 1.39-0.43 2.12-0.52 0.82-0.1 1.66-0.12 2.48-0.05 1 0.09 1.99 0.27 2.96 0.53 1.4 0.37 2.76 0.87 4.07 1.48 1.05 0.5 2.09 1.03 3.1 1.6v-42.37z"/>
<path d="m101.59 167.37h-1.5v-3h1.5 23c0.55 0 1.05 0.3 1.31 0.78 0.27 0.47 0.25 1.06-0.04 1.52-1.03 1.63-1.96 3.33-2.78 5.07-0.54 1.15-0.98 2.34-1.3 3.57-0.22 0.8-0.36 1.63-0.44 2.46-0.05 0.61-0.04 1.22 0.04 1.83 0.06 0.5 0.18 1 0.36 1.48 0.16 0.44 0.37 0.86 0.62 1.25 0.28 0.41 0.6 0.79 0.96 1.13 0.44 0.41 0.92 0.78 1.44 1.1 0.55 0.34 1.13 0.64 1.73 0.88 0.8 0.33 1.62 0.6 2.46 0.82 1.38 0.37 2.8 0.62 4.22 0.77 2.13 0.23 4.28 0.34 6.42 0.34 2.11 0 4.22-0.11 6.32-0.32 1.48-0.15 2.95-0.4 4.39-0.76 1-0.24 1.98-0.55 2.94-0.93 0.73-0.28 1.44-0.63 2.11-1.03 0.54-0.33 1.06-0.7 1.55-1.11 0.41-0.35 0.79-0.75 1.13-1.17 0.32-0.4 0.6-0.84 0.84-1.3 0.24-0.47 0.44-0.96 0.59-1.47 0.16-0.56 0.27-1.14 0.33-1.72 0.06-0.72 0.07-1.44 0.02-2.16-0.08-1.24-0.3-2.48-0.65-3.68-0.51-1.78-1.16-3.53-1.93-5.23-0.22-0.46-0.18-1 0.1-1.43 0.27-0.43 0.75-0.69 1.26-0.69h64.38c-0.69-1.22-1.35-2.45-1.97-3.7-0.74-1.48-1.39-3-1.94-4.56-0.37-1.03-0.68-2.08-0.93-3.14-0.21-0.85-0.36-1.71-0.44-2.59-0.1-0.95-0.1-1.9-0.02-2.85 0.07-0.81 0.24-1.6 0.49-2.37 0.23-0.68 0.53-1.33 0.9-1.95 0.38-0.6 0.82-1.17 1.32-1.67 0.54-0.55 1.14-1.03 1.78-1.44 0.75-0.47 1.54-0.87 2.36-1.19 0.33-0.13 0.67-0.25 1-0.36 0.37-0.12 0.74-0.22 1.11-0.32 1.12-0.29 2.26-0.49 3.41-0.62 1.51-0.16 3.03-0.24 4.55-0.24 2.01 0 4.02 0.14 6.01 0.43 1.5 0.22 2.98 0.58 4.42 1.08 0.87 0.31 1.71 0.68 2.53 1.1 0.73 0.39 1.43 0.83 2.08 1.33 0.61 0.46 1.18 0.98 1.71 1.54 0.51 0.54 0.97 1.13 1.39 1.76 0.4 0.63 0.76 1.28 1.06 1.96 0.32 0.73 0.58 1.49 0.79 2.25 0.23 0.87 0.4 1.75 0.49 2.64 0.11 1.03 0.16 2.07 0.14 3.11-0.03 1.7-0.21 3.4-0.52 5.08-0.3 1.59-0.66 3.16-1.09 4.72h25.99 1.5v3h-1.5-28c-0.48 0-0.93-0.23-1.21-0.61-0.28-0.39-0.36-0.89-0.22-1.34 0.65-2.07 1.18-4.19 1.58-6.32 0.28-1.52 0.44-3.05 0.47-4.59 0.02-0.91-0.02-1.82-0.12-2.72-0.08-0.74-0.22-1.47-0.41-2.19-0.16-0.62-0.38-1.23-0.64-1.82-0.23-0.53-0.51-1.04-0.82-1.52-0.32-0.49-0.68-0.94-1.07-1.36-0.41-0.44-0.86-0.84-1.33-1.2-0.53-0.4-1.08-0.75-1.67-1.06-0.68-0.36-1.4-0.67-2.13-0.93-1.25-0.44-2.54-0.75-3.85-0.94-1.85-0.27-3.71-0.4-5.58-0.4-1.41 0-2.83 0.08-4.23 0.23-1.01 0.1-2 0.28-2.98 0.54-0.32 0.08-0.63 0.17-0.94 0.27-0.28 0.09-0.55 0.18-0.82 0.29-0.65 0.25-1.27 0.57-1.85 0.94-0.46 0.28-0.88 0.62-1.26 1.01-0.34 0.34-0.63 0.72-0.89 1.13-0.25 0.42-0.46 0.86-0.61 1.32-0.18 0.55-0.3 1.12-0.35 1.69-0.07 0.77-0.06 1.53 0.01 2.29 0.08 0.74 0.2 1.47 0.37 2.19 0.23 0.96 0.51 1.9 0.84 2.83 0.52 1.45 1.12 2.86 1.8 4.23 0.98 1.97 2.05 3.89 3.19 5.76 0.28 0.46 0.29 1.04 0.03 1.51-0.27 0.48-0.77 0.77-1.31 0.77h-64.74c0.45 1.16 0.85 2.33 1.19 3.52 0.41 1.41 0.66 2.85 0.77 4.3 0.06 0.88 0.05 1.77-0.04 2.65-0.07 0.77-0.22 1.54-0.44 2.29-0.2 0.69-0.47 1.36-0.8 2-0.33 0.63-0.71 1.23-1.16 1.79-0.45 0.57-0.97 1.1-1.52 1.58-0.62 0.52-1.27 0.99-1.96 1.41-0.82 0.48-1.67 0.9-2.56 1.25-1.08 0.42-2.19 0.77-3.31 1.05-1.58 0.39-3.19 0.66-4.81 0.83-2.2 0.22-4.41 0.33-6.62 0.33-2.25 0-4.5-0.12-6.73-0.35-1.58-0.17-3.14-0.45-4.68-0.86-0.96-0.25-1.9-0.57-2.83-0.94-0.75-0.31-1.47-0.68-2.16-1.1-0.69-0.43-1.34-0.92-1.93-1.48-0.53-0.49-1-1.05-1.4-1.66-0.39-0.59-0.7-1.22-0.94-1.88-0.25-0.68-0.43-1.39-0.52-2.12-0.1-0.82-0.12-1.66-0.05-2.48 0.09-1 0.27-1.99 0.53-2.96 0.37-1.4 0.87-2.76 1.48-4.07 0.5-1.05 1.03-2.09 1.6-3.1h-20.37z"/>
</g>
</g>
</svg>
