<?xml version="1.0" encoding="UTF-8"?>
<svg style="isolation:isolate" viewBox="0 0 375 375" xmlns="http://www.w3.org/2000/svg">
<defs>
<clipPath id="a">
<rect width="375" height="375"/>
</clipPath>
</defs>
<g clip-path="url(#a)">
<path d="m19.537 174.44c-0.349-9.445-0.668-18.879-0.977-28.324-0.23-7.31-0.44-14.61-0.63-21.92-0.27-10.6-0.47-21.19-0.59-31.79-0.07-6.06-0.07-12.12 0.01-18.19 0.03-1.85 0.06-3.71 0.1-5.56 0.04-1.44 0.09-2.87 0.14-4.3 0.08-2.08 0.2-4.15 0.34-6.22 0.09-1.21 0.21-2.42 0.36-3.62 0.12-0.93 0.27-1.85 0.46-2.77 0.1-0.48 0.24-0.96 0.43-1.42 0.1-0.27 0.23-0.53 0.38-0.77 0.15-0.23 0.34-0.44 0.55-0.61 0.36-0.28 0.79-0.45 1.24-0.47 0.42-0.02 0.85 0.02 1.26 0.13 0.27 0.07 0.53 0.15 0.79 0.26 0.35 0.14 0.69 0.3 1.03 0.47 0.23 0.11 0.46 0.24 0.69 0.37 0.28 0.15 0.56 0.32 0.84 0.48 0.76 0.46 1.51 0.95 2.23 1.46 1.15 0.8 2.28 1.62 3.4 2.47 1.3 0.99 2.59 2 3.86 3.04 1.84 1.49 3.66 3 5.46 4.52 1.36 1.16 2.72 2.32 4.06 3.49 1.66 1.44 3.32 2.89 4.96 4.35 4.6 4.07 9.16 8.2 13.67 12.36 6.92 6.39 13.81 12.82 20.65 19.3l1.08 1.03-2.06 2.18-1.09-1.03c-6.83-6.47-13.7-12.89-20.61-19.27-4.5-4.16-9.05-8.26-13.63-12.33-1.64-1.45-3.28-2.89-4.94-4.33-1.33-1.16-2.68-2.31-4.03-3.46-1.78-1.51-3.59-3.01-5.41-4.48-1.25-1.02-2.51-2.01-3.79-2.98-1.08-0.82-2.18-1.62-3.29-2.4-0.68-0.47-1.37-0.92-2.07-1.35-0.25-0.15-0.5-0.3-0.75-0.44-0.19-0.1-0.39-0.21-0.58-0.31-0.27-0.13-0.53-0.25-0.8-0.36-0.12-0.05-0.23-0.09-0.35-0.12-0.1 0.27-0.18 0.55-0.24 0.83-0.18 0.84-0.32 1.69-0.42 2.54-0.15 1.15-0.26 2.3-0.34 3.45-0.15 2.04-0.26 4.08-0.34 6.13-0.06 1.41-0.1 2.83-0.14 4.25-0.04 1.84-0.08 3.69-0.1 5.53-0.08 6.04-0.08 12.08-0.01 18.12 0.12 10.58 0.32 21.16 0.59 31.74 0.19 7.3 0.4 14.6 0.63 21.9 0.297 9.374 0.623 18.738 0.969 28.102l10.371-11.142 1.02-1.1 2.2 2.04-1.02 1.1-14.09 15.14-15.07-15.1-1.06-1.06 2.12-2.12 1.06 1.06 11.477 11.504z"/>
<path d="m355.58 174.44c0.348-9.445 0.668-18.879 0.977-28.324 0.23-7.31 0.44-14.61 0.63-21.92 0.27-10.6 0.47-21.19 0.59-31.79 0.07-6.06 0.07-12.12-0.01-18.19-0.03-1.85-0.06-3.71-0.1-5.56-0.04-1.44-0.09-2.87-0.14-4.3-0.08-2.08-0.2-4.15-0.34-6.22-0.09-1.21-0.21-2.42-0.36-3.62-0.12-0.93-0.27-1.85-0.46-2.77-0.1-0.48-0.24-0.96-0.43-1.42-0.1-0.27-0.23-0.53-0.38-0.77-0.15-0.23-0.34-0.44-0.55-0.61-0.36-0.28-0.79-0.45-1.24-0.47-0.42-0.02-0.85 0.02-1.26 0.13-0.27 0.07-0.53 0.15-0.79 0.26-0.35 0.14-0.69 0.3-1.03 0.47-0.23 0.11-0.46 0.24-0.69 0.37-0.28 0.15-0.56 0.32-0.84 0.48-0.76 0.46-1.51 0.95-2.23 1.46-1.15 0.8-2.28 1.62-3.4 2.47-1.3 0.99-2.59 2-3.86 3.04-1.84 1.49-3.66 3-5.46 4.52-1.36 1.16-2.72 2.32-4.06 3.49-1.66 1.44-3.32 2.89-4.96 4.35-4.6 4.07-9.16 8.2-13.67 12.36-6.92 6.39-13.81 12.82-20.65 19.3l-1.08 1.03 2.06 2.18 1.09-1.03c6.83-6.47 13.7-12.89 20.61-19.27 4.5-4.16 9.05-8.26 13.63-12.33 1.64-1.45 3.28-2.89 4.94-4.33 1.33-1.16 2.68-2.31 4.03-3.46 1.78-1.51 3.59-3.01 5.41-4.48 1.25-1.02 2.51-2.01 3.79-2.98 1.08-0.82 2.18-1.62 3.29-2.4 0.68-0.47 1.37-0.92 2.07-1.35 0.25-0.15 0.5-0.3 0.75-0.44 0.19-0.1 0.39-0.21 0.58-0.31 0.27-0.13 0.53-0.25 0.8-0.36 0.12-0.05 0.23-0.09 0.35-0.12 0.1 0.27 0.18 0.55 0.24 0.83 0.18 0.84 0.32 1.69 0.42 2.54 0.15 1.15 0.26 2.3 0.34 3.45 0.15 2.04 0.26 4.08 0.34 6.13 0.06 1.41 0.1 2.83 0.14 4.25 0.04 1.84 0.08 3.69 0.1 5.53 0.08 6.04 0.08 12.08 0.01 18.12-0.12 10.58-0.32 21.16-0.59 31.74-0.19 7.3-0.4 14.6-0.63 21.9-0.297 9.374-0.624 18.738-0.97 28.102l-10.37-11.142-1.02-1.1-2.2 2.04 1.02 1.1 14.09 15.14 15.07-15.1 1.06-1.06-2.12-2.12-1.06 1.06-11.477 11.504z"/>
<path d="m291.36 274.4c6.676 6.32 13.4 12.593 20.152 18.828 4.51 4.16 9.07 8.29 13.67 12.36 1.64 1.46 3.3 2.91 4.96 4.35 1.34 1.17 2.7 2.33 4.06 3.49 1.8 1.52 3.62 3.03 5.46 4.52 1.27 1.04 2.56 2.05 3.86 3.04 1.12 0.85 2.25 1.67 3.4 2.47 0.72 0.51 1.47 1 2.23 1.46 0.28 0.16 0.56 0.33 0.84 0.48 0.23 0.13 0.46 0.26 0.69 0.37 0.34 0.17 0.68 0.33 1.03 0.47 0.26 0.11 0.52 0.19 0.79 0.26 0.41 0.11 0.84 0.15 1.26 0.13 0.45-0.02 0.88-0.19 1.24-0.47 0.21-0.17 0.4-0.38 0.55-0.61 0.15-0.24 0.28-0.5 0.38-0.77 0.19-0.46 0.33-0.94 0.43-1.42 0.19-0.92 0.34-1.84 0.46-2.77 0.15-1.2 0.27-2.41 0.36-3.62 0.14-2.07 0.26-4.14 0.34-6.22 0.05-1.43 0.1-2.86 0.14-4.3 0.04-1.85 0.07-3.71 0.1-5.56 0.08-6.07 0.08-12.13 0.01-18.19-0.12-10.6-0.32-21.19-0.59-31.79-0.19-7.31-0.4-14.61-0.63-21.92-0.31-9.47-0.63-18.93-0.98-28.4l-0.06-1.5-3 0.11 0.06 1.5c0.35 9.46 0.68 18.92 0.98 28.39 0.23 7.3 0.44 14.6 0.63 21.9 0.27 10.58 0.47 21.16 0.59 31.74 0.07 6.04 0.07 12.08-0.01 18.12-0.02 1.84-0.06 3.69-0.1 5.53-0.04 1.42-0.08 2.84-0.14 4.25-0.08 2.05-0.19 4.09-0.34 6.13-0.08 1.15-0.19 2.3-0.34 3.45-0.1 0.85-0.24 1.7-0.42 2.54-0.06 0.28-0.14 0.56-0.24 0.83-0.12-0.03-0.23-0.07-0.35-0.12-0.27-0.11-0.53-0.23-0.8-0.36-0.19-0.1-0.39-0.21-0.58-0.31-0.25-0.14-0.5-0.29-0.75-0.44-0.7-0.43-1.39-0.88-2.07-1.35-1.11-0.78-2.21-1.58-3.29-2.4-1.28-0.97-2.54-1.96-3.79-2.98-1.82-1.47-3.63-2.97-5.41-4.48-1.35-1.15-2.7-2.3-4.03-3.46-1.66-1.44-3.3-2.88-4.94-4.33-4.58-4.07-9.13-8.17-13.63-12.33-6.562-6.058-13.087-12.152-19.576-18.291l15.475-0.662 1.498-0.066-0.132-2.995-1.497 0.066-21.314 0.915 1.649 20.616 0.122 1.495 2.99-0.244-0.122-1.496-1.275-15.956z"/>
<path d="m85.263 274.4c-6.676 6.32-13.4 12.593-20.152 18.828-4.51 4.16-9.07 8.29-13.67 12.36-1.64 1.46-3.3 2.91-4.96 4.35-1.34 1.17-2.7 2.33-4.06 3.49-1.8 1.52-3.62 3.03-5.46 4.52-1.27 1.04-2.56 2.05-3.86 3.04-1.12 0.85-2.25 1.67-3.4 2.47-0.72 0.51-1.47 1-2.23 1.46-0.28 0.16-0.56 0.33-0.84 0.48-0.23 0.13-0.46 0.26-0.69 0.37-0.34 0.17-0.68 0.33-1.03 0.47-0.26 0.11-0.52 0.19-0.79 0.26-0.41 0.11-0.84 0.15-1.26 0.13-0.45-0.02-0.88-0.19-1.24-0.47-0.21-0.17-0.4-0.38-0.55-0.61-0.15-0.24-0.28-0.5-0.38-0.77-0.19-0.46-0.33-0.94-0.43-1.42-0.19-0.92-0.34-1.84-0.46-2.77-0.15-1.2-0.27-2.41-0.36-3.62-0.14-2.07-0.26-4.14-0.34-6.22-0.05-1.43-0.1-2.86-0.14-4.3-0.04-1.85-0.07-3.71-0.1-5.56-0.08-6.07-0.08-12.13-0.01-18.19 0.12-10.6 0.32-21.19 0.59-31.79 0.19-7.31 0.4-14.61 0.63-21.92 0.31-9.47 0.63-18.93 0.98-28.4l0.06-1.5 3 0.11-0.06 1.5c-0.35 9.46-0.68 18.92-0.98 28.39-0.23 7.3-0.44 14.6-0.63 21.9-0.27 10.58-0.47 21.16-0.59 31.74-0.07 6.04-0.07 12.08 0.01 18.12 0.02 1.84 0.06 3.69 0.1 5.53 0.04 1.42 0.08 2.84 0.14 4.25 0.08 2.05 0.19 4.09 0.34 6.13 0.08 1.15 0.19 2.3 0.34 3.45 0.1 0.85 0.24 1.7 0.42 2.54 0.06 0.28 0.14 0.56 0.24 0.83 0.12-0.03 0.23-0.07 0.35-0.12 0.27-0.11 0.53-0.23 0.8-0.36 0.19-0.1 0.39-0.21 0.58-0.31 0.25-0.14 0.5-0.29 0.75-0.44 0.7-0.43 1.39-0.88 2.07-1.35 1.11-0.78 2.21-1.58 3.29-2.4 1.28-0.97 2.54-1.96 3.79-2.98 1.82-1.47 3.63-2.97 5.41-4.48 1.35-1.15 2.7-2.3 4.03-3.46 1.66-1.44 3.3-2.88 4.94-4.33 4.58-4.07 9.13-8.17 13.63-12.33 6.562-6.058 13.087-12.152 19.576-18.291l-15.475-0.662-1.498-0.066 0.132-2.995 1.497 0.066 21.314 0.915-1.649 20.616-0.122 1.495-2.99-0.244 0.122-1.496 1.275-15.956z"/>
<path d="m263.5 126.44-159.28 131.41-1.15 0.95-1.91-2.31 1.15-0.96 159.72-131.76-16.527-0.707-1.498-0.066 0.132-2.995 1.497 0.066 21.314 0.915-1.649 20.616-0.122 1.495-2.99-0.244 0.122-1.496 1.191-14.911z"/>
<path d="m110.61 125.44 159.28 131.41 1.15 0.95 1.91-2.31-1.15-0.96-159.72-131.76 16.527-0.707 1.498-0.066-0.132-2.995-1.497 0.066-21.314 0.915 1.649 20.616 0.122 1.495 2.99-0.244-0.122-1.496-1.191-14.911z"/>
</g>
</svg>
