<?xml version="1.0" encoding="UTF-8" standalone="no"?><!DOCTYPE svg PUBLIC "-//W3C//DTD SVG 1.1//EN" "http://www.w3.org/Graphics/SVG/1.1/DTD/svg11.dtd"><svg width="100%" height="100%" viewBox="0 0 1080 1080" version="1.1" xmlns="http://www.w3.org/2000/svg" xmlns:xlink="http://www.w3.org/1999/xlink" xml:space="preserve" xmlns:serif="http://www.serif.com/" style="fill-rule:evenodd;clip-rule:evenodd;stroke-linecap:round;stroke-linejoin:round;stroke-miterlimit:1.5;"><path d="M206.32,569.918l-67.638,-71.02l191.641,-193.895l190.513,193.895l-60.874,71.02l-253.642,0"/><path d="M627.929,569.918l-67.638,-71.02l191.641,-193.895l190.513,193.895l-60.874,71.02l-253.642,0"/><path d="M27.08,861.888c0,0 -1.589,-164.576 0,-228.841c1.098,-44.447 48.713,-52.983 69.892,-52.983l886.056,0c21.18,0 68.794,8.537 69.892,52.983c1.589,64.265 0,228.841 0,228.841l-1025.84,0Z" style="fill:none;stroke-width:25px;"/><path d="M103.631,580.064c0,0 -1.352,-191.567 0,-266.372c0.934,-51.735 41.443,-61.672 59.461,-61.672l753.816,0c18.019,0 58.527,9.938 59.461,61.672c1.352,74.805 0,266.372 0,266.372l-872.738,0Z" style="fill:none;stroke-width:25px;"/><rect x="126.282" y="872.034" width="128.512" height="34.946"/><rect x="813.933" y="872.034" width="128.512" height="34.946"/><circle cx="164.538" cy="216.537" r="12.557"/><circle cx="918.538" cy="216.537" r="12.557"/></svg>