<?xml version="1.0" encoding="UTF-8"?>
<svg width="50px" height="50px" version="1.1" viewBox="0 0 26 26" xmlns="http://www.w3.org/2000/svg">
<path d="m10 0.1875c-5.4219 0-9.8125 4.3906-9.8125 9.8125s4.3906 9.8125 9.8125 9.8125c2.2891 0 4.3945-0.80859 6.0625-2.125l0.875 0.875c-0.36719 0.69141-0.23828 1.5742 0.34375 2.1562l4.5938 4.625c0.71484 0.71484 1.8789 0.71484 2.5938 0l0.875-0.875c0.71484-0.71484 0.71484-1.8789 0-2.5938l-4.625-4.5938c-0.58594-0.58594-1.4648-0.6875-2.1562-0.3125l-0.875-0.875c1.3242-1.6719 2.125-3.793 2.125-6.0938 0-5.4219-4.3906-9.8125-9.8125-9.8125zm0 1.8125c4.418 0 8 3.582 8 8s-3.582 8-8 8-8-3.582-8-8 3.582-8 8-8zm-5.0625 5.4688c-0.51562 0.83594-0.8125 1.8203-0.8125 2.875 0 3.0273 2.4414 5.4688 5.4688 5.4688 1.168 0 2.2656-0.37891 3.1562-1-0.23828 0.027344-0.50391 0.03125-0.75 0.03125-3.9141 0-7.0625-3.1484-7.0625-7.0625 0-0.10547-0.003906-0.20703 0-0.3125z"/>
</svg>