<?xml version="1.0" encoding="UTF-8"?>
<svg style="isolation:isolate" viewBox="0 0 375 375" xmlns="http://www.w3.org/2000/svg">
<defs>
<clipPath id="a">
<rect width="375" height="375"/>
</clipPath>
</defs>
<g clip-path="url(#a)">
<path d="m187.5 144.64q96.444 0 113.5 222.01h-113.5-113.5q17.056-222.01 113.5-222.01z"/>
<path d="m130.02 65.832c0-31.725 25.757-57.482 57.482-57.482s57.482 25.757 57.482 57.482c0 31.726-25.757 57.483-57.482 57.483s-57.482-25.757-57.482-57.483z"/>
<path d="m187.5 144.64q96.444 0 113.5 222.01h-113.5-113.5q17.056-222.01 113.5-222.01z"/>
<path d="m197 269.14c25.557-4.5 45-26.834 45-53.673 0-30.08-24.421-54.5-54.5-54.5s-54.5 24.42-54.5 54.5c0 26.839 19.443 49.173 45 53.673v74.116c0 5.379 4.257 9.746 9.5 9.746s9.5-4.367 9.5-9.746v-74.116z" fill="#fff"/>
<path d="m147.03 215.46c0-22.336 18.134-40.47 40.47-40.47s40.47 18.134 40.47 40.47-18.134 40.47-40.47 40.47-40.47-18.134-40.47-40.47z"/>
</g>
</svg>
