<?xml version="1.0" encoding="UTF-8"?>
<svg style="isolation:isolate" viewBox="0 0 375 375" xmlns="http://www.w3.org/2000/svg">
<defs>
<clipPath id="a">
<rect width="375" height="375"/>
</clipPath>
</defs>
<g clip-path="url(#a)">
<path d="m67.051 142.24c1.075-2.854 2.248-5.661 3.516-8.415q-28.631-45.527-20.955-53.203l30.105-30.105q6.854-6.855 53.576 20.308c3.433-1.598 6.948-3.05 10.538-4.346q13.801-52.075 23.479-52.075h42.575q10.879 0 22.854 52.667c4.537 1.707 8.951 3.664 13.228 5.853q46.255-26.833 53.073-20.015c8.978 8.978 20.069 20.07 30.104 30.105q7.891 7.89-22.586 55.78c0.669 1.631 1.305 3.278 1.907 4.942q52.535 13.88 52.535 23.601v42.575q0 10.926-53.126 22.958c-1.161 3.077-2.437 6.098-3.823 9.058q29.511 46.655 21.732 54.433c-10.035 10.035-21.126 21.127-30.105 30.105q-7.006 7.007-55.663-21.526c-2.388 1.07-4.814 2.071-7.276 2.997q-11.975 52.667-22.854 52.667h-42.575q-9.678 0-23.479-52.075c-3.305-1.193-6.546-2.518-9.718-3.968q-47.482 27.7-54.396 20.785l-30.105-30.105q-7.706-7.706 21.183-53.565c-1.596-3.429-3.045-6.94-4.34-10.524q-52.078-13.802-52.078-23.481v-42.575q0-10.879 52.674-22.856zm52.913 45.264c0-37.264 30.254-67.518 67.518-67.518s67.518 30.254 67.518 67.518-30.254 67.518-67.518 67.518-67.518-30.254-67.518-67.518z" fill-rule="evenodd"/>
</g>
</svg>
