<?xml version="1.0" encoding="UTF-8"?>
<svg style="isolation:isolate" viewBox="0 0 375 375" xmlns="http://www.w3.org/2000/svg">
<defs>
<clipPath id="a">
<rect width="375" height="375"/>
</clipPath>
</defs>
<g clip-path="url(#a)">
<path d="m46.292 356.45v-13.909l150.31-149.02h163.26v13.931l-156.78 149h-156.8zm3.28-3.28v-9.262l148.39-147.11h158.62v9.24l-154.81 147.13h-152.2z" fill-rule="evenodd"/>
<path d="m46.292 344.86-0.036-2.285 150.35-149.06h163.26v2.337l-156.78 149h-156.8zm5.62-3.281 146.05-144.78h156.15l-152.34 144.78h-149.86z" fill-rule="evenodd"/>
<path d="m204.07 354.81c0 0.437-0.175 0.853-0.481 1.159s-0.722 0.481-1.159 0.481c-0.438 0-0.853-0.175-1.159-0.481-0.307-0.306-0.482-0.722-0.482-1.159v-11.591c0-0.427 0.175-0.853 0.482-1.159 0.306-0.307 0.721-0.482 1.159-0.482 0.437 0 0.853 0.175 1.159 0.482 0.306 0.306 0.481 0.732 0.481 1.159v11.591z"/>
<path d="m123.77 344.38c-0.317 0.306-0.732 0.47-1.17 0.47-0.426 0-0.842-0.175-1.148-0.481s-0.481-0.733-0.481-1.159c0-0.438 0.175-0.853 0.481-1.159l149.35-148.07c0.317-0.306 0.732-0.47 1.17-0.47 0.437 0 0.852 0.175 1.159 0.481 0.306 0.318 0.47 0.733 0.47 1.17 0 0.427-0.175 0.853-0.481 1.16l-149.35 148.06z"/>
<path d="m125.19 265.62h157.07c0.438 0 0.853 0.164 1.16 0.47 0.306 0.317 0.481 0.733 0.481 1.17 0 0.427-0.175 0.842-0.481 1.159-0.307 0.306-0.722 0.481-1.16 0.481h-157.07c-0.438 0-0.853-0.175-1.17-0.481-0.307-0.317-0.471-0.732-0.471-1.159 0-0.437 0.164-0.853 0.471-1.17 0.317-0.306 0.732-0.47 1.17-0.47z"/>
<path d="m57.573 97.722c0-11.919 4.737-23.37 13.173-31.794 8.424-8.436 19.875-13.173 31.794-13.173 11.92 0 23.371 4.737 31.794 13.173 8.436 8.424 13.174 19.875 13.174 31.794 0 11.92-4.738 23.371-13.174 31.794-8.423 8.436-19.874 13.174-31.794 13.174-11.919 0-23.37-4.738-31.794-13.174-8.436-8.423-13.173-19.874-13.173-31.794zm3.8 0c0-10.919 4.344-21.394 12.059-29.108 7.714-7.715 18.189-12.059 29.108-12.059s21.395 4.344 29.109 12.059c7.714 7.714 12.059 18.189 12.059 29.108s-4.345 21.394-12.059 29.109c-7.714 7.714-18.19 12.059-29.109 12.059s-21.394-4.345-29.108-12.059c-7.715-7.715-12.059-18.19-12.059-29.109z" fill-rule="evenodd"/>
<path d="m98.107 20.454c0-0.507 0.202-0.988 0.557-1.343 0.355-0.354 0.836-0.557 1.343-0.557 0.506 0 0.988 0.203 1.342 0.557 0.355 0.355 0.558 0.836 0.558 1.343v21.534c0 0.506-0.203 0.988-0.558 1.342-0.354 0.355-0.836 0.558-1.342 0.558-0.507 0-0.988-0.203-1.343-0.558-0.355-0.354-0.557-0.836-0.557-1.342v-21.534z"/>
<path d="m140.16 29.356c0.254-0.438 0.67-0.754 1.154-0.884 0.485-0.129 1.003-0.064 1.442 0.189s0.754 0.67 0.884 1.154c0.13 0.485 0.065 1.003-0.189 1.442l-10.767 18.648c-0.253 0.439-0.669 0.755-1.154 0.884-0.484 0.13-1.002 0.065-1.441-0.188-0.439-0.254-0.754-0.67-0.884-1.154-0.13-0.485-0.065-1.003 0.188-1.442l10.767-18.649z"/>
<path d="m181.08 95.822c0.507 0 0.988 0.203 1.343 0.557 0.355 0.355 0.557 0.836 0.557 1.343s-0.202 0.988-0.557 1.343c-0.355 0.354-0.836 0.557-1.343 0.557h-21.533c-0.507 0-0.988-0.203-1.343-0.557-0.355-0.355-0.558-0.836-0.558-1.343s0.203-0.988 0.558-1.343c0.355-0.354 0.836-0.557 1.343-0.557h21.533z"/>
<path d="m170.63 57.442c0.438-0.254 0.957-0.319 1.441-0.189 0.485 0.13 0.901 0.445 1.154 0.884s0.319 0.957 0.189 1.442c-0.13 0.484-0.446 0.9-0.884 1.154l-18.649 10.767c-0.439 0.253-0.957 0.318-1.442 0.188-0.484-0.13-0.9-0.445-1.154-0.884-0.253-0.439-0.318-0.957-0.188-1.441 0.13-0.485 0.445-0.901 0.884-1.154l18.649-10.767z"/>
<path d="m58.232 30.131c-0.253-0.439-0.669-0.755-1.154-0.884-0.484-0.13-1.002-0.065-1.441 0.188-0.439 0.254-0.754 0.67-0.884 1.154-0.13 0.485-0.065 1.003 0.188 1.442l10.767 18.649c0.254 0.438 0.67 0.754 1.154 0.884 0.485 0.129 1.003 0.064 1.442-0.189s0.754-0.67 0.884-1.154c0.13-0.485 0.065-1.003-0.189-1.442l-10.767-18.648z"/>
<path d="m27.768 58.216c-0.439-0.253-0.957-0.319-1.441-0.189-0.485 0.13-0.901 0.446-1.154 0.884-0.254 0.439-0.319 0.957-0.189 1.442 0.13 0.484 0.445 0.901 0.884 1.154l18.649 10.767c0.439 0.253 0.957 0.318 1.441 0.188 0.485-0.129 0.901-0.445 1.154-0.884 0.254-0.438 0.319-0.957 0.189-1.441-0.13-0.485-0.445-0.901-0.884-1.154l-18.649-10.767z"/>
<path d="m100.01 176.89c0 0.507-0.203 0.988-0.558 1.343-0.354 0.355-0.836 0.557-1.342 0.557-0.507 0-0.988-0.202-1.343-0.557s-0.557-0.836-0.557-1.343v-21.533c0-0.507 0.202-0.988 0.557-1.343s0.836-0.558 1.343-0.558c0.506 0 0.988 0.203 1.342 0.558 0.355 0.355 0.558 0.836 0.558 1.343v21.533z"/>
<path d="m57.952 167.99c-0.253 0.439-0.669 0.754-1.154 0.884-0.484 0.13-1.003 0.065-1.441-0.189-0.439-0.253-0.755-0.669-0.884-1.154-0.13-0.484-0.065-1.003 0.188-1.441l10.767-18.649c0.253-0.439 0.67-0.754 1.154-0.884 0.485-0.13 1.003-0.065 1.442 0.188 0.438 0.254 0.754 0.67 0.884 1.154 0.13 0.485 0.064 1.003-0.189 1.442l-10.767 18.649z"/>
<path d="m17.034 101.52c-0.507 0-0.988-0.203-1.343-0.557-0.354-0.355-0.557-0.836-0.557-1.343s0.203-0.988 0.557-1.343c0.355-0.354 0.836-0.557 1.343-0.557h21.534c0.507 0 0.988 0.203 1.343 0.557 0.354 0.355 0.557 0.836 0.557 1.343s-0.203 0.988-0.557 1.343c-0.355 0.354-0.836 0.557-1.343 0.557h-21.534z"/>
<path d="m27.488 139.9c-0.439 0.254-0.957 0.319-1.442 0.189-0.484-0.13-0.9-0.445-1.154-0.884-0.253-0.439-0.318-0.957-0.188-1.441 0.13-0.485 0.445-0.901 0.884-1.154l18.649-10.767c0.438-0.254 0.957-0.319 1.441-0.189 0.485 0.13 0.901 0.445 1.154 0.884s0.319 0.957 0.189 1.442c-0.13 0.484-0.446 0.9-0.884 1.154l-18.649 10.766z"/>
<path d="m143.71 167.99c0.253 0.439 0.67 0.754 1.154 0.884s1.003 0.065 1.441-0.189c0.439-0.253 0.755-0.669 0.885-1.154 0.129-0.484 0.064-1.003-0.189-1.441l-10.767-18.649c-0.253-0.439-0.669-0.754-1.154-0.884-0.484-0.13-1.003-0.065-1.441 0.188-0.439 0.254-0.755 0.67-0.885 1.154-0.129 0.485-0.064 1.003 0.189 1.442l10.767 18.649z"/>
<path d="m174.17 139.9c0.439 0.254 0.957 0.319 1.442 0.189 0.484-0.13 0.9-0.445 1.154-0.884 0.253-0.439 0.318-0.957 0.188-1.441-0.129-0.485-0.445-0.901-0.884-1.154l-18.648-10.767c-0.439-0.254-0.957-0.319-1.442-0.189-0.484 0.13-0.901 0.445-1.154 0.884s-0.318 0.957-0.189 1.442c0.13 0.484 0.446 0.9 0.885 1.154l18.648 10.766z"/>
</g>
</svg>
