<?xml version="1.0" encoding="UTF-8"?>
<svg style="isolation:isolate" viewBox="0 0 375 375" xmlns="http://www.w3.org/2000/svg">
<defs>
<clipPath id="a">
<rect width="375" height="375"/>
</clipPath>
</defs>
<g clip-path="url(#a)">
<path d="m91.331 11.659h192.34c1.41 0 2.767 0.522 3.771 1.437 0.994 0.925 1.56 2.175 1.56 3.475v341.86c0 1.3-0.566 2.55-1.56 3.475-1.004 0.915-2.361 1.437-3.771 1.437h-192.34c-1.41 0-2.767-0.522-3.771-1.437-0.994-0.925-1.56-2.175-1.56-3.475v-341.86c0-1.3 0.566-2.55 1.56-3.475 1.004-0.915 2.361-1.437 3.771-1.437zm0 2.953h192.34c0.566 0 1.1 0.207 1.506 0.581 0.395 0.364 0.62 0.866 0.62 1.378v341.86c0 0.512-0.225 1.014-0.62 1.378-0.406 0.374-0.94 0.581-1.506 0.581h-192.34c-0.566 0-1.1-0.207-1.506-0.581-0.395-0.364-0.62-0.866-0.62-1.378v-341.86c0-0.512 0.225-1.014 0.62-1.378 0.406-0.374 0.94-0.581 1.506-0.581z" fill-rule="evenodd"/>
<path d="m99.954 25.606h175.09c0.994 0 1.945 0.364 2.639 1.004 0.706 0.649 1.09 1.525 1.09 2.431v322.3c0 0.906-0.384 1.782-1.09 2.421-0.694 0.65-1.645 1.014-2.639 1.014h-175.09c-0.994 0-1.945-0.364-2.639-1.014-0.706-0.639-1.09-1.515-1.09-2.421v-322.3c0-0.906 0.384-1.782 1.09-2.431 0.694-0.64 1.645-1.004 2.639-1.004zm0 1.968h175.09c0.428 0 0.834 0.158 1.133 0.433 0.299 0.276 0.459 0.65 0.459 1.034v322.3c0 0.384-0.16 0.758-0.459 1.034-0.299 0.275-0.705 0.433-1.133 0.433h-175.09c-0.428 0-0.834-0.158-1.133-0.433-0.299-0.276-0.459-0.65-0.459-1.034v-322.3c0-0.384 0.16-0.758 0.459-1.034 0.299-0.275 0.705-0.433 1.133-0.433z" fill-rule="evenodd"/>
<path d="m178.95 19.491c0-1.612 1.356-2.92 3.027-2.92s3.027 1.308 3.027 2.92c0 1.613-1.356 2.921-3.027 2.921s-3.027-1.308-3.027-2.921z"/>
<path d="m189.99 19.491c0-1.612 1.356-2.92 3.027-2.92s3.027 1.308 3.027 2.92c0 1.613-1.356 2.921-3.027 2.921s-3.027-1.308-3.027-2.921z"/>
<path d="m132.16 113.24h110.69c6.71 0 13.163 2.671 17.907 7.415 4.744 4.743 7.415 11.197 7.415 17.906v110.69c0 6.709-2.671 13.163-7.415 17.906-4.744 4.744-11.197 7.415-17.907 7.415h-110.69c-6.71 0-13.163-2.671-17.907-7.415-4.744-4.743-7.415-11.197-7.415-17.906v-110.69c0-6.709 2.671-13.163 7.415-17.906 4.744-4.744 11.197-7.415 17.907-7.415zm0 3.205h110.69c5.866 0 11.496 2.329 15.642 6.475 4.145 4.145 6.475 9.776 6.475 15.641v110.69c0 5.865-2.33 11.496-6.475 15.641-4.146 4.146-9.776 6.475-15.642 6.475h-110.69c-5.866 0-11.496-2.329-15.642-6.475-4.145-4.145-6.475-9.776-6.475-15.641v-110.69c0-5.865 2.33-11.496 6.475-15.641 4.146-4.146 9.776-6.475 15.642-6.475z" fill-rule="evenodd"/>
<path d="m124.46 157.95h126.07v97.034h-126.07v-97.034zm3.205 3.206h119.66v90.623h-119.66v-90.623z" fill-rule="evenodd"/>
<rect x="136.75" y="100.42" width="18.163" height="14.424"/>
<rect x="220.09" y="100.42" width="18.163" height="14.424"/>
<rect x="195.51" y="205.13" width="32.053" height="32.053"/>
</g>
</svg>
