<?xml version="1.0" encoding="UTF-8"?>
<svg style="isolation:isolate" viewBox="0 0 375 375" xmlns="http://www.w3.org/2000/svg">
<defs>
<clipPath id="a">
<rect width="375" height="375"/>
</clipPath>
</defs>
<g clip-path="url(#a)">
<path d="m236.51 277.34 0.16-1.5 2.99 0.33-0.17 1.49c-0.61 5.54-1.25 11.08-1.91 16.62-0.53 4.45-1.09 8.9-1.67 13.35-0.7 5.36-1.44 10.71-2.23 16.05-0.57 3.79-1.18 7.57-1.83 11.35-0.69 3.96-1.45 7.9-2.29 11.82-0.49 2.27-1.06 4.53-1.7 6.77-0.25 0.84-0.51 1.68-0.79 2.52-0.2 0.62-0.43 1.24-0.67 1.84-0.36 0.92-0.79 1.81-1.27 2.67-0.29 0.52-0.65 1-1.08 1.42-0.31 0.3-0.65 0.57-1.02 0.8-0.4 0.24-0.81 0.46-1.24 0.65-1 0.43-2.04 0.79-3.1 1.06-1.3 0.35-2.61 0.64-3.93 0.87-1.55 0.27-3.1 0.51-4.66 0.7-3.64 0.43-7.29 0.74-10.95 0.92-4.05 0.21-8.1 0.31-12.15 0.31s-8.1-0.1-12.15-0.31c-3.66-0.18-7.31-0.49-10.95-0.92-1.56-0.19-3.11-0.43-4.66-0.7-1.32-0.23-2.63-0.52-3.93-0.87-1.06-0.27-2.1-0.63-3.1-1.06-0.43-0.19-0.84-0.41-1.24-0.65-0.37-0.23-0.71-0.5-1.02-0.8-0.17-0.16-0.32-0.34-0.46-0.52-0.16-0.21-0.32-0.42-0.46-0.65-0.38-0.6-0.71-1.22-0.98-1.88-0.46-1.09-0.87-2.2-1.23-3.33-0.45-1.43-0.86-2.88-1.21-4.35-0.56-2.33-1.08-4.67-1.54-7.02-0.36-1.85-0.7-3.69-1.02-5.55-0.41-2.4-0.8-4.81-1.17-7.22-0.27-1.76-0.53-3.53-0.78-5.29-0.29-2.06-0.58-4.13-0.85-6.19-0.77-5.85-1.49-11.7-2.14-17.56-0.93-8.28-1.8-16.57-2.6-24.86l-0.15-1.5 2.99-0.29 0.14 1.49c0.81 8.28 1.67 16.56 2.6 24.82 0.65 5.84 1.36 11.68 2.14 17.5 0.27 2.06 0.55 4.12 0.84 6.17 0.25 1.75 0.51 3.5 0.77 5.25 0.37 2.4 0.76 4.79 1.17 7.18 0.31 1.82 0.65 3.65 1 5.47 0.46 2.31 0.96 4.61 1.51 6.9 0.34 1.4 0.73 2.78 1.16 4.15 0.33 1.04 0.71 2.06 1.13 3.07 0.21 0.5 0.46 0.98 0.75 1.43 0.09 0.15 0.19 0.29 0.3 0.42 0.06 0.08 0.12 0.15 0.19 0.22 0.15 0.15 0.32 0.27 0.5 0.38 0.27 0.17 0.56 0.33 0.86 0.46 0.86 0.37 1.75 0.68 2.66 0.91 1.22 0.33 2.45 0.6 3.69 0.81 1.49 0.27 2.99 0.49 4.5 0.68 3.57 0.43 7.15 0.73 10.74 0.9 4 0.21 8 0.31 12 0.3 4 0.01 8-0.09 12-0.3 3.59-0.17 7.17-0.47 10.74-0.9 1.51-0.19 3.01-0.41 4.5-0.68 1.24-0.21 2.47-0.48 3.69-0.81 0.91-0.23 1.8-0.54 2.66-0.91 0.3-0.13 0.59-0.29 0.86-0.46 0.18-0.11 0.35-0.23 0.5-0.38 0.22-0.22 0.41-0.48 0.57-0.75 0.41-0.74 0.78-1.51 1.09-2.3 0.22-0.56 0.43-1.12 0.62-1.69 0.26-0.8 0.51-1.6 0.74-2.4 0.63-2.17 1.18-4.36 1.65-6.57 0.84-3.88 1.59-7.79 2.27-11.7 0.65-3.75 1.26-7.51 1.82-11.28 0.79-5.33 1.53-10.66 2.23-16 0.58-4.44 1.13-8.88 1.66-13.32 0.66-5.53 1.3-11.05 1.91-16.58z"/>
<path d="m123.36 278.73-1.23 0.86-1.72-2.46 1.23-0.86 15.39-10.77h101.97l15.6 11.7-1.8 2.4-14.8-11.1h-100.03l-14.61 10.23z"/>
<path d="m300 254.5h1.5v3h-1.5-225-1.5v-3h1.5 225z"/>
<path d="m76.5 367v1.5h-3v-1.5-288.88l114-63.84 114 63.84v288.88 1.5h-3v-1.5-287.12l-111-62.16-111 62.16v287.12z"/>
<path d="m186 17.491v-1.491h3v1.491 238.52 1.491h-3v-1.491-238.52z"/>
<path d="m188.9 199.57-52.4 57.29v-57.29h52.4zm-6.8 3-42.6 46.57v-46.57h42.6z" fill-rule="evenodd"/>
<path d="m157.61 314.1c-0.062-1.68-0.119-3.358-0.174-5.039-0.041-1.3-0.078-2.599-0.112-3.899-0.048-1.886-0.084-3.77-0.105-5.656-0.013-1.078-0.013-2.156 2e-3 -3.236 5e-3 -0.329 0.01-0.66 0.017-0.989 7e-3 -0.257 0.016-0.511 0.025-0.765 0.014-0.37 0.036-0.739 0.061-1.107 0.016-0.215 0.037-0.431 0.064-0.644 0.021-0.165 0.048-0.329 0.082-0.493 0.017-0.085 0.042-0.171 0.076-0.252 0.018-0.049 0.041-0.095 0.068-0.137 0.026-0.041 0.06-0.079 0.098-0.109 0.064-0.05 0.14-0.08 0.22-0.084 0.075-3e-3 0.151 4e-3 0.224 0.024 0.048 0.012 0.095 0.026 0.141 0.046 0.062 0.025 0.123 0.053 0.183 0.083 0.041 0.02 0.082 0.043 0.123 0.066 0.05 0.027 0.1 0.057 0.149 0.086 0.136 0.081 0.269 0.169 0.397 0.259 0.205 0.143 0.406 0.289 0.605 0.44 0.231 0.176 0.461 0.356 0.687 0.541 0.327 0.265 0.651 0.533 0.971 0.804 0.242 0.206 0.484 0.413 0.722 0.621 0.296 0.256 0.591 0.514 0.883 0.774 0.818 0.724 1.629 1.458 2.432 2.199 1.231 1.136 2.457 2.28 3.674 3.433l0.192 0.183-0.367 0.388-0.194-0.183c-1.215-1.151-2.437-2.293-3.666-3.428-0.801-0.74-1.61-1.47-2.425-2.194-0.292-0.258-0.584-0.514-0.879-0.77-0.237-0.207-0.477-0.411-0.717-0.616-0.317-0.268-0.639-0.535-0.963-0.797-0.222-0.181-0.446-0.357-0.674-0.53-0.192-0.146-0.388-0.288-0.585-0.427-0.121-0.084-0.244-0.164-0.368-0.24-0.045-0.027-0.089-0.054-0.134-0.078-0.034-0.018-0.069-0.038-0.103-0.056-0.048-0.023-0.094-0.044-0.142-0.064-0.022-9e-3 -0.041-0.016-0.063-0.021-0.017 0.048-0.032 0.098-0.042 0.148-0.032 0.149-0.057 0.3-0.075 0.452-0.027 0.204-0.046 0.409-0.061 0.613-0.026 0.363-0.046 0.726-0.06 1.091-0.011 0.251-0.018 0.503-0.025 0.756-7e-3 0.327-0.014 0.657-0.018 0.984-0.014 1.074-0.014 2.149-2e-3 3.224 0.022 1.882 0.057 3.764 0.105 5.646 0.034 1.299 0.072 2.598 0.113 3.897 0.052 1.667 0.11 3.333 0.172 4.999l1.845-1.982 0.181-0.196 0.392 0.363-0.182 0.196-2.506 2.693-2.681-2.686-0.189-0.189 0.377-0.377 0.189 0.189 2.042 2.046z"/>
<path d="m217.39 314.1c0.062-1.68 0.119-3.358 0.174-5.039 0.041-1.3 0.078-2.599 0.112-3.899 0.048-1.886 0.084-3.77 0.105-5.656 0.013-1.078 0.013-2.156-2e-3 -3.236-5e-3 -0.329-0.01-0.66-0.017-0.989-7e-3 -0.257-0.016-0.511-0.025-0.765-0.014-0.37-0.036-0.739-0.061-1.107-0.016-0.215-0.037-0.431-0.064-0.644-0.021-0.165-0.048-0.329-0.082-0.493-0.017-0.085-0.042-0.171-0.076-0.252-0.018-0.049-0.041-0.095-0.068-0.137-0.026-0.041-0.06-0.079-0.098-0.109-0.064-0.05-0.14-0.08-0.22-0.084-0.075-3e-3 -0.151 4e-3 -0.224 0.024-0.048 0.012-0.095 0.026-0.141 0.046-0.062 0.025-0.123 0.053-0.183 0.083-0.041 0.02-0.082 0.043-0.123 0.066-0.05 0.027-0.1 0.057-0.149 0.086-0.136 0.081-0.269 0.169-0.397 0.259-0.205 0.143-0.406 0.289-0.605 0.44-0.231 0.176-0.461 0.356-0.687 0.541-0.327 0.265-0.651 0.533-0.971 0.804-0.242 0.206-0.484 0.413-0.722 0.621-0.296 0.256-0.591 0.514-0.883 0.774-0.818 0.724-1.629 1.458-2.432 2.199-1.231 1.136-2.457 2.28-3.674 3.433l-0.192 0.183 0.367 0.388 0.194-0.183c1.215-1.151 2.437-2.293 3.666-3.428 0.801-0.74 1.61-1.47 2.425-2.194 0.292-0.258 0.584-0.514 0.879-0.77 0.237-0.207 0.477-0.411 0.717-0.616 0.317-0.268 0.639-0.535 0.963-0.797 0.222-0.181 0.446-0.357 0.674-0.53 0.192-0.146 0.388-0.288 0.585-0.427 0.121-0.084 0.244-0.164 0.368-0.24 0.045-0.027 0.089-0.054 0.134-0.078 0.034-0.018 0.069-0.038 0.103-0.056 0.048-0.023 0.094-0.044 0.142-0.064 0.022-9e-3 0.041-0.016 0.063-0.021 0.017 0.048 0.032 0.098 0.042 0.148 0.032 0.149 0.057 0.3 0.075 0.452 0.027 0.204 0.046 0.409 0.061 0.613 0.026 0.363 0.046 0.726 0.06 1.091 0.011 0.251 0.018 0.503 0.025 0.756 7e-3 0.327 0.014 0.657 0.018 0.984 0.014 1.074 0.014 2.149 2e-3 3.224-0.022 1.882-0.057 3.764-0.105 5.646-0.034 1.299-0.072 2.598-0.113 3.897-0.052 1.667-0.11 3.333-0.172 4.999l-1.845-1.982-0.181-0.196-0.392 0.363 0.182 0.196 2.506 2.693 2.681-2.686 0.189-0.189-0.377-0.377-0.189 0.189-2.042 2.046z"/>
<path d="m205.97 331.89c1.188 1.124 2.384 2.24 3.585 3.349 0.803 0.741 1.614 1.475 2.432 2.199 0.292 0.26 0.587 0.518 0.883 0.774 0.238 0.208 0.48 0.415 0.722 0.621 0.32 0.271 0.644 0.539 0.971 0.804 0.226 0.185 0.456 0.365 0.687 0.541 0.199 0.151 0.4 0.297 0.605 0.44 0.128 0.09 0.261 0.178 0.397 0.259 0.049 0.029 0.099 0.059 0.149 0.086 0.041 0.023 0.082 0.046 0.123 0.066 0.06 0.03 0.121 0.058 0.183 0.083 0.046 0.02 0.093 0.034 0.141 0.046 0.073 0.02 0.149 0.027 0.224 0.024 0.08-4e-3 0.156-0.034 0.22-0.084 0.038-0.03 0.072-0.068 0.098-0.109 0.027-0.042 0.05-0.088 0.068-0.137 0.034-0.081 0.059-0.167 0.076-0.252 0.034-0.164 0.061-0.328 0.082-0.493 0.027-0.213 0.048-0.429 0.064-0.644 0.025-0.368 0.047-0.737 0.061-1.107 9e-3 -0.254 0.018-0.508 0.025-0.765 7e-3 -0.329 0.012-0.66 0.017-0.989 0.015-1.08 0.015-2.158 2e-3 -3.236-0.021-1.886-0.057-3.77-0.105-5.656-0.034-1.3-0.071-2.599-0.112-3.899-0.055-1.685-0.112-3.368-0.174-5.053l-0.011-0.267-0.534 0.02 0.011 0.267c0.062 1.683 0.121 3.366 0.174 5.05 0.041 1.299 0.079 2.598 0.113 3.897 0.048 1.882 0.083 3.764 0.105 5.646 0.012 1.075 0.012 2.15-2e-3 3.224-4e-3 0.327-0.011 0.657-0.018 0.984-7e-3 0.253-0.014 0.505-0.025 0.756-0.014 0.365-0.034 0.728-0.06 1.091-0.015 0.204-0.034 0.409-0.061 0.613-0.018 0.152-0.043 0.303-0.075 0.452-0.01 0.05-0.025 0.1-0.042 0.148-0.022-5e-3 -0.041-0.012-0.063-0.021-0.048-0.02-0.094-0.041-0.142-0.064-0.034-0.018-0.069-0.038-0.103-0.056-0.045-0.024-0.089-0.051-0.134-0.078-0.124-0.076-0.247-0.156-0.368-0.24-0.197-0.139-0.393-0.281-0.585-0.427-0.228-0.173-0.452-0.349-0.674-0.53-0.324-0.262-0.646-0.529-0.963-0.797-0.24-0.205-0.48-0.409-0.717-0.616-0.295-0.256-0.587-0.512-0.879-0.77-0.815-0.724-1.624-1.454-2.425-2.194-1.167-1.078-2.328-2.162-3.482-3.254l2.753-0.118 0.266-0.011-0.023-0.533-0.267 0.012-3.791 0.162 0.293 3.668 0.022 0.266 0.532-0.043-0.022-0.266-0.227-2.839z"/>
<path d="m169.3 331.89c-1.188 1.124-2.384 2.24-3.585 3.349-0.803 0.741-1.614 1.475-2.432 2.199-0.292 0.26-0.587 0.518-0.883 0.774-0.238 0.208-0.48 0.415-0.722 0.621-0.32 0.271-0.644 0.539-0.971 0.804-0.226 0.185-0.456 0.365-0.687 0.541-0.199 0.151-0.4 0.297-0.605 0.44-0.128 0.09-0.262 0.178-0.397 0.259-0.05 0.029-0.099 0.059-0.149 0.086-0.041 0.023-0.082 0.046-0.123 0.066-0.06 0.03-0.121 0.058-0.183 0.083-0.046 0.02-0.093 0.034-0.141 0.046-0.073 0.02-0.149 0.027-0.224 0.024-0.08-4e-3 -0.156-0.034-0.221-0.084-0.037-0.03-0.071-0.068-0.097-0.109-0.027-0.042-0.05-0.088-0.068-0.137-0.034-0.081-0.059-0.167-0.076-0.252-0.034-0.164-0.061-0.328-0.082-0.493-0.027-0.213-0.048-0.429-0.064-0.644-0.025-0.368-0.047-0.737-0.061-1.107-9e-3 -0.254-0.018-0.508-0.025-0.765-7e-3 -0.329-0.012-0.66-0.018-0.989-0.014-1.08-0.014-2.158-1e-3 -3.236 0.021-1.886 0.057-3.77 0.105-5.656 0.033-1.3 0.071-2.599 0.112-3.899 0.055-1.685 0.112-3.368 0.174-5.053l0.011-0.267 0.533 0.02-0.01 0.267c-0.062 1.683-0.121 3.366-0.175 5.05-0.04 1.299-0.078 2.598-0.112 3.897-0.048 1.882-0.083 3.764-0.105 5.646-0.012 1.075-0.012 2.15 2e-3 3.224 4e-3 0.327 0.011 0.657 0.018 0.984 7e-3 0.253 0.014 0.505 0.025 0.756 0.014 0.365 0.034 0.728 0.06 1.091 0.015 0.204 0.034 0.409 0.061 0.613 0.018 0.152 0.043 0.303 0.075 0.452 0.01 0.05 0.024 0.1 0.042 0.148 0.022-5e-3 0.041-0.012 0.063-0.021 0.048-0.02 0.094-0.041 0.142-0.064 0.034-0.018 0.069-0.038 0.103-0.056 0.045-0.024 0.089-0.051 0.133-0.078 0.125-0.076 0.248-0.156 0.369-0.24 0.197-0.139 0.393-0.281 0.585-0.427 0.228-0.173 0.452-0.349 0.674-0.53 0.324-0.262 0.646-0.529 0.963-0.797 0.24-0.205 0.48-0.409 0.717-0.616 0.295-0.256 0.587-0.512 0.879-0.77 0.814-0.724 1.624-1.454 2.425-2.194 1.167-1.078 2.328-2.162 3.482-3.254l-2.753-0.118-0.266-0.011 0.023-0.533 0.266 0.012 3.792 0.162-0.293 3.668-0.022 0.266-0.532-0.043 0.022-0.266 0.227-2.839z"/>
<path d="m201.01 305.56-28.337 23.379-0.204 0.169-0.34-0.411 0.205-0.171 28.414-23.441-2.94-0.126-0.266-0.012 0.023-0.533 0.266 0.012 3.792 0.163-0.293 3.668-0.022 0.266-0.532-0.044 0.022-0.266 0.212-2.653z"/>
<path d="m173.81 305.39 28.336 23.379 0.205 0.169 0.34-0.411-0.205-0.171-28.415-23.441 2.941-0.126 0.266-0.012-0.023-0.532-0.267 0.011-3.791 0.163 0.293 3.668 0.022 0.266 0.532-0.044-0.022-0.266-0.212-2.653z"/>
</g>
</svg>
