<?xml version="1.0" encoding="UTF-8"?>
<!DOCTYPE svg  PUBLIC '-//W3C//DTD SVG 1.1//EN'  'http://www.w3.org/Graphics/SVG/1.1/DTD/svg11.dtd'>
<svg enable-background="new 0 0 883 883" version="1.1" viewBox="0 0 883 883" xml:space="preserve" xmlns="http://www.w3.org/2000/svg">
	<path d="M20,0C8.954,0,0,8.954,0,20v294.205c0,11.046,8.954,20,20,20h35c11.046,0,20-8.954,20-20V95c0-11.046,8.954-20,20-20   h219.206c11.046,0,20-8.954,20-20V20c0-11.046-8.954-20-20-20H20z"/>
	<path d="m883 192.1v-172.1c0-11.046-8.954-20-20-20h-294.2c-11.046 0-20 8.954-20 20v35c0 11.046 8.954 20 20 20h219.2c11.046 0 20 8.954 20 20v219.21c0 11.046 8.954 20 20 20h35c11.046 0 20-8.954 20-20v-122.1z"/>
	<path d="m20 883h294.2c11.046 0 20-8.953 20-20v-35c0-11.047-8.954-20-20-20h-219.2c-11.046 0-20-8.953-20-20v-219.2c0-11.047-8.954-20-20-20h-35c-11.046 0-20 8.953-20 20v294.2c0 11.047 8.954 20 20 20z"/>
	<path d="m568.79 883h294.21c11.046 0 20-8.953 20-20v-294.2c0-11.047-8.954-20-20-20h-35c-11.046 0-20 8.953-20 20v219.2c0 11.047-8.954 20-20 20h-219.21c-11.046 0-20 8.953-20 20v35c0 11.047 8.954 20 20 20z"/>
	<path d="m664.56 757.57c11.046 0 20-8.955 20-20v-62.955c0-34.557-10.621-68.605-29.988-97.199-21.743-32.102-52.152-48.205-85.088-65.865-21.21-11.373-40.93-27.947-50.469-49.57 60.982-29.013 103.14-91.189 103.14-163.22-1e-3 -99.774-80.884-180.66-180.66-180.66s-180.66 80.881-180.66 180.66c0 72.027 42.157 134.2 103.14 163.22-9.539 21.623-29.259 38.197-50.469 49.57-32.937 17.66-63.346 33.764-85.088 65.865-19.367 28.594-29.988 62.645-29.988 97.199v62.955c0 11.045 8.954 20 20 20h446.12v1e-3z"/>
</svg>