<?xml version="1.0" encoding="UTF-8"?>
<svg style="isolation:isolate" viewBox="0 0 375 375" xmlns="http://www.w3.org/2000/svg">
<defs>
<clipPath id="a">
<rect width="375" height="375"/>
</clipPath>
</defs>
<g clip-path="url(#a)">
<path d="m188.61 360.68zc-7.92 0.01-15.76-1.58-23.05-4.66-7.04-2.98-13.43-7.3-18.84-12.7-5.4-5.4-9.71-11.8-12.7-18.83-3.08-7.3-4.66-15.14-4.66-23.06s1.58-15.76 4.66-23.05c2.99-7.04 7.3-13.43 12.7-18.83 5.41-5.41 11.8-9.72 18.84-12.7 7.29-3.09 15.13-4.67 23.05-4.66 7.92-0.01 15.76 1.57 23.05 4.66 7.04 2.98 13.43 7.29 18.84 12.7 5.4 5.4 9.72 11.79 12.7 18.83 3.08 7.29 4.66 15.13 4.66 23.05s-1.58 15.76-4.66 23.06c-2.98 7.03-7.3 13.43-12.7 18.83-5.41 5.4-11.8 9.72-18.84 12.7-7.29 3.08-15.13 4.67-23.05 4.66zm0-3c-7.52 0.01-14.96-1.5-21.88-4.42-6.68-2.83-12.76-6.93-17.88-12.06-5.14-5.13-9.23-11.2-12.06-17.88-2.93-6.93-4.43-14.37-4.43-21.89 0-7.51 1.5-14.96 4.43-21.88 2.83-6.68 6.92-12.75 12.06-17.88 5.12-5.13 11.2-9.23 17.88-12.06 6.92-2.93 14.36-4.43 21.88-4.42 7.52-0.01 14.96 1.49 21.88 4.42 6.69 2.83 12.76 6.93 17.88 12.06 5.14 5.13 9.23 11.2 12.06 17.88 2.93 6.92 4.43 14.37 4.43 21.88 0 7.52-1.5 14.96-4.43 21.89-2.83 6.68-6.92 12.75-12.06 17.88-5.12 5.13-11.19 9.23-17.88 12.06-6.92 2.92-14.36 4.43-21.88 4.42z" fill-rule="evenodd"/>
<path d="m97.94 247.15-0.01 1.5-3-0.01 0.01-1.5c0.01-4.63 0.78-9.22 2.27-13.6 1.53-4.44 3.65-8.65 6.32-12.52 2.79-4.07 6.02-7.82 9.62-11.19 3.8-3.57 7.9-6.81 12.26-9.67 4.53-2.99 9.28-5.64 14.21-7.93 5.03-2.34 10.22-4.33 15.53-5.95 5.31-1.64 10.72-2.89 16.21-3.76 5.37-0.86 10.8-1.3 16.24-1.31h0.02l2.12 0.02h0.02c5.32 0.14 10.62 0.73 15.84 1.75 5.36 1.04 10.64 2.47 15.79 4.27 5.19 1.81 10.24 3.96 15.14 6.45 4.8 2.43 9.43 5.2 13.84 8.29 4.23 2.94 8.22 6.21 11.93 9.79 3.49 3.34 6.63 7.03 9.38 10.99 1.29 1.88 2.47 3.84 3.53 5.86 1.01 1.95 1.89 3.96 2.63 6.03 1.44 4 2.19 8.22 2.22 12.47l0.01 1.5-3 0.02-0.01-1.5c-0.03-3.91-0.72-7.79-2.05-11.48-0.68-1.94-1.51-3.83-2.46-5.65-1-1.92-2.12-3.76-3.34-5.54-2.64-3.8-5.65-7.33-8.99-10.54-3.59-3.47-7.46-6.64-11.56-9.49-4.3-3.01-8.81-5.7-13.49-8.08-4.78-2.42-9.71-4.53-14.77-6.29-5.02-1.75-10.16-3.14-15.38-4.16-5.05-0.99-10.18-1.55-15.33-1.69l-2.1-0.02c-5.28 0.01-10.55 0.44-15.76 1.27-5.35 0.85-10.62 2.07-15.8 3.66-5.17 1.59-10.24 3.53-15.14 5.82-4.8 2.22-9.42 4.8-13.83 7.71-4.22 2.76-8.18 5.89-11.85 9.34-3.45 3.23-6.54 6.82-9.21 10.71-2.51 3.64-4.51 7.61-5.95 11.79-1.39 4.07-2.1 8.34-2.11 12.64z"/>
<path d="m55.74 197.35-0.01 1.5-3-0.01 0.01-1.5c0.02-6.69 1.13-13.34 3.28-19.67 1.08-3.19 2.39-6.29 3.91-9.29 1.56-3.06 3.31-6.03 5.25-8.86 1.99-2.92 4.15-5.72 6.46-8.4 2.37-2.75 4.89-5.38 7.53-7.88 5.53-5.2 11.5-9.91 17.84-14.07 6.61-4.36 13.54-8.22 20.72-11.55 7.33-3.42 14.9-6.32 22.64-8.69 7.73-2.37 15.62-4.2 23.62-5.47 7.82-1.25 15.73-1.89 23.65-1.91h0.02l3.11 0.04h0.02c7.74 0.2 15.46 1.05 23.06 2.54 7.81 1.52 15.51 3.6 23.02 6.22 7.56 2.63 14.93 5.77 22.06 9.4 7 3.55 13.74 7.59 20.18 12.08 6.16 4.28 11.97 9.05 17.38 14.27 2.56 2.48 5.01 5.09 7.34 7.8 2.24 2.61 4.34 5.34 6.29 8.18 1.88 2.72 3.58 5.56 5.11 8.49 1.48 2.82 2.75 5.75 3.82 8.75 1.03 2.91 1.83 5.9 2.39 8.95 0.54 2.99 0.82 6.03 0.82 9.07v1.5l-3 0.01v-1.5c0-2.87-0.26-5.73-0.78-8.55-0.52-2.88-1.28-5.72-2.26-8.48-1.02-2.87-2.23-5.66-3.65-8.36-1.47-2.83-3.11-5.56-4.92-8.18-1.89-2.75-3.93-5.39-6.1-7.93-2.26-2.64-4.65-5.18-7.15-7.6-5.29-5.1-10.97-9.77-17-13.96-6.33-4.41-12.95-8.38-19.83-11.86-7.01-3.57-14.26-6.66-21.69-9.24-7.38-2.58-14.93-4.63-22.61-6.12-7.43-1.45-14.97-2.29-22.55-2.48l-3.08-0.04c-7.77 0.02-15.52 0.64-23.18 1.87-7.86 1.25-15.61 3.04-23.21 5.38-7.61 2.33-15.05 5.18-22.26 8.54-7.05 3.27-13.84 7.06-20.33 11.33-6.19 4.07-12.03 8.67-17.43 13.75-2.57 2.43-5.01 4.99-7.32 7.67-2.24 2.58-4.33 5.29-6.25 8.12-1.87 2.73-3.55 5.58-5.05 8.53-1.46 2.87-2.71 5.84-3.75 8.89-2.05 6.03-3.1 12.35-3.12 18.72z"/>
<path d="m19.5 142.76v1.5l-3-0.01v-1.5c0.03-8.47 1.43-16.87 4.16-24.89 1.36-4.03 3.02-7.97 4.95-11.76 1.97-3.88 4.19-7.63 6.64-11.23 2.53-3.7 5.26-7.25 8.19-10.64 3.01-3.49 6.2-6.82 9.56-9.99 3.45-3.26 7.04-6.37 10.78-9.3 3.83-3.02 7.78-5.87 11.85-8.56 8.39-5.53 17.18-10.43 26.29-14.66 9.32-4.33 18.93-8.02 28.75-11.03 9.82-3.02 19.84-5.34 29.99-6.95 9.93-1.59 19.97-2.4 30.02-2.42 1.33 0 2.66 0.02 3.99 0.05 9.83 0.25 19.62 1.33 29.27 3.22 9.91 1.93 19.68 4.57 29.22 7.9 9.6 3.34 18.95 7.33 28.01 11.94 8.89 4.5 17.45 9.63 25.62 15.33 7.82 5.44 15.19 11.49 22.05 18.1 3.26 3.16 6.37 6.46 9.31 9.9 2.84 3.32 5.51 6.78 7.98 10.37 2.37 3.45 4.54 7.04 6.48 10.76 1.87 3.57 3.48 7.27 4.83 11.07 1.31 3.69 2.31 7.47 3.02 11.32 0.69 3.79 1.03 7.63 1.04 11.47v1.5l-3 0.01v-1.5c-0.01-3.67-0.34-7.33-0.99-10.94-0.68-3.69-1.65-7.32-2.9-10.85-1.3-3.67-2.86-7.24-4.66-10.69-1.88-3.61-3.99-7.1-6.29-10.45-2.42-3.51-5.01-6.88-7.78-10.11-2.89-3.38-5.94-6.61-9.12-9.7-6.75-6.5-14-12.45-21.68-17.8-8.06-5.62-16.5-10.67-25.27-15.12-8.94-4.54-18.17-8.48-27.64-11.77-9.4-3.29-19.03-5.9-28.81-7.8-9.48-1.85-19.1-2.91-28.76-3.16-1.31-0.03-2.61-0.05-3.91-0.05-9.9 0.02-19.79 0.82-29.56 2.38-10.01 1.59-19.89 3.88-29.58 6.86-9.69 2.97-19.17 6.6-28.36 10.88-8.98 4.17-17.64 8.99-25.91 14.44-4 2.65-7.88 5.45-11.65 8.41-3.66 2.88-7.19 5.93-10.57 9.13-3.28 3.1-6.4 6.36-9.35 9.77-2.86 3.31-5.52 6.77-7.98 10.37-2.38 3.49-4.53 7.13-6.45 10.9-1.86 3.67-3.46 7.47-4.78 11.36-2.63 7.71-3.98 15.8-4 23.94z"/>
</g>
</svg>
