<?xml version="1.0" encoding="UTF-8"?>
<svg style="isolation:isolate" viewBox="0 0 375 375" xmlns="http://www.w3.org/2000/svg">
<defs>
<clipPath id="a">
<rect width="375" height="375"/>
</clipPath>
</defs>
<g clip-path="url(#a)">
<path d="m177.88 316.38c-5.45 3.3-10.93 6.53-16.45 9.7-6.3 3.63-12.66 7.13-19.09 10.52-6.17 3.26-12.43 6.34-18.77 9.26-5.87 2.71-11.84 5.17-17.91 7.39-2.8 1.01-5.63 1.95-8.48 2.8-2.66 0.8-5.36 1.5-8.07 2.1-2.51 0.56-5.05 1.01-7.61 1.33-2.35 0.3-4.71 0.45-7.08 0.46-2.47 0.02-4.93-0.2-7.35-0.64-2.25-0.41-4.43-1.09-6.51-2.04-2-0.92-3.86-2.13-5.51-3.59-1.69-1.51-3.14-3.27-4.31-5.22-1.51-2.5-2.88-5.07-4.11-7.72-1.12-2.4-2.08-4.87-2.88-7.4-0.74-2.31-1.3-4.67-1.7-7.06-0.36-2.22-0.55-4.47-0.55-6.72-0.01-3.26 0.42-6.52 1.28-9.67 0.83-3.04 2.07-5.95 3.68-8.67 1.63-2.74 3.58-5.28 5.81-7.56 2.33-2.39 4.9-4.54 7.67-6.41 2.94-2 6.05-3.76 9.28-5.25 3.45-1.59 7.01-2.95 10.65-4.05 3.88-1.18 7.82-2.13 11.81-2.85 4.21-0.75 8.46-1.29 12.73-1.59 0.78-0.06 1.55-0.09 2.33-0.09 2.38 0.02 4.75 0.24 7.09 0.68 2.52 0.47 5 1.1 7.44 1.9 2.62 0.86 5.2 1.85 7.72 2.97 2.68 1.18 5.32 2.48 7.91 3.87 5.51 2.99 10.85 6.29 16 9.88 5.35 3.71 10.55 7.62 15.6 11.74 3.29 2.67 6.53 5.42 9.72 8.22 0.17-0.1 0.34-0.21 0.52-0.32 3.81-2.32 7.62-4.66 11.41-7.02-0.95-0.57-1.9-1.15-2.84-1.73-4.89-3.01-9.67-6.19-14.34-9.53-4.61-3.3-9.09-6.78-13.43-10.43-4.24-3.56-8.32-7.32-12.22-11.27-3.78-3.82-7.35-7.85-10.7-12.07-3.24-4.08-6.2-8.37-8.88-12.84-2.6-4.33-4.85-8.87-6.74-13.55-1.86-4.61-3.29-9.37-4.28-14.24-1-4.88-1.5-9.85-1.5-14.84 0-3.96 0.32-7.91 0.94-11.82 0.67-4.11 1.65-8.15 2.94-12.1 1.39-4.23 3.08-8.36 5.06-12.34 2.15-4.34 4.59-8.53 7.3-12.55 2.98-4.43 6.21-8.68 9.68-12.74 3.85-4.5 7.91-8.8 12.19-12.9 4.75-4.55 9.7-8.91 14.83-13.04 5.1-4.12 10.33-8.06 15.69-11.83-4.73-2.86-9.14-6.21-13.15-10.01s-7.49-8.13-10.36-12.86c-2.58-4.28-4.57-8.89-5.91-13.7-1.24-4.47-1.88-9.08-1.88-13.71-0.02-5.22 0.82-10.4 2.48-15.34 1.55-4.64 3.91-8.97 6.98-12.77 2.94-3.66 6.62-6.65 10.79-8.79 4.29-2.16 9.03-3.28 13.83-3.27 2.28-0.01 4.56 0.19 6.81 0.6 2.09 0.38 4.13 0.97 6.1 1.77 3.71 1.5 7.04 3.79 9.77 6.72 2.71 2.97 4.79 6.48 6.09 10.29 0.7 2.02 1.22 4.1 1.56 6.21 0.35 2.26 0.53 4.53 0.52 6.81-0.03 4.56-0.62 9.09-1.76 13.5-1.29 5.05-3.11 9.96-5.41 14.64-2.63 5.37-5.73 10.5-9.27 15.33-3.65 4.99-7.66 9.72-11.98 14.14 8.56 5.03 16.66 10.81 24.2 17.26 4.15 3.53 8.12 7.25 11.91 11.16 3.77 3.89 7.34 7.97 10.68 12.23 3.28 4.17 6.3 8.54 9.04 13.08 2.67 4.4 5 8.98 6.99 13.72 1.93 4.58 3.44 9.32 4.52 14.16 1.05 4.72 1.59 9.53 1.61 14.37 0.01 6.38-1.03 12.72-3.06 18.77-1.08 3.16-2.41 6.22-4 9.16-1.69 3.12-3.62 6.1-5.79 8.91-2.34 3.04-4.91 5.91-7.68 8.58-3.04 2.94-6.27 5.67-9.67 8.19-3.77 2.8-7.7 5.38-11.77 7.74-4.54 2.63-9.21 5.04-13.98 7.23l-1.37 0.62-1.24-2.73 1.36-0.62c4.69-2.15 9.27-4.51 13.73-7.1 3.96-2.3 7.8-4.82 11.49-7.55 3.29-2.44 6.42-5.09 9.37-7.94 2.66-2.57 5.13-5.32 7.39-8.25 2.06-2.68 3.91-5.53 5.52-8.5 1.51-2.79 2.78-5.7 3.8-8.7 1.93-5.74 2.91-11.75 2.9-17.81-0.02-4.61-0.53-9.21-1.54-13.72-1.04-4.67-2.5-9.23-4.35-13.64-1.94-4.61-4.21-9.06-6.79-13.34-2.69-4.43-5.64-8.7-8.84-12.78-3.28-4.18-6.77-8.18-10.47-11.99-3.73-3.84-7.63-7.5-11.71-10.97-7.65-6.55-15.89-12.38-24.61-17.44-5.69 3.97-11.25 8.14-16.66 12.5-5.06 4.08-9.94 8.38-14.64 12.88-4.2 4.03-8.2 8.26-11.98 12.68-3.39 3.97-6.56 8.13-9.47 12.46-2.63 3.91-5.01 7.99-7.11 12.21-1.91 3.86-3.55 7.85-4.89 11.94-1.24 3.8-2.18 7.7-2.82 11.65-0.61 3.75-0.91 7.54-0.91 11.34 0 4.79 0.48 9.56 1.43 14.25 0.96 4.68 2.35 9.27 4.13 13.7 1.83 4.55 4.02 8.94 6.54 13.14 2.6 4.36 5.5 8.54 8.65 12.51 3.28 4.14 6.78 8.08 10.49 11.83 3.83 3.88 7.84 7.58 12.01 11.09 4.28 3.6 8.7 7.03 13.25 10.28 4.61 3.3 9.33 6.44 14.16 9.42 1.37 0.84 2.75 1.68 4.14 2.5 1.26-0.79 2.53-1.59 3.79-2.38 5.61-3.53 11.21-7.08 16.8-10.64 4.18-2.66 8.36-5.32 12.56-7.96 3.64-2.3 7.31-4.58 10.99-6.82 3.01-1.84 6.06-3.62 9.15-5.34 1.25-0.69 2.51-1.36 3.79-2.01 1.06-0.54 2.14-1.05 3.24-1.52 2.45-1.03 5.01-1.78 7.62-2.25 2.72-0.49 5.47-0.72 8.24-0.71 3.67 0.01 7.33 0.37 10.94 1.05 3.76 0.71 7.46 1.71 11.07 2.98 7.35 2.56 14.31 6.14 20.66 10.63 3.06 2.16 5.94 4.55 8.62 7.17 2.54 2.46 4.83 5.16 6.83 8.07 1.89 2.72 3.41 5.67 4.53 8.78 1.07 2.98 1.63 6.11 1.65 9.27 0 2.33-0.33 4.65-0.97 6.88-0.7 2.39-1.72 4.67-3.04 6.78-1.48 2.36-3.24 4.55-5.24 6.5-2.32 2.28-4.86 4.33-7.58 6.13-1.09 0.72-2.25 1.31-3.47 1.77-1.37 0.52-2.77 0.92-4.2 1.21-1.6 0.33-3.23 0.57-4.86 0.71-1.82 0.16-3.66 0.23-5.49 0.23-3.62-0.02-7.23-0.24-10.82-0.67-4.12-0.48-8.22-1.13-12.29-1.96-4.52-0.91-9.02-1.97-13.47-3.18-4.83-1.32-9.62-2.78-14.36-4.37-10.29-3.47-20.37-7.5-30.21-12.09-8.35-3.86-16.5-8.12-24.44-12.75-4.15 2.58-8.32 5.15-12.5 7.7 0.78 0.7 1.56 1.41 2.34 2.13 4.23 3.88 8.36 7.87 12.38 11.97 3.29 3.35 6.48 6.8 9.55 10.36 1.19 1.38 2.34 2.78 3.46 4.21 0.87 1.11 1.7 2.25 2.47 3.42l0.83 1.25-2.5 1.65-0.83-1.25c-0.73-1.1-1.51-2.17-2.33-3.21-1.09-1.4-2.21-2.77-3.37-4.11-3.03-3.51-6.17-6.91-9.42-10.22-3.98-4.06-8.07-8.02-12.27-11.86-0.99-0.91-1.99-1.82-2.99-2.72zm18.06-11.12c7.43 4.28 15.04 8.23 22.82 11.83 9.74 4.54 19.73 8.53 29.91 11.96 4.68 1.58 9.42 3.02 14.19 4.32 4.39 1.2 8.82 2.25 13.28 3.14 3.98 0.81 8 1.45 12.04 1.92 3.48 0.41 6.98 0.63 10.48 0.65 1.75 0 3.49-0.07 5.22-0.22 1.52-0.13 3.03-0.35 4.52-0.66 1.27-0.26 2.52-0.62 3.74-1.08 1.01-0.38 1.98-0.87 2.88-1.46 2.55-1.7 4.94-3.63 7.14-5.78 1.82-1.78 3.43-3.78 4.79-5.94 1.17-1.88 2.08-3.9 2.7-6.02 0.56-1.97 0.85-4 0.85-6.04-0.02-2.82-0.52-5.61-1.47-8.26-1.03-2.87-2.44-5.59-4.17-8.09-1.9-2.75-4.06-5.31-6.46-7.63-2.57-2.51-5.33-4.8-8.26-6.86-6.13-4.34-12.83-7.79-19.92-10.26-3.47-1.22-7.02-2.18-10.64-2.86-3.43-0.65-6.91-0.99-10.4-1-2.58-0.01-5.15 0.21-7.69 0.66-2.4 0.43-4.73 1.12-6.97 2.06-1.04 0.45-2.06 0.93-3.07 1.44-1.24 0.63-2.47 1.28-3.69 1.96-3.04 1.69-6.06 3.45-9.03 5.27-3.68 2.24-7.33 4.5-10.96 6.8-4.19 2.64-8.37 5.29-12.55 7.95-5.59 3.56-11.2 7.11-16.81 10.64-0.82 0.52-1.65 1.04-2.47 1.56zm-20.42 9.04c-2.92-2.56-5.89-5.07-8.91-7.53-4.99-4.06-10.13-7.93-15.42-11.6-5.06-3.52-10.3-6.76-15.72-9.7-2.52-1.36-5.08-2.61-7.7-3.77-2.43-1.08-4.91-2.03-7.43-2.86-2.31-0.76-4.67-1.36-7.06-1.8-2.16-0.41-4.36-0.62-6.55-0.63-0.7 0-1.4 0.03-2.1 0.08-4.17 0.3-8.31 0.82-12.42 1.56-3.88 0.69-7.7 1.61-11.47 2.76-3.5 1.06-6.94 2.37-10.27 3.91-3.08 1.42-6.04 3.09-8.84 5-2.6 1.76-5.02 3.78-7.22 6.03-2.06 2.11-3.87 4.46-5.37 6.99-1.47 2.49-2.6 5.15-3.37 7.93-0.78 2.89-1.18 5.88-1.17 8.88 0 2.09 0.18 4.17 0.51 6.23 0.37 2.25 0.91 4.47 1.6 6.65 0.76 2.4 1.68 4.75 2.74 7.04 1.18 2.55 2.51 5.03 3.96 7.43 1.01 1.69 2.27 3.22 3.73 4.53 1.43 1.27 3.04 2.31 4.77 3.1 1.85 0.84 3.8 1.45 5.8 1.82 2.24 0.41 4.51 0.61 6.79 0.59 2.25-0.01 4.49-0.15 6.72-0.44 2.47-0.31 4.91-0.74 7.34-1.28 2.64-0.58 5.26-1.27 7.86-2.05 2.8-0.83 5.57-1.75 8.31-2.74 5.99-2.19 11.89-4.62 17.69-7.3 6.29-2.89 12.5-5.95 18.62-9.18 6.39-3.37 12.73-6.86 18.99-10.47 5.23-3 10.43-6.06 15.59-9.18zm10.86-210.78c4.43-4.48 8.52-9.28 12.24-14.37 3.44-4.68 6.45-9.66 9-14.87 2.21-4.5 3.95-9.21 5.2-14.07 1.07-4.17 1.63-8.45 1.66-12.76 0.01-2.12-0.16-4.23-0.49-6.33-0.3-1.94-0.78-3.85-1.43-5.7-1.16-3.42-3.02-6.57-5.46-9.24-2.42-2.6-5.39-4.64-8.69-5.97-1.77-0.72-3.62-1.25-5.51-1.6-2.07-0.37-4.17-0.56-6.27-0.55-4.33-0.01-8.6 1-12.47 2.94-3.8 1.95-7.14 4.67-9.81 8-2.85 3.53-5.04 7.54-6.47 11.84-1.56 4.64-2.35 9.49-2.33 14.38 0 4.36 0.6 8.71 1.77 12.91 1.26 4.56 3.15 8.91 5.59 12.96 2.73 4.5 6.04 8.61 9.86 12.24 4.13 3.91 8.69 7.33 13.61 10.19z" fill-rule="evenodd"/>
<path d="m342 364.5h1.5v3h-1.5-309-1.5v-3h1.5 309z"/>
</g>
</svg>
